<?xml version="1.0" encoding="utf-8"?>
<!-- Generator: Adobe Illustrator 25.4.1, SVG Export Plug-In . SVG Version: 6.00 Build 0)  -->
<svg version="1.1" id="Capa_1" xmlns="http://www.w3.org/2000/svg" xmlns:xlink="http://www.w3.org/1999/xlink" x="0px" y="0px"
	 viewBox="0 0 1242 2208" style="enable-background:new 0 0 1242 2208;" xml:space="preserve">
<style type="text/css">
	.st0{fill:#486F7F;}
</style>
<g>
	<path class="st0" d="M-618.5,1640h1.5l3.5,32.1c0.1,1.4,0.2,2.4,0.2,3.1c0,1.7-0.4,3-1.3,4s-1.9,1.5-3.1,1.5
		c-1.2,0-2.3-0.5-3.2-1.5s-1.3-2.5-1.3-4.5c0-0.6,0.1-1.5,0.2-2.6L-618.5,1640z M-617.7,1624.8c1.2,0,2.3,0.4,3.1,1.3
		c0.9,0.9,1.3,1.9,1.3,3.1s-0.4,2.2-1.3,3.1c-0.9,0.9-1.9,1.3-3.1,1.3s-2.2-0.4-3.1-1.3c-0.8-0.9-1.3-1.9-1.3-3.1s0.4-2.2,1.3-3.1
		C-620,1625.2-619,1624.8-617.7,1624.8z"/>
	<path class="st0" d="M-605.4,1609.6h14.6l32.8,40.3V1619c0-3.3-0.4-5.4-1.1-6.2c-1-1.1-2.5-1.7-4.6-1.7h-1.9v-1.5h18.7v1.5h-1.9
		c-2.3,0-3.9,0.7-4.9,2.1c-0.6,0.9-0.8,2.8-0.8,5.8v45.2h-1.4l-35.4-43.2v33c0,3.3,0.4,5.3,1.1,6.1c1,1.1,2.5,1.7,4.6,1.7h1.9v1.5
		h-18.7v-1.5h1.8c2.3,0,4-0.7,4.9-2.1c0.6-0.8,0.9-2.7,0.9-5.8v-37.3c-1.5-1.8-2.7-3-3.5-3.6s-2-1.1-3.6-1.6
		c-0.8-0.2-1.9-0.3-3.5-0.3L-605.4,1609.6L-605.4,1609.6z"/>
	<path class="st0" d="M-525.4,1626c5.5,0,9.9,2.1,13.2,6.2c2.8,3.6,4.2,7.7,4.2,12.3c0,3.2-0.8,6.5-2.3,9.8
		c-1.6,3.3-3.7,5.8-6.4,7.5s-5.8,2.6-9.1,2.6c-5.4,0-9.8-2.2-13-6.5c-2.7-3.7-4-7.8-4-12.3c0-3.3,0.8-6.7,2.5-9.9
		c1.6-3.3,3.8-5.7,6.5-7.3C-531.3,1626.8-528.5,1626-525.4,1626z M-526.7,1628.5c-1.4,0-2.8,0.4-4.2,1.3c-1.4,0.8-2.6,2.3-3.4,4.4
		c-0.9,2.1-1.3,4.8-1.3,8c0,5.3,1,9.8,3.1,13.6c2.1,3.8,4.9,5.7,8.3,5.7c2.6,0,4.7-1,6.3-3.1c1.7-2.1,2.5-5.7,2.5-10.9
		c0-6.5-1.4-11.5-4.1-15.2C-521.4,1629.8-523.7,1628.5-526.7,1628.5z"/>
	<path class="st0" d="M-485,1630.7l11.2-4.5h1.5v8.5c1.9-3.2,3.7-5.4,5.6-6.7c1.9-1.3,3.9-1.9,6-1.9c3.6,0,6.7,1.4,9.1,4.3
		c3,3.5,4.5,8,4.5,13.6c0,6.3-1.8,11.4-5.4,15.5c-3,3.4-6.7,5.1-11.2,5.1c-1.9,0-3.6-0.3-5.1-0.8c-1-0.4-2.2-1.2-3.5-2.4v11.1
		c0,2.5,0.2,4.1,0.5,4.7c0.3,0.7,0.8,1.2,1.6,1.6c0.7,0.4,2.1,0.6,4.1,0.6v1.5h-19v-1.5h1c1.5,0,2.7-0.2,3.7-0.8
		c0.5-0.3,0.9-0.8,1.2-1.4c0.3-0.6,0.4-2.3,0.4-4.9V1638c0-2.4-0.1-3.9-0.3-4.5c-0.2-0.6-0.5-1.1-1-1.4s-1.1-0.5-1.9-0.5
		c-0.6,0-1.4,0.2-2.4,0.6L-485,1630.7z M-472.3,1637v13.5c0,3,0.1,4.9,0.3,5.8c0.4,1.5,1.3,2.8,2.7,4s3.2,1.7,5.4,1.7
		c2.7,0,4.8-1,6.4-3.1c2.2-2.7,3.2-6.5,3.2-11.4c0-5.5-1.2-9.8-3.6-12.8c-1.7-2-3.7-3-6-3c-1.2,0-2.5,0.3-3.7,0.9
		C-468.6,1633.1-470.1,1634.6-472.3,1637z"/>
	<path class="st0" d="M-424.1,1626c5.5,0,9.9,2.1,13.2,6.2c2.8,3.6,4.2,7.7,4.2,12.3c0,3.2-0.8,6.5-2.3,9.8
		c-1.6,3.3-3.7,5.8-6.4,7.5s-5.8,2.6-9.1,2.6c-5.4,0-9.8-2.2-13-6.5c-2.7-3.7-4-7.8-4-12.3c0-3.3,0.8-6.7,2.5-9.9
		c1.6-3.3,3.8-5.7,6.5-7.3C-430,1626.8-427.1,1626-424.1,1626z M-425.4,1628.5c-1.4,0-2.8,0.4-4.2,1.3c-1.4,0.8-2.6,2.3-3.4,4.4
		c-0.9,2.1-1.3,4.8-1.3,8c0,5.3,1,9.8,3.1,13.6c2.1,3.8,4.9,5.7,8.3,5.7c2.6,0,4.7-1,6.3-3.1c1.7-2.1,2.5-5.7,2.5-10.9
		c0-6.5-1.4-11.5-4.1-15.2C-420,1629.8-422.4,1628.5-425.4,1628.5z"/>
	<path class="st0" d="M-375.7,1659.2c-1.8,1.8-3.5,3.2-5.2,4s-3.5,1.2-5.4,1.2c-4,0-7.4-1.7-10.4-5s-4.4-7.6-4.4-12.8
		c0-5.2,1.6-10,4.9-14.3s7.5-6.5,12.6-6.5c3.2,0,5.9,1,7.9,3v-6.7c0-4.1-0.1-6.7-0.3-7.6c-0.2-1-0.5-1.6-0.9-1.9s-0.9-0.5-1.6-0.5
		s-1.6,0.2-2.7,0.6l-0.5-1.4l10.8-4.4h1.8v42c0,4.2,0.1,6.8,0.3,7.8s0.5,1.6,1,2c0.4,0.4,1,0.5,1.5,0.5c0.7,0,1.6-0.2,2.8-0.7
		l0.4,1.4l-10.8,4.5h-1.8L-375.7,1659.2L-375.7,1659.2z M-375.7,1656.5v-18.7c-0.1-1.8-0.6-3.4-1.4-4.9s-1.9-2.6-3.1-3.3
		c-1.3-0.8-2.6-1.1-3.8-1.1c-2.3,0-4.4,1-6.2,3.1c-2.4,2.7-3.6,6.7-3.6,12s1.2,9.4,3.5,12.3c2.3,2.8,4.9,4.3,7.8,4.3
		C-380.3,1660.1-378,1658.9-375.7,1656.5z"/>
	<path class="st0" d="M-354.7,1640.7c0,5.4,1.3,9.6,3.9,12.7c2.7,3,5.8,4.6,9.3,4.6c2.4,0,4.5-0.6,6.2-1.9c1.8-1.3,3.2-3.5,4.4-6.7
		l1.2,0.8c-0.6,3.6-2.2,6.9-4.8,9.9c-2.7,3-6,4.5-10,4.5c-4.4,0-8.1-1.7-11.2-5.1s-4.6-8-4.6-13.7c0-6.2,1.6-11,4.8-14.5
		s7.2-5.2,12-5.2c4.1,0,7.4,1.3,10,4s3.9,6.3,3.9,10.7h-25.1L-354.7,1640.7L-354.7,1640.7z M-354.7,1638.4h16.8
		c-0.1-2.3-0.4-4-0.8-4.9c-0.7-1.5-1.6-2.6-3-3.5c-1.3-0.9-2.7-1.3-4.1-1.3c-2.2,0-4.2,0.9-5.9,2.6
		C-353.4,1633-354.4,1635.4-354.7,1638.4z M-335.8,1608.3l-11.7,13.7h-1.3l4.2-13.7H-335.8z"/>
	<path class="st0" d="M-312.3,1626v29.1c0,2.3,0.2,3.8,0.5,4.5s0.8,1.3,1.5,1.7c0.6,0.4,1.8,0.6,3.6,0.6v1.4h-17.6v-1.4
		c1.8,0,3-0.2,3.6-0.5s1.1-0.9,1.4-1.7c0.3-0.8,0.5-2.3,0.5-4.6v-14c0-3.9-0.1-6.5-0.3-7.6c-0.2-0.9-0.5-1.4-0.9-1.8
		c-0.4-0.3-0.9-0.5-1.6-0.5s-1.6,0.2-2.7,0.6l-0.6-1.4l10.9-4.4L-312.3,1626L-312.3,1626z M-315.6,1607c1.1,0,2.1,0.4,2.8,1.2
		c0.8,0.8,1.2,1.7,1.2,2.9c0,1.1-0.4,2-1.2,2.8s-1.7,1.2-2.8,1.2s-2.1-0.4-2.9-1.2c-0.8-0.8-1.2-1.7-1.2-2.8c0-1.1,0.4-2.1,1.2-2.9
		C-317.7,1607.4-316.7,1607-315.6,1607z"/>
	<path class="st0" d="M-278.8,1626v12.3h-1.3c-1-3.9-2.3-6.5-3.9-7.9s-3.6-2.1-6-2.1c-1.8,0-3.3,0.5-4.5,1.5c-1.1,1-1.7,2.1-1.7,3.2
		c0,1.5,0.4,2.7,1.3,3.8c0.8,1.1,2.5,2.2,5,3.4l5.8,2.9c5.4,2.6,8.1,6,8.1,10.3c0,3.3-1.3,5.9-3.8,8s-5.3,3-8.4,3
		c-2.2,0-4.7-0.4-7.6-1.2c-0.9-0.3-1.6-0.4-2.2-0.4s-1.1,0.3-1.4,1h-1.3v-12.9h1.3c0.8,3.7,2.2,6.5,4.3,8.4s4.4,2.8,7,2.8
		c1.8,0,3.3-0.5,4.4-1.6s1.7-2.4,1.7-3.9c0-1.8-0.6-3.4-1.9-4.6s-3.8-2.8-7.6-4.7s-6.3-3.6-7.5-5.2c-1.2-1.5-1.8-3.4-1.8-5.7
		c0-3,1-5.5,3-7.5s4.7-3,7.9-3c1.4,0,3.2,0.3,5.2,0.9c1.3,0.4,2.2,0.6,2.7,0.6s0.8-0.1,1-0.3c0.2-0.2,0.5-0.6,0.9-1.2L-278.8,1626
		L-278.8,1626z"/>
	<path class="st0" d="M-236.3,1629.9v23.8c0,3.4,0.4,5.5,1.1,6.4c1,1.1,2.3,1.7,3.9,1.7h3.3v1.4h-21.7v-1.4h1.6
		c1.1,0,2.1-0.3,2.9-0.8c0.9-0.5,1.5-1.2,1.8-2.1s0.5-2.6,0.5-5.2v-23.8h-7v-2.9h7v-2.4c0-3.6,0.6-6.7,1.7-9.2
		c1.2-2.5,2.9-4.5,5.3-6.1s5.1-2.3,8-2.3c2.8,0,5.3,0.9,7.7,2.7c1.5,1.2,2.3,2.5,2.3,4c0,0.8-0.3,1.5-1,2.2s-1.4,1.1-2.2,1.1
		c-0.6,0-1.2-0.2-1.9-0.7c-0.7-0.4-1.5-1.4-2.5-2.8s-1.9-2.4-2.7-2.9s-1.7-0.7-2.7-0.7c-1.2,0-2.2,0.3-3.1,1c-0.9,0.6-1.5,1.6-1.8,3
		c-0.4,1.4-0.5,4.9-0.5,10.5v2.7h9.3v2.9L-236.3,1629.9L-236.3,1629.9z"/>
	<path class="st0" d="M-202.9,1658.1c-3.7,2.9-6,4.5-7,5c-1.4,0.7-3,1-4.6,1c-2.5,0-4.5-0.9-6.2-2.6s-2.4-4-2.4-6.8
		c0-1.8,0.4-3.3,1.2-4.6c1.1-1.8,3-3.5,5.6-5.1c2.7-1.6,7.1-3.5,13.4-5.8v-1.4c0-3.6-0.6-6.1-1.7-7.4c-1.1-1.3-2.8-2-5-2
		c-1.6,0-3,0.4-3.9,1.3c-1,0.9-1.5,2-1.5,3.1l0.1,2.3c0,1.2-0.3,2.1-0.9,2.8c-0.6,0.7-1.4,1-2.4,1s-1.8-0.3-2.4-1
		c-0.6-0.7-0.9-1.6-0.9-2.8c0-2.3,1.2-4.3,3.5-6.2c2.3-1.9,5.6-2.9,9.8-2.9c3.2,0,5.9,0.5,7.9,1.6c1.5,0.8,2.7,2.1,3.4,3.8
		c0.5,1.1,0.7,3.5,0.7,7v12.3c0,3.4,0.1,5.6,0.2,6.3c0.1,0.8,0.4,1.3,0.7,1.6s0.7,0.4,1.1,0.4c0.4,0,0.8-0.1,1.1-0.3
		c0.6-0.3,1.6-1.3,3.2-2.9v2.2c-3,3.9-5.8,5.9-8.5,5.9c-1.3,0-2.3-0.4-3.1-1.3C-202.5,1661.8-202.9,1660.3-202.9,1658.1z
		 M-202.9,1655.5v-13.8c-4,1.6-6.5,2.7-7.7,3.4c-2.1,1.1-3.5,2.4-4.5,3.6c-0.9,1.3-1.4,2.7-1.4,4.1c0,1.9,0.6,3.5,1.7,4.7
		c1.1,1.3,2.4,1.9,3.9,1.9C-208.8,1659.5-206.2,1658.1-202.9,1655.5z"/>
	<path class="st0" d="M-175,1607v48.1c0,2.3,0.2,3.8,0.5,4.5s0.8,1.3,1.5,1.7c0.7,0.4,2,0.6,3.8,0.6v1.4H-187v-1.4
		c1.7,0,2.8-0.2,3.4-0.5c0.6-0.3,1.1-0.9,1.4-1.7c0.3-0.8,0.5-2.3,0.5-4.6v-32.9c0-4.1-0.1-6.6-0.3-7.5s-0.5-1.6-0.9-1.9
		s-0.9-0.5-1.5-0.5c-0.7,0-1.6,0.2-2.6,0.6l-0.7-1.4l10.8-4.4L-175,1607L-175,1607z"/>
	<path class="st0" d="M-154.4,1615.1v12h8.5v2.8h-8.5v23.5c0,2.4,0.3,4,1,4.8s1.5,1.2,2.6,1.2c0.9,0,1.7-0.3,2.5-0.8
		s1.5-1.4,1.9-2.4h1.5c-0.9,2.6-2.2,4.5-3.9,5.9s-3.4,2-5.2,2c-1.2,0-2.4-0.3-3.6-1c-1.1-0.7-2-1.6-2.6-2.9s-0.8-3.2-0.8-5.8V1630
		h-5.8v-1.3c1.4-0.6,2.9-1.5,4.5-2.9c1.5-1.4,2.9-3,4.1-4.9c0.6-1,1.5-2.8,2.6-5.5h1.2V1615.1z"/>
	<path class="st0" d="M-121.9,1658.1c-3.7,2.9-6,4.5-7,5c-1.4,0.7-3,1-4.6,1c-2.5,0-4.5-0.9-6.2-2.6s-2.4-4-2.4-6.8
		c0-1.8,0.4-3.3,1.2-4.6c1.1-1.8,3-3.5,5.6-5.1c2.7-1.6,7.1-3.5,13.4-5.8v-1.4c0-3.6-0.6-6.1-1.7-7.4s-2.8-2-5-2
		c-1.6,0-3,0.4-3.9,1.3c-1,0.9-1.5,2-1.5,3.1l0.1,2.3c0,1.2-0.3,2.1-0.9,2.8c-0.6,0.7-1.4,1-2.4,1s-1.8-0.3-2.4-1
		c-0.6-0.7-0.9-1.6-0.9-2.8c0-2.3,1.2-4.3,3.5-6.2c2.3-1.9,5.6-2.9,9.8-2.9c3.2,0,5.9,0.5,7.9,1.6c1.5,0.8,2.7,2.1,3.4,3.8
		c0.5,1.1,0.7,3.5,0.7,7v12.3c0,3.4,0.1,5.6,0.2,6.3c0.1,0.8,0.4,1.3,0.7,1.6s0.7,0.4,1.1,0.4s0.8-0.1,1.1-0.3
		c0.6-0.3,1.6-1.3,3.2-2.9v2.2c-3,3.9-5.8,5.9-8.5,5.9c-1.3,0-2.3-0.4-3.1-1.3C-121.4,1661.8-121.8,1660.3-121.9,1658.1z
		 M-121.9,1655.5v-13.8c-4,1.6-6.5,2.7-7.7,3.4c-2.1,1.1-3.5,2.4-4.5,3.6c-0.9,1.3-1.4,2.7-1.4,4.1c0,1.9,0.6,3.5,1.7,4.7
		c1.1,1.3,2.4,1.9,3.9,1.9C-127.8,1659.5-125.1,1658.1-121.9,1655.5z"/>
	<path class="st0" d="M-95.8,1626v8.2c3-5.4,6.2-8.2,9.3-8.2c1.5,0,2.7,0.4,3.6,1.3s1.4,1.9,1.4,3c0,1-0.3,1.9-1,2.6
		s-1.5,1.1-2.4,1.1s-2-0.5-3.1-1.4s-2-1.4-2.5-1.4s-1,0.3-1.6,0.8c-1.2,1.1-2.4,2.9-3.7,5.3v17.4c0,2,0.3,3.5,0.8,4.5
		c0.3,0.7,0.9,1.3,1.8,1.8s2.1,0.7,3.8,0.7v1.4H-108v-1.4c1.8,0,3.2-0.3,4.1-0.9c0.7-0.4,1.1-1.1,1.4-2c0.1-0.4,0.2-1.7,0.2-3.8
		v-14.1c0-4.2-0.1-6.7-0.2-7.5c-0.2-0.8-0.5-1.4-0.9-1.8c-0.5-0.4-1-0.5-1.7-0.5c-0.8,0-1.7,0.2-2.8,0.6l-0.4-1.4l11-4.4h1.5V1626z"
		/>
	<path class="st0" d="M-67.7,1649.1h-1.5l-3.5-32.1c-0.1-1.4-0.2-2.5-0.2-3.1c0-1.6,0.4-3,1.3-4s1.9-1.5,3.2-1.5s2.3,0.5,3.1,1.5
		c0.9,1,1.3,2.5,1.3,4.5c0,0.6,0,1.5-0.1,2.7L-67.7,1649.1z M-68.5,1655.7c1.2,0,2.2,0.4,3.1,1.3s1.3,1.9,1.3,3
		c0,1.2-0.4,2.3-1.3,3.1c-0.9,0.9-1.9,1.3-3.1,1.3s-2.3-0.4-3.1-1.3c-0.9-0.9-1.3-1.9-1.3-3.1s0.4-2.2,1.3-3
		C-70.7,1656.1-69.7,1655.7-68.5,1655.7z"/>
</g>
<g>
	<path class="st0" d="M403.9,1158.9c25.9-13.7,43.2,4.4,40.6,30.5c-1.2,11.6-4.7,26.5-12,39.6c10.2-2,19.1-7.9,24.8-15.9
		c-4.6,9.8-14.5,15.6-25.6,17.3c-3,5.1-6.8,10.2-11.3,14.4c-16,15.1-39,17.5-44.7-0.6c-4-12.7,1.5-29.5,10.3-44.5
		C382.3,1181,391.4,1165.6,403.9,1158.9z M388.6,1208.5c-2.2,3.7-4.2,7.2-5.5,10.6c-4.8,12.8-5.6,30.9,5.1,35.5
		c8.3,3.5,27.7-1.5,41.4-24.1C413.7,1232.1,395.9,1225.2,388.6,1208.5z M403.6,1176.2c2.8-3.6,5.6-0.4,2.6,8.5
		c-0.2,0-9.1,10.3-16.1,21.2c1.9,6.4,6,13,14.4,17.7c8.9,5.1,18,6.7,26.2,5.5c2.7-4.7,5.1-9.9,7.2-16.1c12.7-37.5,0-53.4-10.9-55.8
		c-19.4-4.3-37,13.2-38.2,31.3c-0.1,2-0.2,4.2-0.2,6.8C393.2,1188.1,398.4,1181.5,403.6,1176.2z"/>
	<path class="st0" d="M459.4,1214c-0.5,1.6-0.5,4.1,1.1,6.7c2.1,3.6,4.3,6.7,5.3,9.5c11.7-5.7,14.5-9.1,20.4-16.9
		c-2.6,7.9-10.7,13.7-20.1,18.1c1.8,5.5,1.5,9.9-2,15.4c-6,9.5-18.7,12.5-22.8,7.5c-5.6-7,3.3-14.6,16.2-20.4
		c1.9-0.8,3.4-1.6,4.9-2.3c-0.4-2.2-1.3-4.4-2.8-6.9c-5.6-8.8-4.7-9.8-4.6-11.8c0.2-3.7,4.7-7.6,4.7-7.6c2.6-1.9,3.3,1.9,2.7,4.1
		C461.1,1210.8,459.9,1212.5,459.4,1214z M460.9,1233.2c-10.9,4.7-20.4,10.9-19.6,16.8c0.6,4.1,4.1,5.4,8.4,2.9
		c4.4-2.5,13.9-10.2,13-20.3C462.1,1232.8,461.5,1232.9,460.9,1233.2z"/>
	<path class="st0" d="M523.3,1224.9c-1.9,9,3,12.5,8.2,10.4c8.6-3.4,16.8-22.3,22.9-22.2c-6,5.5-6.4,7.2-10.5,12.5
		c-5.4,6.9-11,12.8-17.6,12.1c-8.8-0.9-9.8-11.9-7.6-17c2.3-5.4,7-11.4,14.4-11.9c6.1-0.4,8.4,5.4,2.6,10.3c-3.5,2.9-8.6,4.3-12,4.9
		C523.5,1224.2,523.3,1224.7,523.3,1224.9z M528.3,1221.5c9.5-3.2,11.1-10.3,6.2-9.1c0,0-7.7,0.9-10.6,10.3
		C525,1222.4,526.6,1222.1,528.3,1221.5z"/>
	<path class="st0" d="M555.5,1214c-0.5,1.6-0.5,4.1,1.1,6.7c2.1,3.6,4.3,6.7,5.3,9.5c11.7-5.7,14.5-9.1,20.4-16.9
		c-2.6,7.9-10.7,13.7-20.1,18.1c1.8,5.5,1.5,9.9-2,15.4c-6,9.5-18.7,12.5-22.8,7.5c-5.6-7,3.3-14.6,16.2-20.4
		c1.9-0.8,3.4-1.6,4.9-2.3c-0.4-2.2-1.3-4.4-2.8-6.9c-5.6-8.8-4.7-9.8-4.6-11.8c0.2-3.7,4.7-7.6,4.7-7.6c2.6-1.9,3.3,1.9,2.7,4.1
		C557.2,1210.8,555.9,1212.5,555.5,1214z M557,1233.2c-10.9,4.7-20.4,10.9-19.6,16.8c0.6,4.1,4.1,5.4,8.4,2.9
		c4.4-2.5,13.9-10.2,13-20.3C558.2,1232.8,557.6,1232.9,557,1233.2z"/>
	<path class="st0" d="M535.3,1286.5c-1.1-15.4,27.2-40.7,31.8-44.8c1.8-1.6,3.3-2.9,4.3-3.6c2-6.7,3.4-11.7,4-13.2
		c3.7-10.9,6.1-12.4,7.5-11.8c2,0.9,1.9,3.3,0.7,6.9c3.7-4.6,8.6-9,15.2-9.1c8.1-0.2,10.4,7.6,7.7,16.6c6.2-2.1,12.3-5.6,17.7-14.1
		c-2.9,9.2-10.2,12.7-18.1,15.3c-0.9,2.7-2.5,5.7-4.4,8.4c-8.5,12.1-19.5,10.6-20.9,6.7c-1.2-3.4,1.2-6.4,4.7-8.8
		c5-3.3,10.2-4.4,15.3-5.8c2.8-7.2,3.4-15.9-1.8-16.3c-6.8-0.7-12.6,5.4-16.7,10.9c-1.9,4.8-4.7,11.1-6.9,18.4
		c-4.1,13.7-9.7,30.1-16.8,41.1C549.2,1297.5,536,1297.2,535.3,1286.5z M563.5,1247.3c-9.7,9-16.3,16.6-22.2,26.3
		c-6.3,10.5-5.3,19.3,0.6,18.8c12-1.2,22.9-32.5,28.8-52.2C569.3,1241.8,567,1244.2,563.5,1247.3z M586.5,1235.9
		c-4.2,2.7-5.1,6.2-4.2,7.7c2.5,4,9.9-0.8,14.9-8.1c1.1-1.4,2-3,2.8-4.9C595.2,1232,590.5,1233.3,586.5,1235.9z"/>
	<path class="st0" d="M620.3,1224.9c-1.9,9,3,12.5,8.2,10.4c8.6-3.4,16.8-22.3,22.9-22.2c-6,5.5-6.4,7.2-10.5,12.5
		c-5.4,6.9-11,12.8-17.6,12.1c-8.8-0.9-9.8-11.9-7.6-17c2.3-5.4,7-11.4,14.4-11.9c6.1-0.4,8.4,5.4,2.6,10.3c-3.5,2.9-8.6,4.3-12,4.9
		C620.5,1224.2,620.3,1224.7,620.3,1224.9z M625.3,1221.5c9.5-3.2,11.1-10.3,6.2-9.1c0,0-7.7,0.9-10.6,10.3
		C622,1222.4,623.7,1222.1,625.3,1221.5z"/>
	<path class="st0" d="M654.1,1214.2c7.6,4.8,10.2,10,3.6,19.6c-6.9,10-7.9,26.2,1.6,18.4c5.6-4.6,9.8-12.4,16.8-24.2
		c6.8-11.4,8.4-13.3,11.4-14.9c-0.9,1.8-6.2,8.9-9.7,15.2c-7.8,14.2-16,27.9-23.1,27.3s-10-10.5-5.4-19.8c5-10.3,10.7-14.4,1.6-20.2
		c-11.6-7.5-5.5-13.4-2.7-15.1c3.4-2,8.4-1.2,8.4,3.9c0,3.7-2.6,6.9-4.6,8.6C652.9,1213.3,653.4,1213.7,654.1,1214.2z M650.8,1201.7
		c-3.3,1.4-5,6,0.8,10.7c2-2.3,3.4-4.8,3.7-6.2C656.1,1203.1,653.4,1200.5,650.8,1201.7z"/>
	<path class="st0" d="M702.7,1240.7c6.7-9.8,14.8-26.5,20.5-27.8c-5.8,6.7-7.4,9.7-10.7,15.1c-6.4,10.4-9.9,17.4-13.7,16.8
		c-4.2-0.7-8.1-6.2-3.7-18c0.1-0.5,0.4-0.9,0.5-1.4c-4.8,5.8-9.3,11.4-13.8,6.4c-4.6-5.1-0.1-14.4,4.1-18.2c3-2.8,8.8-5.3,14.8-3.7
		c6.8,1.8,1.6,1.8,1.6,1.8s-8.6-1.9-14.8,8.1c-4.6,7.4-2,14,1.6,10.6c2-1.9,6.3-7.4,9.7-11.7c1.8-2.8,3.6-6.2,5.4-6.2
		c1.8-0.1,6.1,0.5,2.2,5.4C695.8,1231.7,695.6,1251,702.7,1240.7z"/>
	<path class="st0" d="M726.5,1218.2c0.1,2.5-2.7,8.1-3.2,9.1c0.4,0,1.3-1.6,3.9-4.8c3.3-4.1,6.7-6.8,9.2-6.4c3.7,1.3,4,4.3,2.5,7.9
		c-1.5,3.6-3.2,10.3,0.4,6c2.8-3.4,14.7-19,19.6-21.4c4-1.9,8.5,1.1,6.1,8.6c-0.8,2.8-3.5,7.8-8.1,14.6c-6.8,10-6.8,20.2,0.6,14.2
		c11.3-9,16-33.4,26.7-33c-8.8,4-12.1,15.3-16,21.8c-7.2,12.5-13.3,16.5-17.6,13.4c-4.4-3-5.5-8.3-0.2-16.8
		c7.2-11.7,13.2-25.8,7.8-21.2c-7.6,6.4-16.2,18.9-18.4,21.2c-2,2.1-4.2,2.1-5.7,0.6c-1.3-1.4-2-4.3,0.8-11.3
		c2.6-6.3-0.8-3.3-3.6-0.8c-5,4.6-11.6,17.4-13.1,19.8c-2.6,4.1-6.2-1.1-4.7-5.3c0.2-0.7,8.5-19,7.6-21.1
		C722.2,1212.8,726.3,1212.5,726.5,1218.2z"/>
	<path class="st0" d="M783.7,1206.7c5.3-0.1,9.5,3,9.5,11.3c0,2.5-0.6,5.8-1.5,9.1c1.6-0.7,3.4-1.8,5.1-3.2
		c7-5.6,8.6-11.2,12.3-10.9c-3.9,2.9-7.1,9.7-13.7,13.7c-1.3,0.8-2.7,1.4-4.2,1.9c-2.6,7.8-7.6,15.6-13.3,15.4
		c-8.2-0.2-8.8-11-4.9-18.6c0.5-0.9,0.9-1.9,1.4-2.7C769.7,1213.8,777.3,1206.8,783.7,1206.7z M778.2,1227.2
		c-1.2,2.1-2.1,4.2-2.7,6.3c-1.5,5.7,1.4,11.9,6.4,7.5c2.5-2.2,5.3-6.8,7.2-11.9C785.4,1229.8,781.4,1229.4,778.2,1227.2z
		 M782,1213.1c3.2-0.5,3.5,2.6,3.3,4.3c0,0.1-3.4,3.7-6.2,8.4c2.7,2.1,6.5,2.9,10.7,1.9c2.5-7,3.2-14.6-0.9-18
		c-5.5-4.7-12,0.7-13.2,4.7c-0.6,2.2-0.6,4.4,0,6.3C778.6,1215.9,781,1213.2,782,1213.1z"/>
	<path class="st0" d="M809.7,1214c-0.5,1.6-0.5,4.1,1.1,6.7c2.1,3.6,4.3,6.7,5.3,9.5c11.7-5.7,14.5-9.1,20.4-16.9
		c-2.6,7.9-10.7,13.7-20.1,18.1c1.8,5.5,1.5,9.9-2,15.4c-6,9.5-18.7,12.5-22.8,7.5c-5.6-7,3.3-14.6,16.2-20.4
		c1.9-0.8,3.4-1.6,4.9-2.3c-0.4-2.2-1.3-4.4-2.8-6.9c-5.6-8.8-4.7-9.8-4.6-11.8c0.2-3.7,4.7-7.6,4.7-7.6c2.6-1.9,3.3,1.9,2.7,4.1
		C811.4,1210.8,810.1,1212.5,809.7,1214z M811.2,1233.2c-10.9,4.7-20.4,10.9-19.6,16.8c0.6,4.1,4.1,5.4,8.4,2.9
		c4.4-2.5,13.9-10.2,13-20.3C812.3,1232.8,811.8,1232.9,811.2,1233.2z"/>
	<path class="st0" d="M844.6,1235.9c-1.5,1.5-3.7,1.1-4.1-0.8c-0.4-2,0.1-3.7,2.3-3.7C845.5,1231.3,846.1,1234.3,844.6,1235.9z"/>
	<path class="st0" d="M863.5,1235.9c-1.5,1.5-3.7,1.1-4.1-0.8c-0.4-2,0.1-3.7,2.3-3.7C864.4,1231.3,865,1234.3,863.5,1235.9z"/>
	<path class="st0" d="M882.4,1235.9c-1.5,1.5-3.7,1.1-4.1-0.8c-0.4-2,0.1-3.7,2.3-3.7C883.3,1231.3,883.9,1234.3,882.4,1235.9z"/>
</g>
</svg>
