<?xml version="1.0" encoding="utf-8"?>
<!-- Generator: Adobe Illustrator 25.4.1, SVG Export Plug-In . SVG Version: 6.00 Build 0)  -->
<svg version="1.1" id="Texto3" xmlns="http://www.w3.org/2000/svg" xmlns:xlink="http://www.w3.org/1999/xlink" x="0px" y="0px"
	 viewBox="0 0 1242 1866" style="enable-background:new 0 0 1242 1866;" xml:space="preserve">
<style type="text/css">
	.st0{fill:#4D4D4D;}
</style>
<g>
	
		<text transform="matrix(1 0 0 1 1918.4238 1781.5288)" class="st0" style="font-family:'Baskerville-SemiBold'; font-size:51.0146px; letter-spacing:7;">Te esperamos</text>
</g>
<g>
	<path class="st0" d="M349.2,1695.9c27.7-14.6,46.2,4.7,43.5,32.6c-1.3,12.4-5,28.4-12.9,42.4c10.9-2.1,20.5-8.5,26.5-17
		c-4.9,10.5-15.5,16.7-27.4,18.5c-3.2,5.5-7.2,10.9-12.1,15.4c-17.1,16.1-41.7,18.7-47.9-0.6c-4.2-13.6,1.6-31.6,11-47.6
		C326.1,1719.5,335.8,1703,349.2,1695.9z M332.8,1749c-2.4,4-4.5,7.7-5.9,11.4c-5.1,13.7-6,33.1,5.5,38c8.9,3.7,29.6-1.6,44.4-25.7
		C359.7,1774.4,340.6,1766.9,332.8,1749z M348.8,1714.4c3-3.9,6-0.4,2.8,9.1c-0.3,0-9.7,11-17.2,22.7c2,6.9,6.4,13.9,15.4,19
		c9.5,5.5,19.2,7.1,28,5.9c2.9-5,5.5-10.6,7.7-17.2c13.6-40.1,0-57.1-11.6-59.7c-20.7-4.6-39.6,14.1-40.9,33.5
		c-0.1,2.1-0.2,4.5-0.2,7.2C337.7,1727.1,343.3,1720,348.8,1714.4z"/>
	<path class="st0" d="M408.6,1754.9c-0.5,1.7-0.5,4.4,1.1,7.1c2.2,3.9,4.6,7.1,5.6,10.1c12.5-6.1,15.5-9.7,21.9-18.1
		c-2.7,8.5-11.5,14.6-21.5,19.4c1.9,5.9,1.6,10.6-2.1,16.5c-6.4,10.1-20,13.4-24.4,8c-6-7.5,3.5-15.6,17.4-21.9
		c2-0.9,3.6-1.7,5.2-2.5c-0.4-2.4-1.4-4.7-3-7.4c-6-9.4-5-10.5-4.9-12.6c0.3-4,5-8.1,5-8.1c2.7-2,3.5,2,2.9,4.4
		C410.5,1751.4,409.1,1753.2,408.6,1754.9z M410.2,1775.5c-11.6,5-21.9,11.6-21,18c0.6,4.4,4.4,5.7,9,3.1
		c4.7-2.6,14.9-10.9,13.9-21.7C411.5,1775.1,410.8,1775.2,410.2,1775.5z"/>
	<path class="st0" d="M477,1766.5c-2,9.6,3.2,13.4,8.7,11.1c9.2-3.6,18-23.9,24.5-23.7c-6.4,5.9-6.9,7.7-11.2,13.4
		c-5.7,7.4-11.7,13.7-18.9,13c-9.4-1-10.5-12.7-8.1-18.2c2.5-5.7,7.5-12.2,15.4-12.7c6.5-0.4,9,5.7,2.8,11
		c-3.8,3.1-9.2,4.6-12.9,5.2C477.2,1765.7,477,1766.2,477,1766.5z M482.3,1762.9c10.1-3.4,11.9-11,6.6-9.8c0,0-8.2,1-11.4,11
		C478.8,1763.9,480.6,1763.5,482.3,1762.9z"/>
	<path class="st0" d="M511.5,1754.9c-0.5,1.7-0.5,4.4,1.1,7.1c2.2,3.9,4.6,7.1,5.6,10.1c12.5-6.1,15.5-9.7,21.9-18.1
		c-2.7,8.5-11.5,14.6-21.5,19.4c1.9,5.9,1.6,10.6-2.1,16.5c-6.4,10.1-20,13.4-24.4,8c-6-7.5,3.5-15.6,17.4-21.9
		c2-0.9,3.6-1.7,5.2-2.5c-0.4-2.4-1.4-4.7-3-7.4c-6-9.4-5-10.5-4.9-12.6c0.3-4,5-8.1,5-8.1c2.7-2,3.5,2,2.9,4.4
		C513.3,1751.4,512,1753.2,511.5,1754.9z M513.1,1775.5c-11.6,5-21.9,11.6-21,18c0.6,4.4,4.4,5.7,9,3.1c4.7-2.6,14.9-10.9,13.9-21.7
		C514.3,1775.1,513.7,1775.2,513.1,1775.5z"/>
	<path class="st0" d="M489.8,1832.6c-1.1-16.5,29.1-43.6,34-48c1.9-1.7,3.5-3.1,4.6-3.9c2.1-7.1,3.6-12.5,4.2-14.1
		c4-11.6,6.5-13.2,8-12.6c2.1,1,2,3.5,0.8,7.4c4-4.9,9.2-9.6,16.2-9.7c8.6-0.3,11.1,8.1,8.2,17.7c6.6-2.2,13.1-6,19-15.1
		c-3.1,9.9-10.9,13.6-19.4,16.4c-1,2.9-2.6,6.1-4.7,9c-9.1,13-20.9,11.4-22.4,7.1c-1.3-3.6,1.2-6.9,5-9.4c5.4-3.5,10.9-4.7,16.4-6.2
		c3-7.7,3.6-17-1.9-17.5c-7.2-0.7-13.5,5.7-17.9,11.6c-2,5.1-5,11.9-7.4,19.7c-4.4,14.6-10.4,32.2-18,44
		C504.7,1844.3,490.6,1844,489.8,1832.6z M520.1,1790.6c-10.4,9.6-17.5,17.7-23.7,28.1c-6.7,11.3-5.6,20.6,0.6,20.1
		c12.9-1.2,24.5-34.7,30.9-55.9C526.2,1784.7,523.8,1787.2,520.1,1790.6z M544.7,1778.2c-4.5,2.9-5.5,6.6-4.5,8.2
		c2.6,4.2,10.6-0.9,16-8.6c1.1-1.5,2.1-3.2,3-5.2C553.9,1774.1,548.9,1775.6,544.7,1778.2z"/>
	<path class="st0" d="M580.8,1766.5c-2,9.6,3.2,13.4,8.8,11.1c9.2-3.6,18-23.9,24.5-23.7c-6.4,5.9-6.9,7.7-11.2,13.4
		c-5.7,7.4-11.7,13.7-18.9,13c-9.4-1-10.5-12.7-8.1-18.2c2.5-5.7,7.5-12.2,15.4-12.7c6.5-0.4,9,5.7,2.7,11
		c-3.7,3.1-9.2,4.6-12.9,5.2C581.1,1765.7,580.8,1766.2,580.8,1766.5z M586.2,1762.9c10.1-3.4,11.9-11,6.6-9.8c0,0-8.2,1-11.4,11
		C582.7,1763.9,584.4,1763.5,586.2,1762.9z"/>
	<path class="st0" d="M617.1,1755c8.1,5.1,10.9,10.7,3.9,21c-7.4,10.7-8.5,28,1.7,19.7c6-4.9,10.5-13.2,18-25.9
		c7.2-12.2,9-14.2,12.2-16c-1,1.9-6.6,9.5-10.4,16.2c-8.4,15.2-17.1,29.9-24.7,29.2c-7.6-0.6-10.7-11.2-5.7-21.2
		c5.4-11,11.5-15.4,1.8-21.6c-12.4-8-5.9-14.4-2.9-16.1c3.6-2.1,9-1.2,9,4.1c0,4-2.7,7.4-4.9,9.2
		C615.7,1754.1,616.3,1754.5,617.1,1755z M613.4,1741.6c-3.5,1.5-5.4,6.4,0.9,11.5c2.1-2.5,3.6-5.1,4-6.6
		C619.2,1743.1,616.3,1740.4,613.4,1741.6z"/>
	<path class="st0" d="M669.1,1783.5c7.1-10.5,15.9-28.4,22-29.7c-6.2,7.1-7.9,10.4-11.5,16.1c-6.9,11.1-10.6,18.6-14.6,18
		c-4.5-0.8-8.6-6.6-4-19.2c0.1-0.5,0.4-1,0.5-1.5c-5.1,6.2-10,12.2-14.7,6.9c-4.9-5.5-0.1-15.4,4.4-19.5c3.2-3,9.4-5.6,15.9-4
		c7.2,1.9,1.7,1.9,1.7,1.9s-9.2-2-15.9,8.6c-4.9,7.9-2.1,15,1.7,11.4c2.1-2,6.7-7.9,10.4-12.5c1.9-3,3.9-6.6,5.7-6.6
		c1.9-0.1,6.5,0.5,2.4,5.7C661.7,1773.7,661.4,1794.6,669.1,1783.5z"/>
	<path class="st0" d="M694.6,1759.4c0.1,2.6-2.9,8.6-3.4,9.7c0.4,0,1.4-1.7,4.1-5.1c3.5-4.4,7.1-7.2,9.9-6.9c4,1.4,4.2,4.6,2.6,8.5
		c-1.6,3.9-3.4,11,0.4,6.4c3-3.6,15.7-20.4,21-22.9c4.2-2,9.1,1.1,6.5,9.2c-0.9,3-3.7,8.4-8.6,15.6c-7.2,10.7-7.2,21.6,0.6,15.2
		c12.1-9.6,17.1-35.7,28.6-35.4c-9.4,4.2-13,16.4-17.1,23.4c-7.7,13.4-14.2,17.6-18.9,14.4c-4.7-3.3-5.9-8.9-0.3-18
		c7.7-12.5,14.1-27.6,8.4-22.7c-8.1,6.9-17.4,20.2-19.7,22.7c-2.1,2.2-4.5,2.2-6.1,0.6c-1.4-1.5-2.1-4.6,0.9-12.1
		c2.7-6.7-0.9-3.5-3.9-0.9c-5.4,4.9-12.4,18.6-14,21.2c-2.8,4.4-6.6-1.1-5-5.6c0.3-0.7,9.1-20.4,8.1-22.6
		C689.9,1753.5,694.3,1753.2,694.6,1759.4z"/>
	<path class="st0" d="M755.9,1747c5.6-0.1,10.1,3.2,10.1,12.1c0,2.6-0.6,6.2-1.6,9.7c1.7-0.8,3.6-1.9,5.5-3.4
		c7.5-6,9.2-12,13.1-11.6c-4.1,3.1-7.6,10.4-14.6,14.6c-1.4,0.9-2.9,1.5-4.5,2c-2.7,8.4-8.1,16.7-14.2,16.5
		c-8.7-0.3-9.4-11.7-5.2-19.9c0.5-1,1-2,1.5-2.9C740.8,1754.6,749.1,1747.1,755.9,1747z M750.1,1769c-1.2,2.2-2.2,4.5-2.9,6.7
		c-1.6,6.1,1.5,12.7,6.9,8c2.6-2.4,5.6-7.2,7.7-12.7C757.7,1771.7,753.4,1771.4,750.1,1769z M754.1,1753.9c3.4-0.5,3.7,2.7,3.5,4.6
		c0,0.1-3.6,4-6.6,9c2.9,2.3,7,3.1,11.5,2c2.6-7.5,3.4-15.6-1-19.2c-5.9-5-12.9,0.7-14.1,5c-0.6,2.4-0.6,4.7,0,6.7
		C750.4,1756.9,753.1,1754,754.1,1753.9z"/>
	<path class="st0" d="M783.7,1754.9c-0.5,1.7-0.5,4.4,1.1,7.1c2.3,3.9,4.6,7.1,5.6,10.1c12.5-6.1,15.5-9.7,21.9-18.1
		c-2.7,8.5-11.5,14.6-21.5,19.4c1.9,5.9,1.6,10.6-2.1,16.5c-6.4,10.1-20,13.4-24.4,8c-6-7.5,3.5-15.6,17.4-21.9
		c2-0.9,3.6-1.7,5.2-2.5c-0.4-2.4-1.4-4.7-3-7.4c-6-9.4-5-10.5-4.9-12.6c0.2-4,5-8.1,5-8.1c2.7-2,3.5,2,2.9,4.4
		C785.5,1751.4,784.2,1753.2,783.7,1754.9z M785.3,1775.5c-11.6,5-21.9,11.6-21,18c0.6,4.4,4.4,5.7,9,3.1
		c4.7-2.6,14.9-10.9,13.9-21.7C786.5,1775.1,785.9,1775.2,785.3,1775.5z"/>
	<path class="st0" d="M852,1766.5c-2,9.6,3.2,13.4,8.7,11.1c9.2-3.6,18-23.9,24.5-23.7c-6.4,5.9-6.9,7.7-11.2,13.4
		c-5.7,7.4-11.7,13.7-18.9,13c-9.4-1-10.5-12.7-8.1-18.2c2.5-5.7,7.5-12.2,15.4-12.7c6.5-0.4,9,5.7,2.7,11
		c-3.7,3.1-9.2,4.6-12.9,5.2C852.3,1765.7,852,1766.2,852,1766.5z M857.4,1762.9c10.1-3.4,11.9-11,6.6-9.8c0,0-8.2,1-11.4,11
		C853.9,1763.9,855.7,1763.5,857.4,1762.9z"/>
	<path class="st0" d="M890.3,1757.9c0.1,4.1-1.2,6.1-3.5,10.9c5.2-7.5,17.4-19.5,25.6-21.7c4.7-1.2,6.9,3.1,6.5,6.4
		c-0.6,4.9-14.5,23.9-16.2,30.9c-2.5,10.4,4,7,6,5.5c6-4.5,17.2-24.7,22.4-30.6c6.2-7.2,8.6-4.9,8.6-4.9
		c-9.9,2.4-21.9,34.2-32.9,38.6c-3.2,1.4-8.2,0.5-9.7-4.7c-2.9-10.5,16.1-34.7,16.7-38.4c0.6-4.1-11.5,3.2-20,13
		c-5.7,6.6-8.7,11.6-11.2,15.5c-0.5,0.9-3.4,0.9-4.6-1.2c-0.5-0.9-2-2.9,2.6-12.4c5.1-10.4,3-10,3-10
		C884.7,1753,890.2,1753.9,890.3,1757.9z"/>
</g>
</svg>
