<?xml version="1.0" encoding="utf-8"?>
<!-- Generator: Adobe Illustrator 25.4.1, SVG Export Plug-In . SVG Version: 6.00 Build 0)  -->
<!DOCTYPE svg PUBLIC "-//W3C//DTD SVG 1.1//EN" "http://www.w3.org/Graphics/SVG/1.1/DTD/svg11.dtd" [
	<!ENTITY ns_extend "http://ns.adobe.com/Extensibility/1.0/">
	<!ENTITY ns_ai "http://ns.adobe.com/AdobeIllustrator/10.0/">
	<!ENTITY ns_graphs "http://ns.adobe.com/Graphs/1.0/">
	<!ENTITY ns_vars "http://ns.adobe.com/Variables/1.0/">
	<!ENTITY ns_imrep "http://ns.adobe.com/ImageReplacement/1.0/">
	<!ENTITY ns_sfw "http://ns.adobe.com/SaveForWeb/1.0/">
	<!ENTITY ns_custom "http://ns.adobe.com/GenericCustomNamespace/1.0/">
	<!ENTITY ns_adobe_xpath "http://ns.adobe.com/XPath/1.0/">
]>
<svg version="1.1" id="Capa_1" xmlns:x="&ns_extend;" xmlns:i="&ns_ai;" xmlns:graph="&ns_graphs;"
	 xmlns="http://www.w3.org/2000/svg" xmlns:xlink="http://www.w3.org/1999/xlink" x="0px" y="0px" viewBox="0 0 1242 2208"
	 style="enable-background:new 0 0 1242 2208;" xml:space="preserve">
<style type="text/css">
	.st0{enable-background:new    ;}
	.st1{fill:#185B83;}
	.st2{fill:#838283;}
</style>
<metadata>
	<sfw  xmlns="&ns_sfw;">
		<slices></slices>
		<sliceSourceBounds  bottomLeftOrigin="true" height="487.2" width="2583.8" x="174" y="251.1"></sliceSourceBounds>
	</sfw>
</metadata>
<g>
	<g class="st0">
		<path class="st1" d="M679.2,1926.3c-0.8,2.3-1.9,4.6-3.5,7.3c-1.6,2.7-3.8,5.2-6.6,7.7c-2.8,2.4-6.2,4.4-10.4,6s-9,2.4-14.8,2.4
			c-4.2,0-8.2-0.6-11.9-1.7s-7.3-2.6-10.6-4.6c-5.3,3.2-10.9,5.6-16.8,7.7c-5.9,1.9-12.1,2.9-18.5,2.9c-6.1,0-11.4-0.8-15.8-2.5
			c-4.4-1.7-8-3.9-10.8-6.6s-5-5.9-6.3-9.4c-1.4-3.5-2-7-2-10.6c0-5.5,1-10.4,3.2-14.5c2.1-4.2,5-7.8,8.5-10.9
			c3.5-3.2,7.4-6,11.9-8.3s9.1-4.6,13.7-6.8c-0.5-2.8-0.8-5.7-1-8.6s-0.3-5.6-0.3-8.3c0-5.5,0.8-10.6,2.3-15s3.5-8.1,6.1-11.2
			c2.6-3,5.6-5.4,9.2-7c3.6-1.6,7.4-2.4,11.6-2.4c2.7,0,5.2,0.5,7.2,1.5c2,0.9,3.7,2.1,5.1,3.7c1.4,1.6,2.4,3.3,3,5.1
			c0.7,1.9,1,3.7,1,5.5c0,4.8-1,9.2-3,13c-2,3.7-4.6,7.1-7.9,9.9c-3.3,2.9-7,5.5-11.2,7.8s-8.3,4.4-12.6,6.3
			c1,5.3,2.3,10.4,3.9,15.4s3.6,9.9,5.9,14.4c2.3,4.5,4.8,8.7,7.8,12.5c2.9,3.8,6.2,7.1,9.8,9.8c3.9-2.8,7.4-5.9,10.7-9.2
			s6-6.8,8.3-10.3c2.4-3.5,4.1-6.8,5.4-10c1.2-3.3,1.9-6.2,1.9-8.7c0-1.9-0.2-3.5-0.7-4.7s-1-2.4-1.7-3.2c-0.8-0.8-1.6-1.4-2.6-1.7
			c-1-0.3-2-0.6-3.2-0.6c-0.9,0-1.9,0.2-2.8,0.6s-1.8,0.9-2.6,1.6s-1.4,1.6-1.9,2.7c-0.5,1-0.8,2.4-0.8,3.8c0,1.1,0.3,2.5,1,3.8
			c0.7,1.4,1.8,2.5,3.5,3.2l-1.6,3c-1.2-0.6-2.3-1.2-3-1.9c-0.8-0.8-1.5-1.6-1.9-2.5c-0.5-0.9-0.8-1.8-1-2.8
			c-0.2-0.9-0.3-1.8-0.3-2.7c0-2,0.5-3.7,1.2-5.3c0.8-1.5,1.9-2.7,3.2-3.7s2.6-1.8,4.1-2.3s2.8-0.8,4.2-0.8c3.7,0,6.6,1.1,8.9,3.4
			s3.4,5.5,3.4,9.7c0,2.7-0.7,5.7-2,9.1s-3.3,7-5.9,10.6c-2.5,3.7-5.5,7.3-9.1,11c-3.5,3.7-7.4,7.1-11.7,10.1
			c3.2,1.9,6.4,3.5,9.8,4.6c3.5,1.1,7.2,1.7,11.2,1.7c3.9,0,7.3-0.7,10.4-2c3-1.4,5.6-3,7.9-5.1s4.1-4.2,5.4-6.5
			c1.4-2.4,2.4-4.5,3-6.5L679.2,1926.3z M590.7,1948.6c5,0,9.7-0.7,14.3-1.9c4.6-1.2,8.9-3,13.1-5.4c-3.8-2.8-7.3-6.2-10.5-10
			s-5.9-8.1-8.3-12.7c-2.4-4.6-4.5-9.5-6.2-14.5s-3-10.3-3.9-15.4c-4.2,2-7.9,4.2-11.3,6.4s-6.3,4.7-8.7,7.4s-4.2,5.7-5.5,9.1
			c-1.2,3.4-1.9,7.2-1.9,11.5c0,4.5,0.9,8.3,2.6,11.6c1.7,3.2,3.9,5.9,6.8,8c2.7,2.1,5.9,3.6,9.2,4.6
			C583.8,1948.2,587.3,1948.6,590.7,1948.6z M595.7,1861.3c0,3.2,0.1,6.3,0.3,9.5s0.6,6.4,1.1,9.7c4.1-1.8,8.1-3.7,11.9-5.9
			c3.8-2,7.3-4.3,10.3-6.9c3-2.5,5.4-5.4,7.2-8.6s2.7-6.8,2.7-10.7c0-1.7-0.2-3.3-0.8-4.8s-1.4-3-2.4-4.3c-1-1.2-2.4-2.3-4.1-3
			c-1.6-0.8-3.5-1.1-5.7-1.1c-2.9,0-5.6,0.7-8.2,2c-2.6,1.4-4.7,3.2-6.5,5.5s-3.3,5.1-4.3,8.3
			C596.2,1854.3,595.7,1857.7,595.7,1861.3z"/>
	</g>
</g>
<g>
	<path class="st2" d="M248.5,1829.5c18.8-12.6,27.5-26.3,28.5-28c0,0,4.4-4.4,6.8,3.9c0,0-6.3,12.3-15.2,33.1
		c8.7-7.7,25.4-22.4,46.8-24.1c26.5-2,26.1,18.1,20,28.5c-3.6,5.8-39.1,63.9-37.1,86.9c1.4,16.4,13.5,9.1,21.3,2
		c15.7-14,22.9-35.2,34-38.4c-10.8,9.1-11.3,15.2-22.4,29s-19.6,20.3-29,18.6c-10.9-2-13.1-10.9-11.8-22.7
		c2-17.8,27.7-61.5,36.5-79.1c8.9-20.5-1-25.6-21.9-20.7c-14.5,3.6-32.3,18.3-38.3,23.7c-5.8,14-12.5,31.4-19.1,51.4
		c-14.5,43.9-29.4,62.7-41.7,63c-17.1,0.5-18.6-26-8.7-45.6c14.3-28.5,33.6-44.9,56.4-59.9c5.5-13.5,11.6-26.3,16.1-35.7
		c-29.5,32.3-80.6,30.7-95.8,74.3C183.6,1851.9,224,1846.1,248.5,1829.5z M214.6,1888.8c-17.6,23.6-21.5,40.5-20.2,50.5
		c1.4,9.7,7.5,16.4,14.9,11.6c12.5-8,24.6-39.8,34.8-73.1c2.4-7.9,5.3-16.2,8.5-24.2C244.9,1859.2,225.6,1874.1,214.6,1888.8z
		 M262.1,1843.2h0.2H262.1z"/>
	<path class="st2" d="M373.8,1934c9.7-14.3,21.7-38.8,30.1-40.6c-8.5,9.7-10.8,14.2-15.7,22c-9.4,15.2-14.5,25.4-20,24.6
		c-6.1-1-11.8-9.1-5.5-26.3c0.2-0.7,0.5-1.4,0.7-2c-7,8.5-13.7,16.7-20.2,9.4c-6.7-7.5-0.2-21,6-26.6c4.4-4.1,12.8-7.7,21.7-5.5
		c9.9,2.6,2.4,2.6,2.4,2.6s-12.6-2.7-21.7,11.8c-6.7,10.8-2.9,20.5,2.4,15.5c2.9-2.7,9.2-10.8,14.2-17.1c2.6-4.1,5.3-9.1,7.9-9.1
		c2.6-0.2,8.9,0.7,3.2,7.9C363.7,1920.7,363.4,1949.2,373.8,1934z"/>
	<path class="st2" d="M430.5,1902.9c-0.3-7.5-7.2-13-16.6-6.7c-8.9,6-11.8,13.8-14.3,20.8c0,0-10.4,3.2-6-10.4
		c6.3-19,15.7-38.9,28.2-56.7c14-19.8,33.1-39.4,44.9-32.3c8.2,5-8,34.7-37.1,58.2c-12.6,10.2-18.8,14.2-21.7,15.5
		c-1.4,3.2-2.9,7.2-4.4,11.6c1.4-2,2.9-4.1,5-6c14-13,28-4.6,28.2,8c0,3.4-0.5,7-1.9,10.8c18.8-7.7,24.4-19.6,24.4-19.1
		c0.2,4.1-8.9,15.2-25.3,21.5c-7,17.4-25.4,35.4-37.4,33.8c-9.2-1.2-12.6-11.3-5.1-19.3c3.8-4.1,10.1-9.1,27.5-12.3
		c2.7-0.5,5.3-1,7.7-1.7C429.3,1913.2,430.7,1907.7,430.5,1902.9z M416.2,1923.1c-32.3,6.3-29.9,27.3-20.2,25.4
		c9.6-1.7,22.4-14.3,29.4-27.5C422.5,1921.7,419.6,1922.4,416.2,1923.1z M413.9,1885.2c17.4-12,37.4-31.1,48-49.7
		c7.2-12.8,5.6-18.3-4.1-12.3c-10.6,6.7-27.7,26-37.7,44.7c-5.6,10.6-8.4,15.9-10.6,20.5C410.7,1887.6,412.1,1886.5,413.9,1885.2z"
		/>
	<path class="st2" d="M473.9,1913.9c-7.9,10.4-14,16.9-20.7,14.9c-10.6-3.4-1.7-29.9,5.8-34.8c3.4-1.7,5.1,0.2,4.6,2.9
		c-0.7,4.3-5.3,10.6-7.2,18.1c-1.4,5.6-3.1,12.1,1.2,11.6c5.3-0.5,15-15.5,21.9-23.9c5.6-7,7.3-9.1,10.9-9.1
		C485.3,1896.1,481,1904.5,473.9,1913.9z M465.7,1886.7c-2-0.7-2.2-1.9-0.7-4.8c1.7-3.2,0.7-3.9,3.4-5.5c1.9-1,8-0.3,6,3.9
		C472.2,1885,468.1,1887.4,465.7,1886.7z"/>
	<path class="st2" d="M478.7,1941.4c-0.5,5,0.2,8.9,4.6,2.6c13.3-18.6,29.5-44.2,43.2-50.2c-9.4,8.7-21.3,22.4-31.1,36.7
		c-13.3,19.6-15.2,20.8-19,18.8c-7-3.6-3.6-23.9,0.7-37.7c5.1-16.6,18.6-49.7,33.8-71.6c7.3-10.6,13.7-18.8,20.2-23.1
		c5.1-3.6,11.6-5,15,0.2c7.5,11.3-34.7,59.6-47.3,71c-2.4,2.2-4.1,3.8-5.5,4.8C482.8,1917.8,479.7,1932.3,478.7,1941.4z
		 M500.9,1876.5c-2,4.3-3.9,8.4-5.6,12.1c6.7-6.8,19-19.8,26.1-29c16.4-21,21.5-31.6,22.7-36.4c2.9-12-9.2,0.5-12.6,4.3
		C525.8,1833.8,514.9,1847.6,500.9,1876.5z"/>
</g>
<g>
	<path class="st2" d="M698.5,1863.1c13.8-15,36.9-22,55.5-34.2c18.3-11.8,24.9-20.2,27.2-23.9c0.7-1.4,2.9-8.7,6.5-5.1
		c3.1,3.1,3.4,7.9,3.4,7.9s-9.7,18.4-18.6,37.1c3.9-4.8,9.2-10.8,14.3-14.7c9.7-7.3,29-21.7,48.7-17.6c18.1,3.8,22.4,25.6,13,43.9
		c-8.2,16.1-22.4,29.7-36.2,39.6h2c13.7,0.5,35.7-1.2,42-16.6c-3.6,16.9-28,18.4-44.4,18.3c-0.7,0-1.4-0.2-2-0.2
		c-12,8.2-23.2,13.8-29.9,15.7c-14.9,4.3-15.7-7.7-8-12.1c6.8-3.9,18.6-5.3,31.1-5.3c24.4-18.8,51.4-50.4,39.8-71.7
		c-7.2-13-22-10.9-35.2-4.6c-21.5,10.4-35.9,29.4-40.3,36.4c-2.7,6-5.1,11.6-6.8,16.1c-7.9,21-24.1,71.4-39.3,80.8
		s-20.7-0.7-18.6-13.8c3.8-25.4,24.1-51.6,52.3-75.3c6.8-15.7,14.5-33.1,20.2-45.4c-9.6,10.9-32.8,21.2-57.9,34
		c-26,13.3-30.9,37.9-30.9,37.9S683.6,1879.4,698.5,1863.1z M705.1,1945.1c0.2,10.2,7.9,11.3,15,0.3s14.2-28.7,23.6-54.5
		c2-5.8,5.6-14.3,9.6-23.6C729.5,1891.2,704.6,1917.8,705.1,1945.1z M769.7,1908.7c0.5,6.8,14.9,0.9,30.9-11.1
		C785.9,1897.8,769,1899.7,769.7,1908.7z"/>
	<path class="st2" d="M878.5,1920c9.7-14.3,21.7-38.8,30.1-40.6c-8.5,9.7-10.8,14.2-15.7,22c-9.4,15.2-14.5,25.4-20,24.6
		c-6.1-1-11.8-9.1-5.5-26.3c0.2-0.7,0.5-1.4,0.7-2c-7,8.5-13.7,16.7-20.2,9.4c-6.7-7.5-0.2-21,6-26.6c4.4-4.1,12.8-7.7,21.7-5.5
		c9.9,2.6,2.4,2.6,2.4,2.6s-12.6-2.7-21.7,11.8c-6.7,10.8-2.9,20.5,2.4,15.5c2.9-2.7,9.2-10.8,14.2-17.1c2.6-4.1,5.3-9.1,7.9-9.1
		c2.6-0.2,8.9,0.7,3.2,7.9C868.4,1906.7,868,1935.2,878.5,1920z"/>
	<path class="st2" d="M905.4,1879.7c6.1-1.4,9.6,2.2,3.1,14.5c-6,11.4,0.2,15.7,6.8,10.4c7.7-6.1,15.9-20.2,18.6-23.2
		c4.6-5.3,7.3-2.7,8.2,1.7c1.4,6.1-2.7,8.9-10.6,26.3c-7.2,15.7,2,17.9,11.4,7c15-17.6,19-35,29.9-36.7c-9.2,4.4-9.1,13.3-25.3,34.7
		c-4.4,5.8-12.8,15.9-21.7,8.5c-11.3-9.4,4.8-31.3,4.3-33c0,0-2.9,7-11.4,14.5c-9.1,8-17.1,3.8-19.5-1.5
		C896.4,1896.6,903.4,1889.6,905.4,1879.7z"/>
	<path class="st2" d="M961.1,1927.4c-0.5,5,0.2,8.9,4.6,2.6c13.3-18.6,29.5-44.2,43.2-50.2c-9.4,8.7-21.3,22.4-31.1,36.7
		c-13.3,19.6-15.2,20.8-19,18.8c-7-3.6-3.6-23.9,0.7-37.7c5.1-16.6,18.6-49.7,33.8-71.6c7.3-10.6,13.7-18.8,20.2-23.1
		c5.1-3.6,11.6-5,15,0.2c7.5,11.3-34.7,59.6-47.3,71c-2.4,2.2-4.1,3.8-5.5,4.8C965.2,1903.8,962.1,1918.3,961.1,1927.4z
		 M983.3,1862.5c-2,4.3-3.9,8.4-5.6,12.1c6.7-6.8,19-19.8,26.1-29c16.4-21,21.5-31.6,22.7-36.4c2.9-12-9.2,0.5-12.6,4.3
		C1008.2,1819.8,997.3,1833.6,983.3,1862.5z"/>
	<path class="st2" d="M1028.7,1920c9.7-14.3,21.7-38.8,30.1-40.6c-8.5,9.7-10.8,14.2-15.7,22c-9.4,15.2-14.5,25.4-20,24.6
		c-6.1-1-11.8-9.1-5.5-26.3c0.2-0.7,0.5-1.4,0.7-2c-7,8.5-13.7,16.7-20.2,9.4c-6.7-7.5-0.2-21,6-26.6c4.4-4.1,12.8-7.7,21.7-5.5
		c9.9,2.6,2.4,2.6,2.4,2.6s-12.6-2.7-21.7,11.8c-6.7,10.8-2.9,20.5,2.4,15.5c2.9-2.7,9.2-10.8,14.2-17.1c2.6-4.1,5.3-9.1,7.9-9.1
		c2.6-0.2,8.9,0.7,3.2,7.9C1018.7,1906.7,1018.3,1935.2,1028.7,1920z"/>
</g>
<text transform="matrix(1 0 0 1 2002 1622.3301)" class="st2" style="font-family:'AisyahDemo'; font-size:170.7741px;">Nabil</text>
<text transform="matrix(1 0 0 1 2385 1622.3301)" class="st2" style="font-family:'AisyahDemo'; font-size:170.7741px;">Paula</text>
</svg>
