<?xml version="1.0" encoding="utf-8"?>
<!-- Generator: Adobe Illustrator 25.4.1, SVG Export Plug-In . SVG Version: 6.00 Build 0)  -->
<!DOCTYPE svg PUBLIC "-//W3C//DTD SVG 1.1//EN" "http://www.w3.org/Graphics/SVG/1.1/DTD/svg11.dtd" [
	<!ENTITY ns_extend "http://ns.adobe.com/Extensibility/1.0/">
	<!ENTITY ns_ai "http://ns.adobe.com/AdobeIllustrator/10.0/">
	<!ENTITY ns_graphs "http://ns.adobe.com/Graphs/1.0/">
	<!ENTITY ns_vars "http://ns.adobe.com/Variables/1.0/">
	<!ENTITY ns_imrep "http://ns.adobe.com/ImageReplacement/1.0/">
	<!ENTITY ns_sfw "http://ns.adobe.com/SaveForWeb/1.0/">
	<!ENTITY ns_custom "http://ns.adobe.com/GenericCustomNamespace/1.0/">
	<!ENTITY ns_adobe_xpath "http://ns.adobe.com/XPath/1.0/">
]>
<svg version="1.1" id="Capa_1" xmlns:x="&ns_extend;" xmlns:i="&ns_ai;" xmlns:graph="&ns_graphs;"
	 xmlns="http://www.w3.org/2000/svg" xmlns:xlink="http://www.w3.org/1999/xlink" x="0px" y="0px" viewBox="0 0 1242 2208"
	 style="enable-background:new 0 0 1242 2208;" xml:space="preserve">
<style type="text/css">
	.st0{display:none;}
	.st1{display:inline;opacity:0.3;fill:#FCF8F0;enable-background:new    ;}
	.st2{fill:#838283;}
	.st3{fill:#A53333;stroke:#A53333;stroke-miterlimit:10;}
	.st4{fill:#49707F;}
	.st5{fill:none;}
</style>
<metadata>
	<sfw  xmlns="&ns_sfw;">
		<slices></slices>
		<sliceSourceBounds  bottomLeftOrigin="true" height="2267.5" width="1275.5" x="-16.9" y="-29.9"></sliceSourceBounds>
	</sfw>
</metadata>
<g id="fondo" class="st0">
	<rect x="-16.9" y="-29.6" class="st1" width="1275.5" height="2267.5"/>
</g>
<g id="Capa_2_00000086679546629099905610000014225892356357704576_" class="st0">
</g>
<g id="Capa_4" class="st0">
</g>
<g>
	<path class="st2" d="M399.9,821l-5.2,17.9h4.2c3,0,5.2-0.5,6.6-1.4s2.5-2.6,3.5-5.1h1.2l-4.6,16.4h-1.3c0.4-1.4,0.6-2.6,0.6-3.6
		c0-0.9-0.2-1.7-0.6-2.3s-0.9-1-1.6-1.3s-2.1-0.4-4.3-0.4h-4.3l-4.4,15c-0.4,1.5-0.6,2.6-0.6,3.3c0,0.6,0.3,1.1,0.8,1.5
		c0.4,0.3,1.3,0.5,2.8,0.5h4c4.3,0,7.8-0.8,10.4-2.3s5-4.2,7-8h1.2l-4.3,12.6h-35l0.4-1.2c1.7,0,2.9-0.2,3.5-0.5
		c0.9-0.4,1.5-0.9,1.9-1.5c0.6-0.9,1.3-2.8,2.1-5.8l8-27.3c0.6-2.2,0.9-3.9,0.9-5.1c0-0.8-0.3-1.5-0.9-2s-1.7-0.7-3.4-0.7h-0.7
		l0.4-1.2h32.5l-2.8,10.9h-1.2c0.2-1,0.2-1.9,0.2-2.6c0-1.2-0.3-2.2-0.9-3c-0.8-1-1.9-1.8-3.3-2.3c-1.1-0.4-3.5-0.6-7.4-0.6
		L399.9,821L399.9,821z"/>
	<path class="st2" d="M439.8,816.3L428.5,856c-0.6,2-0.8,3.2-0.8,3.6c0,0.3,0.1,0.6,0.3,0.8s0.5,0.3,0.8,0.3c0.4,0,0.9-0.2,1.4-0.6
		c1.2-0.9,2.4-2.3,3.6-4.2l1,1c-2.1,3-4,5.1-5.8,6.3c-1.3,0.8-2.5,1.2-3.7,1.2c-0.8,0-1.5-0.3-2.1-0.9c-0.6-0.6-0.8-1.2-0.8-2
		s0.3-2.4,1-4.9l9.1-31.3c0.7-2.6,1.1-4,1.1-4.4c0-0.6-0.2-1-0.6-1.3s-1.1-0.5-2-0.5c-0.5,0-1.3,0.1-2.3,0.2v-1.2L439.8,816.3z"/>
	<path class="st2" d="M492.5,816.3L481,855.7c-0.6,2.1-1,3.5-1,4.2c0,0.2,0.1,0.4,0.3,0.6c0.2,0.2,0.4,0.3,0.6,0.3
		c0.3,0,0.6-0.1,1-0.4c0.8-0.6,2-1.9,3.8-4l1.2,0.7c-1.6,2.2-3.2,4-4.9,5.4c-1.6,1.4-3.2,2.1-4.6,2.1c-0.8,0-1.4-0.3-1.9-0.8
		s-0.7-1.3-0.7-2.3c0-1.3,0.3-3,1-5.1l1.3-4.1c-3.2,5-6.1,8.5-8.8,10.4c-1.8,1.3-3.6,1.9-5.2,1.9c-1.7,0-3.2-0.7-4.5-2.2
		s-1.9-3.5-1.9-6.1c0-3.3,1.1-6.9,3.2-10.6c2.1-3.7,4.9-6.8,8.4-9.2c2.7-1.9,5.2-2.9,7.5-2.9c1.2,0,2.2,0.2,3.1,0.7s1.7,1.3,2.6,2.4
		l3.3-11.6c0.2-0.8,0.4-1.5,0.6-2c0.3-0.9,0.4-1.6,0.4-2.2c0-0.5-0.2-0.9-0.5-1.2c-0.5-0.4-1.1-0.6-1.8-0.6c-0.5,0-1.3,0.1-2.5,0.2
		v-1.2L492.5,816.3z M480.1,840c0-1.4-0.4-2.6-1.2-3.4c-0.8-0.9-1.9-1.3-3.1-1.3c-2.8,0-5.7,2.3-8.8,6.9c-3,4.6-4.5,9-4.5,13.3
		c0,1.7,0.4,3,1.1,3.8c0.7,0.9,1.6,1.3,2.6,1.3c2.3,0,5.2-2.5,8.7-7.5C478.4,848.1,480.1,843.8,480.1,840z"/>
	<path class="st2" d="M505.4,833.6l-6.6,23.4c-0.4,1.6-0.7,2.5-0.7,2.8c0,0.4,0.1,0.6,0.3,0.9c0.2,0.2,0.4,0.3,0.7,0.3
		c0.4,0,0.8-0.2,1.2-0.5c1.3-1,2.6-2.4,3.9-4.3l1.2,0.8c-1.5,2.3-3.3,4.2-5.3,5.8c-1.5,1.2-2.9,1.7-4.3,1.7c-0.9,0-1.7-0.3-2.2-0.8
		c-0.6-0.5-0.9-1.2-0.9-2.1c0-0.8,0.3-2.2,0.8-4.1l4.4-15c0.7-2.4,1-4,1-4.6c0-0.5-0.2-0.9-0.5-1.2s-0.8-0.5-1.4-0.5
		c-0.5,0-1.5,0.1-3.1,0.4v-1.3L505.4,833.6z M512.5,817l-9.8,11.5h-1.1L505,817H512.5z"/>
	<path class="st2" d="M540.7,833.6l-6.5,22.6l-0.7,3.1c-0.1,0.3-0.1,0.5-0.1,0.7c0,0.4,0.1,0.7,0.3,1c0.2,0.2,0.4,0.3,0.7,0.3
		s0.6-0.2,1.1-0.5c0.9-0.6,2-2,3.5-4l1.1,0.8c-1.5,2.3-3.1,4.1-4.7,5.3c-1.6,1.2-3.1,1.8-4.5,1.8c-0.9,0-1.7-0.2-2.1-0.7
		c-0.5-0.5-0.7-1.2-0.7-2.1c0-1.1,0.2-2.5,0.7-4.3l0.7-2.5c-2.9,3.8-5.6,6.5-8,8c-1.8,1.1-3.5,1.6-5.2,1.6c-1.6,0-3-0.7-4.2-2
		s-1.8-3.2-1.8-5.5c0-3.5,1.1-7.3,3.2-11.2c2.1-3.9,4.8-7.1,8.1-9.4c2.5-1.9,4.9-2.8,7.2-2.8c1.4,0,2.5,0.4,3.4,1.1
		c0.9,0.7,1.6,1.9,2.1,3.6l1.2-3.8L540.7,833.6z M528.9,835.3c-1.4,0-2.9,0.7-4.5,2c-2.3,1.9-4.3,4.7-6.1,8.4s-2.7,7.1-2.7,10.1
		c0,1.5,0.4,2.7,1.1,3.6c0.8,0.9,1.6,1.3,2.6,1.3c2.4,0,5-1.8,7.9-5.4c3.8-4.8,5.7-9.6,5.7-14.6c0-1.9-0.4-3.2-1.1-4.1
		C531.1,835.7,530.1,835.3,528.9,835.3z"/>
	<path class="st2" d="M596.9,816.3l-11.5,39.4c-0.6,2.1-1,3.5-1,4.2c0,0.2,0.1,0.4,0.3,0.6s0.4,0.3,0.6,0.3c0.3,0,0.6-0.1,1-0.4
		c0.8-0.6,2-1.9,3.8-4l1.2,0.7c-1.6,2.2-3.2,4-4.9,5.4c-1.6,1.4-3.2,2.1-4.6,2.1c-0.8,0-1.4-0.3-1.9-0.8s-0.7-1.3-0.7-2.3
		c0-1.3,0.3-3,1-5.1l1.3-4.1c-3.2,5-6.1,8.5-8.8,10.4c-1.8,1.3-3.6,1.9-5.2,1.9c-1.7,0-3.2-0.7-4.5-2.2s-1.9-3.5-1.9-6.1
		c0-3.3,1.1-6.9,3.2-10.6s4.9-6.8,8.4-9.2c2.7-1.9,5.2-2.9,7.5-2.9c1.2,0,2.2,0.2,3.1,0.7s1.7,1.3,2.6,2.4l3.3-11.6
		c0.2-0.8,0.4-1.5,0.6-2c0.3-0.9,0.4-1.6,0.4-2.2c0-0.5-0.2-0.9-0.5-1.2c-0.5-0.4-1.1-0.6-1.8-0.6c-0.5,0-1.3,0.1-2.5,0.2v-1.2
		L596.9,816.3z M584.5,840c0-1.4-0.4-2.6-1.2-3.4c-0.8-0.9-1.9-1.3-3.1-1.3c-2.8,0-5.7,2.3-8.8,6.9c-3,4.6-4.5,9-4.5,13.3
		c0,1.7,0.4,3,1.1,3.8c0.7,0.9,1.6,1.3,2.6,1.3c2.3,0,5.2-2.5,8.7-7.5C582.7,848.1,584.5,843.8,584.5,840z"/>
	<path class="st2" d="M602.2,851.2c-0.1,1.1-0.2,2-0.2,2.7c0,2,0.7,3.7,2.1,5.1c1.4,1.4,3.1,2.1,5.1,2.1c1.6,0,3.1-0.3,4.6-1
		s3.7-2.1,6.6-4.4l0.7,1c-5.3,5.2-10.3,7.8-15.1,7.8c-3.2,0-5.7-1-7.3-3.1c-1.6-2-2.5-4.3-2.5-6.8c0-3.3,1-6.7,3.1-10.2
		c2-3.5,4.6-6.2,7.7-8.1c3.1-1.9,6.3-2.9,9.6-2.9c2.3,0,4.1,0.5,5.2,1.5c1.1,1,1.7,2.1,1.7,3.4c0,1.9-0.7,3.6-2.2,5.3
		c-1.9,2.2-4.8,4-8.5,5.3C610.2,850,606.7,850.7,602.2,851.2z M602.4,849.6c3.3-0.4,6-1,8-1.9c2.7-1.2,4.8-2.7,6.2-4.4
		s2.1-3.3,2.1-4.9c0-0.9-0.3-1.7-0.9-2.2c-0.6-0.6-1.4-0.9-2.5-0.9c-2.3,0-4.7,1.2-7.2,3.6C605.5,841.3,603.6,844.8,602.4,849.6z"/>
	<path class="st2" d="M661.7,816.3L650.3,856c-0.6,2-0.8,3.2-0.8,3.6c0,0.3,0.1,0.6,0.3,0.8s0.5,0.3,0.8,0.3c0.4,0,0.9-0.2,1.4-0.6
		c1.2-0.9,2.4-2.3,3.6-4.2l1,1c-2.1,3-4,5.1-5.8,6.3c-1.3,0.8-2.5,1.2-3.7,1.2c-0.8,0-1.5-0.3-2.1-0.9s-0.8-1.2-0.8-2s0.3-2.4,1-4.9
		l9.1-31.3c0.7-2.6,1.1-4,1.1-4.4c0-0.6-0.2-1-0.6-1.3s-1.1-0.5-2-0.5c-0.5,0-1.3,0.1-2.3,0.2v-1.2L661.7,816.3z"/>
	<path class="st2" d="M692.5,833.6l-6.5,22.6l-0.7,3.1c-0.1,0.3-0.1,0.5-0.1,0.7c0,0.4,0.1,0.7,0.3,1c0.2,0.2,0.4,0.3,0.7,0.3
		s0.6-0.2,1.1-0.5c0.9-0.6,2-2,3.5-4l1.1,0.8c-1.5,2.3-3.1,4.1-4.7,5.3c-1.6,1.2-3.1,1.8-4.5,1.8c-0.9,0-1.7-0.2-2.1-0.7
		c-0.5-0.5-0.7-1.2-0.7-2.1c0-1.1,0.2-2.5,0.7-4.3l0.7-2.5c-2.9,3.8-5.6,6.5-8,8c-1.8,1.1-3.5,1.6-5.2,1.6c-1.6,0-3-0.7-4.2-2
		s-1.8-3.2-1.8-5.5c0-3.5,1.1-7.3,3.2-11.2c2.1-3.9,4.8-7.1,8.1-9.4c2.5-1.9,4.9-2.8,7.2-2.8c1.4,0,2.5,0.4,3.4,1.1
		c0.9,0.7,1.6,1.9,2.1,3.6l1.2-3.8L692.5,833.6z M680.6,835.3c-1.4,0-2.9,0.7-4.5,2c-2.3,1.9-4.3,4.7-6.1,8.4s-2.7,7.1-2.7,10.1
		c0,1.5,0.4,2.7,1.1,3.6c0.8,0.9,1.6,1.3,2.6,1.3c2.4,0,5-1.8,7.9-5.4c3.8-4.8,5.7-9.6,5.7-14.6c0-1.9-0.4-3.2-1.1-4.1
		C682.9,835.7,681.9,835.3,680.6,835.3z"/>
	<path class="st2" d="M731.3,816.3l-6.6,23.1c2.1-2.2,4-3.8,5.6-4.6s3.3-1.2,5-1.2c2.5,0,4.5,0.8,6,2.4c1.6,1.6,2.3,3.8,2.3,6.6
		c0,3.6-1,7.1-3.1,10.7c-2.1,3.5-4.6,6.3-7.7,8.3s-6.1,3-9.1,3c-3.4,0-6.8-1.3-10.4-3.8l10.2-34.9c0.8-2.7,1.2-4.3,1.2-4.8
		c0-0.6-0.2-1-0.5-1.3c-0.5-0.4-1.2-0.6-2.2-0.6c-0.5,0-1.2,0.1-2.2,0.2v-1.3L731.3,816.3z M718.4,861.2c2.2,1.2,4.2,1.8,5.9,1.8
		c2,0,4-0.7,6.1-2.1c2.1-1.4,3.9-3.8,5.5-7.3c1.5-3.4,2.3-6.8,2.3-10.3c0-2-0.5-3.6-1.5-4.8s-2.2-1.7-3.6-1.7
		c-2.1,0-4.1,0.8-6.1,2.5s-3.4,4-4.2,6.9L718.4,861.2z"/>
	<path class="st2" d="M777.3,844c0,3.3-0.9,6.6-2.7,9.9c-1.8,3.3-4.2,5.9-7.4,7.8c-3.1,1.9-6.2,2.9-9.2,2.9s-5.5-1-7.5-2.9
		s-2.9-4.5-2.9-7.5c0-3.3,0.9-6.6,2.8-9.9c1.9-3.3,4.4-5.9,7.5-7.8c3.1-1.9,6.2-2.9,9.1-2.9c3,0,5.4,1,7.3,2.9
		S777.3,840.9,777.3,844z M771.8,841.7c0-2.1-0.5-3.7-1.5-4.8s-2.3-1.7-3.9-1.7c-3.3,0-6.3,2.3-9,7s-4.1,9.3-4.1,14
		c0,2.1,0.5,3.7,1.6,4.9c1.1,1.1,2.4,1.7,4,1.7c3.1,0,6.1-2.3,8.8-7C770.5,851.3,771.8,846.5,771.8,841.7z"/>
	<path class="st2" d="M816.9,816.3l-11.5,39.4c-0.6,2.1-1,3.5-1,4.2c0,0.2,0.1,0.4,0.3,0.6s0.4,0.3,0.6,0.3c0.3,0,0.6-0.1,1-0.4
		c0.8-0.6,2-1.9,3.8-4l1.2,0.7c-1.6,2.2-3.2,4-4.9,5.4c-1.6,1.4-3.2,2.1-4.6,2.1c-0.8,0-1.4-0.3-1.9-0.8s-0.7-1.3-0.7-2.3
		c0-1.3,0.3-3,1-5.1l1.3-4.1c-3.2,5-6.1,8.5-8.8,10.4c-1.8,1.3-3.6,1.9-5.2,1.9c-1.7,0-3.2-0.7-4.5-2.2s-1.9-3.5-1.9-6.1
		c0-3.3,1.1-6.9,3.2-10.6s4.9-6.8,8.4-9.2c2.7-1.9,5.2-2.9,7.5-2.9c1.2,0,2.2,0.2,3.1,0.7s1.7,1.3,2.6,2.4l3.3-11.6
		c0.2-0.8,0.4-1.5,0.6-2c0.3-0.9,0.4-1.6,0.4-2.2c0-0.5-0.2-0.9-0.5-1.2c-0.5-0.4-1.1-0.6-1.8-0.6c-0.5,0-1.3,0.1-2.5,0.2v-1.2
		L816.9,816.3z M804.5,840c0-1.4-0.4-2.6-1.2-3.4c-0.8-0.9-1.9-1.3-3.1-1.3c-2.8,0-5.7,2.3-8.8,6.9c-3,4.6-4.5,9-4.5,13.3
		c0,1.7,0.4,3,1.1,3.8c0.7,0.9,1.6,1.3,2.6,1.3c2.3,0,5.2-2.5,8.7-7.5C802.7,848.1,804.5,843.8,804.5,840z"/>
	<path class="st2" d="M846.1,833.6l-6.5,22.6l-0.7,3.1c-0.1,0.3-0.1,0.5-0.1,0.7c0,0.4,0.1,0.7,0.3,1c0.2,0.2,0.4,0.3,0.7,0.3
		s0.6-0.2,1.1-0.5c0.9-0.6,2-2,3.5-4l1.1,0.8c-1.5,2.3-3.1,4.1-4.7,5.3c-1.6,1.2-3.1,1.8-4.5,1.8c-0.9,0-1.7-0.2-2.1-0.7
		c-0.5-0.5-0.7-1.2-0.7-2.1c0-1.1,0.2-2.5,0.7-4.3l0.7-2.5c-2.9,3.8-5.6,6.5-8,8c-1.8,1.1-3.5,1.6-5.2,1.6c-1.6,0-3-0.7-4.2-2
		s-1.8-3.2-1.8-5.5c0-3.5,1.1-7.3,3.2-11.2c2.1-3.9,4.8-7.1,8.1-9.4c2.5-1.9,4.9-2.8,7.2-2.8c1.4,0,2.5,0.4,3.4,1.1
		c0.9,0.7,1.6,1.9,2.1,3.6l1.2-3.8L846.1,833.6z M834.2,835.3c-1.4,0-2.9,0.7-4.5,2c-2.3,1.9-4.3,4.7-6.1,8.4s-2.7,7.1-2.7,10.1
		c0,1.5,0.4,2.7,1.1,3.6s1.6,1.3,2.6,1.3c2.4,0,5-1.8,7.9-5.4c3.8-4.8,5.7-9.6,5.7-14.6c0-1.9-0.4-3.2-1.1-4.1
		C836.5,835.7,835.5,835.3,834.2,835.3z"/>
	<path class="st2" d="M847.5,871.3c1.7-0.7,3-1.7,4.1-2.9c0.8-0.9,1.2-1.7,1.2-2.6c0-0.4-0.1-0.8-0.2-1.1c-0.1-0.2-0.4-0.5-0.9-1.1
		c-0.5-0.5-0.8-0.9-0.9-1.1c-0.1-0.4-0.2-0.8-0.2-1.3c0-1,0.3-1.8,1-2.5c0.6-0.7,1.4-1,2.3-1c0.9,0,1.7,0.4,2.4,1.1
		c0.7,0.7,1.1,1.7,1.1,2.8c0,2-0.8,4-2.3,6s-3.8,3.6-6.8,4.7L847.5,871.3z"/>
	<path class="st2" d="M383.1,927.1l-2.6,9.1h5.3l-0.6,2.1H380l-5.8,19.6c-0.6,2.1-0.9,3.5-0.9,4.1c0,0.4,0.1,0.7,0.2,0.9
		c0.2,0.2,0.4,0.3,0.6,0.3c0.6,0,1.3-0.4,2.2-1.2c0.6-0.4,1.8-1.8,3.6-4.1l1.1,0.9c-2,3-4,5.1-5.8,6.3c-1.2,0.8-2.5,1.2-3.8,1.2
		c-1,0-1.8-0.3-2.4-0.9c-0.6-0.6-0.9-1.4-0.9-2.4c0-1.2,0.3-3,1-5.5l5.6-19.3h-5.1l0.3-1.3c2.5-0.7,4.5-1.7,6.1-3s3.4-3.6,5.4-6.9
		h1.7L383.1,927.1L383.1,927.1z"/>
	<path class="st2" d="M415.9,945.8c0,3.3-0.9,6.6-2.7,9.9c-1.8,3.3-4.2,5.9-7.4,7.8c-3.1,1.9-6.2,2.9-9.2,2.9s-5.5-1-7.5-2.9
		c-1.9-1.9-2.9-4.5-2.9-7.5c0-3.3,0.9-6.6,2.8-9.9c1.9-3.3,4.4-5.9,7.5-7.8c3.1-1.9,6.2-2.9,9.1-2.9c3,0,5.4,1,7.3,2.9
		C414.8,940.2,415.9,942.8,415.9,945.8z M410.4,943.6c0-2.1-0.5-3.7-1.5-4.8s-2.3-1.7-3.9-1.7c-3.3,0-6.3,2.3-9,7s-4.1,9.3-4.1,14
		c0,2.1,0.5,3.7,1.6,4.9c1.1,1.1,2.4,1.7,4,1.7c3.1,0,6.1-2.3,8.8-7C409,953.1,410.4,948.4,410.4,943.6z"/>
	<path class="st2" d="M433.3,935.4l-4.3,15.1c1.9-3.5,3.6-6.2,4.9-8c2.1-2.8,4.2-4.8,6.2-6c1.2-0.7,2.4-1.1,3.7-1.1
		c1.1,0,2,0.4,2.8,1.1c0.7,0.7,1.1,1.6,1.1,2.7s-0.3,2.5-0.8,4.3l-2.4,8.5c3.6-6.8,7.1-11.6,10.3-14.3c1.8-1.5,3.6-2.3,5.3-2.3
		c1,0,1.9,0.4,2.5,1.1c0.7,0.7,1,1.8,1,3.3c0,1.3-0.2,2.7-0.6,4.1l-3.6,13c-0.8,2.8-1.2,4.4-1.2,4.7s0.1,0.6,0.3,0.8
		c0.1,0.2,0.3,0.2,0.5,0.2s0.6-0.2,1.2-0.6c1.3-1,2.5-2.3,3.6-3.9l1.1,0.7c-0.6,0.9-1.5,2.1-2.9,3.7c-1.4,1.6-2.6,2.6-3.6,3.2
		s-1.9,0.8-2.8,0.8c-0.8,0-1.5-0.3-2-0.8s-0.8-1.2-0.8-1.9c0-1.1,0.5-3.2,1.4-6.5l3-10.7c0.7-2.5,1-3.9,1.1-4.1
		c0.1-0.4,0.1-0.9,0.1-1.2c0-0.6-0.1-1-0.4-1.3s-0.6-0.5-0.9-0.5c-0.9,0-1.9,0.5-2.9,1.5c-3.1,2.8-6,6.8-8.6,11.8
		c-1.8,3.4-3.4,7.7-4.9,12.9h-5.1l5.7-20.2c0.6-2.2,0.9-3.6,0.9-4.4c0-0.6-0.1-1.1-0.4-1.3c-0.2-0.3-0.5-0.4-0.9-0.4
		c-0.7,0-1.5,0.3-2.4,0.8c-1.3,0.9-3,2.7-5.1,5.6c-2.1,2.8-3.7,5.6-4.9,8.2c-0.6,1.2-1.9,5.1-4,11.8h-4.9l6.2-21.6l0.8-2.8
		c0.2-0.4,0.2-0.8,0.2-1c0-0.5-0.2-0.9-0.7-1.3s-1-0.6-1.7-0.6c-0.3,0-1.1,0.1-2.4,0.4l-0.3-1.2L433.3,935.4z"/>
	<path class="st2" d="M499.9,935.4l-6.5,22.6l-0.7,3.1c-0.1,0.3-0.1,0.5-0.1,0.7c0,0.4,0.1,0.7,0.3,1c0.2,0.2,0.4,0.3,0.7,0.3
		c0.3,0,0.6-0.2,1.1-0.5c0.9-0.6,2-2,3.5-4l1.1,0.8c-1.5,2.3-3.1,4.1-4.7,5.3s-3.1,1.8-4.5,1.8c-0.9,0-1.7-0.2-2.1-0.7
		c-0.5-0.5-0.7-1.2-0.7-2.1c0-1.1,0.2-2.5,0.7-4.3l0.7-2.5c-2.9,3.8-5.6,6.5-8,8c-1.8,1.1-3.5,1.6-5.2,1.6c-1.6,0-3-0.7-4.2-2
		s-1.8-3.2-1.8-5.5c0-3.5,1.1-7.3,3.2-11.2s4.8-7.1,8.1-9.4c2.5-1.9,4.9-2.8,7.2-2.8c1.4,0,2.5,0.4,3.4,1.1c0.9,0.7,1.6,1.9,2.1,3.6
		l1.2-3.8L499.9,935.4z M488,937.1c-1.4,0-2.9,0.7-4.5,2c-2.3,1.9-4.3,4.7-6.1,8.4c-1.8,3.7-2.7,7.1-2.7,10.1c0,1.5,0.4,2.7,1.1,3.6
		c0.8,0.9,1.6,1.3,2.6,1.3c2.4,0,5-1.8,7.9-5.4c3.8-4.8,5.7-9.6,5.7-14.6c0-1.9-0.4-3.2-1.1-4.1C490.3,937.6,489.3,937.1,488,937.1z
		"/>
	<path class="st2" d="M533.9,935.4l-4.3,15.1c1.9-3.5,3.6-6.2,4.9-8c2.1-2.8,4.2-4.8,6.2-6c1.2-0.7,2.4-1.1,3.7-1.1
		c1.1,0,2,0.4,2.8,1.1c0.7,0.7,1.1,1.6,1.1,2.7s-0.3,2.5-0.8,4.3l-2.4,8.5c3.6-6.8,7.1-11.6,10.3-14.3c1.8-1.5,3.6-2.3,5.3-2.3
		c1,0,1.9,0.4,2.5,1.1c0.7,0.7,1,1.8,1,3.3c0,1.3-0.2,2.7-0.6,4.1l-3.6,13c-0.8,2.8-1.2,4.4-1.2,4.7s0.1,0.6,0.3,0.8
		c0.1,0.2,0.3,0.2,0.5,0.2s0.6-0.2,1.2-0.6c1.3-1,2.5-2.3,3.6-3.9l1.1,0.7c-0.6,0.9-1.5,2.1-2.9,3.7s-2.6,2.6-3.6,3.2
		s-1.9,0.8-2.8,0.8c-0.8,0-1.5-0.3-2-0.8s-0.8-1.2-0.8-1.9c0-1.1,0.5-3.2,1.4-6.5l3-10.7c0.7-2.5,1-3.9,1.1-4.1
		c0.1-0.4,0.1-0.9,0.1-1.2c0-0.6-0.1-1-0.4-1.3c-0.3-0.3-0.6-0.5-0.9-0.5c-0.9,0-1.9,0.5-2.9,1.5c-3.1,2.8-6,6.8-8.6,11.8
		c-1.8,3.4-3.4,7.7-4.9,12.9h-5.1l5.7-20.2c0.6-2.2,0.9-3.6,0.9-4.4c0-0.6-0.1-1.1-0.4-1.3c-0.2-0.3-0.5-0.4-0.9-0.4
		c-0.7,0-1.5,0.3-2.4,0.8c-1.3,0.9-3,2.7-5.1,5.6c-2.1,2.8-3.7,5.6-4.9,8.2c-0.6,1.2-1.9,5.1-4,11.8h-4.9l6.2-21.6l0.8-2.8
		c0.2-0.4,0.2-0.8,0.2-1c0-0.5-0.2-0.9-0.7-1.3s-1-0.6-1.7-0.6c-0.3,0-1.1,0.1-2.4,0.4l-0.3-1.2L533.9,935.4z"/>
	<path class="st2" d="M600.6,936.2l-5.8,19.9c-0.9,3-1.3,4.8-1.3,5.6c0,0.4,0.1,0.7,0.2,0.9c0.1,0.2,0.3,0.3,0.6,0.3
		c0.4,0,0.8-0.2,1.3-0.5s1.6-1.7,3.4-4.1l1,0.8c-1.8,2.8-3.6,4.8-5.4,6.1c-1.2,0.8-2.4,1.2-3.5,1.2c-0.9,0-1.6-0.2-2.1-0.7
		s-0.7-1.1-0.7-1.9s0.1-1.8,0.4-3c0.4-1.6,1.4-5.2,3.1-10.7c-3.8,6.2-6.9,10.5-9.5,12.8c-2.5,2.3-4.9,3.5-7.1,3.5
		c-1,0-1.9-0.4-2.6-1.1c-0.7-0.7-1.1-1.6-1.1-2.7c0-1.7,0.5-4.2,1.5-7.7l2.9-10.3c0.7-2.5,1-4,1-4.6c0-0.2-0.1-0.5-0.3-0.7
		s-0.4-0.3-0.6-0.3c-0.5,0-0.9,0.2-1.4,0.5s-1.5,1.6-3.2,3.7l-1-0.7c1.7-2.6,3.5-4.5,5.3-5.7c1.4-1,2.7-1.5,3.9-1.5
		c0.8,0,1.5,0.3,2,0.8s0.8,1.2,0.8,2c0,1.2-0.4,3.4-1.3,6.4l-3.1,10.8c-0.9,3-1.3,4.8-1.3,5.6c0,0.4,0.1,0.8,0.4,1
		c0.3,0.3,0.6,0.4,1.1,0.4c0.7,0,1.7-0.4,2.9-1.1s2.8-2.4,4.7-4.9c2-2.5,3.6-4.9,4.9-7.1c1.3-2.2,2.6-5.7,4.1-10.6l0.7-2.5
		L600.6,936.2L600.6,936.2z"/>
	<path class="st2" d="M628.9,958.3c-2.3,2.8-4.7,4.8-7,6.1c-2.4,1.3-4.9,1.9-7.5,1.9c-3.1,0-5.6-0.9-7.4-2.7
		c-1.8-1.8-2.7-4.2-2.7-7.2c0-3.4,1-6.7,2.9-10s4.5-6,7.7-8c3.2-2.1,6.4-3.1,9.4-3.1c2.4,0,4.2,0.5,5.4,1.5s1.8,2.3,1.8,3.7
		s-0.4,2.6-1.3,3.5c-0.6,0.8-1.4,1.2-2.3,1.2c-0.7,0-1.3-0.2-1.7-0.7c-0.5-0.5-0.7-1-0.7-1.7c0-0.4,0.1-0.8,0.2-1.2
		c0.2-0.4,0.5-0.8,1-1.3s0.8-0.9,1-1.1s0.2-0.5,0.2-0.7c0-0.5-0.2-0.9-0.6-1.2c-0.7-0.4-1.6-0.7-2.7-0.7c-2.2,0-4.3,0.8-6.5,2.3
		s-4,3.7-5.5,6.5c-1.8,3.4-2.7,6.9-2.7,10.3c0,2.3,0.6,4.1,1.9,5.4c1.3,1.3,3.1,2,5.3,2c1.7,0,3.4-0.4,5.1-1.3
		c1.7-0.9,3.6-2.4,5.6-4.6L628.9,958.3z"/>
	<path class="st2" d="M652.9,918.2l-9.4,32.4c4-6.1,7.2-10.2,9.4-12.2c2.3-2,4.4-3,6.5-3c1.1,0,2,0.4,2.7,1.1s1.1,1.7,1.1,2.9
		c0,1.5-0.3,3.2-0.9,5.3l-4.1,14c-0.5,1.7-0.8,2.6-0.8,2.8c0,0.3,0.1,0.6,0.3,0.7c0.2,0.2,0.4,0.3,0.7,0.3s0.6-0.1,1-0.4
		c1.3-1,2.5-2.3,3.8-4.1l1,0.6c-0.8,1.2-1.8,2.5-3.2,3.9c-1.3,1.4-2.5,2.4-3.5,2.9s-1.8,0.8-2.6,0.8s-1.5-0.3-2-0.8s-0.8-1.2-0.8-2
		c0-1,0.4-2.8,1.2-5.5l3.9-13.3c0.5-1.7,0.7-3,0.7-3.9c0-0.4-0.1-0.8-0.4-1.1c-0.3-0.3-0.6-0.4-1.1-0.4c-0.6,0-1.4,0.2-2.2,0.7
		c-1.5,0.9-3.3,2.7-5.2,5.2c-0.6,0.7-2.3,3.5-5.3,8.3c-0.9,1.5-1.7,3.2-2.3,5.1l-2.1,6.8h-5l11-38.2l1.2-4.1c0-0.6-0.2-1.1-0.7-1.5
		s-1.1-0.7-1.8-0.7c-0.4,0-1,0.1-1.8,0.2l-0.7,0.1v-1.3L652.9,918.2z"/>
	<path class="st2" d="M699.1,935.4l-6.5,22.6l-0.7,3.1c-0.1,0.3-0.1,0.5-0.1,0.7c0,0.4,0.1,0.7,0.3,1c0.2,0.2,0.4,0.3,0.7,0.3
		s0.6-0.2,1.1-0.5c0.9-0.6,2-2,3.5-4l1.1,0.8c-1.5,2.3-3.1,4.1-4.7,5.3c-1.6,1.2-3.1,1.8-4.5,1.8c-0.9,0-1.7-0.2-2.1-0.7
		c-0.5-0.5-0.7-1.2-0.7-2.1c0-1.1,0.2-2.5,0.7-4.3l0.7-2.5c-2.9,3.8-5.6,6.5-8,8c-1.8,1.1-3.5,1.6-5.2,1.6c-1.6,0-3-0.7-4.2-2
		s-1.8-3.2-1.8-5.5c0-3.5,1.1-7.3,3.2-11.2c2.1-3.9,4.8-7.1,8.1-9.4c2.5-1.9,4.9-2.8,7.2-2.8c1.4,0,2.5,0.4,3.4,1.1s1.6,1.9,2.1,3.6
		l1.2-3.8L699.1,935.4z M687.2,937.1c-1.4,0-2.9,0.7-4.5,2c-2.3,1.9-4.3,4.7-6.1,8.4s-2.7,7.1-2.7,10.1c0,1.5,0.4,2.7,1.1,3.6
		c0.8,0.9,1.6,1.3,2.6,1.3c2.4,0,5-1.8,7.9-5.4c3.8-4.8,5.7-9.6,5.7-14.6c0-1.9-0.4-3.2-1.1-4.1
		C689.5,937.6,688.5,937.1,687.2,937.1z"/>
	<path class="st2" d="M725.9,935.4l-2,10.3h-1.2c-0.1-3-0.7-5.2-1.9-6.5s-2.6-2-4.3-2c-1.4,0-2.4,0.4-3.3,1.1
		c-0.8,0.7-1.2,1.7-1.2,2.7c0,0.7,0.2,1.4,0.5,2.1s1,1.6,2.1,2.8c2.9,3.2,4.7,5.6,5.6,7.1c0.8,1.6,1.3,3.1,1.3,4.5
		c0,2.3-1,4.4-2.9,6.2s-4.3,2.7-7.3,2.7c-1.6,0-3.5-0.4-5.6-1.1c-0.7-0.3-1.3-0.4-1.7-0.4c-1,0-1.8,0.5-2.3,1.5h-1.2l2-10.8h1.2
		c0.1,3.4,0.8,5.8,2.1,7.2s3,2.1,5.2,2.1c1.7,0,3-0.5,4-1.4s1.5-2.1,1.5-3.5c0-0.9-0.2-1.7-0.5-2.5c-0.6-1.3-1.9-3.2-3.9-5.5
		c-2-2.4-3.3-4.1-3.8-5.3c-0.6-1.2-0.8-2.4-0.8-3.5c0-2.2,0.8-4,2.4-5.5c1.6-1.5,3.6-2.2,6-2.2c0.7,0,1.4,0.1,1.9,0.2
		c0.3,0.1,1,0.3,2.2,0.8c1.1,0.4,1.9,0.6,2.3,0.6c0.9,0,1.7-0.5,2.4-1.6L725.9,935.4L725.9,935.4z"/>
	<path class="st2" d="M765.1,936.2l-0.6,2.2h-4.9l-3.7,14.6c-1.6,6.4-3.3,11.4-4.9,14.9c-2.3,4.9-4.9,8.4-7.5,10.2
		c-2,1.5-4.1,2.2-6.1,2.2c-1.4,0-2.5-0.4-3.4-1.2c-0.7-0.6-1-1.3-1-2.2c0-0.7,0.3-1.3,0.8-1.9c0.6-0.5,1.2-0.8,2.1-0.8
		c0.6,0,1.1,0.2,1.5,0.6s0.6,0.8,0.6,1.3s-0.2,1-0.7,1.4c-0.4,0.3-0.5,0.5-0.5,0.7s0.1,0.3,0.2,0.5c0.2,0.2,0.5,0.2,0.9,0.2
		c1,0,2-0.3,3-0.9s2-1.5,2.8-2.7s1.6-2.9,2.4-5.1c0.3-0.9,1.1-4,2.5-9.2l5.8-22.6h-5.8l0.5-2.2c1.9,0,3.1-0.1,3.9-0.4
		c0.7-0.3,1.4-0.8,2-1.5s1.4-2.1,2.4-4.1c1.3-2.7,2.6-4.7,3.8-6.2c1.6-2,3.4-3.5,5.2-4.5s3.5-1.5,5.1-1.5c1.7,0,3,0.4,4.1,1.3
		c1,0.9,1.5,1.8,1.5,2.8c0,0.8-0.3,1.5-0.8,2s-1.2,0.8-2,0.8c-0.7,0-1.3-0.2-1.7-0.6s-0.7-0.9-0.7-1.4c0-0.4,0.1-0.8,0.4-1.3
		c0.3-0.5,0.4-0.9,0.4-1c0-0.3-0.1-0.5-0.3-0.7c-0.3-0.2-0.7-0.3-1.2-0.3c-1.4,0-2.7,0.4-3.8,1.3c-1.5,1.2-2.8,3-4,5.6
		c-0.6,1.3-1.7,4.6-3.3,9.8L765.1,936.2L765.1,936.2z"/>
	<path class="st2" d="M795.4,945.8c0,3.3-0.9,6.6-2.7,9.9s-4.2,5.9-7.4,7.8c-3.1,1.9-6.2,2.9-9.2,2.9s-5.5-1-7.5-2.9
		s-2.9-4.5-2.9-7.5c0-3.3,0.9-6.6,2.8-9.9c1.9-3.3,4.4-5.9,7.5-7.8s6.2-2.9,9.1-2.9c3,0,5.4,1,7.3,2.9S795.4,942.8,795.4,945.8z
		 M789.9,943.6c0-2.1-0.5-3.7-1.5-4.8s-2.3-1.7-3.9-1.7c-3.3,0-6.3,2.3-9,7s-4.1,9.3-4.1,14c0,2.1,0.5,3.7,1.6,4.9
		c1.1,1.1,2.4,1.7,4,1.7c3.1,0,6.1-2.3,8.8-7C788.5,953.1,789.9,948.4,789.9,943.6z"/>
	<path class="st2" d="M815.7,927.1l-2.6,9.1h5.3l-0.6,2.1h-5.2l-5.8,19.6c-0.6,2.1-0.9,3.5-0.9,4.1c0,0.4,0.1,0.7,0.2,0.9
		s0.4,0.3,0.6,0.3c0.6,0,1.3-0.4,2.2-1.2c0.6-0.4,1.8-1.8,3.6-4.1l1.1,0.9c-2,3-4,5.1-5.8,6.3c-1.2,0.8-2.5,1.2-3.8,1.2
		c-1,0-1.8-0.3-2.4-0.9c-0.6-0.6-0.9-1.4-0.9-2.4c0-1.2,0.3-3,1-5.5l5.6-19.3h-5.1l0.3-1.3c2.5-0.7,4.5-1.7,6.1-3s3.4-3.6,5.4-6.9
		h1.7L815.7,927.1L815.7,927.1z"/>
	<path class="st2" d="M848.5,945.8c0,3.3-0.9,6.6-2.7,9.9s-4.2,5.9-7.4,7.8c-3.1,1.9-6.2,2.9-9.2,2.9s-5.5-1-7.5-2.9
		c-1.9-1.9-2.9-4.5-2.9-7.5c0-3.3,0.9-6.6,2.8-9.9c1.9-3.3,4.4-5.9,7.5-7.8c3.2-1.9,6.2-2.9,9.1-2.9c3,0,5.4,1,7.3,2.9
		S848.5,942.8,848.5,945.8z M843,943.6c0-2.1-0.5-3.7-1.5-4.8s-2.3-1.7-3.9-1.7c-3.3,0-6.3,2.3-9,7s-4.1,9.3-4.1,14
		c0,2.1,0.5,3.7,1.6,4.9c1.1,1.1,2.4,1.7,4,1.7c3.1,0,6.1-2.3,8.8-7C841.6,953.1,843,948.4,843,943.6z"/>
	<path class="st2" d="M875.8,935.4l-2,10.3h-1.2c-0.1-3-0.7-5.2-1.9-6.5s-2.6-2-4.3-2c-1.4,0-2.4,0.4-3.3,1.1s-1.2,1.7-1.2,2.7
		c0,0.7,0.2,1.4,0.5,2.1s1,1.6,2.1,2.8c2.9,3.2,4.7,5.6,5.6,7.1c0.8,1.6,1.3,3.1,1.3,4.5c0,2.3-1,4.4-2.9,6.2s-4.3,2.7-7.3,2.7
		c-1.6,0-3.5-0.4-5.6-1.1c-0.7-0.3-1.3-0.4-1.7-0.4c-1,0-1.8,0.5-2.3,1.5h-1.2l2-10.8h1.2c0.1,3.4,0.8,5.8,2.1,7.2s3,2.1,5.2,2.1
		c1.7,0,3-0.5,4-1.4s1.5-2.1,1.5-3.5c0-0.9-0.2-1.7-0.5-2.5c-0.6-1.3-1.9-3.2-3.9-5.5c-2-2.4-3.3-4.1-3.8-5.3
		c-0.6-1.2-0.8-2.4-0.8-3.5c0-2.2,0.8-4,2.4-5.5c1.6-1.5,3.6-2.2,6-2.2c0.7,0,1.4,0.1,1.9,0.2c0.3,0.1,1,0.3,2.2,0.8
		c1.1,0.4,1.9,0.6,2.3,0.6c0.9,0,1.7-0.5,2.4-1.6L875.8,935.4L875.8,935.4z"/>
	<path class="st2" d="M364,1037.2c0.8,1.3,1.3,2.5,1.6,3.6s0.6,3.3,0.8,6.7l1.5,16.4c1.4-1.6,3.3-4.1,5.8-7.6c1.2-1.7,2.8-4,4.6-6.9
		c1.1-1.8,1.7-3,2-3.7c0.1-0.4,0.2-0.7,0.2-1.1c0-0.2-0.1-0.4-0.2-0.6c-0.2-0.2-0.6-0.3-1.2-0.6c-0.7-0.2-1.2-0.6-1.6-1.2
		s-0.6-1.2-0.6-1.9c0-0.9,0.3-1.7,0.8-2.2c0.5-0.6,1.2-0.8,2-0.8c1,0,1.8,0.4,2.5,1.2c0.7,0.8,1,1.9,1,3.4c0,1.7-0.6,3.7-1.8,6
		c-1.2,2.3-3.5,5.7-6.9,10.4c-3.4,4.7-7.6,9.8-12.4,15.3c-3.4,3.8-5.9,6.2-7.5,7.2s-3,1.5-4.2,1.5c-0.7,0-1.3-0.3-1.8-0.8
		s-0.8-1.1-0.8-1.8c0-0.9,0.4-1.6,1.1-2.4c0.7-0.7,1.5-1.1,2.4-1.1c0.4,0,0.8,0.1,1.1,0.3c0.2,0.1,0.4,0.4,0.6,1
		c0.2,0.5,0.4,0.9,0.6,1.1c0.1,0.1,0.2,0.2,0.4,0.2c0.1,0,0.4-0.1,0.7-0.3c1.2-0.8,2.6-2,4.3-3.6c2.2-2.2,3.7-4,4.8-5.3l-1.9-21.1
		c-0.3-3.5-0.8-5.6-1.4-6.4s-1.7-1.1-3.1-1.1c-0.5,0-1.3,0.1-2.5,0.2l-0.3-1.2L364,1037.2z"/>
	<path class="st2" d="M437.5,1020l-11.5,39.4c-0.6,2.1-1,3.5-1,4.2c0,0.2,0.1,0.4,0.3,0.6c0.2,0.2,0.4,0.3,0.6,0.3
		c0.3,0,0.6-0.1,1-0.4c0.8-0.6,2-1.9,3.8-4l1.2,0.7c-1.6,2.2-3.2,4-4.9,5.4c-1.6,1.4-3.2,2.1-4.6,2.1c-0.8,0-1.4-0.3-1.9-0.8
		s-0.7-1.3-0.7-2.3c0-1.3,0.3-3,1-5.1l1.3-4.1c-3.2,5-6.1,8.5-8.8,10.4c-1.8,1.3-3.6,1.9-5.2,1.9c-1.7,0-3.2-0.7-4.5-2.2
		s-1.9-3.5-1.9-6.1c0-3.3,1.1-6.9,3.2-10.6s4.9-6.8,8.4-9.2c2.7-1.9,5.2-2.9,7.5-2.9c1.2,0,2.2,0.2,3.1,0.7s1.7,1.3,2.6,2.4
		l3.3-11.6c0.2-0.8,0.4-1.5,0.6-2c0.3-0.9,0.4-1.6,0.4-2.2c0-0.5-0.2-0.9-0.5-1.2c-0.5-0.4-1.1-0.6-1.8-0.6c-0.5,0-1.3,0.1-2.5,0.2
		v-1.2L437.5,1020z M425.1,1043.7c0-1.4-0.4-2.6-1.2-3.4c-0.8-0.9-1.9-1.3-3.1-1.3c-2.8,0-5.7,2.3-8.8,6.9c-3,4.6-4.5,9-4.5,13.3
		c0,1.7,0.4,3,1.1,3.8c0.7,0.9,1.6,1.3,2.6,1.3c2.3,0,5.2-2.5,8.7-7.5C423.3,1051.8,425.1,1047.4,425.1,1043.7z"/>
	<path class="st2" d="M442.8,1054.9c-0.1,1.1-0.2,2-0.2,2.7c0,2,0.7,3.7,2.1,5.1s3.1,2.1,5.1,2.1c1.6,0,3.1-0.3,4.6-1
		s3.7-2.1,6.6-4.4l0.7,1c-5.3,5.2-10.3,7.8-15.1,7.8c-3.2,0-5.7-1-7.3-3.1c-1.6-2-2.5-4.3-2.5-6.8c0-3.3,1-6.7,3.1-10.2
		c2-3.5,4.6-6.2,7.7-8.1s6.3-2.9,9.6-2.9c2.3,0,4.1,0.5,5.2,1.5s1.7,2.1,1.7,3.4c0,1.9-0.7,3.6-2.2,5.3c-1.9,2.2-4.8,4-8.5,5.3
		C450.8,1053.6,447.3,1054.3,442.8,1054.9z M443,1053.2c3.3-0.4,6-1,8-1.9c2.7-1.2,4.8-2.7,6.2-4.4c1.4-1.7,2.1-3.3,2.1-4.9
		c0-0.9-0.3-1.7-0.9-2.2c-0.6-0.6-1.4-0.9-2.5-0.9c-2.3,0-4.7,1.2-7.2,3.6C446.1,1044.9,444.2,1048.5,443,1053.2z M463.1,1020.6
		l-9.8,11.5h-1.2l3.4-11.5H463.1z"/>
	<path class="st2" d="M481.1,1037.2l-8.6,29.9c-1.5,5.3-3.7,9.2-6.3,11.5c-2.7,2.4-5.6,3.5-8.7,3.5c-1.4,0-2.5-0.3-3.2-1
		c-0.7-0.6-1.1-1.4-1.1-2.3c0-0.7,0.3-1.3,0.8-1.8s1.2-0.8,1.9-0.8c0.6,0,1.2,0.2,1.7,0.6c0.4,0.4,0.6,0.7,0.6,1.2
		c0,0.6-0.3,1.1-0.8,1.5c-0.3,0.2-0.5,0.5-0.5,0.6l0.1,0.2c0.1,0.1,0.2,0.1,0.3,0.2c0.1,0,0.3,0.1,0.6,0.1c1.8,0,3.4-0.6,4.6-1.7
		c1.3-1.1,2.4-3.4,3.4-6.9l7.5-25.6c0.7-2.5,1.1-3.9,1.1-4.2c0-0.5-0.2-1-0.7-1.4s-1.1-0.6-1.8-0.6c-0.3,0-0.6,0-1,0.1
		c-0.3,0-0.7,0.1-1.3,0.2v-1.2L481.1,1037.2z M480.6,1024c0.9,0,1.7,0.3,2.4,1c0.7,0.6,1,1.4,1,2.4c0,0.9-0.3,1.7-1,2.4
		s-1.5,1-2.4,1s-1.7-0.3-2.4-1c-0.7-0.6-1-1.4-1-2.4c0-0.9,0.3-1.7,1-2.4C478.9,1024.4,479.8,1024,480.6,1024z"/>
	<path class="st2" d="M516,1037.2l-6.5,22.6l-0.7,3.1c-0.1,0.3-0.1,0.5-0.1,0.7c0,0.4,0.1,0.7,0.3,1c0.2,0.2,0.4,0.3,0.7,0.3
		c0.3,0,0.6-0.2,1.1-0.5c0.9-0.6,2-2,3.5-4l1.1,0.8c-1.5,2.3-3.1,4.1-4.7,5.3c-1.6,1.2-3.1,1.8-4.5,1.8c-0.9,0-1.7-0.2-2.1-0.7
		c-0.5-0.5-0.7-1.2-0.7-2.1c0-1.1,0.2-2.5,0.7-4.3l0.7-2.5c-2.9,3.8-5.6,6.5-8,8c-1.8,1.1-3.5,1.6-5.2,1.6c-1.6,0-3-0.7-4.2-2
		s-1.8-3.2-1.8-5.5c0-3.5,1.1-7.3,3.2-11.2c2.1-3.9,4.8-7.1,8.1-9.4c2.5-1.9,4.9-2.8,7.2-2.8c1.4,0,2.5,0.4,3.4,1.1s1.6,1.9,2.1,3.6
		l1.2-3.8L516,1037.2z M504.1,1039c-1.4,0-2.9,0.7-4.5,2c-2.3,1.9-4.3,4.7-6.1,8.4c-1.8,3.7-2.7,7.1-2.7,10.1c0,1.5,0.4,2.7,1.1,3.6
		c0.8,0.9,1.6,1.3,2.6,1.3c2.4,0,5-1.8,7.9-5.4c3.8-4.8,5.7-9.6,5.7-14.6c0-1.9-0.4-3.2-1.1-4.1C506.4,1039.4,505.4,1039,504.1,1039
		z"/>
	<path class="st2" d="M533.2,1037.2l-4.4,15.2c4.1-6.2,7.3-10.3,9.6-12.3c2.2-2,4.4-2.9,6.4-2.9c1.1,0,2,0.4,2.7,1.1
		s1.1,1.7,1.1,2.9c0,1.4-0.3,3.1-1,5.3l-4.1,14c-0.5,1.6-0.7,2.6-0.7,3c0,0.3,0.1,0.6,0.3,0.8s0.4,0.3,0.6,0.3c0.2,0,0.6-0.1,1-0.4
		c1.2-0.9,2.5-2.4,3.9-4.3l1,0.6c-2.1,3-4,5.1-5.9,6.3c-1.3,0.9-2.5,1.3-3.5,1.3c-0.8,0-1.5-0.2-2-0.7s-0.7-1.2-0.7-2
		c0-1.1,0.4-2.9,1.1-5.5l3.9-13.4c0.5-1.7,0.7-3,0.7-3.9c0-0.4-0.1-0.8-0.4-1.1s-0.6-0.4-1.1-0.4c-0.6,0-1.4,0.3-2.2,0.8
		c-1.6,1-3.3,2.6-5.1,5c-1.8,2.3-3.7,5.2-5.7,8.8c-1.1,1.9-1.9,4-2.6,6.2l-1.7,5.5h-5l6.1-20.9c0.7-2.5,1.1-4,1.1-4.5
		s-0.2-0.9-0.6-1.3s-0.9-0.6-1.4-0.6c-0.3,0-0.7,0.1-1.4,0.2l-1.3,0.2l-0.2-1.2L533.2,1037.2z"/>
	<path class="st2" d="M583.8,1047.7c0,3.3-0.9,6.6-2.7,9.9s-4.2,5.9-7.4,7.8c-3.1,1.9-6.2,2.9-9.2,2.9s-5.5-1-7.5-2.9
		c-1.9-1.9-2.9-4.5-2.9-7.5c0-3.3,0.9-6.6,2.8-9.9c1.9-3.3,4.4-5.9,7.5-7.8s6.2-2.9,9.1-2.9c3,0,5.4,1,7.3,2.9
		S583.8,1044.6,583.8,1047.7z M578.3,1045.4c0-2.1-0.5-3.7-1.5-4.8s-2.3-1.7-3.9-1.7c-3.3,0-6.3,2.3-9,7s-4.1,9.3-4.1,14
		c0,2.1,0.5,3.7,1.6,4.9c1.1,1.1,2.4,1.7,4,1.7c3.1,0,6.1-2.3,8.8-7C576.9,1054.9,578.3,1050.2,578.3,1045.4z"/>
	<path class="st2" d="M611.2,1037.2l-2,10.3H608c-0.1-3-0.7-5.2-1.9-6.5s-2.6-2-4.3-2c-1.4,0-2.4,0.4-3.3,1.1
		c-0.8,0.7-1.2,1.7-1.2,2.7c0,0.7,0.2,1.4,0.5,2.1s1,1.6,2.1,2.8c2.9,3.2,4.7,5.6,5.6,7.1c0.8,1.6,1.3,3.1,1.3,4.5
		c0,2.3-1,4.4-2.9,6.2c-1.9,1.8-4.3,2.7-7.3,2.7c-1.6,0-3.5-0.4-5.6-1.1c-0.7-0.3-1.3-0.4-1.7-0.4c-1,0-1.8,0.5-2.3,1.5h-1.2l2-10.8
		h1.2c0.1,3.4,0.8,5.8,2.1,7.2c1.3,1.4,3,2.1,5.2,2.1c1.7,0,3-0.5,4-1.4s1.5-2.1,1.5-3.5c0-0.9-0.2-1.7-0.5-2.5
		c-0.6-1.3-1.9-3.2-3.9-5.5c-2-2.4-3.3-4.1-3.8-5.3c-0.6-1.2-0.8-2.4-0.8-3.5c0-2.2,0.8-4,2.4-5.5c1.6-1.5,3.6-2.2,6-2.2
		c0.7,0,1.4,0.1,1.9,0.2c0.3,0.1,1,0.3,2.2,0.8c1.1,0.4,1.9,0.6,2.3,0.6c0.9,0,1.7-0.5,2.4-1.6L611.2,1037.2L611.2,1037.2z"/>
	<path class="st2" d="M662.2,1038l-5.8,19.9c-0.9,3-1.3,4.8-1.3,5.6c0,0.4,0.1,0.7,0.2,0.9c0.1,0.2,0.3,0.3,0.6,0.3
		c0.4,0,0.8-0.2,1.3-0.5s1.6-1.7,3.4-4.1l1,0.8c-1.8,2.8-3.6,4.8-5.4,6.1c-1.2,0.8-2.4,1.2-3.5,1.2c-0.9,0-1.6-0.2-2.1-0.7
		s-0.7-1.1-0.7-1.9s0.1-1.8,0.4-3c0.4-1.6,1.4-5.2,3.1-10.7c-3.8,6.2-6.9,10.5-9.5,12.8c-2.5,2.3-4.9,3.5-7.1,3.5
		c-1,0-1.9-0.4-2.6-1.1c-0.7-0.7-1.1-1.6-1.1-2.7c0-1.7,0.5-4.2,1.5-7.7l2.9-10.3c0.7-2.5,1-4,1-4.6c0-0.2-0.1-0.5-0.3-0.7
		s-0.4-0.3-0.6-0.3c-0.5,0-0.9,0.2-1.4,0.5s-1.5,1.6-3.2,3.7l-1-0.7c1.7-2.6,3.5-4.5,5.3-5.7c1.4-1,2.7-1.5,3.9-1.5
		c0.8,0,1.5,0.3,2,0.8s0.8,1.2,0.8,2c0,1.2-0.4,3.4-1.3,6.4l-3.1,10.8c-0.9,3-1.3,4.8-1.3,5.6c0,0.4,0.1,0.8,0.4,1
		c0.3,0.3,0.6,0.4,1.1,0.4c0.7,0,1.7-0.4,2.9-1.1s2.8-2.4,4.7-4.9s3.6-4.9,4.9-7.1c1.3-2.2,2.6-5.7,4.1-10.6l0.7-2.5L662.2,1038
		L662.2,1038z"/>
	<path class="st2" d="M679.3,1037.2l-4.4,15.2c4.1-6.2,7.3-10.3,9.6-12.3c2.2-2,4.4-2.9,6.4-2.9c1.1,0,2,0.4,2.7,1.1
		s1.1,1.7,1.1,2.9c0,1.4-0.3,3.1-1,5.3l-4.1,14c-0.5,1.6-0.7,2.6-0.7,3c0,0.3,0.1,0.6,0.3,0.8s0.4,0.3,0.6,0.3c0.2,0,0.6-0.1,1-0.4
		c1.2-0.9,2.5-2.4,3.9-4.3l1,0.6c-2.1,3-4,5.1-5.9,6.3c-1.3,0.9-2.5,1.3-3.5,1.3c-0.8,0-1.5-0.2-2-0.7s-0.7-1.2-0.7-2
		c0-1.1,0.4-2.9,1.1-5.5l3.9-13.4c0.5-1.7,0.7-3,0.7-3.9c0-0.4-0.1-0.8-0.4-1.1c-0.3-0.3-0.6-0.4-1.1-0.4c-0.6,0-1.4,0.3-2.2,0.8
		c-1.6,1-3.3,2.6-5.1,5s-3.7,5.2-5.7,8.8c-1,1.9-1.9,4-2.6,6.2l-1.7,5.5h-5l6.1-20.9c0.7-2.5,1.1-4,1.1-4.5s-0.2-0.9-0.6-1.3
		s-0.9-0.6-1.4-0.6c-0.3,0-0.7,0.1-1.4,0.2l-1.3,0.2l-0.2-1.2L679.3,1037.2z"/>
	<path class="st2" d="M735.1,1020l-6.6,23.1c2.1-2.2,4-3.8,5.6-4.6c1.6-0.8,3.3-1.2,5-1.2c2.5,0,4.5,0.8,6,2.4
		c1.6,1.6,2.3,3.8,2.3,6.6c0,3.6-1,7.1-3.1,10.7c-2.1,3.5-4.6,6.3-7.7,8.3s-6.1,3-9.1,3c-3.4,0-6.8-1.3-10.4-3.8l10.2-34.9
		c0.8-2.7,1.2-4.3,1.2-4.8c0-0.6-0.2-1-0.5-1.3c-0.5-0.4-1.2-0.6-2.2-0.6c-0.5,0-1.2,0.1-2.2,0.2v-1.3L735.1,1020z M722.2,1064.8
		c2.2,1.2,4.2,1.8,5.9,1.8c2,0,4-0.7,6.1-2.1s3.9-3.8,5.5-7.3c1.5-3.4,2.3-6.8,2.3-10.3c0-2-0.5-3.6-1.5-4.8s-2.2-1.7-3.6-1.7
		c-2.1,0-4.1,0.8-6.1,2.5s-3.4,4-4.2,6.9L722.2,1064.8z"/>
	<path class="st2" d="M781.1,1047.7c0,3.3-0.9,6.6-2.7,9.9s-4.2,5.9-7.4,7.8c-3.1,1.9-6.2,2.9-9.2,2.9s-5.5-1-7.5-2.9
		c-1.9-1.9-2.9-4.5-2.9-7.5c0-3.3,0.9-6.6,2.8-9.9c1.9-3.3,4.4-5.9,7.5-7.8s6.2-2.9,9.1-2.9c3,0,5.4,1,7.3,2.9
		C780.2,1042.1,781.1,1044.6,781.1,1047.7z M775.6,1045.4c0-2.1-0.5-3.7-1.5-4.8s-2.3-1.7-3.9-1.7c-3.3,0-6.3,2.3-9,7
		c-2.8,4.7-4.1,9.3-4.1,14c0,2.1,0.5,3.7,1.6,4.9c1.1,1.1,2.4,1.7,4,1.7c3.1,0,6.1-2.3,8.8-7S775.6,1050.2,775.6,1045.4z"/>
	<path class="st2" d="M798.8,1037.2l-4.4,15.2c4.1-6.2,7.3-10.3,9.6-12.3c2.2-2,4.4-2.9,6.4-2.9c1.1,0,2,0.4,2.7,1.1
		s1.1,1.7,1.1,2.9c0,1.4-0.3,3.1-1,5.3l-4.1,14c-0.5,1.6-0.7,2.6-0.7,3c0,0.3,0.1,0.6,0.3,0.8s0.4,0.3,0.6,0.3c0.2,0,0.6-0.1,1-0.4
		c1.2-0.9,2.5-2.4,3.9-4.3l1,0.6c-2.1,3-4,5.1-5.9,6.3c-1.3,0.9-2.5,1.3-3.5,1.3c-0.8,0-1.5-0.2-2-0.7s-0.7-1.2-0.7-2
		c0-1.1,0.4-2.9,1.1-5.5l3.9-13.4c0.5-1.7,0.7-3,0.7-3.9c0-0.4-0.1-0.8-0.4-1.1c-0.3-0.3-0.6-0.4-1.1-0.4c-0.6,0-1.4,0.3-2.2,0.8
		c-1.6,1-3.3,2.6-5.1,5s-3.7,5.2-5.7,8.8c-1,1.9-1.9,4-2.6,6.2l-1.7,5.5h-5l6.1-20.9c0.7-2.5,1.1-4,1.1-4.5s-0.2-0.9-0.6-1.3
		s-0.9-0.6-1.4-0.6c-0.3,0-0.7,0.1-1.4,0.2l-1.3,0.2l-0.2-1.2L798.8,1037.2z"/>
	<path class="st2" d="M833.5,1037.2l-6.6,23.4c-0.4,1.6-0.7,2.5-0.7,2.8c0,0.4,0.1,0.6,0.3,0.9c0.2,0.2,0.4,0.3,0.7,0.3
		c0.4,0,0.8-0.2,1.2-0.5c1.3-1,2.6-2.4,3.9-4.3l1.2,0.8c-1.5,2.3-3.3,4.2-5.3,5.8c-1.5,1.2-2.9,1.7-4.3,1.7c-0.9,0-1.7-0.3-2.2-0.8
		c-0.6-0.5-0.9-1.2-0.9-2.1c0-0.8,0.3-2.2,0.8-4.1l4.3-15c0.7-2.4,1-4,1-4.6c0-0.5-0.2-0.9-0.5-1.2c-0.3-0.3-0.8-0.5-1.4-0.5
		c-0.5,0-1.5,0.1-3.1,0.4v-1.3L833.5,1037.2z M833.1,1024c0.9,0,1.7,0.3,2.4,1c0.6,0.6,1,1.4,1,2.3s-0.3,1.7-1,2.4
		c-0.6,0.7-1.4,1-2.3,1c-0.9,0-1.7-0.3-2.4-1s-1-1.5-1-2.4s0.3-1.7,1-2.3C831.4,1024.3,832.2,1024,833.1,1024z"/>
	<path class="st2" d="M854.6,1029l-2.6,9.1h5.3l-0.6,2.1h-5.2l-5.8,19.6c-0.6,2.1-0.9,3.5-0.9,4.1c0,0.4,0.1,0.7,0.2,0.9
		s0.4,0.3,0.6,0.3c0.6,0,1.3-0.4,2.2-1.2c0.6-0.4,1.8-1.8,3.6-4.1l1.1,0.9c-2,3-4,5.1-5.8,6.3c-1.2,0.8-2.5,1.2-3.8,1.2
		c-1,0-1.8-0.3-2.4-0.9c-0.6-0.6-0.9-1.4-0.9-2.4c0-1.2,0.3-3,1-5.5l5.6-19.3h-5.1l0.3-1.3c2.5-0.7,4.5-1.7,6.1-3s3.4-3.6,5.4-6.9
		h1.7L854.6,1029L854.6,1029z"/>
	<path class="st2" d="M887.4,1047.7c0,3.3-0.9,6.6-2.7,9.9s-4.2,5.9-7.4,7.8c-3.1,1.9-6.2,2.9-9.2,2.9s-5.5-1-7.5-2.9
		c-1.9-1.9-2.9-4.5-2.9-7.5c0-3.3,0.9-6.6,2.8-9.9c1.9-3.3,4.4-5.9,7.5-7.8c3.2-1.9,6.2-2.9,9.1-2.9c3,0,5.4,1,7.3,2.9
		S887.4,1044.6,887.4,1047.7z M881.9,1045.4c0-2.1-0.5-3.7-1.5-4.8c-1-1.1-2.3-1.7-3.9-1.7c-3.3,0-6.3,2.3-9,7s-4.1,9.3-4.1,14
		c0,2.1,0.5,3.7,1.6,4.9c1.1,1.1,2.4,1.7,4,1.7c3.1,0,6.1-2.3,8.8-7C880.5,1054.9,881.9,1050.2,881.9,1045.4z"/>
	<path class="st2" d="M353.6,1139c0.8,1.3,1.3,2.5,1.6,3.6c0.3,1.1,0.6,3.3,0.8,6.7l1.5,16.4c1.4-1.6,3.3-4.1,5.8-7.6
		c1.2-1.7,2.8-4,4.6-6.9c1.1-1.8,1.7-3,2-3.7c0.1-0.4,0.2-0.7,0.2-1.1c0-0.2-0.1-0.4-0.2-0.6c-0.2-0.2-0.6-0.3-1.2-0.6
		c-0.7-0.2-1.2-0.6-1.6-1.2s-0.6-1.2-0.6-1.9c0-0.9,0.3-1.7,0.8-2.2c0.5-0.6,1.2-0.8,2-0.8c1,0,1.8,0.4,2.5,1.2c0.7,0.8,1,1.9,1,3.4
		c0,1.7-0.6,3.7-1.8,6s-3.5,5.7-6.9,10.4c-3.4,4.7-7.6,9.8-12.4,15.3c-3.4,3.8-5.9,6.2-7.5,7.2s-3,1.5-4.2,1.5
		c-0.7,0-1.3-0.3-1.8-0.8s-0.8-1.1-0.8-1.8c0-0.9,0.4-1.6,1.1-2.4c0.7-0.7,1.5-1.1,2.4-1.1c0.4,0,0.8,0.1,1.1,0.3
		c0.2,0.1,0.4,0.4,0.6,1c0.2,0.5,0.4,0.9,0.6,1.1c0.1,0.1,0.2,0.2,0.4,0.2c0.1,0,0.4-0.1,0.7-0.3c1.2-0.8,2.6-2,4.3-3.6
		c2.2-2.2,3.7-4,4.8-5.3l-1.9-21.1c-0.3-3.5-0.8-5.6-1.4-6.4s-1.7-1.1-3.1-1.1c-0.5,0-1.3,0.1-2.5,0.2l-0.3-1.2L353.6,1139z"/>
	<path class="st2" d="M427,1121.8l-11.5,39.4c-0.6,2.1-1,3.5-1,4.2c0,0.2,0.1,0.4,0.3,0.6c0.2,0.2,0.4,0.3,0.6,0.3
		c0.3,0,0.6-0.1,1-0.4c0.8-0.6,2-1.9,3.8-4l1.2,0.7c-1.6,2.2-3.2,4-4.9,5.4c-1.6,1.4-3.2,2.1-4.6,2.1c-0.8,0-1.4-0.3-1.9-0.8
		s-0.7-1.3-0.7-2.3c0-1.3,0.3-3,1-5.1l1.3-4.1c-3.2,5-6.1,8.5-8.8,10.4c-1.8,1.3-3.6,1.9-5.2,1.9c-1.7,0-3.2-0.7-4.5-2.2
		s-1.9-3.5-1.9-6.1c0-3.3,1.1-6.9,3.2-10.6s4.9-6.8,8.4-9.2c2.7-1.9,5.2-2.9,7.5-2.9c1.2,0,2.2,0.2,3.1,0.7s1.7,1.3,2.6,2.4
		l3.3-11.6c0.2-0.8,0.4-1.5,0.6-2c0.3-0.9,0.4-1.6,0.4-2.2c0-0.5-0.2-0.9-0.5-1.2c-0.5-0.4-1.1-0.6-1.8-0.6c-0.5,0-1.3,0.1-2.5,0.2
		v-1.2L427,1121.8z M414.6,1145.5c0-1.4-0.4-2.6-1.2-3.4c-0.8-0.9-1.9-1.3-3.1-1.3c-2.8,0-5.7,2.3-8.8,6.9c-3,4.6-4.5,9-4.5,13.3
		c0,1.7,0.4,3,1.1,3.8c0.7,0.9,1.6,1.3,2.6,1.3c2.3,0,5.2-2.5,8.7-7.5C412.9,1153.6,414.6,1149.2,414.6,1145.5z"/>
	<path class="st2" d="M439.9,1139l-6.6,23.4c-0.4,1.6-0.7,2.5-0.7,2.8c0,0.4,0.1,0.6,0.3,0.9c0.2,0.2,0.4,0.3,0.7,0.3
		c0.4,0,0.8-0.2,1.2-0.5c1.3-1,2.6-2.4,3.9-4.3l1.2,0.8c-1.5,2.3-3.3,4.2-5.3,5.8c-1.5,1.2-2.9,1.7-4.3,1.7c-0.9,0-1.7-0.3-2.2-0.8
		c-0.6-0.5-0.9-1.2-0.9-2.1c0-0.8,0.3-2.2,0.8-4.1l4.4-15c0.7-2.4,1-4,1-4.6c0-0.5-0.2-0.9-0.5-1.2c-0.3-0.3-0.8-0.5-1.4-0.5
		c-0.5,0-1.5,0.1-3.1,0.4v-1.3L439.9,1139z M439.5,1125.8c0.9,0,1.7,0.3,2.4,1c0.6,0.6,1,1.4,1,2.3s-0.3,1.7-1,2.4
		c-0.6,0.7-1.4,1-2.3,1s-1.7-0.3-2.4-1c-0.7-0.7-1-1.5-1-2.4s0.3-1.7,1-2.3C437.8,1126.2,438.6,1125.8,439.5,1125.8z"/>
	<path class="st2" d="M444.6,1141.1l9.7-2.1c0.7,1.7,1.2,3.3,1.7,5.1c0.6,2.5,1.1,5.5,1.5,8.9c0.2,1.7,0.4,5.4,0.7,11
		c2.8-3.1,4.4-5,5-5.7c3-4,4.7-6.3,5.1-7c0.7-1.2,1.2-2.2,1.5-3.1c0.2-0.7,0.4-1.3,0.4-1.9s-0.5-1.2-1.6-2c-1-0.8-1.6-1.6-1.6-2.5
		c0-0.7,0.3-1.3,0.8-1.9c0.6-0.6,1.2-0.8,2-0.8c0.9,0,1.8,0.4,2.5,1.2s1.1,1.7,1.1,2.9c0,1.1-0.2,2.2-0.5,3.3
		c-0.6,1.7-1.6,3.7-3.2,6.2s-4.1,5.7-7.6,9.8c-0.4,0.5-2.9,3.1-7.4,7.7h-1.2c-0.6-14.1-1.7-22.8-3.4-26.4c-0.6-1.1-1.5-1.7-2.8-1.7
		c-0.6,0-1.3,0.1-2.4,0.3L444.6,1141.1z"/>
	<path class="st2" d="M481.6,1156.7c-0.1,1.1-0.2,2-0.2,2.7c0,2,0.7,3.7,2.1,5.1s3.1,2.1,5.1,2.1c1.6,0,3.1-0.3,4.6-1
		s3.7-2.1,6.6-4.4l0.7,1c-5.3,5.2-10.3,7.8-15.1,7.8c-3.2,0-5.7-1-7.3-3.1c-1.6-2-2.5-4.3-2.5-6.8c0-3.3,1-6.7,3.1-10.2
		c2-3.5,4.6-6.2,7.7-8.1s6.3-2.9,9.6-2.9c2.3,0,4.1,0.5,5.2,1.5s1.7,2.1,1.7,3.4c0,1.9-0.7,3.6-2.2,5.3c-1.9,2.2-4.8,4-8.5,5.3
		C489.8,1155.5,486.2,1156.2,481.6,1156.7z M481.9,1155c3.3-0.4,6-1,8-1.9c2.7-1.2,4.8-2.7,6.2-4.4c1.4-1.7,2.1-3.3,2.1-4.9
		c0-0.9-0.3-1.7-0.9-2.2c-0.6-0.6-1.4-0.9-2.5-0.9c-2.3,0-4.7,1.2-7.2,3.6C485,1146.8,483.1,1150.3,481.9,1155z"/>
	<path class="st2" d="M507.4,1141l11.5-1.9l-4.8,16.2c3.9-6.7,7.4-11.3,10.6-14c1.8-1.5,3.3-2.3,4.4-2.3c0.7,0,1.3,0.2,1.7,0.7
		c0.4,0.4,0.6,1.1,0.6,1.9c0,1.5-0.4,2.9-1.1,4.2c-0.5,1-1.3,1.5-2.3,1.5c-0.5,0-0.9-0.2-1.3-0.5c-0.4-0.3-0.6-0.8-0.7-1.5
		c0-0.4-0.1-0.7-0.3-0.8c-0.2-0.2-0.4-0.2-0.6-0.2c-0.4,0-0.7,0.1-1.1,0.2c-0.6,0.3-1.5,1.2-2.7,2.6c-1.9,2.2-3.9,5-6,8.5
		c-0.9,1.5-1.7,3.1-2.4,5c-0.9,2.5-1.4,4.1-1.6,4.6l-1.1,4.2h-5.1l6.2-20.7c0.7-2.4,1-4.1,1-5.1c0-0.4-0.2-0.7-0.5-1
		c-0.4-0.4-1-0.5-1.7-0.5c-0.5,0-1.3,0.1-2.6,0.3L507.4,1141z"/>
	<path class="st2" d="M548.2,1130.8l-2.6,9.1h5.3l-0.6,2.1h-5.2l-5.8,19.6c-0.6,2.1-0.9,3.5-0.9,4.1c0,0.4,0.1,0.7,0.2,0.9
		c0.2,0.2,0.4,0.3,0.6,0.3c0.6,0,1.3-0.4,2.2-1.2c0.6-0.4,1.8-1.8,3.6-4.1l1.1,0.9c-2,3-4,5.1-5.8,6.3c-1.2,0.8-2.5,1.2-3.8,1.2
		c-1,0-1.8-0.3-2.4-0.9c-0.6-0.6-0.9-1.4-0.9-2.4c0-1.2,0.3-3,1-5.5l5.6-19.3h-5.1l0.3-1.3c2.5-0.7,4.5-1.7,6.1-3s3.4-3.6,5.4-6.9
		h1.7L548.2,1130.8L548.2,1130.8z"/>
	<path class="st2" d="M565.1,1139l-6.6,23.4c-0.4,1.6-0.7,2.5-0.7,2.8c0,0.4,0.1,0.6,0.3,0.9c0.2,0.2,0.4,0.3,0.7,0.3
		c0.4,0,0.8-0.2,1.2-0.5c1.3-1,2.6-2.4,3.9-4.3l1.2,0.8c-1.5,2.3-3.3,4.2-5.3,5.8c-1.5,1.2-2.9,1.7-4.3,1.7c-0.9,0-1.7-0.3-2.2-0.8
		c-0.6-0.5-0.9-1.2-0.9-2.1c0-0.8,0.3-2.2,0.8-4.1l4.4-15c0.7-2.4,1-4,1-4.6c0-0.5-0.2-0.9-0.5-1.2c-0.3-0.3-0.8-0.5-1.4-0.5
		c-0.5,0-1.5,0.1-3.1,0.4v-1.3L565.1,1139z M564.7,1125.8c0.9,0,1.7,0.3,2.4,1c0.6,0.6,1,1.4,1,2.3s-0.3,1.7-1,2.4
		c-0.6,0.7-1.4,1-2.3,1s-1.7-0.3-2.4-1s-1-1.5-1-2.4s0.3-1.7,1-2.3C563,1126.2,563.8,1125.8,564.7,1125.8z"/>
	<path class="st2" d="M605.4,1121.8l-11.5,39.4c-0.6,2.1-1,3.5-1,4.2c0,0.2,0.1,0.4,0.3,0.6s0.4,0.3,0.6,0.3c0.3,0,0.6-0.1,1-0.4
		c0.8-0.6,2-1.9,3.8-4l1.2,0.7c-1.6,2.2-3.2,4-4.9,5.4c-1.6,1.4-3.2,2.1-4.6,2.1c-0.8,0-1.4-0.3-1.9-0.8s-0.7-1.3-0.7-2.3
		c0-1.3,0.3-3,1-5.1l1.3-4.1c-3.2,5-6.1,8.5-8.8,10.4c-1.8,1.3-3.6,1.9-5.2,1.9c-1.7,0-3.2-0.7-4.5-2.2s-1.9-3.5-1.9-6.1
		c0-3.3,1.1-6.9,3.2-10.6s4.9-6.8,8.4-9.2c2.7-1.9,5.2-2.9,7.5-2.9c1.2,0,2.2,0.2,3.1,0.7s1.7,1.3,2.6,2.4l3.3-11.6
		c0.2-0.8,0.4-1.5,0.6-2c0.3-0.9,0.4-1.6,0.4-2.2c0-0.5-0.2-0.9-0.5-1.2c-0.5-0.4-1.1-0.6-1.8-0.6c-0.5,0-1.3,0.1-2.5,0.2v-1.2
		L605.4,1121.8z M593,1145.5c0-1.4-0.4-2.6-1.2-3.4c-0.8-0.9-1.9-1.3-3.1-1.3c-2.8,0-5.7,2.3-8.8,6.9c-3,4.6-4.5,9-4.5,13.3
		c0,1.7,0.4,3,1.1,3.8c0.7,0.9,1.6,1.3,2.6,1.3c2.3,0,5.2-2.5,8.7-7.5C591.2,1153.6,593,1149.2,593,1145.5z"/>
	<path class="st2" d="M634.1,1149.5c0,3.3-0.9,6.6-2.7,9.9s-4.2,5.9-7.4,7.8c-3.1,1.9-6.2,2.9-9.2,2.9s-5.5-1-7.5-2.9
		c-1.9-1.9-2.9-4.5-2.9-7.5c0-3.3,0.9-6.6,2.8-9.9c1.9-3.3,4.4-5.9,7.5-7.8s6.2-2.9,9.1-2.9c3,0,5.4,1,7.3,2.9
		S634.1,1146.4,634.1,1149.5z M628.6,1147.2c0-2.1-0.5-3.7-1.5-4.8c-1-1.1-2.3-1.7-3.9-1.7c-3.3,0-6.3,2.3-9,7s-4.1,9.3-4.1,14
		c0,2.1,0.5,3.7,1.6,4.9c1.1,1.1,2.4,1.7,4,1.7c3.1,0,6.1-2.3,8.8-7C627.2,1156.7,628.6,1152,628.6,1147.2z"/>
	<path class="st2" d="M657.3,1141l11.5-1.9l-4.8,16.2c3.9-6.7,7.4-11.3,10.6-14c1.8-1.5,3.3-2.3,4.4-2.3c0.7,0,1.3,0.2,1.7,0.7
		c0.4,0.4,0.6,1.1,0.6,1.9c0,1.5-0.4,2.9-1.1,4.2c-0.5,1-1.3,1.5-2.3,1.5c-0.5,0-0.9-0.2-1.3-0.5c-0.4-0.3-0.6-0.8-0.7-1.5
		c0-0.4-0.1-0.7-0.3-0.8c-0.2-0.2-0.4-0.2-0.6-0.2c-0.4,0-0.7,0.1-1.1,0.2c-0.6,0.3-1.5,1.2-2.7,2.6c-1.9,2.2-3.9,5-6,8.5
		c-0.9,1.5-1.7,3.1-2.4,5c-0.9,2.5-1.4,4.1-1.6,4.6l-1.1,4.2H655l6.2-20.7c0.7-2.4,1-4.1,1-5.1c0-0.4-0.2-0.7-0.5-1
		c-0.4-0.4-1-0.5-1.7-0.5c-0.5,0-1.3,0.1-2.6,0.3L657.3,1141z"/>
	<path class="st2" d="M688.5,1156.7c-0.1,1.1-0.2,2-0.2,2.7c0,2,0.7,3.7,2.1,5.1c1.4,1.4,3.1,2.1,5.1,2.1c1.6,0,3.1-0.3,4.6-1
		s3.7-2.1,6.6-4.4l0.7,1c-5.3,5.2-10.3,7.8-15.1,7.8c-3.2,0-5.7-1-7.3-3.1c-1.6-2-2.5-4.3-2.5-6.8c0-3.3,1-6.7,3.1-10.2
		c2-3.5,4.6-6.2,7.7-8.1c3.1-1.9,6.3-2.9,9.6-2.9c2.3,0,4.1,0.5,5.2,1.5c1.1,1,1.7,2.1,1.7,3.4c0,1.9-0.7,3.6-2.2,5.3
		c-1.9,2.2-4.8,4-8.5,5.3C696.5,1155.5,693,1156.2,688.5,1156.7z M688.7,1155c3.3-0.4,6-1,8-1.9c2.7-1.2,4.8-2.7,6.2-4.4
		c1.4-1.7,2.1-3.3,2.1-4.9c0-0.9-0.3-1.7-0.9-2.2c-0.6-0.6-1.4-0.9-2.5-0.9c-2.3,0-4.7,1.2-7.2,3.6
		C691.8,1146.8,689.9,1150.3,688.7,1155z"/>
	<path class="st2" d="M737.1,1162c-2.3,2.8-4.7,4.8-7,6.1s-4.9,1.9-7.5,1.9c-3.1,0-5.6-0.9-7.4-2.7c-1.8-1.8-2.7-4.2-2.7-7.2
		c0-3.4,1-6.7,2.9-10s4.5-6,7.7-8c3.2-2.1,6.4-3.1,9.4-3.1c2.4,0,4.2,0.5,5.4,1.5s1.8,2.3,1.8,3.7c0,1.4-0.4,2.6-1.3,3.5
		c-0.6,0.8-1.4,1.2-2.3,1.2c-0.7,0-1.3-0.2-1.7-0.7c-0.5-0.5-0.7-1-0.7-1.7c0-0.4,0.1-0.8,0.2-1.2c0.2-0.4,0.5-0.8,1-1.3
		s0.8-0.9,1-1.1s0.2-0.5,0.2-0.7c0-0.5-0.2-0.9-0.6-1.2c-0.7-0.4-1.6-0.7-2.7-0.7c-2.2,0-4.3,0.8-6.5,2.3s-4,3.7-5.5,6.5
		c-1.8,3.4-2.7,6.9-2.7,10.3c0,2.3,0.6,4.1,1.9,5.4c1.3,1.3,3.1,2,5.3,2c1.7,0,3.4-0.4,5.1-1.3c1.7-0.9,3.6-2.4,5.6-4.6L737.1,1162z
		"/>
	<path class="st2" d="M773.2,1139.9l-5.8,19.9c-0.9,3-1.3,4.8-1.3,5.6c0,0.4,0.1,0.7,0.2,0.9c0.1,0.2,0.3,0.3,0.6,0.3
		c0.4,0,0.8-0.2,1.3-0.5s1.6-1.7,3.4-4.1l1,0.8c-1.8,2.8-3.6,4.8-5.4,6.1c-1.2,0.8-2.4,1.2-3.5,1.2c-0.9,0-1.6-0.2-2.1-0.7
		s-0.7-1.1-0.7-1.9s0.1-1.8,0.4-3c0.4-1.6,1.4-5.2,3.1-10.7c-3.8,6.2-6.9,10.5-9.5,12.8c-2.5,2.3-4.9,3.5-7.1,3.5
		c-1,0-1.9-0.4-2.6-1.1c-0.7-0.7-1.1-1.6-1.1-2.7c0-1.7,0.5-4.2,1.4-7.7l2.9-10.3c0.7-2.5,1-4,1-4.6c0-0.2-0.1-0.5-0.3-0.7
		s-0.4-0.3-0.6-0.3c-0.5,0-0.9,0.2-1.4,0.5s-1.5,1.6-3.2,3.7l-1-0.7c1.7-2.6,3.5-4.5,5.3-5.7c1.4-1,2.7-1.5,3.9-1.5
		c0.8,0,1.5,0.3,2,0.8s0.8,1.2,0.8,2c0,1.2-0.4,3.4-1.3,6.4l-3.1,10.8c-0.9,3-1.3,4.8-1.3,5.6c0,0.4,0.1,0.8,0.4,1
		c0.3,0.3,0.6,0.4,1.1,0.4c0.7,0,1.7-0.4,2.9-1.1s2.8-2.4,4.7-4.9s3.6-4.9,4.9-7.1c1.3-2.2,2.6-5.7,4.1-10.6l0.7-2.5L773.2,1139.9
		L773.2,1139.9z"/>
	<path class="st2" d="M783.3,1156.7c-0.1,1.1-0.2,2-0.2,2.7c0,2,0.7,3.7,2.1,5.1c1.4,1.4,3.1,2.1,5.1,2.1c1.6,0,3.1-0.3,4.6-1
		s3.7-2.1,6.6-4.4l0.7,1c-5.3,5.2-10.3,7.8-15.1,7.8c-3.2,0-5.7-1-7.3-3.1c-1.6-2-2.5-4.3-2.5-6.8c0-3.3,1-6.7,3.1-10.2
		c2-3.5,4.6-6.2,7.7-8.1c3.1-1.9,6.3-2.9,9.6-2.9c2.3,0,4.1,0.5,5.2,1.5c1.1,1,1.7,2.1,1.7,3.4c0,1.9-0.7,3.6-2.2,5.3
		c-1.9,2.2-4.8,4-8.5,5.3C791.3,1155.5,787.8,1156.2,783.3,1156.7z M783.5,1155c3.3-0.4,6-1,8-1.9c2.7-1.2,4.8-2.7,6.2-4.4
		c1.4-1.7,2.1-3.3,2.1-4.9c0-0.9-0.3-1.7-0.9-2.2c-0.6-0.6-1.4-0.9-2.5-0.9c-2.3,0-4.7,1.2-7.2,3.6
		C786.6,1146.8,784.7,1150.3,783.5,1155z"/>
	<path class="st2" d="M809.1,1141l11.5-1.9l-4.8,16.2c3.9-6.7,7.4-11.3,10.6-14c1.8-1.5,3.3-2.3,4.4-2.3c0.7,0,1.3,0.2,1.7,0.7
		c0.4,0.4,0.6,1.1,0.6,1.9c0,1.5-0.4,2.9-1.1,4.2c-0.5,1-1.3,1.5-2.3,1.5c-0.5,0-0.9-0.2-1.3-0.5c-0.4-0.3-0.6-0.8-0.7-1.5
		c0-0.4-0.1-0.7-0.3-0.8c-0.2-0.2-0.4-0.2-0.6-0.2c-0.4,0-0.7,0.1-1.1,0.2c-0.6,0.3-1.5,1.2-2.7,2.6c-1.8,2.2-3.9,5-6,8.5
		c-0.9,1.5-1.7,3.1-2.4,5c-0.9,2.5-1.4,4.1-1.6,4.6l-1.1,4.2h-5.1l6.2-20.7c0.7-2.4,1-4.1,1-5.1c0-0.4-0.2-0.7-0.5-1
		c-0.4-0.4-1-0.5-1.7-0.5c-0.5,0-1.3,0.1-2.6,0.3L809.1,1141z"/>
	<path class="st2" d="M869.1,1121.8l-11.5,39.4c-0.6,2.1-1,3.5-1,4.2c0,0.2,0.1,0.4,0.3,0.6s0.4,0.3,0.6,0.3c0.3,0,0.6-0.1,1-0.4
		c0.8-0.6,2-1.9,3.8-4l1.2,0.7c-1.6,2.2-3.2,4-4.9,5.4c-1.6,1.4-3.2,2.1-4.6,2.1c-0.8,0-1.4-0.3-1.9-0.8s-0.7-1.3-0.7-2.3
		c0-1.3,0.3-3,1-5.1l1.3-4.1c-3.2,5-6.1,8.5-8.8,10.4c-1.8,1.3-3.6,1.9-5.2,1.9c-1.7,0-3.2-0.7-4.5-2.2s-1.9-3.5-1.9-6.1
		c0-3.3,1.1-6.9,3.2-10.6s4.9-6.8,8.4-9.2c2.7-1.9,5.2-2.9,7.5-2.9c1.2,0,2.2,0.2,3.1,0.7s1.7,1.3,2.6,2.4l3.3-11.6
		c0.2-0.8,0.4-1.5,0.6-2c0.3-0.9,0.4-1.6,0.4-2.2c0-0.5-0.2-0.9-0.5-1.2c-0.5-0.4-1.1-0.6-1.8-0.6c-0.5,0-1.3,0.1-2.5,0.2v-1.2
		L869.1,1121.8z M856.7,1145.5c0-1.4-0.4-2.6-1.2-3.4s-1.9-1.3-3.1-1.3c-2.8,0-5.7,2.3-8.8,6.9c-3,4.6-4.5,9-4.5,13.3
		c0,1.7,0.4,3,1.1,3.8c0.7,0.9,1.6,1.3,2.6,1.3c2.3,0,5.2-2.5,8.7-7.5C854.9,1153.6,856.7,1149.2,856.7,1145.5z"/>
	<path class="st2" d="M897.8,1149.5c0,3.3-0.9,6.6-2.7,9.9s-4.2,5.9-7.4,7.8c-3.1,1.9-6.2,2.9-9.2,2.9s-5.5-1-7.5-2.9
		c-1.9-1.9-2.9-4.5-2.9-7.5c0-3.3,0.9-6.6,2.8-9.9c1.9-3.3,4.4-5.9,7.5-7.8c3.2-1.9,6.2-2.9,9.1-2.9c3,0,5.4,1,7.3,2.9
		S897.8,1146.4,897.8,1149.5z M892.3,1147.2c0-2.1-0.5-3.7-1.5-4.8c-1-1.1-2.3-1.7-3.9-1.7c-3.3,0-6.3,2.3-9,7s-4.1,9.3-4.1,14
		c0,2.1,0.5,3.7,1.6,4.9c1.1,1.1,2.4,1.7,4,1.7c3.1,0,6.1-2.3,8.8-7C890.9,1156.7,892.3,1152,892.3,1147.2z"/>
	<path class="st2" d="M300.2,1223.6l-9.4,32.4c4-6.1,7.2-10.2,9.4-12.2c2.3-2,4.4-3,6.5-3c1.1,0,2,0.4,2.7,1.1s1.1,1.7,1.1,2.9
		c0,1.5-0.3,3.2-0.9,5.3l-4.1,14c-0.5,1.7-0.8,2.6-0.8,2.8c0,0.3,0.1,0.6,0.3,0.7c0.2,0.2,0.4,0.3,0.7,0.3s0.6-0.1,1-0.4
		c1.3-1,2.5-2.3,3.8-4.1l1,0.6c-0.8,1.2-1.8,2.5-3.2,3.9c-1.3,1.4-2.5,2.4-3.5,2.9s-1.8,0.8-2.6,0.8s-1.5-0.3-2-0.8s-0.8-1.2-0.8-2
		c0-1,0.4-2.8,1.2-5.5l3.9-13.3c0.5-1.7,0.7-3,0.7-3.9c0-0.4-0.1-0.8-0.4-1.1c-0.3-0.3-0.6-0.4-1.1-0.4c-0.6,0-1.4,0.2-2.2,0.7
		c-1.5,0.9-3.3,2.7-5.2,5.2c-0.6,0.7-2.3,3.5-5.3,8.3c-0.9,1.5-1.7,3.2-2.3,5.1l-2.1,6.8h-5l11-38.2l1.2-4.1c0-0.6-0.2-1.1-0.7-1.5
		s-1.1-0.7-1.8-0.7c-0.4,0-1,0.1-1.8,0.2l-0.7,0.1v-1.3L300.2,1223.6z"/>
	<path class="st2" d="M346.4,1240.9l-6.5,22.6l-0.7,3.1c-0.1,0.3-0.1,0.5-0.1,0.7c0,0.4,0.1,0.7,0.3,1c0.2,0.2,0.4,0.3,0.7,0.3
		c0.3,0,0.6-0.2,1.1-0.5c0.9-0.6,2-2,3.5-4l1.1,0.8c-1.5,2.3-3.1,4.1-4.7,5.3c-1.6,1.2-3.1,1.8-4.5,1.8c-0.9,0-1.7-0.2-2.1-0.7
		c-0.5-0.5-0.7-1.2-0.7-2.1c0-1.1,0.2-2.5,0.7-4.3l0.7-2.5c-2.9,3.8-5.6,6.5-8,8c-1.8,1.1-3.5,1.6-5.2,1.6c-1.6,0-3-0.7-4.2-2
		s-1.8-3.2-1.8-5.5c0-3.5,1.1-7.3,3.2-11.2c2.1-3.9,4.8-7.1,8.1-9.4c2.5-1.9,4.9-2.8,7.2-2.8c1.4,0,2.5,0.4,3.4,1.1s1.6,1.9,2.1,3.6
		l1.2-3.8L346.4,1240.9z M334.5,1242.6c-1.4,0-2.9,0.7-4.5,2c-2.3,1.9-4.3,4.7-6.1,8.4c-1.8,3.7-2.7,7.1-2.7,10.1
		c0,1.5,0.4,2.7,1.1,3.6c0.8,0.9,1.6,1.3,2.6,1.3c2.4,0,5-1.8,7.9-5.4c3.8-4.8,5.7-9.6,5.7-14.6c0-1.9-0.4-3.2-1.1-4.1
		C336.8,1243,335.8,1242.6,334.5,1242.6z"/>
	<path class="st2" d="M374.8,1263.8c-2.3,2.8-4.7,4.8-7,6.1s-4.9,1.9-7.5,1.9c-3.1,0-5.6-0.9-7.4-2.7c-1.8-1.8-2.7-4.2-2.7-7.2
		c0-3.4,1-6.7,2.9-10s4.5-6,7.7-8c3.2-2.1,6.4-3.1,9.4-3.1c2.4,0,4.2,0.5,5.4,1.5c1.2,1,1.8,2.3,1.8,3.7c0,1.4-0.4,2.6-1.3,3.5
		c-0.6,0.8-1.4,1.2-2.3,1.2c-0.7,0-1.3-0.2-1.7-0.7c-0.5-0.5-0.7-1-0.7-1.7c0-0.4,0.1-0.8,0.2-1.2c0.2-0.4,0.5-0.8,1-1.3
		s0.8-0.9,1-1.1c0.1-0.2,0.2-0.5,0.2-0.7c0-0.5-0.2-0.9-0.6-1.2c-0.7-0.4-1.6-0.7-2.7-0.7c-2.2,0-4.3,0.8-6.5,2.3s-4,3.7-5.5,6.5
		c-1.8,3.4-2.7,6.9-2.7,10.3c0,2.3,0.6,4.1,1.9,5.4s3.1,2,5.3,2c1.7,0,3.4-0.4,5.1-1.3s3.6-2.4,5.6-4.6L374.8,1263.8z"/>
	<path class="st2" d="M394.5,1240.9l-6.6,23.4c-0.4,1.6-0.7,2.5-0.7,2.8c0,0.4,0.1,0.6,0.3,0.9c0.2,0.2,0.4,0.3,0.7,0.3
		c0.4,0,0.8-0.2,1.2-0.5c1.3-1,2.6-2.4,3.9-4.3l1.2,0.8c-1.5,2.3-3.3,4.2-5.3,5.8c-1.5,1.2-2.9,1.7-4.3,1.7c-0.9,0-1.7-0.3-2.2-0.8
		c-0.6-0.5-0.9-1.2-0.9-2.1c0-0.8,0.3-2.2,0.8-4.1l4.4-15c0.7-2.4,1-4,1-4.6c0-0.5-0.2-0.9-0.5-1.2c-0.3-0.3-0.8-0.5-1.4-0.5
		c-0.5,0-1.5,0.1-3.1,0.4v-1.3L394.5,1240.9z M394.1,1227.7c0.9,0,1.7,0.3,2.4,1c0.6,0.6,1,1.4,1,2.3s-0.3,1.7-1,2.4
		c-0.6,0.7-1.4,1-2.3,1s-1.7-0.3-2.4-1s-1-1.5-1-2.4s0.3-1.7,1-2.3C392.3,1228,393.1,1227.7,394.1,1227.7z"/>
	<path class="st2" d="M405.9,1258.5c-0.1,1.1-0.2,2-0.2,2.7c0,2,0.7,3.7,2.1,5.1s3.1,2.1,5.1,2.1c1.6,0,3.1-0.3,4.6-1
		s3.7-2.1,6.6-4.4l0.7,1c-5.3,5.2-10.3,7.8-15.1,7.8c-3.2,0-5.7-1-7.3-3.1c-1.6-2-2.5-4.3-2.5-6.8c0-3.3,1-6.7,3.1-10.2
		c2-3.5,4.6-6.2,7.7-8.1s6.3-2.9,9.6-2.9c2.3,0,4.1,0.5,5.2,1.5s1.7,2.1,1.7,3.4c0,1.9-0.7,3.6-2.2,5.3c-1.9,2.2-4.8,4-8.5,5.3
		C413.9,1257.3,410.4,1258,405.9,1258.5z M406.1,1256.9c3.3-0.4,6-1,8-1.9c2.7-1.2,4.8-2.7,6.2-4.4c1.4-1.7,2.1-3.3,2.1-4.9
		c0-0.9-0.3-1.7-0.9-2.2c-0.6-0.6-1.4-0.9-2.5-0.9c-2.3,0-4.7,1.2-7.2,3.6C409.2,1248.6,407.3,1252.1,406.1,1256.9z"/>
	<path class="st2" d="M443.2,1240.9l-4.4,15.2c4.1-6.2,7.3-10.3,9.6-12.3c2.2-2,4.4-2.9,6.4-2.9c1.1,0,2,0.4,2.7,1.1
		s1.1,1.7,1.1,2.9c0,1.4-0.3,3.1-1,5.3l-4.1,14c-0.5,1.6-0.7,2.6-0.7,3c0,0.3,0.1,0.6,0.3,0.8c0.2,0.2,0.4,0.3,0.6,0.3
		s0.6-0.1,1-0.4c1.2-0.9,2.5-2.4,3.9-4.3l1,0.6c-2.1,3-4,5.1-5.9,6.3c-1.3,0.9-2.5,1.3-3.5,1.3c-0.8,0-1.5-0.2-2-0.7s-0.7-1.2-0.7-2
		c0-1.1,0.4-2.9,1.1-5.5l3.9-13.4c0.5-1.7,0.7-3,0.7-3.9c0-0.4-0.1-0.8-0.4-1.1s-0.6-0.4-1.1-0.4c-0.6,0-1.4,0.3-2.2,0.8
		c-1.6,1-3.3,2.6-5.1,5c-1.8,2.3-3.7,5.2-5.7,8.8c-1.1,1.9-1.9,4-2.6,6.2l-1.7,5.5h-5l6.1-20.9c0.7-2.5,1.1-4,1.1-4.5
		s-0.2-0.9-0.6-1.3s-0.9-0.6-1.4-0.6c-0.3,0-0.7,0.1-1.4,0.2l-1.3,0.2l-0.2-1.2L443.2,1240.9z"/>
	<path class="st2" d="M499.2,1223.6l-11.5,39.4c-0.6,2.1-1,3.5-1,4.2c0,0.2,0.1,0.4,0.3,0.6c0.2,0.2,0.4,0.3,0.6,0.3
		c0.3,0,0.6-0.1,1-0.4c0.8-0.6,2-1.9,3.8-4l1.2,0.7c-1.6,2.2-3.2,4-4.9,5.4c-1.6,1.4-3.2,2.1-4.6,2.1c-0.8,0-1.4-0.3-1.9-0.8
		s-0.7-1.3-0.7-2.3c0-1.3,0.3-3,1-5.1l1.3-4.1c-3.2,5-6.1,8.5-8.8,10.4c-1.8,1.3-3.6,1.9-5.2,1.9c-1.7,0-3.2-0.7-4.5-2.2
		s-1.9-3.5-1.9-6.1c0-3.3,1.1-6.9,3.2-10.6s4.9-6.8,8.4-9.2c2.7-1.9,5.2-2.9,7.5-2.9c1.2,0,2.2,0.2,3.1,0.7s1.7,1.3,2.6,2.4
		l3.3-11.6c0.2-0.8,0.4-1.5,0.6-2c0.3-0.9,0.4-1.6,0.4-2.2c0-0.5-0.2-0.9-0.5-1.2c-0.5-0.4-1.1-0.6-1.8-0.6c-0.5,0-1.3,0.1-2.5,0.2
		v-1.2L499.2,1223.6z M486.8,1247.3c0-1.4-0.4-2.6-1.2-3.4c-0.8-0.9-1.9-1.3-3.1-1.3c-2.8,0-5.7,2.3-8.8,6.9c-3,4.6-4.5,9-4.5,13.3
		c0,1.7,0.4,3,1.1,3.8c0.7,0.9,1.6,1.3,2.6,1.3c2.3,0,5.2-2.5,8.7-7.5C485,1255.4,486.8,1251.1,486.8,1247.3z"/>
	<path class="st2" d="M527.9,1251.3c0,3.3-0.9,6.6-2.7,9.9s-4.2,5.9-7.4,7.8c-3.1,1.9-6.2,2.9-9.2,2.9s-5.5-1-7.5-2.9
		c-1.9-1.9-2.9-4.5-2.9-7.5c0-3.3,0.9-6.6,2.8-9.9s4.4-5.9,7.5-7.8s6.2-2.9,9.1-2.9c3,0,5.4,1,7.3,2.9S527.9,1248.3,527.9,1251.3z
		 M522.4,1249c0-2.1-0.5-3.7-1.5-4.8s-2.3-1.7-3.9-1.7c-3.3,0-6.3,2.3-9,7s-4.1,9.3-4.1,14c0,2.1,0.5,3.7,1.6,4.9
		c1.1,1.1,2.4,1.7,4,1.7c3.1,0,6.1-2.3,8.8-7C521,1258.6,522.4,1253.8,522.4,1249z"/>
	<path class="st2" d="M574,1263.8c-2.3,2.8-4.7,4.8-7,6.1s-4.9,1.9-7.5,1.9c-3.1,0-5.6-0.9-7.4-2.7c-1.8-1.8-2.7-4.2-2.7-7.2
		c0-3.4,1-6.7,2.9-10s4.5-6,7.7-8c3.2-2.1,6.4-3.1,9.4-3.1c2.4,0,4.2,0.5,5.4,1.5s1.8,2.3,1.8,3.7c0,1.4-0.4,2.6-1.3,3.5
		c-0.6,0.8-1.4,1.2-2.3,1.2c-0.7,0-1.3-0.2-1.7-0.7c-0.5-0.5-0.7-1-0.7-1.7c0-0.4,0.1-0.8,0.2-1.2c0.2-0.4,0.5-0.8,1-1.3
		s0.8-0.9,1-1.1c0.1-0.2,0.2-0.5,0.2-0.7c0-0.5-0.2-0.9-0.6-1.2c-0.7-0.4-1.6-0.7-2.7-0.7c-2.2,0-4.3,0.8-6.5,2.3s-4,3.7-5.5,6.5
		c-1.8,3.4-2.7,6.9-2.7,10.3c0,2.3,0.6,4.1,1.9,5.4c1.3,1.3,3.1,2,5.3,2c1.7,0,3.4-0.4,5.1-1.3c1.7-0.9,3.6-2.4,5.6-4.6L574,1263.8z
		"/>
	<path class="st2" d="M598.2,1223.6l-11.4,39.7c-0.6,2-0.8,3.2-0.8,3.6c0,0.3,0.1,0.6,0.3,0.8c0.2,0.2,0.5,0.3,0.8,0.3
		c0.4,0,0.9-0.2,1.4-0.6c1.2-0.9,2.4-2.3,3.6-4.2l1,1c-2.1,3-4,5.1-5.8,6.3c-1.3,0.8-2.5,1.2-3.7,1.2c-0.8,0-1.5-0.3-2.1-0.9
		s-0.8-1.2-0.8-2s0.3-2.4,1-4.9l9.1-31.3c0.7-2.6,1.1-4,1.1-4.4c0-0.6-0.2-1-0.6-1.3c-0.4-0.3-1.1-0.5-2-0.5c-0.5,0-1.3,0.1-2.3,0.2
		v-1.2L598.2,1223.6z"/>
	<path class="st2" d="M612.6,1240.9l-6.6,23.4c-0.4,1.6-0.7,2.5-0.7,2.8c0,0.4,0.1,0.6,0.3,0.9c0.2,0.2,0.4,0.3,0.7,0.3
		c0.4,0,0.8-0.2,1.2-0.5c1.3-1,2.6-2.4,3.9-4.3l1.2,0.8c-1.5,2.3-3.3,4.2-5.3,5.8c-1.5,1.2-2.9,1.7-4.3,1.7c-0.9,0-1.7-0.3-2.2-0.8
		c-0.6-0.5-0.9-1.2-0.9-2.1c0-0.8,0.3-2.2,0.8-4.1l4.4-15c0.7-2.4,1-4,1-4.6c0-0.5-0.2-0.9-0.5-1.2c-0.3-0.3-0.8-0.5-1.4-0.5
		c-0.5,0-1.5,0.1-3.1,0.4v-1.3L612.6,1240.9z M612.2,1227.7c0.9,0,1.7,0.3,2.4,1c0.6,0.6,1,1.4,1,2.3s-0.3,1.7-1,2.4
		c-0.6,0.7-1.4,1-2.3,1s-1.7-0.3-2.4-1s-1-1.5-1-2.4s0.3-1.7,1-2.3C610.4,1228,611.2,1227.7,612.2,1227.7z"/>
	<path class="st2" d="M642.2,1263.8c-2.3,2.8-4.7,4.8-7,6.1s-4.9,1.9-7.5,1.9c-3.1,0-5.6-0.9-7.4-2.7c-1.8-1.8-2.7-4.2-2.7-7.2
		c0-3.4,1-6.7,2.9-10s4.5-6,7.7-8c3.2-2.1,6.4-3.1,9.4-3.1c2.4,0,4.2,0.5,5.4,1.5s1.8,2.3,1.8,3.7c0,1.4-0.4,2.6-1.3,3.5
		c-0.6,0.8-1.4,1.2-2.3,1.2c-0.7,0-1.3-0.2-1.7-0.7c-0.5-0.5-0.7-1-0.7-1.7c0-0.4,0.1-0.8,0.2-1.2c0.2-0.4,0.5-0.8,1-1.3
		s0.8-0.9,1-1.1c0.1-0.2,0.2-0.5,0.2-0.7c0-0.5-0.2-0.9-0.6-1.2c-0.7-0.4-1.6-0.7-2.7-0.7c-2.2,0-4.3,0.8-6.5,2.3s-4,3.7-5.5,6.5
		c-1.8,3.4-2.7,6.9-2.7,10.3c0,2.3,0.6,4.1,1.9,5.4c1.3,1.3,3.1,2,5.3,2c1.7,0,3.4-0.4,5.1-1.3c1.7-0.9,3.6-2.4,5.6-4.6
		L642.2,1263.8z"/>
	<path class="st2" d="M671.4,1258.5c-0.1,1.1-0.2,2-0.2,2.7c0,2,0.7,3.7,2.1,5.1c1.4,1.4,3.1,2.1,5.1,2.1c1.6,0,3.1-0.3,4.6-1
		s3.7-2.1,6.6-4.4l0.7,1c-5.3,5.2-10.3,7.8-15.1,7.8c-3.2,0-5.7-1-7.3-3.1c-1.6-2-2.5-4.3-2.5-6.8c0-3.3,1-6.7,3.1-10.2
		c2-3.5,4.6-6.2,7.7-8.1s6.3-2.9,9.6-2.9c2.3,0,4.1,0.5,5.2,1.5s1.7,2.1,1.7,3.4c0,1.9-0.7,3.6-2.2,5.3c-1.9,2.2-4.8,4-8.5,5.3
		C679.4,1257.3,675.9,1258,671.4,1258.5z M671.6,1256.9c3.3-0.4,6-1,8-1.9c2.7-1.2,4.8-2.7,6.2-4.4c1.4-1.7,2.1-3.3,2.1-4.9
		c0-0.9-0.3-1.7-0.9-2.2s-1.4-0.9-2.5-0.9c-2.3,0-4.7,1.2-7.2,3.6C674.7,1248.6,672.8,1252.1,671.6,1256.9z"/>
	<path class="st2" d="M708.7,1240.9l-4.4,15.2c4.1-6.2,7.3-10.3,9.6-12.3c2.2-2,4.4-2.9,6.4-2.9c1.1,0,2,0.4,2.7,1.1
		s1.1,1.7,1.1,2.9c0,1.4-0.3,3.1-1,5.3l-4.1,14c-0.5,1.6-0.7,2.6-0.7,3c0,0.3,0.1,0.6,0.3,0.8s0.4,0.3,0.6,0.3c0.2,0,0.6-0.1,1-0.4
		c1.2-0.9,2.5-2.4,3.9-4.3l1,0.6c-2.1,3-4,5.1-5.9,6.3c-1.3,0.9-2.5,1.3-3.5,1.3c-0.8,0-1.5-0.2-2-0.7s-0.7-1.2-0.7-2
		c0-1.1,0.4-2.9,1.1-5.5l3.9-13.4c0.5-1.7,0.7-3,0.7-3.9c0-0.4-0.1-0.8-0.4-1.1c-0.3-0.3-0.6-0.4-1.1-0.4c-0.6,0-1.4,0.3-2.2,0.8
		c-1.6,1-3.3,2.6-5.1,5s-3.7,5.2-5.7,8.8c-1,1.9-1.9,4-2.6,6.2l-1.7,5.5h-5l6.1-20.9c0.7-2.5,1.1-4,1.1-4.5s-0.2-0.9-0.6-1.3
		s-0.9-0.6-1.4-0.6c-0.3,0-0.7,0.1-1.4,0.2l-1.3,0.2l-0.2-1.2L708.7,1240.9z"/>
	<path class="st2" d="M752.9,1258.5c-0.1,1.1-0.2,2-0.2,2.7c0,2,0.7,3.7,2.1,5.1c1.4,1.4,3.1,2.1,5.1,2.1c1.6,0,3.1-0.3,4.6-1
		s3.7-2.1,6.6-4.4l0.7,1c-5.3,5.2-10.3,7.8-15.1,7.8c-3.2,0-5.7-1-7.3-3.1c-1.6-2-2.5-4.3-2.5-6.8c0-3.3,1-6.7,3.1-10.2
		c2-3.5,4.6-6.2,7.7-8.1c3.1-1.9,6.3-2.9,9.6-2.9c2.3,0,4.1,0.5,5.2,1.5c1.1,1,1.7,2.1,1.7,3.4c0,1.9-0.7,3.6-2.2,5.3
		c-1.9,2.2-4.8,4-8.5,5.3C761,1257.3,757.4,1258,752.9,1258.5z M753.2,1256.9c3.3-0.4,6-1,8-1.9c2.7-1.2,4.8-2.7,6.2-4.4
		c1.4-1.7,2.1-3.3,2.1-4.9c0-0.9-0.3-1.7-0.9-2.2c-0.6-0.6-1.4-0.9-2.5-0.9c-2.3,0-4.7,1.2-7.2,3.6
		C756.3,1248.6,754.4,1252.1,753.2,1256.9z"/>
	<path class="st2" d="M795.4,1223.6l-11.4,39.7c-0.6,2-0.8,3.2-0.8,3.6c0,0.3,0.1,0.6,0.3,0.8c0.2,0.2,0.5,0.3,0.8,0.3
		c0.4,0,0.9-0.2,1.4-0.6c1.2-0.9,2.4-2.3,3.6-4.2l1,1c-2.1,3-4,5.1-5.8,6.3c-1.3,0.8-2.5,1.2-3.7,1.2c-0.8,0-1.5-0.3-2.1-0.9
		s-0.8-1.2-0.8-2s0.3-2.4,1-4.9l9.1-31.3c0.7-2.6,1.1-4,1.1-4.4c0-0.6-0.2-1-0.6-1.3s-1.1-0.5-2-0.5c-0.5,0-1.3,0.1-2.3,0.2v-1.2
		L795.4,1223.6z"/>
	<path class="st2" d="M826.9,1240.9l-6.6,23.4c-0.4,1.6-0.7,2.5-0.7,2.8c0,0.4,0.1,0.6,0.3,0.9c0.2,0.2,0.4,0.3,0.7,0.3
		c0.4,0,0.8-0.2,1.2-0.5c1.3-1,2.6-2.4,3.9-4.3l1.2,0.8c-1.5,2.3-3.3,4.2-5.3,5.8c-1.5,1.2-2.9,1.7-4.3,1.7c-0.9,0-1.7-0.3-2.2-0.8
		c-0.6-0.5-0.9-1.2-0.9-2.1c0-0.8,0.3-2.2,0.8-4.1l4.4-15c0.7-2.4,1-4,1-4.6c0-0.5-0.2-0.9-0.5-1.2c-0.3-0.3-0.8-0.5-1.4-0.5
		c-0.5,0-1.5,0.1-3.1,0.4v-1.3L826.9,1240.9z M826.5,1227.7c0.9,0,1.7,0.3,2.4,1c0.6,0.6,1,1.4,1,2.3s-0.3,1.7-1,2.4
		c-0.6,0.7-1.4,1-2.3,1c-0.9,0-1.7-0.3-2.4-1s-1-1.5-1-2.4s0.3-1.7,1-2.3C824.7,1228,825.5,1227.7,826.5,1227.7z"/>
	<path class="st2" d="M856.5,1263.8c-2.3,2.8-4.7,4.8-7,6.1c-2.4,1.3-4.9,1.9-7.5,1.9c-3.1,0-5.6-0.9-7.4-2.7s-2.7-4.2-2.7-7.2
		c0-3.4,1-6.7,2.9-10s4.5-6,7.7-8c3.2-2.1,6.4-3.1,9.4-3.1c2.4,0,4.2,0.5,5.4,1.5s1.8,2.3,1.8,3.7c0,1.4-0.4,2.6-1.3,3.5
		c-0.6,0.8-1.4,1.2-2.3,1.2c-0.7,0-1.3-0.2-1.7-0.7c-0.5-0.5-0.7-1-0.7-1.7c0-0.4,0.1-0.8,0.2-1.2c0.2-0.4,0.5-0.8,1-1.3
		s0.8-0.9,1-1.1s0.2-0.5,0.2-0.7c0-0.5-0.2-0.9-0.6-1.2c-0.7-0.4-1.6-0.7-2.7-0.7c-2.2,0-4.3,0.8-6.5,2.3s-4,3.7-5.5,6.5
		c-1.8,3.4-2.7,6.9-2.7,10.3c0,2.3,0.6,4.1,1.9,5.4c1.3,1.3,3.1,2,5.3,2c1.7,0,3.4-0.4,5.1-1.3c1.7-0.9,3.6-2.4,5.6-4.6
		L856.5,1263.8z"/>
	<path class="st2" d="M892,1251.3c0,3.3-0.9,6.6-2.7,9.9s-4.2,5.9-7.4,7.8c-3.1,1.9-6.2,2.9-9.2,2.9s-5.5-1-7.5-2.9
		s-2.9-4.5-2.9-7.5c0-3.3,0.9-6.6,2.8-9.9c1.9-3.3,4.4-5.9,7.5-7.8s6.2-2.9,9.1-2.9c3,0,5.4,1,7.3,2.9
		C891.1,1245.7,892,1248.3,892,1251.3z M886.5,1249c0-2.1-0.5-3.7-1.5-4.8s-2.3-1.7-3.9-1.7c-3.3,0-6.3,2.3-9,7s-4.1,9.3-4.1,14
		c0,2.1,0.5,3.7,1.6,4.9c1.1,1.1,2.4,1.7,4,1.7c3.1,0,6.1-2.3,8.8-7C885.2,1258.6,886.5,1253.8,886.5,1249z"/>
	<path class="st2" d="M909.7,1240.9l-4.4,15.2c4.1-6.2,7.3-10.3,9.6-12.3c2.2-2,4.4-2.9,6.4-2.9c1.1,0,2,0.4,2.7,1.1
		s1.1,1.7,1.1,2.9c0,1.4-0.3,3.1-1,5.3l-4.1,14c-0.5,1.6-0.7,2.6-0.7,3c0,0.3,0.1,0.6,0.3,0.8s0.4,0.3,0.6,0.3c0.2,0,0.6-0.1,1-0.4
		c1.2-0.9,2.5-2.4,3.9-4.3l1,0.6c-2.1,3-4,5.1-5.9,6.3c-1.3,0.9-2.5,1.3-3.5,1.3c-0.8,0-1.5-0.2-2-0.7s-0.7-1.2-0.7-2
		c0-1.1,0.4-2.9,1.1-5.5l3.9-13.4c0.5-1.7,0.7-3,0.7-3.9c0-0.4-0.1-0.8-0.4-1.1c-0.3-0.3-0.6-0.4-1.1-0.4c-0.6,0-1.4,0.3-2.2,0.8
		c-1.6,1-3.3,2.6-5.1,5c-1.8,2.3-3.7,5.2-5.7,8.8c-1.1,1.9-1.9,4-2.6,6.2l-1.7,5.5h-5l6.1-20.9c0.7-2.5,1.1-4,1.1-4.5
		s-0.2-0.9-0.6-1.3s-0.9-0.6-1.4-0.6c-0.3,0-0.7,0.1-1.4,0.2l-1.3,0.2l-0.2-1.2L909.7,1240.9z"/>
	<path class="st2" d="M960.3,1251.3c0,3.3-0.9,6.6-2.7,9.9s-4.2,5.9-7.4,7.8c-3.1,1.9-6.2,2.9-9.2,2.9s-5.5-1-7.5-2.9
		s-2.9-4.5-2.9-7.5c0-3.3,0.9-6.6,2.8-9.9c1.9-3.3,4.4-5.9,7.5-7.8s6.2-2.9,9.1-2.9c3,0,5.4,1,7.3,2.9S960.3,1248.3,960.3,1251.3z
		 M954.8,1249c0-2.1-0.5-3.7-1.5-4.8c-1-1.1-2.3-1.7-3.9-1.7c-3.3,0-6.3,2.3-9,7s-4.1,9.3-4.1,14c0,2.1,0.5,3.7,1.6,4.9
		c1.1,1.1,2.4,1.7,4,1.7c3.1,0,6.1-2.3,8.8-7C953.4,1258.6,954.8,1253.8,954.8,1249z"/>
	<path class="st2" d="M354.3,1325.5l-11.5,39.4c-0.6,2.1-1,3.5-1,4.2c0,0.2,0.1,0.4,0.3,0.6c0.2,0.2,0.4,0.3,0.6,0.3
		c0.3,0,0.6-0.1,1-0.4c0.8-0.6,2-1.9,3.8-4l1.2,0.7c-1.6,2.2-3.2,4-4.9,5.4c-1.6,1.4-3.2,2.1-4.6,2.1c-0.8,0-1.4-0.3-1.9-0.8
		s-0.7-1.3-0.7-2.3c0-1.3,0.3-3,1-5.1l1.3-4.1c-3.2,5-6.1,8.5-8.8,10.4c-1.8,1.3-3.6,1.9-5.2,1.9c-1.7,0-3.2-0.7-4.5-2.2
		s-1.9-3.5-1.9-6.1c0-3.3,1.1-6.9,3.2-10.6s4.9-6.8,8.4-9.2c2.7-1.9,5.2-2.9,7.5-2.9c1.2,0,2.2,0.2,3.1,0.7s1.7,1.3,2.6,2.4
		l3.3-11.6c0.2-0.8,0.4-1.5,0.6-2c0.3-0.9,0.4-1.6,0.4-2.2c0-0.5-0.2-0.9-0.5-1.2c-0.5-0.4-1.1-0.6-1.8-0.6c-0.5,0-1.3,0.1-2.5,0.2
		v-1.2L354.3,1325.5z M341.9,1349.2c0-1.4-0.4-2.6-1.2-3.4c-0.8-0.9-1.9-1.3-3.1-1.3c-2.8,0-5.7,2.3-8.8,6.9c-3,4.6-4.5,9-4.5,13.3
		c0,1.7,0.4,3,1.1,3.8c0.7,0.9,1.6,1.3,2.6,1.3c2.3,0,5.2-2.5,8.7-7.5S341.9,1352.9,341.9,1349.2z"/>
	<path class="st2" d="M359.6,1360.4c-0.1,1.1-0.2,2-0.2,2.7c0,2,0.7,3.7,2.1,5.1s3.1,2.1,5.1,2.1c1.6,0,3.1-0.3,4.6-1
		s3.7-2.1,6.6-4.4l0.7,1c-5.3,5.2-10.3,7.8-15.1,7.8c-3.2,0-5.7-1-7.3-3.1c-1.6-2-2.5-4.3-2.5-6.8c0-3.3,1-6.7,3.1-10.2
		c2-3.5,4.6-6.2,7.7-8.1s6.3-2.9,9.6-2.9c2.3,0,4.1,0.5,5.2,1.5s1.7,2.1,1.7,3.4c0,1.9-0.7,3.6-2.2,5.3c-1.9,2.2-4.8,4-8.5,5.3
		C367.8,1359.1,364.1,1359.8,359.6,1360.4z M359.9,1358.7c3.3-0.4,6-1,8-1.9c2.7-1.2,4.8-2.7,6.2-4.4c1.4-1.7,2.1-3.3,2.1-4.9
		c0-0.9-0.3-1.7-0.9-2.2c-0.6-0.6-1.4-0.9-2.5-0.9c-2.3,0-4.7,1.2-7.2,3.6C363,1350.4,361.1,1354,359.9,1358.7z"/>
	<path class="st2" d="M419.2,1325.5l-11.4,39.7c-0.6,2-0.8,3.2-0.8,3.6c0,0.3,0.1,0.6,0.3,0.8c0.2,0.2,0.5,0.3,0.8,0.3
		c0.4,0,0.9-0.2,1.4-0.6c1.2-0.9,2.4-2.3,3.6-4.2l1,1c-2.1,3-4,5.1-5.8,6.3c-1.3,0.8-2.5,1.2-3.7,1.2c-0.8,0-1.5-0.3-2.1-0.9
		s-0.8-1.2-0.8-2s0.3-2.4,1-4.9l9.1-31.3c0.7-2.6,1.1-4,1.1-4.4c0-0.6-0.2-1-0.6-1.3s-1.1-0.5-2-0.5c-0.5,0-1.3,0.1-2.3,0.2v-1.2
		L419.2,1325.5z"/>
	<path class="st2" d="M449.9,1342.7l-6.5,22.6l-0.7,3.1c-0.1,0.3-0.1,0.5-0.1,0.7c0,0.4,0.1,0.7,0.3,1c0.2,0.2,0.4,0.3,0.7,0.3
		c0.3,0,0.6-0.2,1.1-0.5c0.9-0.6,2-2,3.5-4l1.1,0.8c-1.5,2.3-3.1,4.1-4.7,5.3c-1.6,1.2-3.1,1.8-4.5,1.8c-0.9,0-1.7-0.2-2.1-0.7
		c-0.5-0.5-0.7-1.2-0.7-2.1c0-1.1,0.2-2.5,0.7-4.3l0.7-2.5c-2.9,3.8-5.6,6.5-8,8c-1.8,1.1-3.5,1.6-5.2,1.6c-1.6,0-3-0.7-4.2-2
		s-1.8-3.2-1.8-5.5c0-3.5,1.1-7.3,3.2-11.2c2.1-3.9,4.8-7.1,8.1-9.4c2.5-1.9,4.9-2.8,7.2-2.8c1.4,0,2.5,0.4,3.4,1.1s1.6,1.9,2.1,3.6
		l1.2-3.8L449.9,1342.7z M438.1,1344.4c-1.4,0-2.9,0.7-4.5,2c-2.3,1.9-4.3,4.7-6.1,8.4c-1.8,3.7-2.7,7.1-2.7,10.1
		c0,1.5,0.4,2.7,1.1,3.6c0.8,0.9,1.6,1.3,2.6,1.3c2.4,0,5-1.8,7.9-5.4c3.8-4.8,5.7-9.6,5.7-14.6c0-1.9-0.4-3.2-1.1-4.1
		C440.3,1344.9,439.3,1344.4,438.1,1344.4z"/>
	<path class="st2" d="M495.5,1365.7c-2.3,2.8-4.7,4.8-7,6.1s-4.9,1.9-7.5,1.9c-3.1,0-5.6-0.9-7.4-2.7c-1.8-1.8-2.7-4.2-2.7-7.2
		c0-3.4,1-6.7,2.9-10s4.5-6,7.7-8c3.2-2.1,6.4-3.1,9.4-3.1c2.4,0,4.2,0.5,5.4,1.5s1.8,2.3,1.8,3.7c0,1.4-0.4,2.6-1.3,3.5
		c-0.6,0.8-1.4,1.2-2.3,1.2c-0.7,0-1.3-0.2-1.7-0.7c-0.5-0.5-0.7-1-0.7-1.7c0-0.4,0.1-0.8,0.2-1.2c0.2-0.4,0.5-0.8,1-1.3
		s0.8-0.9,1-1.1c0.1-0.2,0.2-0.5,0.2-0.7c0-0.5-0.2-0.9-0.6-1.2c-0.7-0.4-1.6-0.7-2.7-0.7c-2.2,0-4.3,0.8-6.5,2.3s-4,3.7-5.5,6.5
		c-1.8,3.4-2.7,6.9-2.7,10.3c0,2.3,0.6,4.1,1.9,5.4c1.3,1.3,3.1,2,5.3,2c1.7,0,3.4-0.4,5.1-1.3c1.7-0.9,3.6-2.4,5.6-4.6
		L495.5,1365.7z"/>
	<path class="st2" d="M531.5,1342.7l-6.5,22.6l-0.7,3.1c-0.1,0.3-0.1,0.5-0.1,0.7c0,0.4,0.1,0.7,0.3,1c0.2,0.2,0.4,0.3,0.7,0.3
		s0.6-0.2,1.1-0.5c0.9-0.6,2-2,3.5-4l1.1,0.8c-1.5,2.3-3.1,4.1-4.7,5.3c-1.6,1.2-3.1,1.8-4.5,1.8c-0.9,0-1.7-0.2-2.1-0.7
		c-0.5-0.5-0.7-1.2-0.7-2.1c0-1.1,0.2-2.5,0.7-4.3l0.7-2.5c-2.9,3.8-5.6,6.5-8,8c-1.8,1.1-3.5,1.6-5.2,1.6c-1.6,0-3-0.7-4.2-2
		s-1.8-3.2-1.8-5.5c0-3.5,1.1-7.3,3.2-11.2c2.1-3.9,4.8-7.1,8.1-9.4c2.5-1.9,4.9-2.8,7.2-2.8c1.4,0,2.5,0.4,3.4,1.1s1.6,1.9,2.1,3.6
		l1.2-3.8L531.5,1342.7z M519.6,1344.4c-1.4,0-2.9,0.7-4.5,2c-2.3,1.9-4.3,4.7-6.1,8.4c-1.8,3.7-2.7,7.1-2.7,10.1
		c0,1.5,0.4,2.7,1.1,3.6c0.8,0.9,1.6,1.3,2.6,1.3c2.4,0,5-1.8,7.9-5.4c3.8-4.8,5.7-9.6,5.7-14.6c0-1.9-0.4-3.2-1.1-4.1
		C521.9,1344.9,520.9,1344.4,519.6,1344.4z"/>
	<path class="st2" d="M548.3,1342.7l-4.3,15.1c1.9-3.5,3.6-6.2,4.9-8c2.1-2.8,4.2-4.8,6.2-6c1.2-0.7,2.4-1.1,3.7-1.1
		c1.1,0,2,0.4,2.8,1.1c0.7,0.7,1.1,1.6,1.1,2.7s-0.3,2.5-0.8,4.3l-2.4,8.5c3.6-6.8,7.1-11.6,10.3-14.3c1.8-1.5,3.6-2.3,5.3-2.3
		c1,0,1.9,0.4,2.5,1.1c0.7,0.7,1,1.8,1,3.3c0,1.3-0.2,2.7-0.6,4.1l-3.6,13c-0.8,2.8-1.2,4.4-1.2,4.7s0.1,0.6,0.3,0.8
		c0.1,0.2,0.3,0.2,0.5,0.2s0.6-0.2,1.2-0.6c1.3-1,2.5-2.3,3.6-3.9l1.1,0.7c-0.6,0.9-1.5,2.1-2.9,3.7s-2.6,2.6-3.6,3.2
		s-1.9,0.8-2.8,0.8c-0.8,0-1.5-0.3-2-0.8s-0.8-1.2-0.8-1.9c0-1.1,0.5-3.2,1.4-6.5l3-10.7c0.7-2.5,1-3.9,1.1-4.1
		c0.1-0.4,0.1-0.9,0.1-1.2c0-0.6-0.1-1-0.4-1.3c-0.3-0.3-0.6-0.5-0.9-0.5c-0.9,0-1.9,0.5-2.9,1.5c-3.1,2.8-6,6.8-8.6,11.8
		c-1.8,3.4-3.4,7.7-4.9,12.9h-5.1l5.7-20.2c0.6-2.2,0.9-3.6,0.9-4.4c0-0.6-0.1-1.1-0.4-1.3c-0.2-0.3-0.5-0.4-0.9-0.4
		c-0.7,0-1.5,0.3-2.4,0.8c-1.3,0.9-3,2.7-5.1,5.6c-2.1,2.8-3.7,5.6-4.9,8.2c-0.6,1.2-1.9,5.1-4,11.8h-4.9l6.2-21.6l0.8-2.8
		c0.2-0.4,0.2-0.8,0.2-1c0-0.5-0.2-0.9-0.7-1.3s-1-0.6-1.7-0.6c-0.3,0-1.1,0.1-2.4,0.4l-0.3-1.2L548.3,1342.7z"/>
	<path class="st2" d="M615,1342.7l-6.5,22.6l-0.7,3.1c-0.1,0.3-0.1,0.5-0.1,0.7c0,0.4,0.1,0.7,0.3,1c0.2,0.2,0.4,0.3,0.7,0.3
		s0.6-0.2,1.1-0.5c0.9-0.6,2-2,3.5-4l1.1,0.8c-1.5,2.3-3.1,4.1-4.7,5.3c-1.6,1.2-3.1,1.8-4.5,1.8c-0.9,0-1.7-0.2-2.1-0.7
		c-0.5-0.5-0.7-1.2-0.7-2.1c0-1.1,0.2-2.5,0.7-4.3l0.7-2.5c-2.9,3.8-5.6,6.5-8,8c-1.8,1.1-3.5,1.6-5.2,1.6c-1.6,0-3-0.7-4.2-2
		s-1.8-3.2-1.8-5.5c0-3.5,1.1-7.3,3.2-11.2c2.1-3.9,4.8-7.1,8.1-9.4c2.5-1.9,4.9-2.8,7.2-2.8c1.4,0,2.5,0.4,3.4,1.1s1.6,1.9,2.1,3.6
		l1.2-3.8L615,1342.7z M603.1,1344.4c-1.4,0-2.9,0.7-4.5,2c-2.3,1.9-4.3,4.7-6.1,8.4c-1.8,3.7-2.7,7.1-2.7,10.1
		c0,1.5,0.4,2.7,1.1,3.6c0.8,0.9,1.6,1.3,2.6,1.3c2.4,0,5-1.8,7.9-5.4c3.8-4.8,5.7-9.6,5.7-14.6c0-1.9-0.4-3.2-1.1-4.1
		C605.4,1344.9,604.4,1344.4,603.1,1344.4z"/>
	<path class="st2" d="M620.6,1344.6l11.5-1.9l-4.8,16.2c3.9-6.7,7.4-11.3,10.6-14c1.8-1.5,3.3-2.3,4.4-2.3c0.7,0,1.3,0.2,1.7,0.7
		c0.4,0.4,0.6,1.1,0.6,1.9c0,1.5-0.4,2.9-1.1,4.2c-0.5,1-1.3,1.5-2.3,1.5c-0.5,0-0.9-0.2-1.3-0.5c-0.4-0.3-0.6-0.8-0.7-1.5
		c0-0.4-0.1-0.7-0.3-0.8c-0.2-0.2-0.4-0.2-0.6-0.2c-0.4,0-0.7,0.1-1.1,0.2c-0.6,0.3-1.5,1.2-2.7,2.6c-1.9,2.2-3.9,5-6,8.5
		c-0.9,1.5-1.7,3.1-2.4,5c-0.9,2.5-1.4,4.1-1.6,4.6l-1.1,4.2h-5.1l6.2-20.7c0.7-2.4,1-4.1,1-5.1c0-0.4-0.2-0.7-0.5-1
		c-0.4-0.4-1-0.5-1.7-0.5c-0.5,0-1.3,0.1-2.6,0.3L620.6,1344.6z"/>
	<path class="st2" d="M675.7,1342.7l-6.5,22.6l-0.7,3.1c-0.1,0.3-0.1,0.5-0.1,0.7c0,0.4,0.1,0.7,0.3,1c0.2,0.2,0.4,0.3,0.7,0.3
		s0.6-0.2,1.1-0.5c0.9-0.6,2-2,3.5-4l1.1,0.8c-1.5,2.3-3.1,4.1-4.7,5.3c-1.6,1.2-3.1,1.8-4.5,1.8c-0.9,0-1.7-0.2-2.1-0.7
		c-0.5-0.5-0.7-1.2-0.7-2.1c0-1.1,0.2-2.5,0.7-4.3l0.7-2.5c-2.9,3.8-5.6,6.5-8,8c-1.8,1.1-3.5,1.6-5.2,1.6c-1.6,0-3-0.7-4.2-2
		s-1.8-3.2-1.8-5.5c0-3.5,1.1-7.3,3.2-11.2c2.1-3.9,4.8-7.1,8.1-9.4c2.5-1.9,4.9-2.8,7.2-2.8c1.4,0,2.5,0.4,3.4,1.1s1.6,1.9,2.1,3.6
		l1.2-3.8L675.7,1342.7z M663.8,1344.4c-1.4,0-2.9,0.7-4.5,2c-2.3,1.9-4.3,4.7-6.1,8.4c-1.8,3.7-2.7,7.1-2.7,10.1
		c0,1.5,0.4,2.7,1.1,3.6c0.8,0.9,1.6,1.3,2.6,1.3c2.4,0,5-1.8,7.9-5.4c3.8-4.8,5.7-9.6,5.7-14.6c0-1.9-0.4-3.2-1.1-4.1
		C666.1,1344.9,665.1,1344.4,663.8,1344.4z"/>
	<path class="st2" d="M805.1,1343.5l-0.6,2.2h-4.8l-3.7,14.6c-1.6,6.4-3.3,11.4-4.9,14.9c-2.3,4.9-4.9,8.4-7.5,10.2
		c-2,1.5-4.1,2.2-6.1,2.2c-1.4,0-2.5-0.4-3.4-1.2c-0.7-0.6-1-1.3-1-2.2c0-0.7,0.3-1.3,0.8-1.9c0.6-0.5,1.2-0.8,2.1-0.8
		c0.6,0,1.1,0.2,1.5,0.6s0.6,0.8,0.6,1.3s-0.2,1-0.7,1.4c-0.4,0.3-0.5,0.5-0.5,0.7s0.1,0.3,0.2,0.5c0.2,0.2,0.5,0.2,0.9,0.2
		c1,0,2-0.3,3-0.9c1.1-0.6,2-1.5,2.8-2.7s1.6-2.9,2.4-5.1c0.3-0.9,1.1-4,2.5-9.2l5.8-22.6h-5.9l0.5-2.2c1.9,0,3.1-0.1,3.9-0.4
		c0.7-0.3,1.4-0.8,2-1.5s1.4-2.1,2.4-4.1c1.3-2.7,2.6-4.7,3.8-6.2c1.6-2,3.4-3.5,5.2-4.5s3.5-1.5,5.1-1.5c1.7,0,3,0.4,4.1,1.3
		c1,0.9,1.5,1.8,1.5,2.8c0,0.8-0.3,1.5-0.8,2s-1.2,0.8-2,0.8c-0.7,0-1.3-0.2-1.7-0.6s-0.7-0.9-0.7-1.4c0-0.4,0.1-0.8,0.4-1.3
		c0.3-0.5,0.4-0.9,0.4-1c0-0.3-0.1-0.5-0.3-0.7c-0.3-0.2-0.7-0.3-1.2-0.3c-1.4,0-2.7,0.4-3.8,1.3c-1.5,1.2-2.8,3-4,5.6
		c-0.6,1.3-1.7,4.6-3.3,9.8h5V1343.5z"/>
	<path class="st2" d="M835.4,1353.1c0,3.3-0.9,6.6-2.7,9.9s-4.2,5.9-7.4,7.8c-3.1,1.9-6.2,2.9-9.2,2.9s-5.5-1-7.5-2.9
		c-1.9-1.9-2.9-4.5-2.9-7.5c0-3.3,0.9-6.6,2.8-9.9c1.9-3.3,4.4-5.9,7.5-7.8c3.2-1.9,6.2-2.9,9.1-2.9c3,0,5.4,1,7.3,2.9
		S835.4,1350.1,835.4,1353.1z M829.9,1350.9c0-2.1-0.5-3.7-1.5-4.8c-1-1.1-2.3-1.7-3.9-1.7c-3.3,0-6.3,2.3-9,7s-4.1,9.3-4.1,14
		c0,2.1,0.5,3.7,1.6,4.9c1.1,1.1,2.4,1.7,4,1.7c3.1,0,6.1-2.3,8.8-7C828.5,1360.4,829.9,1355.7,829.9,1350.9z"/>
	<path class="st2" d="M855.7,1334.5l-2.6,9.1h5.3l-0.6,2.1h-5.2l-5.8,19.6c-0.6,2.1-0.9,3.5-0.9,4.1c0,0.4,0.1,0.7,0.2,0.9
		c0.2,0.2,0.4,0.3,0.6,0.3c0.6,0,1.3-0.4,2.2-1.2c0.6-0.4,1.8-1.8,3.6-4.1l1.1,0.9c-2,3-4,5.1-5.8,6.3c-1.2,0.8-2.5,1.2-3.8,1.2
		c-1,0-1.8-0.3-2.4-0.9s-0.9-1.4-0.9-2.4c0-1.2,0.3-3,1-5.5l5.6-19.3h-5.1l0.3-1.3c2.5-0.7,4.5-1.7,6.1-3s3.4-3.6,5.4-6.9h1.7
		L855.7,1334.5L855.7,1334.5z"/>
	<path class="st2" d="M888.5,1353.1c0,3.3-0.9,6.6-2.7,9.9s-4.2,5.9-7.4,7.8c-3.1,1.9-6.2,2.9-9.2,2.9s-5.5-1-7.5-2.9
		s-2.9-4.5-2.9-7.5c0-3.3,0.9-6.6,2.8-9.9c1.9-3.3,4.4-5.9,7.5-7.8s6.2-2.9,9.1-2.9c3,0,5.4,1,7.3,2.9S888.5,1350.1,888.5,1353.1z
		 M883,1350.9c0-2.1-0.5-3.7-1.5-4.8c-1-1.1-2.3-1.7-3.9-1.7c-3.3,0-6.3,2.3-9,7s-4.1,9.3-4.1,14c0,2.1,0.5,3.7,1.6,4.9
		c1.1,1.1,2.4,1.7,4,1.7c3.1,0,6.1-2.3,8.8-7C881.6,1360.4,883,1355.7,883,1350.9z"/>
	<path class="st2" d="M915.9,1342.7l-2,10.3h-1.3c-0.1-3-0.7-5.2-1.9-6.5s-2.6-2-4.3-2c-1.4,0-2.4,0.4-3.3,1.1s-1.2,1.7-1.2,2.7
		c0,0.7,0.2,1.4,0.5,2.1s1,1.6,2.1,2.8c2.9,3.2,4.7,5.6,5.6,7.1c0.8,1.6,1.3,3.1,1.3,4.5c0,2.3-1,4.4-2.9,6.2
		c-1.9,1.8-4.3,2.7-7.3,2.7c-1.6,0-3.5-0.4-5.6-1.1c-0.7-0.3-1.3-0.4-1.7-0.4c-1,0-1.8,0.5-2.3,1.5h-1.2l2-10.8h1.2
		c0.1,3.4,0.8,5.8,2.1,7.2c1.3,1.4,3,2.1,5.2,2.1c1.7,0,3-0.5,4-1.4s1.5-2.1,1.5-3.5c0-0.9-0.2-1.7-0.5-2.5
		c-0.6-1.3-1.9-3.2-3.9-5.5c-2-2.4-3.3-4.1-3.8-5.3c-0.6-1.2-0.8-2.4-0.8-3.5c0-2.2,0.8-4,2.4-5.5c1.6-1.5,3.6-2.2,6-2.2
		c0.7,0,1.4,0.1,1.9,0.2c0.3,0.1,1,0.3,2.2,0.8c1.1,0.4,1.9,0.6,2.3,0.6c0.9,0,1.7-0.5,2.4-1.6L915.9,1342.7L915.9,1342.7z"/>
</g>
<g>
	<g>
		<g>
			<g>
				<path class="st3" d="M628.2,1680.4c-3.6-0.8-7.6,0.7-10,4.1c-2.5-3.4-6.4-4.9-10-4.1c-4,0.9-6.7,4.4-6.7,8.8
					c-0.2,12.5,16.4,22.8,16.5,22.8s0.1,0,0.1,0c0.1,0,0.1,0,0.1,0c0.1-0.1,16.8-10.3,16.5-22.8
					C634.9,1684.8,632.2,1681.3,628.2,1680.4z"/>
			</g>
		</g>
	</g>
	<g>
		<g>
			<path class="st4" d="M576.5,1851.5v0.9c-2.5-1.2-4.6-2.7-6.2-4.4c-2.4-2.4-4.3-5.2-5.5-8.5c-1.2-3.4-1.9-6.6-1.9-10.1
				c0-5.1,1.2-9.8,3.8-14.1c2.5-4.3,5.8-7.2,9.8-9v1.1c-2,1.1-3.6,2.7-4.8,4.6s-2.4,4.4-2.8,7.4c-0.7,3-0.9,6-0.9,9.3
				c0,3.6,0.3,6.7,0.8,9.6c0.4,2.4,0.9,4,1.6,5.5c0.4,1.5,1.5,2.7,2.5,3.9C573.5,1849.1,574.9,1850.3,576.5,1851.5z"/>
			<path class="st4" d="M599,1833c-0.4,3-1.7,5.4-3.6,6.7c-1.7,1.6-3.6,2.5-5.8,2.5c-2.7,0-4.7-1.1-6.7-3.3
				c-1.9-2.2-2.8-5.1-2.8-8.8c0-3.6,1.1-6.4,3.1-8.7c2-2.2,4.7-3.3,7.8-3.3c2.2,0,4,0.4,5.5,1.7c1.5,1.2,2.2,2.5,2.2,3.6
				c0,0.7-0.1,1.1-0.4,1.6c-0.4,0.4-0.9,0.4-1.6,0.4c-0.9,0-1.6-0.3-2.2-0.9c-0.3-0.4-0.4-0.9-0.4-1.9c-0.1-0.9-0.4-1.7-0.9-2.2
				c-0.4-0.6-1.5-0.7-2.4-0.7c-1.6,0-3,0.4-3.9,1.7c-1.5,1.6-2,3.6-2,6.4c0,2.7,0.7,5.1,1.9,7.1c1.5,2,3.1,3.1,5.4,3.1
				c1.6,0,3-0.4,4.4-1.6c0.9-0.8,1.7-2.2,2.7-4L599,1833z"/>
			<path class="st4" d="M610.7,1806.6v29.9c0,1.5,0.1,2.4,0.3,2.8c0.1,0.4,0.4,0.8,0.9,1.1s1.2,0.4,2.4,0.4v0.8h-11v-0.8
				c1.1,0,1.7-0.1,2.2-0.3c0.4-0.3,0.7-0.4,0.8-1.1s0.3-1.6,0.3-2.8v-20.5c0-2.7,0-4-0.1-4.6c-0.1-0.4-0.3-0.9-0.4-1.2
				c-0.3-0.3-0.4-0.3-0.9-0.3s-0.9,0.1-1.6,0.4l-0.4-0.8l6.7-2.7h1.2L610.7,1806.6L610.7,1806.6z"/>
			<path class="st4" d="M625.3,1818.4v18.2c0,1.5,0.1,2.4,0.3,2.8c0.1,0.4,0.4,0.8,0.9,1.1s1.1,0.4,2.2,0.4v0.8h-11v-0.8
				c1.1,0,1.7-0.1,2.2-0.3c0.4-0.3,0.7-0.4,0.8-1.1c0.3-0.4,0.3-1.6,0.3-2.8v-8.8c0-2.5-0.1-3.9-0.3-4.7c-0.1-0.4-0.3-0.9-0.4-1.1
				c-0.3-0.1-0.4-0.3-0.9-0.3s-0.9,0.1-1.6,0.4l-0.4-0.8l6.7-2.7h1.2V1818.4L625.3,1818.4z M623.3,1806.6c0.7,0,1.2,0.3,1.7,0.7
				c0.4,0.4,0.7,1.1,0.7,1.7c0,0.7-0.3,1.2-0.7,1.7c-0.4,0.4-1.1,0.7-1.7,0.7c-0.7,0-1.2-0.3-1.7-0.7c-0.4-0.4-0.7-1.1-0.7-1.7
				c0-0.7,0.3-1.2,0.7-1.7C621.8,1806.8,622.6,1806.6,623.3,1806.6z"/>
			<path class="st4" d="M651.3,1833c-0.4,3-1.7,5.4-3.6,6.7c-1.7,1.6-3.6,2.5-5.8,2.5c-2.7,0-4.7-1.1-6.7-3.3
				c-1.9-2.2-2.8-5.1-2.8-8.8c0-3.6,1.1-6.4,3.1-8.7c2-2.2,4.7-3.3,7.8-3.3c2.2,0,4,0.4,5.5,1.7c1.5,1.2,2.2,2.5,2.2,3.6
				c0,0.7-0.1,1.1-0.4,1.6c-0.4,0.4-0.9,0.4-1.6,0.4c-0.9,0-1.6-0.3-2.2-0.9c-0.3-0.4-0.4-0.9-0.4-1.9c-0.1-0.9-0.4-1.7-0.9-2.2
				c-0.4-0.6-1.5-0.7-2.4-0.7c-1.6,0-3,0.4-3.9,1.7c-1.5,1.6-2,3.6-2,6.4c0,2.7,0.7,5.1,1.9,7.1c1.5,2,3.1,3.1,5.4,3.1
				c1.6,0,3-0.4,4.4-1.6c0.9-0.8,1.7-2.2,2.7-4L651.3,1833z"/>
			<path class="st4" d="M653.6,1807.5v-1.1c2.5,1.2,4.6,2.7,6.3,4.4c2.4,2.4,4,5.2,5.5,8.5c1.2,3.3,1.9,6.6,1.9,10.1
				c0,5.1-1.2,9.8-3.6,14.1c-2.5,4.3-5.8,7.2-9.8,9v-0.9c2-1.1,3.6-2.7,4.8-4.6c1.5-1.9,2.4-4.4,2.8-7.4c0.7-3,0.9-6.2,0.9-9.3
				c0-3.6-0.3-6.7-0.8-9.6c-0.4-2.4-0.9-4-1.6-5.5c-0.4-1.5-1.5-2.7-2.5-3.9C656.5,1810,655.3,1808.7,653.6,1807.5z"/>
		</g>
	</g>
	<a xlink:href="https://photos.app.goo.gl/GpsXAcpQFPLpusZu5"  pointer-events="all" target="_blank">
		<rect x="504.1" y="1582.3" class="st5" width="228.3" height="283.5"/>
		<path class="st4" d="M581.8,1648.7c0-2-1-3.1-3.1-3c-1.4,0.1-2.7,0.1-4.1,0c-4.7-0.3-5.8,1.1-4.3,5.9c0.4,0.1,0.8,0.2,1.2,0.2
			c2.4,0,4.9,0,7.3,0.1C580.8,1651.9,581.8,1650.7,581.8,1648.7z"/>
		<path class="st4" d="M645.7,1647.5c2.5,6.1,6.9,8.1,13.4,7.7c5.6-0.4,11.2-0.5,16.8,0.1c6.2,0.7,9.5,4.6,9.6,10.7
			c0.1,21.2,0.1,42.3-0.1,63.5c0,6.1-3.5,9.8-9.5,10.3c-6.2,0.6-12.5,0.6-18.7,0.6c-12.6,0.1-25.2,0-37.8,0v-0.1
			c-16.8,0-33.7,0.1-50.5-0.1c-3.9-0.1-8-0.9-11.8-2c-4.1-1.1-5.8-4.4-5.8-8.5c-0.1-7.6-0.1-15.2-0.1-22.9c0-13.1,0-26.2,0.1-39.4
			c0-8.2,4.3-12.5,12.5-12.7c6.3-0.1,12.7-0.1,19,0c2.9,0.1,4.8-0.9,5.9-3.7c2.4-6.1,7-8.7,13.4-8.6c12,0.1,23.9,0.1,35.9,0.1
			C641.6,1642.7,644.2,1643.9,645.7,1647.5z M646,1694.1c-0.2-14.8-12.7-27-27.3-26.8c-15.9,0.2-27.9,12.2-27.7,27.6
			c0.2,15.2,12.8,27.3,28.1,27.1C634.1,1721.8,646.2,1709.2,646,1694.1z M649.2,1673.3c0,3.2,3,6.2,6,6.2s6.1-3.2,6.1-6.2
			c0-3.2-2.8-5.9-6.2-5.9C651.7,1667.3,649.2,1669.8,649.2,1673.3z"/>
		<g>
			<path class="st4" d="M618.4,1718.3c-0.1,0-0.1,0-0.2,0c-13.1-0.1-23.8-10.8-23.7-23.9s10.8-23.7,24-23.7l0,0
				c6.4,0,12.4,2.5,16.9,7c4.5,4.6,7,10.6,6.9,17.1l0,0C642.2,1708.1,631.7,1718.3,618.4,1718.3z M618.5,1673.1
				c-11.8,0-21.5,9.6-21.6,21.3c-0.1,11.8,9.5,21.4,21.3,21.5c0.1,0,0.1,0,0.2,0c12,0,21.4-9.2,21.5-21.1c0.1-5.8-2.1-11.3-6.2-15.4
				C629.7,1675.4,624.3,1673.1,618.5,1673.1L618.5,1673.1z"/>
		</g>
		<g>
			<g>
				<path class="st4" d="M618.4,1793c-54.5,0-98.8-44.3-98.8-98.8s44.3-98.8,98.8-98.8s98.8,44.3,98.8,98.8S672.9,1793,618.4,1793z
					 M618.4,1605.5c-48.9,0-88.7,39.8-88.7,88.7s39.8,88.7,88.7,88.7s88.7-39.8,88.7-88.7S667.3,1605.5,618.4,1605.5z"/>
			</g>
		</g>
	</a>
</g>
<path class="st4" d="M707.7,730.1c-0.9-17.9-17.9-28.6-49.7-29.1c-18-0.3-36.5,5.3-53.2,11.8c-0.8-0.7-1.8-1.5-2.8-2.1
	c-19.2-12.8-36.9-12.6-44.6-12.6c-7.8,0-48.1,5.5-47.6,21.3s32.5,20.8,61.3,10.1c11.1-4.1,22.3-8.8,33.4-13
	c2.8,3.7,4.1,7.7,4.1,11.4c0,9.4-9.4,19.5-24.3,19.2c-14.9-0.2-14-12.8-14-12.8c-1.6,14.4,13,16.7,24.9,13
	c10.5-3.2,22.6-19.3,12-31.9c17-6.2,33.9-11.1,50.5-11.1c28.4,0,47.1,7.8,47.1,25.6c0,17.9-24.3,24.7-39.6,24.7s-22.7-4.8-26.8-11.4
	c-4.1-6.7,1.4-19.9,23.8-19.7c22.4,0.2,18.5,14.7,18.5,14.7c4.8-11-8.2-17.2-18.8-17.2c-10.5,0-27.9,6.4-27.7,17.8
	c0.2,11.5,15.6,18.5,31.3,18.1C681.6,756.4,708.6,748,707.7,730.1z M570.4,727.1c-22.7,8.9-42.8,6.4-52.2,1.4
	c-9.4-5-8.2-15.6,6.6-21.7c14.9-6.2,35.7-8.5,55.4-4.1c10.2,2.2,17.4,6.4,22,11.2C590.4,718.5,579.5,723.5,570.4,727.1z"/>
<path class="st4" d="M732.9,1468.9c-1.6-2.7-3.5-4.8-5.9-6.3c-2.3-1.6-5-2.5-7.9-3.1c-3-0.6-5.8-0.9-8.5-0.9
	c-5.7,0-11.2,0.7-16.4,2.3c-5.2,1.5-10.3,3.5-15.4,6.1c-3.5-2.7-7.5-4.8-11.8-6.2c-4.2-1.5-8.4-2.2-12.5-2.2c-1.7,0-3.3,0-4.9,0.1
	c-0.4,0.1-0.8,0.1-1.2,0.1c-3.9,0.3-7.7,0.9-11.5,1.8c-4.1,1-8.2,2.3-12.1,3.7c-1.5,0.5-2.9,1.1-4.2,1.6c-1.6-1.1-3.2-2.1-5-3
	c-2.3-1.2-4.8-2.1-7.5-2.8c-4.8-1.4-9.7-2-14.8-2h-0.6c-4,0-8.2,0.7-12.4,1.9c-4.5,1.3-8.5,3.2-12.2,6.1c-3.5,2.7-6.6,6.3-8.9,10.7
	c-2.4,4.4-3.5,9.7-3.5,15.9v2.8c0,0.9,0.1,1.8,0.3,2.6c-5.4,1.6-10.9,2.3-16.5,2.3c-8.3,0-15.1-1.9-20.2-5.8
	c-5-3.8-7.6-8.4-7.6-13.8c0-2.8,0.8-5.3,2.2-7.8c1.5-2.5,3.2-4.5,5.3-6.2c2.2-1.7,4.4-3,7-4c2.5-1,4.9-1.6,7.1-1.6
	c4.5,0,8.4,1.4,11.4,3.9c3,2.6,4.5,5.6,4.5,9c0,2.7-0.8,5.3-2.4,7.8c-1.7,2.5-4.3,4.2-7.9,5.1c4-0.5,6.9-2.1,8.6-4.7
	c1.8-2.6,2.6-5.2,2.6-8c0-3.6-1.4-7.2-4.2-10.3c-2.9-3.2-7.6-4.8-13.9-4.8c-6.1,0-11.2,2-15.3,5.8c-4.1,3.9-6.2,8.7-6.2,14.6
	c0,7.1,3,12.8,9.1,17s14.9,6.3,26.5,6.3c1.9,0,3.7-0.1,5.7-0.3c2-0.1,3.8-0.4,5.7-0.7c1.9,4.7,5.2,8.7,10.1,12
	c4.9,3.2,10.9,4.9,18.2,4.9c2.4,0,4.6-0.1,7-0.4c5.9-0.7,11.9-2.2,17.8-4.6c1.6,1.1,3.3,2.2,5.1,3.1c2.5,1.2,5.2,2.2,8.1,2.9
	c0.4,0.1,0.7,0.2,1.1,0.3c4.8,1.2,9.8,1.8,15,1.8c0.7,0,1.3,0,1.9-0.1c0.6-0.1,1.3-0.2,2.2-0.2c-2.9,5.1-6.5,9.1-10.9,12.2
	c-2.7,2-5.5,3.2-8.1,3.9c-1.6,0.4-3.1,0.6-4.7,0.6c-1.5,0-3-0.2-4.5-0.6c-1.2-0.3-2.4-0.8-3.5-1.3c-2.9-1.3-4.3-3.6-4.3-7.2
	c0-1.9,0.5-3.5,1.4-5c2.1-2.9,6.6-2.6,9.1-0.3c-0.9-1.7-2.9-3-4.8-3c-2.4,0-4.3,0.7-5.8,2.2c-1.6,1.4-2.4,3.4-2.4,6.2
	c0,3.3,1.5,5.8,4.3,7.5c1.8,0.9,3.7,1.6,6.1,2c1.6,0.3,3.2,0.4,5,0.4c1.4,0,2.8-0.2,4.2-0.6c2.8-0.7,5.9-2.1,9.2-4.1
	c5-3,9.2-7.4,12.6-13c0.6-0.1,1.2-0.2,1.8-0.3c0.4-0.1,0.8-0.1,1.2-0.2c3.9-0.8,8-2,12-3.7c5.1-2.1,9.7-4.7,14-7.7
	c4.2-3.1,7.6-6.7,10.2-10.6c2.5-4,3.9-8.2,3.9-12.8c0-3.4-0.8-6.5-2.2-9.2c-1.5-2.9-3.3-5.3-5.7-7.5c5-2.8,10-5.2,14.8-7
	c4.7-1.8,9.4-2.6,14-2.6s8.2,0.6,11.2,1.7c2.8,1.1,5.1,2.5,6.9,4.4c1.8,1.9,3,3.9,3.7,6.3c0.6,2.3,1,4.8,1,7.4c0,2-0.7,4.1-1.9,6.3
	c-1.3,2.2-3,4.2-5,6s-4.2,3.3-6.7,4.4c-2.5,1.2-4.9,1.8-7.4,1.8c-5.2,0-9.2-1.4-12.2-3.9c-3-2.7-4.4-5.8-4.4-9.5
	c0-3.5,0.9-6.4,2.9-8.5c2-2.3,4.2-3.4,6.7-3.8c-2.4,0.4-4.3,0.2-6.3,1.8c-3,2.3-5,6.7-5,10.4c0,5,1.8,8.8,5.5,11.5
	c3.7,2.6,8.4,3.9,13.9,3.9c3.6,0,6.9-0.6,9.7-1.8c2.8-1.2,5-2.7,6.8-4.7c1.8-1.9,3.1-4.1,4-6.6c1-2.5,1.4-4.8,1.4-7.2
	C735.2,1475,734.5,1471.6,732.9,1468.9z M624.8,1467.7c4.4-2,9-3.6,13.7-4.8c3.1-0.9,6.5-1.5,9.8-1.8c0.4,0,0.8-0.1,1.2-0.1
	c1.9-0.1,3.7-0.2,5.7-0.2c3.3,0,6.9,0.7,10.5,2.2c3.5,1.4,6.9,3.3,9.9,5.7c-4.7,2.6-9.3,5.5-13.9,8.4c-4.1,2.7-8.1,5.5-12.3,8.4
	c-0.4,0.3-0.8,0.6-1.2,0.8c-0.1,0.1-0.1,0.2-0.2,0.2c-2.4-3.3-5.3-6-8.7-7.8c-3.4-1.9-7.1-3-11-3.5c-0.9-1.9-2.2-3.6-3.6-5.4
	c-0.5-0.5-0.9-1-1.4-1.5C623.8,1468.2,624.3,1468,624.8,1467.7z M557.8,1494.7c-0.1-1.1-0.1-2-0.1-2.8c0-4,0.8-8,2.4-11.9
	c1.6-3.8,3.9-7.2,7.1-10.3c3.1-3,6.9-5.5,11.4-7.4c4.2-1.8,8.9-2.7,14.1-2.8h0.9c4.9,0,9.5,0.6,14,1.9c2.9,0.9,5.7,2.1,8,3.4
	c1.1,0.6,2.1,1.3,3,2.1c-1.1,0.4-2.1,0.9-3,1.4c-4.3,2-8.5,4.1-12.7,6.4c-3.4,2-6.9,3.9-10.2,5.9c-1.6,0.9-3.1,1.9-4.7,2.7
	c-4.8,2.8-9.8,5.6-14.7,8c-5,2.6-10.1,4.6-15.3,6.1C557.9,1496.5,557.9,1495.6,557.8,1494.7z M592.6,1515.6
	c-2.5,0.4-5.1,0.5-7.8,0.5c-6.4,0-11.8-1.2-16.2-3.7c-4.5-2.5-7.7-6.3-9.5-11.1c5.4-1.4,10.7-3.3,15.9-5.9
	c5.2-2.5,10.4-5.3,15.4-8.3c0.7-0.5,1.5-0.9,2.2-1.4c4.3-2.6,8.7-5.3,13.2-8.1c3.2-2,6.4-3.8,9.7-5.5c2-1.1,4-2.1,6.1-3.1
	c0.8,0.8,1.6,1.7,2.4,2.7c0.3,0.3,0.5,0.6,0.8,1c0.5,0.7,0.9,1.4,1.4,2.2h-1.4c-2.6,0.1-5.1,0.5-7.8,1.4c-0.5,0.2-1,0.4-1.5,0.6
	c-2.3,0.9-4.4,2.1-6.5,3.6c-2.5,1.8-4.4,4.1-5.9,6.8c-1.6,2.7-2.3,5.9-2.3,9.6c0,5.7,2.4,10.5,7.1,14.4
	C602.7,1513.4,597.6,1514.9,592.6,1515.6z M610.2,1510.6c-4.6-4-6.9-8.5-6.9-13.5c0-5.2,2-9.9,5.7-14.3c1.8-2,3.9-3.5,6.5-4.5
	c2.6-1.2,5.7-1.8,9.2-1.9c0.4,0,0.9-0.1,1.4-0.1h0.5c1,2.3,1.5,4.8,1.5,7.4c0,3.7-1.1,6.3-3.3,7.5c0,0.1-0.1,0.1-0.1,0.1
	c-2.2,1.3-4.4,1.8-6.7,1.5c1.7,1,3.2,1.4,4.7,1.1c0.7-0.1,1.4-0.3,2-0.5c0.8-0.4,1.5-0.8,2.2-1.4c1.2-1,2.1-2.3,2.7-3.6
	c0.6-1.5,0.9-3,0.9-4.4c0-2.5-0.5-5-1.6-7.4c3.4,0.3,6.6,1.6,9.5,3.6c3,2.2,5.3,4.9,7.2,8.3c-5.9,4.4-11.8,8.4-17.6,12.3
	c-1.1,0.7-2.2,1.4-3.2,2.1c-3,1.9-6.2,3.6-9.2,5.1C613.8,1508.9,612,1509.8,610.2,1510.6z M644.8,1519.1c-0.8,0.2-1.7,0.3-2.6,0.4
	c-0.9,0.1-1.8,0.1-2.7,0.1c-5.3,0-10.2-0.6-14.7-1.8c-0.1,0-0.2-0.1-0.3-0.1c-3.3-0.9-6.3-2.1-8.9-3.4c-1.1-0.5-2.1-1.1-3-1.8
	c1-0.4,2.1-0.9,3-1.3c3-1.5,6.2-3,9.2-4.7c1.8-1,3.5-2,5.3-3c5.8-3.5,11.5-7.3,17-11.1c0.6,1.2,1,2.5,1.3,3.9
	c0.4,1.7,0.5,3.5,0.5,5.6c0,2.2-0.1,4.3-0.5,6.4C647.7,1512.1,646.5,1515.7,644.8,1519.1z M683.9,1478c1.3,2.6,1.9,5.1,1.9,7.9
	c0,4-1.1,7.9-3.4,11.5c-2.3,3.6-5.2,6.9-8.8,9.7c-3.6,2.9-7.7,5.3-12.2,7.3c-4,1.8-7.9,3.1-11.8,4c-0.4,0.1-0.8,0.1-1.2,0.2
	c-0.1,0-0.3,0.1-0.5,0.1c0.2-0.3,0.4-0.7,0.5-1c0.5-0.8,0.8-1.7,1.2-2.6c1.8-4.4,2.7-9.2,2.7-14.4c0-3.8-0.7-7.3-2.1-10.3
	c4.9-3.3,9.7-6.8,14.5-10.1c4.8-3.3,9.5-6.5,14-9.3C680.8,1473.1,682.6,1475.4,683.9,1478z"/>
<g>
	<path class="st4" d="M545.6,575.6c-0.9,2.1-1.7,4.5-2.6,6.6c25.4,0.4,46.2-1.1,67.6-17.7c-16.3,19.2-38.3,20.7-68.9,20.5
		c-15.6,37.2-34.4,61.4-47.5,69.7c-14.1,9-23.1,3.2-23.1,3.2s23.3-4.5,44.5-43.6c4.7-8.8,9.6-19,14.3-29.5c-9.6,0-19.9-0.2-31,0
		c-53.5,1.1-61.8-1.1,3.6-3c10.3-0.2,19.9,0,28.9,0.2c19-42.8,36.4-92.8,42.8-104.6c6.8-12.4,9-6.4,9-6.4
		C590.5,475.6,566.1,522,545.6,575.6z M460.9,539.3c27.6,22.2,67.8-18.2,70.1-42.1c0.4-0.2,1.5,28.7-19.9,43
		c-45.1,30.8-80.6-12.4-56.2-49c9.2-13.9,46.4-42.8,117-33.8c66.5,8.6,84.5,4.7,100.3,0.2c29.1-8.6,39.6-24.6,39.6-24.6
		c-23.1,41.3-96,38.7-133.4,32.1C459.4,443.9,432.7,516.4,460.9,539.3z"/>
	<path class="st4" d="M612.3,552.8c9.6-0.2,17.3,5.6,17.3,20.7c0,4.5-1.1,10.7-2.8,16.7c3-1.3,6.2-3.2,9.4-5.8
		c12.8-10.3,15.8-20.5,22.5-19.9c-7.1,5.3-13,17.7-25,25c-2.4,1.5-4.9,2.6-7.7,3.4c-4.7,14.3-13.9,28.7-24.4,28.2
		c-15-0.4-16-20.1-9-34c0.9-1.7,1.7-3.4,2.6-4.9C586.4,565.8,600.6,553,612.3,552.8z M602.3,590.4c-2.1,3.8-3.8,7.7-4.9,11.5
		c-2.8,10.5,2.6,21.8,11.8,13.7c4.5-4.1,9.6-12.4,13.3-21.8C615.3,595.1,608,594.5,602.3,590.4z M609.1,564.5c5.8-0.9,6.4,4.7,6,7.9
		c0,0.2-6.2,6.8-11.3,15.4c4.9,3.8,12,5.3,19.7,3.4c4.5-12.8,5.8-26.7-1.7-32.9c-10-8.6-22,1.3-24.2,8.6c-1.1,4.1-1.1,8.1,0,11.5
		C602.9,569.7,607.4,564.7,609.1,564.5z"/>
	<path class="st4" d="M605.7,481.8c-5.3,3.6-9.8,10.7-4.1,16.5c10.3,10.3,39.8,9.2,74.8,5.6c9-16.7,13.9-21.2,13.9-21.2
		c2.1-3.4,9.2,4.3,7.1,7.9c-2.4,3.8-4.7,7.7-7.1,11.8c48.8-5.8,103.9-14.8,131.3-6.4c10.3,3.2,14.1,6.8,13,12
		c-0.4,2.8-3.4,4.5-4.7,1.7c-1.1-2.4,4.5-7.9-9.6-12c-28.2-7.9-83,1.3-131.5,7.1c-14.1,24.2-28.9,54.7-41.1,97.9
		c-8.8,31-0.9,45.1,13.3,27.4c15.8-19.9,31-62.7,47.9-65.4c-13.5,12-18.2,21-30.8,44.5c-17.7,33.4-27.8,35.3-34.9,29.5
		c-9-7.3-13.7-25.9,9.6-83.6c9-22,16.5-37.8,22.2-48.8c-35.3,3.6-65,4.3-75.7-7.1c-5.3-5.8-3.2-15.8,3.8-20.5
		C605.5,477.1,611.2,478.1,605.7,481.8z"/>
	<path class="st4" d="M709.2,552.8c9.6-0.2,17.3,5.6,17.3,20.7c0,4.5-1.1,10.7-2.8,16.7c3-1.3,6.2-3.2,9.4-5.8
		c12.8-10.3,15.8-20.5,22.5-19.9c-7.1,5.3-13,17.7-25,25c-2.4,1.5-4.9,2.6-7.7,3.4c-4.7,14.3-13.9,28.7-24.4,28.2
		c-15-0.4-16-20.1-9-34c0.9-1.7,1.7-3.4,2.6-4.9C683.3,565.8,697.4,553,709.2,552.8z M699.1,590.4c-2.1,3.8-3.8,7.7-4.9,11.5
		c-2.8,10.5,2.6,21.8,11.8,13.7c4.5-4.1,9.6-12.4,13.3-21.8C712.2,595.1,704.9,594.5,699.1,590.4z M706,564.5c5.8-0.9,6.4,4.7,6,7.9
		c0,0.2-6.2,6.8-11.3,15.4c4.9,3.8,12,5.3,19.7,3.4c4.5-12.8,5.8-26.7-1.7-32.9c-10-8.6-22,1.3-24.2,8.6c-1.1,4.1-1.1,8.1,0,11.5
		C699.8,569.7,704.3,564.7,706,564.5z"/>
	<path class="st4" d="M756.7,566.2c-0.9,3-0.9,7.5,1.9,12.2c3.8,6.6,7.9,12.2,9.6,17.3c21.4-10.5,26.5-16.7,37.4-31
		c-4.7,14.5-19.7,25-36.8,33.1c3.2,10,2.8,18.2-3.6,28.2c-10.9,17.3-34.2,22.9-41.7,13.7c-10.3-12.8,6-26.7,29.7-37.4
		c3.4-1.5,6.2-3,9-4.3c-0.6-4.1-2.4-8.1-5.1-12.6c-10.3-16-8.6-18-8.3-21.6c0.4-6.8,8.6-13.9,8.6-13.9c4.7-3.4,6,3.4,4.9,7.5
		C759.9,560.2,757.5,563.5,756.7,566.2z M759.4,601.5c-19.9,8.6-37.4,19.9-35.9,30.8c1.1,7.5,7.5,9.8,15.4,5.3
		c8.1-4.5,25.4-18.6,23.7-37.2C761.6,600.9,760.5,601.1,759.4,601.5z"/>
</g>
<g>
	<path class="st2" d="M532.4,1325.3l-9.2,10.8h-1.1l3.2-10.8H532.4z"/>
</g>
<path class="st2" d="M734.6,1325.7l-11.5,39.4c-0.6,2.1-1,3.5-1,4.2c0,0.2,0.1,0.4,0.3,0.6s0.4,0.3,0.6,0.3c0.3,0,0.6-0.1,1-0.4
	c0.8-0.6,2-1.9,3.8-4l1.2,0.7c-1.6,2.2-3.2,4-4.9,5.4c-1.6,1.4-3.2,2.1-4.6,2.1c-0.8,0-1.4-0.3-1.9-0.8s-0.7-1.3-0.7-2.3
	c0-1.3,0.3-3,1-5.1l1.3-4.1c-3.2,5-6.1,8.5-8.8,10.4c-1.8,1.3-3.6,1.9-5.2,1.9c-1.7,0-3.2-0.7-4.5-2.2s-1.9-3.5-1.9-6.1
	c0-3.3,1.1-6.9,3.2-10.6s4.9-6.8,8.4-9.2c2.7-1.9,5.2-2.9,7.5-2.9c1.2,0,2.2,0.2,3.1,0.7s1.7,1.3,2.6,2.4l3.3-11.6
	c0.2-0.8,0.4-1.5,0.6-2c0.3-0.9,0.4-1.6,0.4-2.2c0-0.5-0.2-0.9-0.5-1.2c-0.5-0.4-1.1-0.6-1.8-0.6c-0.5,0-1.3,0.1-2.5,0.2v-1.2
	L734.6,1325.7z M722.2,1349.4c0-1.4-0.4-2.6-1.2-3.4c-0.8-0.9-1.9-1.3-3.1-1.3c-2.8,0-5.7,2.3-8.8,6.9c-3,4.6-4.5,9-4.5,13.3
	c0,1.7,0.4,3,1.1,3.8c0.7,0.9,1.6,1.3,2.6,1.3c2.3,0,5.2-2.5,8.7-7.5C720.4,1357.5,722.2,1353.2,722.2,1349.4z"/>
<path class="st2" d="M739.9,1360.6c-0.1,1.1-0.2,2-0.2,2.7c0,2,0.7,3.7,2.1,5.1c1.4,1.4,3.1,2.1,5.1,2.1c1.6,0,3.1-0.3,4.6-1
	c1.5-0.7,3.7-2.1,6.6-4.4l0.7,1c-5.3,5.2-10.3,7.8-15.1,7.8c-3.2,0-5.7-1-7.3-3.1c-1.6-2-2.5-4.3-2.5-6.8c0-3.3,1-6.7,3.1-10.2
	c2-3.5,4.6-6.2,7.7-8.1c3.1-1.9,6.3-2.9,9.6-2.9c2.3,0,4.1,0.5,5.2,1.5c1.1,1,1.7,2.1,1.7,3.4c0,1.9-0.7,3.6-2.2,5.3
	c-1.9,2.2-4.8,4-8.5,5.3C747.9,1359.4,744.4,1360.1,739.9,1360.6z M740.1,1359c3.3-0.4,6-1,8-1.9c2.7-1.2,4.8-2.7,6.2-4.4
	c1.4-1.7,2.1-3.3,2.1-4.9c0-0.9-0.3-1.7-0.9-2.2c-0.6-0.6-1.4-0.9-2.5-0.9c-2.3,0-4.7,1.2-7.2,3.6
	C743.2,1350.7,741.3,1354.2,740.1,1359z"/>
</svg>
