<?xml version="1.0" encoding="utf-8"?>
<!-- Generator: Adobe Illustrator 25.4.1, SVG Export Plug-In . SVG Version: 6.00 Build 0)  -->
<!DOCTYPE svg PUBLIC "-//W3C//DTD SVG 1.1//EN" "http://www.w3.org/Graphics/SVG/1.1/DTD/svg11.dtd" [
	<!ENTITY ns_extend "http://ns.adobe.com/Extensibility/1.0/">
	<!ENTITY ns_ai "http://ns.adobe.com/AdobeIllustrator/10.0/">
	<!ENTITY ns_graphs "http://ns.adobe.com/Graphs/1.0/">
	<!ENTITY ns_vars "http://ns.adobe.com/Variables/1.0/">
	<!ENTITY ns_imrep "http://ns.adobe.com/ImageReplacement/1.0/">
	<!ENTITY ns_sfw "http://ns.adobe.com/SaveForWeb/1.0/">
	<!ENTITY ns_custom "http://ns.adobe.com/GenericCustomNamespace/1.0/">
	<!ENTITY ns_adobe_xpath "http://ns.adobe.com/XPath/1.0/">
]>
<svg version="1.1" id="Capa_1" xmlns:x="&ns_extend;" xmlns:i="&ns_ai;" xmlns:graph="&ns_graphs;"
	 xmlns="http://www.w3.org/2000/svg" xmlns:xlink="http://www.w3.org/1999/xlink" x="0px" y="0px" viewBox="0 0 1242 1062.1"
	 style="enable-background:new 0 0 1242 1062.1;" xml:space="preserve">
<style type="text/css">
	.st0{display:none;}
	.st1{display:inline;}
	.st2{fill:#FFFFFF;}
	.st3{display:inline;enable-background:new    ;}
	.st4{enable-background:new    ;}
</style>
<metadata>
	<sfw  xmlns="&ns_sfw;">
		<slices></slices>
		<sliceSourceBounds  bottomLeftOrigin="true" height="731.5" width="811.7" x="218" y="251.5"></sliceSourceBounds>
	</sfw>
</metadata>
<g id="_x31_5_años" class="st0">
	<g class="st1">
		<path class="st2" d="M516.5,391.8c69.7,0,139.3,0,209,0c0,95,0,190,0,285.1c-69.7,0-139.3,0-209,0
			C516.5,581.8,516.5,486.8,516.5,391.8z M611.7,507.2c0-0.8,0-1.5,0-2.2c0-13.4,0-26.8,0-40.2c0-4.2-1.2-7.9-3.8-11.2
			c-4.4-5.3-10-7.8-16.8-6.4c-9,1.8-14.3,8.7-14.3,17.9c0,21.2,0,42.4,0,63.6c0,1.2-0.3,1.9-1.3,2.6c-3.7,2.3-7.3,4.8-10.9,7.2
			c-11,7.6-16.3,18-15,31.3c0.7,7.2,3.2,13.9,5.8,20.6c6.7,17.3,16.5,32.6,29.6,45.9c0.5,0.6,0.9,1.5,0.9,2.3c0.1,5.7,0,11.3,0,17
			c0,3.4,1.4,4.8,4.8,4.8c8,0,16,0,24,0c18.8,0,37.6,0,56.4,0c3.5,0,4.8-1.3,4.8-4.7c0-5.8,0-11.6,0-17.3c0-0.9,0.3-2,0.8-2.8
			c11-17.5,16.9-36.5,17.4-57.2c0.3-11.6,0.1-23.2,0.1-34.8c0-2.3,0.1-4.6-0.3-6.9c-1.7-9.4-10.4-15.5-19.8-13.8
			c-2.7,0.5-5.3,1.7-8.1,2.6c-1.8-5.2-5.4-9.3-11.1-11.2c-5.7-1.9-11.2-0.9-16.1,2.4C632.2,504.4,625.1,501.8,611.7,507.2z
			 M549.3,411.3c-1.7,0.2-2.9,1-3.5,2.4c-0.7,1.5-0.5,3,0.7,4.2c6.8,6.9,13.7,13.7,20.6,20.5c1.7,1.7,3.9,1.6,5.4,0
			c1.5-1.5,1.4-3.8-0.3-5.4c-6.7-6.7-13.5-13.5-20.2-20.1C551.2,412.1,550.2,411.8,549.3,411.3z M640.1,411.3
			c-0.9,0.4-1.9,0.7-2.6,1.4c-6.9,6.8-13.8,13.6-20.6,20.5c-1,1.1-1.5,2.3-0.9,3.8c1.1,2.8,4.1,3.3,6.4,1.1c4.3-4.3,8.7-8.6,13-12.9
			c2.5-2.4,4.9-4.9,7.4-7.4c1.2-1.2,1.4-2.7,0.8-4.2C643,412.3,641.8,411.6,640.1,411.3z M598.3,417c0-2.9,0-5.8,0-8.7
			c0-2.4-1.5-4-3.6-4c-2.1-0.1-3.8,1.7-3.8,4c0,5.8,0,11.7,0,17.5c0,2.4,1.7,4,3.8,4s3.6-1.6,3.6-4C598.3,422.9,598.3,420,598.3,417
			z M548.8,464.2c2.9,0,5.8,0,8.7,0c2.4,0,4-1.4,4.1-3.5c0.1-2.2-1.5-3.9-3.9-3.9c-5.9-0.1-11.8-0.1-17.6,0c-2.4,0-4.1,1.8-4,3.9
			s1.7,3.5,4.1,3.5C543,464.3,545.9,464.2,548.8,464.2z M640.3,464.2c3,0,6.1,0,9.1,0c2.2,0,3.7-1.4,3.8-3.4
			c0.1-2.1-1.3-3.9-3.5-3.9c-6.1-0.1-12.2-0.1-18.3,0c-2.2,0-3.8,1.9-3.7,3.8c0.1,2.1,1.6,3.5,3.9,3.5
			C634.5,464.3,637.4,464.2,640.3,464.2z"/>
		<path d="M611.7,507.2c13.4-5.4,20.4-2.9,27,9.7c5-3.4,10.4-4.4,16.1-2.4c5.7,1.9,9.3,6,11.1,11.2c2.8-0.9,5.4-2.1,8.1-2.6
			c9.3-1.7,18,4.4,19.8,13.8c0.4,2.2,0.3,4.6,0.3,6.9c0,11.6,0.2,23.2-0.1,34.8c-0.5,20.6-6.4,39.7-17.4,57.2
			c-0.5,0.8-0.8,1.9-0.8,2.8c-0.1,5.8,0,11.6,0,17.3c0,3.4-1.4,4.7-4.8,4.7c-18.8,0-37.6,0-56.4,0c-8,0-16,0-24,0
			c-3.4,0-4.8-1.4-4.8-4.8c0-5.7,0-11.3,0-17c0-0.8-0.4-1.8-0.9-2.3c-13-13.2-22.9-28.5-29.6-45.9c-2.6-6.7-5.1-13.5-5.8-20.6
			c-1.3-13.3,3.9-23.8,15-31.3c3.6-2.5,7.2-4.9,10.9-7.2c1-0.7,1.3-1.4,1.3-2.6c0-21.2,0-42.4,0-63.6c0-9.2,5.3-16.1,14.3-17.9
			c6.8-1.4,12.4,1.1,16.8,6.4c2.7,3.2,3.8,7,3.8,11.2c0,13.4,0,26.8,0,40.2C611.7,505.7,611.7,506.4,611.7,507.2z M576.7,539.4
			c-3.4,2.3-6.7,4.3-9.7,6.5c-6.4,4.8-9.8,11.2-10.3,19.2c-0.3,5,1.2,9.6,2.7,14.3c6.2,20.5,17,38.2,32.3,53.2
			c1.2,1.2,1.7,2.4,1.7,4c0,4.8,0.1,9.7-0.1,14.5c0,1.7,0.4,2.2,2.1,2.2c21.7-0.1,43.4,0,65.1,0c2.6,0,5.1,0,7.8,0
			c0-5.6-0.1-10.9,0.1-16.2c0-1.4,0.5-2.9,1.2-4.1c10.3-15.9,16.2-33.3,16.8-52.2c0.5-13.6,0.3-27.1,0.2-40.7c0-6-4.9-9.6-8.8-9.8
			c-6.9-0.4-11.2,3.9-11.2,10.8c0,4.2,0,8.4,0,12.6c0,2.5-1.7,4-4.1,3.8c-2-0.2-3.3-1.7-3.3-4.1c0-7.3,0-14.6,0-21.9
			c0-1.1-0.1-2.1-0.4-3.1c-1.2-4.7-5.7-7.7-10.7-7.3c-4.6,0.4-8.4,4.3-8.8,9c-0.1,1.6-0.1,3.2-0.1,4.9c0,6.1,0,12.1,0,18.2
			c0,2.9-1.6,4.5-4.1,4.4c-2.1-0.2-3.4-1.7-3.4-4.4c0-10.2,0-20.3,0-30.4c0-2.2-0.4-4.3-1.6-6.2c-2.6-3.9-7-5.3-11.7-3.9
			c-3.8,1.2-6.6,5.1-6.7,9.5c0,9.7,0,19.3,0,28.9c0,1.1,0.1,2.2-0.1,3.4c-0.2,1.9-1.8,3.2-3.7,3.2c-2,0-3.5-1.4-3.7-3.4
			c0-0.5,0-1,0-1.5c0-20.8,0-41.5,0-62.2c0-8.5-0.1-17.1,0-25.6c0.1-6.5-5.3-10.9-10.8-10.3c-5.4,0.5-9.3,4.8-9.3,10.5
			c0,23.8,0,47.7,0,71.5c0,11.7,0,23.3,0,35c0,1-0.2,2-0.7,2.8c-0.8,1.3-2.6,1.8-4.2,1.3c-1.5-0.5-2.5-1.9-2.5-3.8
			c0-6.7,0-13.5,0-20.2C576.7,547.6,576.7,543.7,576.7,539.4z"/>
		<path d="M549.3,411.3c0.9,0.5,1.9,0.8,2.6,1.5c6.8,6.7,13.5,13.4,20.2,20.1c1.6,1.6,1.7,3.9,0.3,5.4c-1.5,1.6-3.7,1.6-5.4,0
			c-6.9-6.8-13.7-13.7-20.6-20.5c-1.2-1.2-1.4-2.6-0.7-4.2C546.4,412.2,547.5,411.5,549.3,411.3z"/>
		<path d="M640.1,411.3c1.7,0.2,2.9,0.9,3.5,2.4s0.5,3-0.8,4.2c-2.5,2.5-4.9,4.9-7.4,7.4c-4.3,4.3-8.6,8.6-13,12.9
			c-2.2,2.2-5.3,1.7-6.4-1.1c-0.6-1.5-0.2-2.8,0.9-3.8c6.8-6.9,13.7-13.7,20.6-20.5C638.2,412,639.2,411.8,640.1,411.3z"/>
		<path d="M598.3,417c0,2.9,0,5.8,0,8.7c0,2.4-1.5,4-3.6,4c-2.2,0-3.8-1.6-3.8-4c0-5.8,0-11.7,0-17.5c0-2.4,1.7-4.1,3.8-4
			s3.6,1.6,3.6,4C598.3,411.2,598.3,414.1,598.3,417z"/>
		<path d="M548.8,464.2c-2.9,0-5.8,0-8.7,0c-2.4,0-4-1.4-4.1-3.5s1.6-3.8,4-3.9c5.9-0.1,11.8-0.1,17.6,0c2.4,0,4,1.7,3.9,3.9
			c-0.1,2.1-1.6,3.5-4.1,3.5C554.7,464.3,551.8,464.2,548.8,464.2z"/>
		<path d="M640.3,464.2c-2.9,0-5.8,0-8.8,0c-2.3,0-3.8-1.4-3.9-3.5c-0.1-2,1.5-3.8,3.7-3.8c6.1-0.1,12.2-0.1,18.3,0
			c2.2,0,3.6,1.8,3.5,3.9s-1.5,3.4-3.8,3.4C646.4,464.3,643.3,464.2,640.3,464.2z"/>
		<path class="st2" d="M576.7,539.4c0,4.3,0,8.2,0,12.1c0,6.7,0,13.5,0,20.2c0,1.9,1,3.3,2.5,3.8c1.6,0.5,3.4,0.1,4.2-1.3
			c0.5-0.8,0.7-1.9,0.7-2.8c0-11.7,0-23.3,0-35c0-23.8,0-47.7,0-71.5c0-5.7,3.9-10,9.3-10.5c5.5-0.5,10.9,3.8,10.8,10.3
			c-0.1,8.5,0,17.1,0,25.6c0,20.8,0,41.5,0,62.2c0,0.5,0,1,0,1.5c0.2,2,1.7,3.4,3.7,3.4c1.9,0,3.5-1.3,3.7-3.2
			c0.1-1.1,0.1-2.2,0.1-3.4c0-9.7,0-19.3,0-28.9c0-4.4,2.8-8.3,6.7-9.5c4.7-1.4,9.1,0.1,11.7,3.9c1.3,1.9,1.7,4,1.6,6.2
			c0,10.2,0,20.3,0,30.4c0,2.7,1.3,4.2,3.4,4.4c2.5,0.2,4.1-1.5,4.1-4.4c0-6.1,0-12.1,0-18.2c0-1.6,0-3.3,0.1-4.9
			c0.3-4.7,4.1-8.5,8.8-9c5-0.5,9.5,2.6,10.7,7.3c0.3,1,0.4,2.1,0.4,3.1c0,7.3,0,14.6,0,21.9c0,2.4,1.3,3.9,3.3,4.1
			c2.4,0.2,4.1-1.4,4.1-3.8c0-4.2,0-8.4,0-12.6c0-6.9,4.3-11.2,11.2-10.8c4,0.2,8.8,3.9,8.8,9.8c0.1,13.6,0.2,27.2-0.2,40.7
			c-0.6,18.9-6.6,36.3-16.8,52.2c-0.7,1.2-1.2,2.7-1.2,4.1c-0.1,5.3-0.1,10.6-0.1,16.2c-2.7,0-5.3,0-7.8,0c-21.7,0-43.4,0-65.1,0
			c-1.7,0-2.2-0.5-2.1-2.2c0.1-4.8,0-9.7,0.1-14.5c0-1.6-0.5-2.9-1.7-4c-15.2-15-26-32.7-32.3-53.2c-1.4-4.7-3-9.3-2.7-14.3
			c0.5-7.9,3.9-14.4,10.3-19.2C570.1,543.7,573.3,541.7,576.7,539.4z"/>
	</g>
	<g class="st3">
		<path d="M286,800.1v-35.8h4.7V779h18.6v-14.7h4.7v35.8h-4.7v-16.9h-18.6v16.9H286z"/>
		<path d="M338.3,797c-1.6,1.4-3.2,2.4-4.7,2.9c-1.5,0.6-3.1,0.8-4.9,0.8c-2.9,0-5-0.7-6.6-2.1s-2.3-3.2-2.3-5.3
			c0-1.3,0.3-2.4,0.9-3.5s1.3-1.9,2.3-2.5c0.9-0.6,2-1.1,3.2-1.4c0.9-0.2,2.2-0.4,3.9-0.7c3.5-0.4,6.2-0.9,7.8-1.5c0-0.6,0-1,0-1.2
			c0-1.8-0.4-3.1-1.2-3.8c-1.1-1-2.8-1.5-5-1.5c-2.1,0-3.6,0.4-4.6,1.1s-1.7,2-2.2,3.8l-4.3-0.6c0.4-1.8,1-3.3,1.9-4.5
			c0.9-1.1,2.2-2,3.9-2.6s3.6-0.9,5.9-0.9c2.2,0,4,0.3,5.4,0.8s2.4,1.2,3,2s1.1,1.8,1.4,3c0.1,0.8,0.2,2.1,0.2,4.1v5.9
			c0,4.1,0.1,6.7,0.3,7.8s0.6,2.1,1.1,3.1h-4.6C338.7,799.2,338.4,798.2,338.3,797z M337.9,787.1c-1.6,0.7-4,1.2-7.2,1.7
			c-1.8,0.3-3.1,0.6-3.8,0.9s-1.3,0.8-1.7,1.4c-0.4,0.6-0.6,1.3-0.6,2.1c0,1.2,0.4,2.2,1.3,2.9c0.9,0.8,2.2,1.2,3.9,1.2
			c1.7,0,3.2-0.4,4.5-1.1s2.3-1.8,2.9-3c0.5-1,0.7-2.5,0.7-4.4L337.9,787.1L337.9,787.1z"/>
		<path d="M346.9,800.1v-3.6l16.5-18.9c-1.9,0.1-3.5,0.2-5,0.2h-10.6v-3.6H369v2.9l-14,16.5l-2.7,3c2-0.2,3.8-0.2,5.5-0.2h12v3.8
			L346.9,800.1L346.9,800.1z"/>
		<path d="M405,790.6l4.3,0.6c-0.5,3-1.7,5.3-3.6,7c-2,1.7-4.3,2.5-7.2,2.5c-3.5,0-6.4-1.2-8.6-3.5s-3.2-5.6-3.2-10
			c0-2.8,0.5-5.2,1.4-7.3s2.3-3.7,4.2-4.7c1.9-1.1,4-1.6,6.2-1.6c2.8,0,5.1,0.7,6.9,2.1s2.9,3.4,3.4,6.1l-4.3,0.7
			c-0.4-1.7-1.1-3.1-2.2-3.9s-2.3-1.3-3.8-1.3c-2.2,0-4,0.8-5.4,2.4s-2.1,4.1-2.1,7.5c0,3.5,0.7,6,2,7.6s3.1,2.4,5.2,2.4
			c1.7,0,3.2-0.5,4.3-1.6C403.9,794.5,404.7,792.9,405,790.6z"/>
		<path d="M413,800.1v-35.8h4.4v35.8H413z"/>
		<path d="M424.2,769.4v-5.1h4.4v5.1H424.2z M424.2,800.1v-25.9h4.4v25.9H424.2z"/>
		<path d="M452.2,790.6l4.3,0.6c-0.5,3-1.7,5.3-3.6,7c-2,1.7-4.3,2.5-7.2,2.5c-3.5,0-6.4-1.2-8.6-3.5s-3.2-5.6-3.2-10
			c0-2.8,0.5-5.2,1.4-7.3s2.3-3.7,4.2-4.7c1.9-1.1,4-1.6,6.2-1.6c2.8,0,5.1,0.7,6.9,2.1s2.9,3.4,3.4,6.1l-4.3,0.7
			c-0.4-1.7-1.1-3.1-2.2-3.9s-2.3-1.3-3.8-1.3c-2.2,0-4,0.8-5.4,2.4s-2.1,4.1-2.1,7.5c0,3.5,0.7,6,2,7.6s3.1,2.4,5.2,2.4
			c1.7,0,3.2-0.5,4.3-1.6C451.2,794.5,451.9,792.9,452.2,790.6z"/>
		<path d="M460.3,800.1v-35.8h4.4v20.4l10.4-10.6h5.7l-9.9,9.6l10.9,16.3h-5.4l-8.6-13.3l-3.1,3V800L460.3,800.1L460.3,800.1z"/>
		<path d="M499,810.1l-0.5-4.1c1,0.3,1.8,0.4,2.5,0.4c1,0,1.8-0.2,2.3-0.5c0.6-0.3,1.1-0.8,1.4-1.4c0.3-0.4,0.7-1.5,1.3-3.3
			c0.1-0.2,0.2-0.6,0.4-1.1l-9.8-26h4.7l5.4,15c0.7,1.9,1.3,3.9,1.9,6c0.5-2,1.1-4,1.8-5.9l5.5-15.1h4.4l-9.9,26.4
			c-1.1,2.8-1.9,4.8-2.5,5.9c-0.8,1.4-1.7,2.5-2.7,3.2s-2.2,1-3.6,1C501,810.7,500,810.5,499,810.1z"/>
		<path d="M554.9,800.1v-3.3c-1.6,2.6-4.1,3.9-7.2,3.9c-2.1,0-4-0.6-5.7-1.7s-3.1-2.7-4-4.8s-1.4-4.4-1.4-7s0.4-4.9,1.3-7
			c0.9-2.1,2.2-3.7,3.9-4.8s3.7-1.7,5.8-1.7c1.6,0,3,0.3,4.2,1s2.2,1.5,3,2.6v-12.8h4.4v35.8L554.9,800.1L554.9,800.1z M541,787.2
			c0,3.3,0.7,5.8,2.1,7.4c1.4,1.6,3,2.5,5,2.5c1.9,0,3.5-0.8,4.9-2.4c1.3-1.6,2-4,2-7.2c0-3.6-0.7-6.2-2-7.8s-3-2.5-5-2.5
			s-3.6,0.8-4.9,2.4C541.7,781.3,541,783.8,541,787.2z"/>
		<path d="M583.6,791.8l4.5,0.6c-0.7,2.7-2,4.7-4,6.2c-1.9,1.5-4.4,2.2-7.4,2.2c-3.8,0-6.8-1.2-9-3.5s-3.3-5.6-3.3-9.8
			c0-4.4,1.1-7.8,3.4-10.2s5.2-3.6,8.7-3.6s6.3,1.2,8.5,3.5s3.3,5.7,3.3,10c0,0.3,0,0.7,0,1.2H569c0.2,2.8,1,5,2.4,6.5
			s3.2,2.3,5.4,2.3c1.6,0,3-0.4,4.1-1.3C582,795,583,793.7,583.6,791.8z M569.2,784.7h14.5c-0.2-2.2-0.8-3.8-1.7-4.9
			c-1.4-1.7-3.2-2.5-5.4-2.5c-2,0-3.7,0.7-5.1,2C570.1,780.6,569.3,782.4,569.2,784.7z"/>
		<path d="M591.9,792.4l4.3-0.7c0.2,1.7,0.9,3.1,2,4s2.7,1.4,4.7,1.4s3.5-0.4,4.5-1.2s1.5-1.8,1.5-2.9c0-1-0.4-1.8-1.3-2.3
			c-0.6-0.4-2.1-0.9-4.5-1.5c-3.2-0.8-5.5-1.5-6.7-2.1s-2.2-1.4-2.8-2.5s-1-2.2-1-3.5c0-1.2,0.3-2.2,0.8-3.2s1.2-1.8,2.2-2.4
			c0.7-0.5,1.6-0.9,2.8-1.3s2.5-0.5,3.8-0.5c2,0,3.8,0.3,5.4,0.9s2.7,1.4,3.4,2.4s1.2,2.3,1.5,4l-4.3,0.6c-0.2-1.3-0.8-2.4-1.7-3.1
			c-0.9-0.8-2.3-1.1-4-1.1c-2,0-3.5,0.3-4.3,1s-1.3,1.4-1.3,2.3c0,0.6,0.2,1.1,0.5,1.5c0.4,0.5,0.9,0.9,1.7,1.2
			c0.4,0.2,1.7,0.5,3.9,1.1c3.1,0.8,5.3,1.5,6.5,2s2.2,1.3,2.9,2.3s1,2.3,1,3.8s-0.4,2.8-1.3,4.1c-0.8,1.3-2.1,2.3-3.7,3
			s-3.4,1.1-5.5,1.1c-3.4,0-5.9-0.7-7.7-2.1C593.5,797.2,592.4,795.2,591.9,792.4z"/>
		<path d="M618.6,800.1v-35.8h4.4v35.8H618.6z"/>
		<path d="M629.8,769.4v-5.1h4.4v5.1H629.8z M629.8,800.1v-25.9h4.4v25.9H629.8z"/>
		<path d="M638.6,800.1v-3.6l16.5-18.9c-1.9,0.1-3.5,0.2-5,0.2h-10.6v-3.6h21.2v2.9l-14,16.5l-2.7,3c2-0.2,3.8-0.2,5.5-0.2h12v3.8
			L638.6,800.1L638.6,800.1z"/>
		<path d="M682.8,797c-1.6,1.4-3.2,2.4-4.7,2.9s-3.1,0.8-4.8,0.8c-2.8,0-5-0.7-6.6-2.1s-2.3-3.2-2.3-5.3c0-1.3,0.3-2.4,0.9-3.5
			c0.6-1.1,1.3-1.9,2.3-2.5c0.9-0.6,2-1.1,3.2-1.4c0.9-0.2,2.2-0.4,3.9-0.7c3.5-0.4,6.2-0.9,7.8-1.5c0-0.6,0-1,0-1.2
			c0-1.8-0.4-3.1-1.2-3.8c-1.1-1-2.8-1.5-5-1.5c-2.1,0-3.6,0.4-4.6,1.1s-1.7,2-2.2,3.8l-4.3-0.6c0.4-1.8,1-3.3,1.9-4.5
			c0.9-1.1,2.2-2,3.9-2.6s3.7-0.9,5.9-0.9s4,0.3,5.4,0.8s2.4,1.2,3,2c0.7,0.8,1.1,1.8,1.4,3c0.2,0.8,0.2,2.1,0.2,4.1v5.9
			c0,4.1,0.1,6.7,0.3,7.8s0.6,2.1,1.1,3.1h-4.6C683.2,799.2,682.9,798.2,682.8,797z M682.5,787.1c-1.6,0.7-4,1.2-7.2,1.7
			c-1.8,0.3-3.1,0.6-3.8,0.9s-1.3,0.8-1.7,1.4s-0.6,1.3-0.6,2.1c0,1.2,0.4,2.2,1.3,2.9s2.2,1.2,3.9,1.2s3.2-0.4,4.5-1.1
			s2.3-1.8,2.9-3c0.5-1,0.7-2.5,0.7-4.4L682.5,787.1L682.5,787.1z"/>
		<path d="M707.6,800.1v-35.8h4.4v12.8c2-2.4,4.6-3.6,7.8-3.6c1.9,0,3.6,0.4,5,1.1c1.4,0.8,2.4,1.8,3,3.1s0.9,3.3,0.9,5.8v16.4h-4.4
			v-16.4c0-2.2-0.5-3.8-1.4-4.8s-2.3-1.5-4-1.5c-1.3,0-2.5,0.3-3.7,1s-2,1.6-2.5,2.8s-0.7,2.8-0.7,4.8V800L707.6,800.1L707.6,800.1z
			"/>
		<path d="M752.3,797c-1.6,1.4-3.2,2.4-4.7,2.9c-1.5,0.6-3.1,0.8-4.8,0.8c-2.8,0-5-0.7-6.6-2.1s-2.3-3.2-2.3-5.3
			c0-1.3,0.3-2.4,0.9-3.5c0.6-1.1,1.3-1.9,2.3-2.5s2-1.1,3.2-1.4c0.9-0.2,2.2-0.4,3.9-0.7c3.5-0.4,6.2-0.9,7.8-1.5c0-0.6,0-1,0-1.2
			c0-1.8-0.4-3.1-1.2-3.8c-1.1-1-2.8-1.5-5-1.5c-2.1,0-3.6,0.4-4.6,1.1s-1.7,2-2.2,3.8l-4.3-0.6c0.4-1.8,1-3.3,1.9-4.5
			c0.9-1.1,2.2-2,3.9-2.6s3.7-0.9,5.9-0.9s4,0.3,5.4,0.8s2.4,1.2,3,2c0.7,0.8,1.1,1.8,1.4,3c0.2,0.8,0.2,2.1,0.2,4.1v5.9
			c0,4.1,0.1,6.7,0.3,7.8s0.6,2.1,1.1,3.1h-4.6C752.7,799.2,752.5,798.2,752.3,797z M752,787.1c-1.6,0.7-4,1.2-7.2,1.7
			c-1.8,0.3-3.1,0.6-3.8,0.9s-1.3,0.8-1.7,1.4s-0.6,1.3-0.6,2.1c0,1.2,0.4,2.2,1.3,2.9s2.2,1.2,3.9,1.2s3.2-0.4,4.5-1.1
			s2.3-1.8,2.9-3c0.5-1,0.7-2.5,0.7-4.4L752,787.1L752,787.1z"/>
		<path d="M780.1,790.6l4.3,0.6c-0.5,3-1.7,5.3-3.6,7c-2,1.7-4.3,2.5-7.2,2.5c-3.5,0-6.4-1.2-8.6-3.5s-3.2-5.6-3.2-10
			c0-2.8,0.5-5.2,1.4-7.3s2.3-3.7,4.2-4.7c1.9-1.1,4-1.6,6.2-1.6c2.8,0,5.1,0.7,6.9,2.1c1.8,1.4,2.9,3.4,3.4,6.1l-4.3,0.7
			c-0.4-1.7-1.1-3.1-2.2-3.9c-1-0.9-2.3-1.3-3.8-1.3c-2.2,0-4,0.8-5.4,2.4s-2.1,4.1-2.1,7.5c0,3.5,0.7,6,2,7.6s3.1,2.4,5.2,2.4
			c1.7,0,3.2-0.5,4.3-1.6C779.1,794.5,779.8,792.9,780.1,790.6z"/>
		<path d="M788.2,769.4v-5.1h4.4v5.1H788.2z M788.2,800.1v-25.9h4.4v25.9H788.2z"/>
		<path d="M816.2,797c-1.6,1.4-3.2,2.4-4.7,2.9c-1.5,0.6-3.1,0.8-4.8,0.8c-2.8,0-5-0.7-6.6-2.1s-2.3-3.2-2.3-5.3
			c0-1.3,0.3-2.4,0.9-3.5c0.6-1.1,1.3-1.9,2.3-2.5s2-1.1,3.2-1.4c0.9-0.2,2.2-0.4,3.9-0.7c3.5-0.4,6.2-0.9,7.8-1.5c0-0.6,0-1,0-1.2
			c0-1.8-0.4-3.1-1.2-3.8c-1.1-1-2.8-1.5-5-1.5c-2.1,0-3.6,0.4-4.6,1.1s-1.7,2-2.2,3.8l-4.3-0.6c0.4-1.8,1-3.3,1.9-4.5
			c0.9-1.1,2.2-2,3.9-2.6s3.7-0.9,5.9-0.9s4,0.3,5.4,0.8s2.4,1.2,3,2c0.7,0.8,1.1,1.8,1.4,3c0.2,0.8,0.2,2.1,0.2,4.1v5.9
			c0,4.1,0.1,6.7,0.3,7.8s0.6,2.1,1.1,3.1h-4.6C816.7,799.2,816.4,798.2,816.2,797z M815.9,787.1c-1.6,0.7-4,1.2-7.2,1.7
			c-1.8,0.3-3.1,0.6-3.8,0.9s-1.3,0.8-1.7,1.4s-0.6,1.3-0.6,2.1c0,1.2,0.4,2.2,1.3,2.9s2.2,1.2,3.9,1.2s3.2-0.4,4.5-1.1
			s2.3-1.8,2.9-3c0.5-1,0.7-2.5,0.7-4.4L815.9,787.1L815.9,787.1z"/>
		<path d="M857.9,797c-1.6,1.4-3.2,2.4-4.7,2.9c-1.5,0.6-3.1,0.8-4.8,0.8c-2.8,0-5-0.7-6.6-2.1s-2.3-3.2-2.3-5.3
			c0-1.3,0.3-2.4,0.9-3.5c0.6-1.1,1.3-1.9,2.3-2.5s2-1.1,3.2-1.4c0.9-0.2,2.2-0.4,3.9-0.7c3.5-0.4,6.2-0.9,7.8-1.5c0-0.6,0-1,0-1.2
			c0-1.8-0.4-3.1-1.2-3.8c-1.1-1-2.8-1.5-5-1.5c-2.1,0-3.6,0.4-4.6,1.1s-1.7,2-2.2,3.8l-4.3-0.6c0.4-1.8,1-3.3,1.9-4.5
			c0.9-1.1,2.2-2,3.9-2.6s3.7-0.9,5.9-0.9s4,0.3,5.4,0.8s2.4,1.2,3,2c0.7,0.8,1.1,1.8,1.4,3c0.2,0.8,0.2,2.1,0.2,4.1v5.9
			c0,4.1,0.1,6.7,0.3,7.8s0.6,2.1,1.1,3.1h-4.6C858.4,799.2,858.1,798.2,857.9,797z M857.6,787.1c-1.6,0.7-4,1.2-7.2,1.7
			c-1.8,0.3-3.1,0.6-3.8,0.9s-1.3,0.8-1.7,1.4s-0.6,1.3-0.6,2.1c0,1.2,0.4,2.2,1.3,2.9s2.2,1.2,3.9,1.2s3.2-0.4,4.5-1.1
			s2.3-1.8,2.9-3c0.5-1,0.7-2.5,0.7-4.4L857.6,787.1L857.6,787.1z"/>
		<path d="M872.9,800.1h-4.1v-35.8h4.4v12.8c1.9-2.3,4.2-3.5,7.1-3.5c1.6,0,3.1,0.3,4.5,1c1.4,0.6,2.6,1.6,3.5,2.7
			c0.9,1.2,1.6,2.6,2.2,4.2c0.5,1.6,0.8,3.4,0.8,5.3c0,4.4-1.1,7.9-3.3,10.3s-4.8,3.6-7.9,3.6c-3.1,0-5.5-1.3-7.2-3.8V800.1
			L872.9,800.1z M872.8,787c0,3.1,0.4,5.4,1.3,6.7c1.4,2.3,3.2,3.4,5.6,3.4c1.9,0,3.6-0.8,5-2.5s2.1-4.2,2.1-7.5
			c0-3.4-0.7-5.9-2-7.5s-3-2.4-4.9-2.4s-3.6,0.8-5,2.5C873.5,781.4,872.8,783.8,872.8,787z"/>
		<path d="M913.5,797c-1.6,1.4-3.2,2.4-4.7,2.9c-1.5,0.6-3.1,0.8-4.8,0.8c-2.8,0-5-0.7-6.6-2.1s-2.3-3.2-2.3-5.3
			c0-1.3,0.3-2.4,0.9-3.5c0.6-1.1,1.3-1.9,2.3-2.5s2-1.1,3.2-1.4c0.9-0.2,2.2-0.4,3.9-0.7c3.5-0.4,6.2-0.9,7.8-1.5c0-0.6,0-1,0-1.2
			c0-1.8-0.4-3.1-1.2-3.8c-1.1-1-2.8-1.5-5-1.5c-2.1,0-3.6,0.4-4.6,1.1s-1.7,2-2.2,3.8l-4.3-0.6c0.4-1.8,1-3.3,1.9-4.5
			c0.9-1.1,2.2-2,3.9-2.6s3.7-0.9,5.9-0.9s4,0.3,5.4,0.8s2.4,1.2,3,2c0.7,0.8,1.1,1.8,1.4,3c0.2,0.8,0.2,2.1,0.2,4.1v5.9
			c0,4.1,0.1,6.7,0.3,7.8s0.6,2.1,1.1,3.1h-4.6C914,799.2,913.7,798.2,913.5,797z M913.2,787.1c-1.6,0.7-4,1.2-7.2,1.7
			c-1.8,0.3-3.1,0.6-3.8,0.9s-1.3,0.8-1.7,1.4s-0.6,1.3-0.6,2.1c0,1.2,0.4,2.2,1.3,2.9s2.2,1.2,3.9,1.2s3.2-0.4,4.5-1.1
			s2.3-1.8,2.9-3c0.5-1,0.7-2.5,0.7-4.4L913.2,787.1L913.2,787.1z"/>
		<path d="M918.8,810.2l0.8-3.7c0.9,0.2,1.6,0.3,2.1,0.3c0.9,0,1.6-0.3,2-0.9s0.7-2.1,0.7-4.5v-27.2h4.4v27.3c0,3.2-0.4,5.4-1.2,6.7
			c-1.1,1.6-2.8,2.4-5.3,2.4C921.1,810.7,920,810.5,918.8,810.2z M924.4,769.5v-5.1h4.4v5.1H924.4z"/>
		<path d="M933.9,787.2c0-4.8,1.3-8.4,4-10.7c2.2-1.9,5-2.9,8.2-2.9c3.6,0,6.5,1.2,8.7,3.5s3.4,5.6,3.4,9.7c0,3.3-0.5,6-1.5,7.9
			s-2.5,3.4-4.4,4.5s-4,1.6-6.3,1.6c-3.6,0-6.6-1.2-8.8-3.5C935,794.9,933.9,791.6,933.9,787.2z M938.4,787.2c0,3.3,0.7,5.8,2.2,7.5
			s3.3,2.5,5.5,2.5s4-0.8,5.4-2.5c1.5-1.7,2.2-4.2,2.2-7.6c0-3.2-0.7-5.6-2.2-7.3s-3.3-2.5-5.4-2.5c-2.2,0-4,0.8-5.5,2.5
			C939.2,781.4,938.4,783.9,938.4,787.2z"/>
	</g>
	<g class="st1">
		<path d="M227,209.2c17.5,14.1,43.1-11.6,44.6-26.8c0.3-0.1,0.8,18.2-12.8,27.3c-28.7,19.6-51.2-7.9-35.7-31.1
			c5.8-8.8,29.6-27.2,74.5-21.5c42.3,5.4,53.6,3,63.6,0.1c18.5-5.4,25.1-15.6,25.1-15.6c-14.7,26.2-60.9,24.6-84.7,20.4
			C226.1,148.6,209.1,194.6,227,209.2z M280.7,232.3c-10.3,27-23.5,44.6-32.5,50.3s-14.7,2-14.7,2s14.7-2.9,28.1-27.7
			c15.5-28.5,31.9-77.5,37.2-87c4.3-7.9,5.7-4.1,5.7-4.1C309.3,168.7,293.8,198.2,280.7,232.3z"/>
		<path d="M306,238.9c-2.2,10.5,3.5,14.5,9.5,12.1c10.1-3.9,19.6-26,26.6-25.8c-6.9,6.4-7.5,8.4-12.2,14.5c-6.3,8-12.8,15-20.5,14.1
			c-10.2-1.1-11.4-13.9-8.8-19.8c2.7-6.3,8.2-13.3,16.7-13.9c7.1-0.4,9.8,6.3,3,12c-4.1,3.4-10.1,5-14,5.7
			C306.3,238.1,306,238.7,306,238.9z M311.9,235c11-3.7,12.9-12,7.2-10.6c0,0-9,1.1-12.4,12C308,236.1,309.9,235.7,311.9,235z"/>
		<path d="M347.6,229.6c0.1,4.5-1.4,6.7-3.8,11.8c5.7-8.2,18.9-21.2,27.9-23.7c5.2-1.4,7.5,3.4,7.1,6.9c-0.7,5.3-15.8,26-17.7,33.6
			c-2.7,11.3,4.3,7.6,6.5,6c6.5-4.9,18.8-26.9,24.3-33.3c6.8-7.9,9.4-5.3,9.4-5.3c-10.7,2.6-23.8,37.2-35.7,42
			c-3.5,1.5-9,0.5-10.6-5.2c-3.1-11.4,17.5-37.8,18.2-41.7c0.7-4.5-12.5,3.5-21.7,14.1c-6.3,7.2-9.5,12.6-12.2,16.9
			c-0.5,1-3.7,1-5-1.4c-0.5-1-2.2-3.1,2.9-13.5c5.6-11.3,3.3-10.9,3.3-10.9C341.5,224.3,347.5,225.2,347.6,229.6z"/>
		<path d="M402.6,249.7c5.3-1.5,9.5-1.2,12.6,0.3c12.9-8.3,20.4-13.9,26.5-24.7c-1.4,8.7-11.7,17.3-24.9,25.8
			c5.8,3.9,7.2,12.6,5.8,19.7c-2.6,12.8-10.2,23.7-24.3,32.5c-10.6,6.7-24.9,8.3-30.3,4.5c-14.1-9.8,6.1-31.5,21.2-41.3
			c9.4-6.1,17-10.9,23.4-14.8c-2.3-1-5.3-1.4-9.2-0.4c-6.4,1.5-10.7,3.3-10.7,3.3S397.1,251,402.6,249.7z M390.8,267.6
			c-32.6,21.5-32.1,48.1-5.4,35.9c30.2-14,34.4-35.2,32.9-44.3c-0.4-2.4-1.5-5-3.8-6.7C407,257.4,398.7,262.3,390.8,267.6z
			 M415.8,223.5c0.7,0.4,1.5,1.1,1.9,2.3c2.3,6.9-5.8,17.5-15.5,22.8c-8.8,4.9-14.7,2.9-16-4.6c-2.2-12.1,12-21.5,18.5-23.2
			c2.9-0.8,5-1,6.8-1C415.8,219.9,417.1,222.2,415.8,223.5z M397.3,232.1c-7.1,7.5-8.6,16.6-3,16.2c5.7-0.4,11.8-4.6,17.3-11.3
			c4.3-5.4,4.1-11,2.9-13.2C412,223.9,404.1,225.1,397.3,232.1z"/>
		<path d="M443,217.7c6.1-0.1,11,3.5,11,13.2c0,2.9-0.7,6.8-1.8,10.6c1.9-0.8,3.9-2,6-3.7c8.2-6.5,10.1-13,14.3-12.6
			c-4.5,3.4-8.3,11.3-15.9,15.9c-1.5,1-3.1,1.6-4.9,2.2c-3,9.1-8.8,18.2-15.5,17.9c-9.5-0.3-10.2-12.8-5.7-21.6
			c0.5-1.1,1.1-2.2,1.6-3.1C426.6,226,435.5,217.9,443,217.7z M436.6,241.7c-1.4,2.4-2.4,4.9-3.1,7.3c-1.8,6.7,1.6,13.9,7.5,8.7
			c2.9-2.6,6.1-7.9,8.4-13.9C444.9,244.7,440.3,244.2,436.6,241.7z M441,225.2c3.7-0.5,4.1,3,3.8,5c0,0.1-3.9,4.3-7.2,9.8
			c3.1,2.4,7.6,3.4,12.5,2.2c2.9-8.2,3.7-17-1.1-20.9c-6.4-5.4-14,0.8-15.4,5.4c-0.7,2.6-0.7,5.2,0,7.3
			C437,228.5,439.9,225.4,441,225.2z"/>
		<path d="M518.2,225.4c4.9-1.1,7.6,1.8,2.4,11.6c-4.8,9.1,0.1,12.5,5.4,8.3c6.1-4.9,12.6-16,14.8-18.5c3.7-4.2,5.8-2.2,6.5,1.4
			c1.1,4.9-2.2,7.1-8.4,20.9c-5.7,12.5,1.6,14.3,9.1,5.6c12-14,15.1-27.9,23.8-29.2c-7.3,3.5-7.2,10.6-20.1,27.6
			c-3.5,4.6-10.2,12.6-17.3,6.8c-9-7.5,3.8-24.9,3.4-26.2c0,0-2.3,5.6-9.1,11.6c-7.2,6.4-13.6,3-15.5-1.2
			C511,238.8,516.5,233.2,518.2,225.4z"/>
		<path d="M576.5,229.6c0.1,4.5-1.4,6.7-3.8,11.8c5.7-8.2,18.9-21.2,27.9-23.7c5.2-1.4,7.5,3.4,7.1,6.9c-0.7,5.3-15.8,26-17.7,33.6
			c-2.7,11.3,4.3,7.6,6.5,6c6.5-4.9,18.8-26.9,24.3-33.3c6.8-7.9,9.4-5.3,9.4-5.3c-10.7,2.6-23.8,37.2-35.7,42
			c-3.5,1.5-9,0.5-10.6-5.2c-3.1-11.4,17.5-37.8,18.2-41.7c0.7-4.5-12.5,3.5-21.7,14.1c-6.3,7.2-9.5,12.6-12.2,16.9
			c-0.5,1-3.7,1-5-1.4c-0.5-1-2.2-3.1,2.9-13.5c5.6-11.3,3.3-10.9,3.3-10.9C570.4,224.3,576.4,225.2,576.5,229.6z"/>
		<path d="M645.5,257.4c7.7-11.4,17.3-30.9,23.9-32.4c-6.8,7.7-8.6,11.3-12.5,17.5c-7.5,12.1-11.6,20.3-15.9,19.6
			c-4.9-0.8-9.4-7.2-4.3-20.9c0.1-0.5,0.4-1.1,0.5-1.6c-5.6,6.8-10.9,13.3-16,7.5c-5.3-6-0.1-16.7,4.8-21.2
			c3.5-3.3,10.2-6.1,17.3-4.3c7.9,2,1.9,2,1.9,2s-10.1-2.2-17.3,9.4c-5.3,8.6-2.3,16.3,1.9,12.4c2.3-2.2,7.3-8.6,11.3-13.6
			c2-3.3,4.2-7.2,6.3-7.2c2-0.1,7.1,0.5,2.6,6.3C637.5,246.8,637.2,269.5,645.5,257.4z"/>
		<path d="M722.6,229.6c0.1,4.5-1.4,6.7-3.8,11.8c5.7-8.2,18.9-21.2,27.9-23.7c5.2-1.4,7.5,3.4,7.1,6.9c-0.7,5.3-15.8,26-17.7,33.6
			c-2.7,11.3,4.3,7.6,6.5,6c6.5-4.9,18.8-26.9,24.3-33.3c6.8-7.9,9.4-5.3,9.4-5.3c-10.7,2.6-23.8,37.2-35.7,42
			c-3.5,1.5-9,0.5-10.6-5.2c-3.1-11.4,17.5-37.8,18.2-41.7c0.7-4.5-12.5,3.5-21.7,14.1c-6.3,7.2-9.5,12.6-12.2,16.9
			c-0.5,1-3.7,1-5-1.4c-0.5-1-2.2-3.1,2.9-13.5c5.6-11.3,3.3-10.9,3.3-10.9C716.5,224.3,722.5,225.2,722.6,229.6z"/>
		<path d="M775.8,217.7c6.1-0.1,11,3.5,11,13.2c0,2.9-0.7,6.8-1.8,10.6c1.9-0.8,3.9-2,6-3.7c8.2-6.5,10.1-13,14.3-12.6
			c-4.5,3.4-8.3,11.3-15.9,15.9c-1.5,1-3.1,1.6-4.9,2.2c-3,9.1-8.8,18.2-15.5,17.9c-9.5-0.3-10.2-12.8-5.7-21.6
			c0.5-1.1,1.1-2.2,1.6-3.1C759.3,226,768.3,217.9,775.8,217.7z M769.4,241.7c-1.4,2.4-2.4,4.9-3.1,7.3c-1.8,6.7,1.6,13.9,7.5,8.7
			c2.9-2.6,6.1-7.9,8.4-13.9C777.7,244.7,773,244.2,769.4,241.7z M773.7,225.2c3.7-0.5,4.1,3,3.8,5c0,0.1-3.9,4.3-7.2,9.8
			c3.1,2.4,7.6,3.4,12.5,2.2c2.9-8.2,3.7-17-1.1-20.9c-6.4-5.4-14,0.8-15.4,5.4c-0.7,2.6-0.7,5.2,0,7.3
			C769.8,228.5,772.6,225.4,773.7,225.2z"/>
		<path d="M771.5,172.6c-3.4,2.3-6.3,6.8-2.6,10.5c6.5,6.5,25.3,5.8,47.6,3.5c5.7-10.6,8.8-13.5,8.8-13.5c1.4-2.2,5.8,2.7,4.5,5
			c-1.5,2.4-3,4.9-4.5,7.5c31-3.7,66.1-9.4,83.5-4.1c6.5,2,9,4.3,8.3,7.6c-0.3,1.8-2.2,2.9-3,1.1c-0.7-1.5,2.9-5-6.1-7.6
			c-17.9-5-52.7,0.8-83.6,4.5c-9,15.4-18.3,34.8-26.1,62.3c-5.6,19.7-0.5,28.7,8.4,17.4c10.1-12.6,19.7-39.8,30.4-41.6
			c-8.6,7.6-11.6,13.3-19.6,28.3c-11.3,21.2-17.7,22.4-22.2,18.8c-5.7-4.6-8.7-16.4,6.1-53.1c5.7-14,10.5-24.1,14.1-31
			c-22.4,2.3-41.3,2.7-48.1-4.5c-3.4-3.7-2-10.1,2.4-13C771.4,169.6,775.1,170.3,771.5,172.6z"/>
		<path d="M846.4,241.4c-6.3,8.3-11.1,13.5-16.4,11.8c-8.4-2.7-1.4-23.8,4.6-27.7c2.7-1.4,4.1,0.1,3.7,2.3
			c-0.5,3.4-4.2,8.4-5.7,14.4c-1.1,4.5-2.4,9.7,1,9.2c4.2-0.4,12-12.4,17.4-19c4.5-5.6,5.8-7.2,8.7-7.2
			C855.5,227.3,852.1,233.9,846.4,241.4z M839.9,219.8c-1.6-0.5-1.8-1.5-0.5-3.8c1.4-2.6,0.5-3.1,2.7-4.3c1.5-0.8,6.4-0.3,4.8,3.1
			C845.1,218.4,841.8,220.3,839.9,219.8z"/>
		<path d="M855.5,235.8c-3.5,4.8-6.1,10.6-4.5,17.4c0.7,3.3,5.7,5.6,11.6,1.8c11.3-7.3,21.5-25.4,30.2-29.8
			c-6.3,5.2-12.9,16-22.7,25.6c-9,8.7-15.6,10.9-21.2,6.3c-6.5-5.4-4.3-18.8,1.1-25.4c6.3-7.7,13.9-11.8,20.9-9.8
			c7.5,2,4.8,8.3,2.6,11.4c-2.2,3.1-5.3,6-8.3,3.5s1.1-5,1.9-4.8c0.8,0.3,3.5,0,5.4-2.2c2.6-2.9,0.4-5.2-2.9-4.6
			C867.6,225.5,861.9,227.3,855.5,235.8z"/>
		<path d="M901.6,241.4c-6.3,8.3-11.1,13.5-16.4,11.8c-8.4-2.7-1.4-23.8,4.6-27.7c2.7-1.4,4.1,0.1,3.7,2.3
			c-0.5,3.4-4.2,8.4-5.7,14.4c-1.1,4.5-2.4,9.7,1,9.2c4.2-0.4,12-12.4,17.4-19c4.5-5.6,5.8-7.2,8.7-7.2
			C910.7,227.3,907.3,233.9,901.6,241.4z M895.1,219.8c-1.6-0.5-1.8-1.5-0.5-3.8c1.4-2.6,0.5-3.1,2.7-4.3c1.5-0.8,6.4-0.3,4.8,3.1
			C900.3,218.4,897,220.3,895.1,219.8z"/>
		<path d="M930.6,257.4c7.7-11.4,17.3-30.9,23.9-32.4c-6.8,7.7-8.6,11.3-12.5,17.5c-7.5,12.1-11.6,20.3-15.9,19.6
			c-4.9-0.8-9.4-7.2-4.3-20.9c0.1-0.5,0.4-1.1,0.5-1.6c-5.6,6.8-10.9,13.3-16,7.5c-5.3-6-0.1-16.7,4.8-21.2
			c3.5-3.3,10.2-6.1,17.3-4.3c7.9,2,1.9,2,1.9,2s-10.1-2.2-17.3,9.4c-5.3,8.6-2.3,16.3,1.9,12.4c2.3-2.2,7.3-8.6,11.3-13.6
			c2-3.3,4.2-7.2,6.3-7.2c2-0.1,7.1,0.5,2.6,6.3C922.5,246.8,922.3,269.5,930.6,257.4z"/>
		<path d="M962.8,251.9c-1.8,1.8-4.3,1.2-4.8-1c-0.4-2.3,0.1-4.3,2.7-4.3C963.9,246.6,964.5,250.1,962.8,251.9z"/>
		<path d="M984.8,251.9c-1.8,1.8-4.3,1.2-4.8-1c-0.4-2.3,0.1-4.3,2.7-4.3C985.9,246.6,986.6,250.1,984.8,251.9z"/>
		<path d="M1006.8,251.9c-1.8,1.8-4.3,1.2-4.8-1c-0.4-2.3,0.1-4.3,2.7-4.3C1007.9,246.6,1008.6,250.1,1006.8,251.9z"/>
		<path d="M1028.8,251.9c-1.8,1.8-4.3,1.2-4.8-1c-0.4-2.3,0.1-4.3,2.7-4.3C1029.9,246.6,1030.6,250.1,1028.8,251.9z"/>
	</g>
</g>
<g>
	<path class="st2" d="M617.6,339.2c0-0.8,0-1.5,0-2.2c0-13.4,0-26.8,0-40.2c0-4.2-1.2-7.9-3.8-11.2c-4.4-5.3-10-7.8-16.8-6.4
		c-9,1.8-14.3,8.7-14.3,17.9c0,21.2,0,42.4,0,63.6c0,1.2-0.3,1.9-1.3,2.6c-3.7,2.3-7.3,4.8-10.9,7.2c-11,7.6-16.3,18-15,31.3
		c0.7,7.2,3.2,13.9,5.8,20.6c6.7,17.3,16.5,32.6,29.6,45.9c0.5,0.6,0.9,1.5,0.9,2.3c0.1,5.7,0,11.3,0,17c0,3.4,1.4,4.8,4.8,4.8
		c8,0,16,0,24,0c18.8,0,37.6,0,56.4,0c3.5,0,4.8-1.3,4.8-4.7c0-5.8,0-11.6,0-17.3c0-0.9,0.3-2,0.8-2.8c11-17.5,16.9-36.5,17.4-57.2
		c0.3-11.6,0.1-23.2,0.1-34.8c0-2.3,0.1-4.6-0.3-6.9c-1.7-9.4-10.4-15.5-19.8-13.8c-2.7,0.5-5.3,1.7-8.1,2.6
		c-1.8-5.2-5.4-9.3-11.1-11.2c-5.7-1.9-11.2-0.9-16.1,2.4C638.1,336.4,631,333.8,617.6,339.2z M555.2,243.3c-1.7,0.2-2.9,1-3.5,2.4
		c-0.7,1.5-0.5,3,0.7,4.2c6.8,6.9,13.7,13.7,20.6,20.5c1.7,1.7,3.9,1.6,5.4,0c1.5-1.5,1.4-3.8-0.3-5.4c-6.7-6.7-13.5-13.5-20.2-20.1
		C557.1,244.1,556.1,243.8,555.2,243.3z M646,243.3c-0.9,0.4-1.9,0.7-2.6,1.4c-6.9,6.8-13.8,13.6-20.6,20.5c-1,1.1-1.5,2.3-0.9,3.8
		c1.1,2.8,4.1,3.3,6.4,1.1c4.3-4.3,8.7-8.6,13-12.9c2.5-2.4,4.9-4.9,7.4-7.4c1.2-1.2,1.4-2.7,0.8-4.2
		C648.9,244.3,647.7,243.6,646,243.3z M604.2,249c0-2.9,0-5.8,0-8.7c0-2.4-1.5-4-3.6-4c-2.1-0.1-3.8,1.7-3.8,4c0,5.8,0,11.7,0,17.5
		c0,2.4,1.7,4,3.8,4s3.6-1.6,3.6-4C604.2,254.9,604.2,252,604.2,249z M554.7,296.2c2.9,0,5.8,0,8.7,0c2.4,0,4-1.4,4.1-3.5
		c0.1-2.2-1.5-3.9-3.9-3.9c-5.9-0.1-11.8-0.1-17.6,0c-2.4,0-4.1,1.8-4,3.9s1.7,3.5,4.1,3.5C548.9,296.3,551.8,296.2,554.7,296.2z
		 M646.2,296.2c3,0,6.1,0,9.1,0c2.2,0,3.7-1.4,3.8-3.4c0.1-2.1-1.3-3.9-3.5-3.9c-6.1-0.1-12.2-0.1-18.3,0c-2.2,0-3.8,1.9-3.7,3.8
		c0.1,2.1,1.6,3.5,3.9,3.5C640.4,296.3,643.3,296.2,646.2,296.2z"/>
	<path d="M617.6,339.2c13.4-5.4,20.4-2.9,27,9.7c5-3.4,10.4-4.4,16.1-2.4c5.7,1.9,9.3,6,11.1,11.2c2.8-0.9,5.4-2.1,8.1-2.6
		c9.3-1.7,18,4.4,19.8,13.8c0.4,2.2,0.3,4.6,0.3,6.9c0,11.6,0.2,23.2-0.1,34.8c-0.5,20.6-6.4,39.7-17.4,57.2
		c-0.5,0.8-0.8,1.9-0.8,2.8c-0.1,5.8,0,11.6,0,17.3c0,3.4-1.4,4.7-4.8,4.7c-18.8,0-37.6,0-56.4,0c-8,0-16,0-24,0
		c-3.4,0-4.8-1.4-4.8-4.8c0-5.7,0-11.3,0-17c0-0.8-0.4-1.8-0.9-2.3c-13-13.2-22.9-28.5-29.6-45.9c-2.6-6.7-5.1-13.5-5.8-20.6
		c-1.3-13.3,3.9-23.8,15-31.3c3.6-2.5,7.2-4.9,10.9-7.2c1-0.7,1.3-1.4,1.3-2.6c0-21.2,0-42.4,0-63.6c0-9.2,5.3-16.1,14.3-17.9
		c6.8-1.4,12.4,1.1,16.8,6.4c2.7,3.2,3.8,7,3.8,11.2c0,13.4,0,26.8,0,40.2C617.6,337.7,617.6,338.4,617.6,339.2z M674.3,469.1
		c0-1.4,0.5-2.9,1.2-4.1c10.3-15.9,16.2-33.3,16.8-52.2c0.5-13.6,0.3-27.1,0.2-40.7c0-6-4.9-9.6-8.8-9.8
		c-6.9-0.4-11.2,3.9-11.2,10.8c0,4.2,0,8.4,0,12.6c0,2.5-1.7,4-4.1,3.8c-2-0.2-3.3-1.7-3.3-4.1c0-7.3,0-14.6,0-21.9
		c0-1.1-0.1-2.1-0.4-3.1c-1.2-4.7-5.7-7.7-10.7-7.3c-4.6,0.4-8.4,4.3-8.8,9c-0.1,1.6-0.1,3.2-0.1,4.9c0,6.1,0,12.1,0,18.2
		c0,2.9-1.6,4.5-4.1,4.4c-2.1-0.2-3.4-1.7-3.4-4.4c0-10.2,0-20.3,0-30.4c0-2.2-0.4-4.3-1.6-6.2c-2.6-3.9-7-5.3-11.7-3.9
		c-3.8,1.2-6.6,5.1-6.7,9.5c0,9.7,0,19.3,0,28.9c0,1.1,0.1,2.2-0.1,3.4c-0.2,1.9-1.8,3.2-3.7,3.2c-2,0-3.5-1.4-3.7-3.4
		c0-0.5,0-1,0-1.5c0-20.8,0-41.5,0-62.2c0-8.5-0.1-17.1,0-25.6c0.1-6.5-5.3-10.9-10.8-10.3c-5.4,0.5-9.3,4.8-9.3,10.5
		c0,23.8,0,47.7,0,71.5c0,11.7,0,23.3,0,35c0,1-0.2,2-0.7,2.8c-0.8,1.3-2.6,1.8-4.2,1.3c-1.5-0.5-2.5-1.9-2.5-3.8
		c0-6.7,0-13.5,0-20.2c0-4.2,0-8.1,0-12.4c-3.4,2.3-6.7,4.3-9.7,6.5c-6.4,4.8-9.8,11.2-10.3,19.2c-0.3,5,1.2,9.6,2.7,14.3
		c6.2,20.5,17,38.2,32.3,53.2c1.2,1.2,1.7,2.4,1.7,4c0,4.8,0.1,9.7-0.1,14.5c0,1.7,0.4,2.2,2.1,2.2c21.7-0.1,43.4,0,65.1,0
		c2.6,0,5.1,0,7.8,0"/>
	<path d="M555.2,243.3c0.9,0.5,1.9,0.8,2.6,1.5c6.8,6.7,13.5,13.4,20.2,20.1c1.6,1.6,1.7,3.9,0.3,5.4c-1.5,1.6-3.7,1.6-5.4,0
		c-6.9-6.8-13.7-13.7-20.6-20.5c-1.2-1.2-1.4-2.6-0.7-4.2C552.3,244.2,553.4,243.5,555.2,243.3z"/>
	<path d="M646,243.3c1.7,0.2,2.9,0.9,3.5,2.4s0.5,3-0.8,4.2c-2.5,2.5-4.9,4.9-7.4,7.4c-4.3,4.3-8.6,8.6-13,12.9
		c-2.2,2.2-5.3,1.7-6.4-1.1c-0.6-1.5-0.2-2.8,0.9-3.8c6.8-6.9,13.7-13.7,20.6-20.5C644.1,244,645.1,243.8,646,243.3z"/>
	<path d="M604.2,249c0,2.9,0,5.8,0,8.7c0,2.4-1.5,4-3.6,4c-2.2,0-3.8-1.6-3.8-4c0-5.8,0-11.7,0-17.5c0-2.4,1.7-4.1,3.8-4
		s3.6,1.6,3.6,4C604.2,243.2,604.2,246.1,604.2,249z"/>
	<path d="M554.7,296.2c-2.9,0-5.8,0-8.7,0c-2.4,0-4-1.4-4.1-3.5s1.6-3.8,4-3.9c5.9-0.1,11.8-0.1,17.6,0c2.4,0,4,1.7,3.9,3.9
		c-0.1,2.1-1.6,3.5-4.1,3.5C560.6,296.3,557.7,296.2,554.7,296.2z"/>
	<path d="M646.2,296.2c-2.9,0-5.8,0-8.8,0c-2.3,0-3.8-1.4-3.9-3.5c-0.1-2,1.5-3.8,3.7-3.8c6.1-0.1,12.2-0.1,18.3,0
		c2.2,0,3.6,1.8,3.5,3.9s-1.5,3.4-3.8,3.4C652.3,296.3,649.2,296.2,646.2,296.2z"/>
</g>
<g class="st4">
	<path d="M419.8,624.1v-35.8h4.7V603h18.6v-14.7h4.7v35.8h-4.7v-16.9h-18.6v16.9H419.8z"/>
	<path d="M472.1,621c-1.6,1.4-3.2,2.4-4.7,2.9c-1.5,0.6-3.1,0.8-4.9,0.8c-2.9,0-5-0.7-6.6-2.1s-2.3-3.2-2.3-5.3
		c0-1.3,0.3-2.4,0.9-3.5s1.3-1.9,2.3-2.5c0.9-0.6,2-1.1,3.2-1.4c0.9-0.2,2.2-0.4,3.9-0.7c3.5-0.4,6.2-0.9,7.8-1.5c0-0.6,0-1,0-1.2
		c0-1.8-0.4-3.1-1.2-3.8c-1.1-1-2.8-1.5-5-1.5c-2.1,0-3.6,0.4-4.6,1.1s-1.7,2-2.2,3.8l-4.3-0.6c0.4-1.8,1-3.3,1.9-4.5
		c0.9-1.1,2.2-2,3.9-2.6s3.6-0.9,5.9-0.9c2.2,0,4,0.3,5.4,0.8s2.4,1.2,3,2s1.1,1.8,1.4,3c0.1,0.8,0.2,2.1,0.2,4.1v5.9
		c0,4.1,0.1,6.7,0.3,7.8s0.6,2.1,1.1,3.1h-4.6C472.5,623.2,472.2,622.2,472.1,621z M471.7,611.1c-1.6,0.7-4,1.2-7.2,1.7
		c-1.8,0.3-3.1,0.6-3.8,0.9s-1.3,0.8-1.7,1.4c-0.4,0.6-0.6,1.3-0.6,2.1c0,1.2,0.4,2.2,1.3,2.9c0.9,0.8,2.2,1.2,3.9,1.2
		c1.7,0,3.2-0.4,4.5-1.1s2.3-1.8,2.9-3c0.5-1,0.7-2.5,0.7-4.4L471.7,611.1L471.7,611.1z"/>
	<path d="M480.7,624.1v-3.6l16.5-18.9c-1.9,0.1-3.5,0.2-5,0.2h-10.6v-3.6h21.2v2.9l-14,16.5l-2.7,3c2-0.2,3.8-0.2,5.5-0.2h12v3.8
		L480.7,624.1L480.7,624.1z"/>
	<path d="M538.8,614.6l4.3,0.6c-0.5,3-1.7,5.3-3.6,7c-2,1.7-4.3,2.5-7.2,2.5c-3.5,0-6.4-1.2-8.6-3.5s-3.2-5.6-3.2-10
		c0-2.8,0.5-5.2,1.4-7.3c0.9-2.1,2.3-3.7,4.2-4.7c1.9-1.1,4-1.6,6.2-1.6c2.8,0,5.1,0.7,6.9,2.1s2.9,3.4,3.4,6.1l-4.3,0.7
		c-0.4-1.7-1.1-3.1-2.2-3.9c-1.1-0.8-2.3-1.3-3.8-1.3c-2.2,0-4,0.8-5.4,2.4s-2.1,4.1-2.1,7.5c0,3.5,0.7,6,2,7.6
		c1.3,1.6,3.1,2.4,5.2,2.4c1.7,0,3.2-0.5,4.3-1.6C537.7,618.5,538.5,616.9,538.8,614.6z"/>
	<path d="M546.8,624.1v-35.8h4.4v35.8H546.8z"/>
	<path d="M558,593.4v-5.1h4.4v5.1H558z M558,624.1v-25.9h4.4v25.9H558z"/>
	<path d="M586,614.6l4.3,0.6c-0.5,3-1.7,5.3-3.6,7c-2,1.7-4.3,2.5-7.2,2.5c-3.5,0-6.4-1.2-8.6-3.5s-3.2-5.6-3.2-10
		c0-2.8,0.5-5.2,1.4-7.3c0.9-2.1,2.3-3.7,4.2-4.7c1.9-1.1,4-1.6,6.2-1.6c2.8,0,5.1,0.7,6.9,2.1s2.9,3.4,3.4,6.1l-4.3,0.7
		c-0.4-1.7-1.1-3.1-2.2-3.9c-1.1-0.8-2.3-1.3-3.8-1.3c-2.2,0-4,0.8-5.4,2.4s-2.1,4.1-2.1,7.5c0,3.5,0.7,6,2,7.6
		c1.3,1.6,3.1,2.4,5.2,2.4c1.7,0,3.2-0.5,4.3-1.6C585,618.5,585.7,616.9,586,614.6z"/>
	<path d="M594.1,624.1v-35.8h4.4v20.4l10.4-10.6h5.7l-9.9,9.6l10.9,16.3h-5.4l-8.6-13.3l-3.1,3V624L594.1,624.1L594.1,624.1z"/>
	<path d="M632.8,634.1l-0.5-4.1c1,0.3,1.8,0.4,2.5,0.4c1,0,1.8-0.2,2.3-0.5c0.6-0.3,1.1-0.8,1.4-1.4c0.3-0.4,0.7-1.5,1.3-3.3
		c0.1-0.2,0.2-0.6,0.4-1.1l-9.8-26h4.7l5.4,15c0.7,1.9,1.3,3.9,1.9,6c0.5-2,1.1-4,1.8-5.9l5.5-15.1h4.4l-9.9,26.4
		c-1.1,2.8-1.9,4.8-2.5,5.9c-0.8,1.4-1.7,2.5-2.7,3.2s-2.2,1-3.6,1C634.8,634.7,633.8,634.5,632.8,634.1z"/>
	<path d="M688.7,624.1v-3.3c-1.6,2.6-4.1,3.9-7.2,3.9c-2.1,0-4-0.6-5.7-1.7s-3.1-2.7-4-4.8s-1.4-4.4-1.4-7s0.4-4.9,1.3-7
		c0.9-2.1,2.2-3.7,3.9-4.8s3.7-1.7,5.8-1.7c1.6,0,3,0.3,4.2,1s2.2,1.5,3,2.6v-12.8h4.4v35.8L688.7,624.1L688.7,624.1z M674.8,611.2
		c0,3.3,0.7,5.8,2.1,7.4c1.4,1.6,3,2.5,5,2.5c1.9,0,3.5-0.8,4.9-2.4c1.3-1.6,2-4,2-7.2c0-3.6-0.7-6.2-2-7.8s-3-2.5-5-2.5
		s-3.6,0.8-4.9,2.4C675.5,605.3,674.8,607.8,674.8,611.2z"/>
	<path d="M717.4,615.8l4.5,0.6c-0.7,2.7-2,4.7-4,6.2c-1.9,1.5-4.4,2.2-7.4,2.2c-3.8,0-6.8-1.2-9-3.5s-3.3-5.6-3.3-9.8
		c0-4.4,1.1-7.8,3.4-10.2s5.2-3.6,8.7-3.6s6.3,1.2,8.5,3.5s3.3,5.7,3.3,10c0,0.3,0,0.7,0,1.2h-19.3c0.2,2.8,1,5,2.4,6.5
		s3.2,2.3,5.4,2.3c1.6,0,3-0.4,4.1-1.3C715.8,619,716.8,617.7,717.4,615.8z M703,608.7h14.5c-0.2-2.2-0.8-3.8-1.7-4.9
		c-1.4-1.7-3.2-2.5-5.4-2.5c-2,0-3.7,0.7-5.1,2C703.9,604.6,703.1,606.4,703,608.7z"/>
	<path d="M725.7,616.4l4.3-0.7c0.2,1.7,0.9,3.1,2,4s2.7,1.4,4.7,1.4s3.5-0.4,4.5-1.2s1.5-1.8,1.5-2.9c0-1-0.4-1.8-1.3-2.3
		c-0.6-0.4-2.1-0.9-4.5-1.5c-3.2-0.8-5.5-1.5-6.7-2.1s-2.2-1.4-2.8-2.5s-1-2.2-1-3.5c0-1.2,0.3-2.2,0.8-3.2s1.2-1.8,2.2-2.4
		c0.7-0.5,1.6-0.9,2.8-1.3s2.5-0.5,3.8-0.5c2,0,3.8,0.3,5.4,0.9s2.7,1.4,3.4,2.4s1.2,2.3,1.5,4l-4.3,0.6c-0.2-1.3-0.8-2.4-1.7-3.1
		c-0.9-0.8-2.3-1.1-4-1.1c-2,0-3.5,0.3-4.3,1s-1.3,1.4-1.3,2.3c0,0.6,0.2,1.1,0.5,1.5c0.4,0.5,0.9,0.9,1.7,1.2
		c0.4,0.2,1.7,0.5,3.9,1.1c3.1,0.8,5.3,1.5,6.5,2s2.2,1.3,2.9,2.3s1,2.3,1,3.8s-0.4,2.8-1.3,4.1c-0.8,1.3-2.1,2.3-3.7,3
		s-3.4,1.1-5.5,1.1c-3.4,0-5.9-0.7-7.7-2.1C727.3,621.2,726.2,619.2,725.7,616.4z"/>
	<path d="M752.4,624.1v-35.8h4.4v35.8H752.4z"/>
	<path d="M763.6,593.4v-5.1h4.4v5.1H763.6z M763.6,624.1v-25.9h4.4v25.9H763.6z"/>
	<path d="M772.4,624.1v-3.6l16.5-18.9c-1.9,0.1-3.5,0.2-5,0.2h-10.6v-3.6h21.2v2.9l-14,16.5l-2.7,3c2-0.2,3.8-0.2,5.5-0.2h12v3.8
		L772.4,624.1L772.4,624.1z"/>
	<path d="M816.6,621c-1.6,1.4-3.2,2.4-4.7,2.9s-3.1,0.8-4.8,0.8c-2.8,0-5-0.7-6.6-2.1s-2.3-3.2-2.3-5.3c0-1.3,0.3-2.4,0.9-3.5
		c0.6-1.1,1.3-1.9,2.3-2.5c0.9-0.6,2-1.1,3.2-1.4c0.9-0.2,2.2-0.4,3.9-0.7c3.5-0.4,6.2-0.9,7.8-1.5c0-0.6,0-1,0-1.2
		c0-1.8-0.4-3.1-1.2-3.8c-1.1-1-2.8-1.5-5-1.5c-2.1,0-3.6,0.4-4.6,1.1s-1.7,2-2.2,3.8l-4.3-0.6c0.4-1.8,1-3.3,1.9-4.5
		c0.9-1.1,2.2-2,3.9-2.6s3.7-0.9,5.9-0.9s4,0.3,5.4,0.8s2.4,1.2,3,2c0.7,0.8,1.1,1.8,1.4,3c0.2,0.8,0.2,2.1,0.2,4.1v5.9
		c0,4.1,0.1,6.7,0.3,7.8s0.6,2.1,1.1,3.1h-4.6C817,623.2,816.7,622.2,816.6,621z M816.3,611.1c-1.6,0.7-4,1.2-7.2,1.7
		c-1.8,0.3-3.1,0.6-3.8,0.9s-1.3,0.8-1.7,1.4s-0.6,1.3-0.6,2.1c0,1.2,0.4,2.2,1.3,2.9s2.2,1.2,3.9,1.2s3.2-0.4,4.5-1.1
		s2.3-1.8,2.9-3c0.5-1,0.7-2.5,0.7-4.4L816.3,611.1L816.3,611.1z"/>
</g>
<g class="st4">
	<path d="M311.2,127.9h-36.1l0.5-1.3c1.9,0,3.2-0.2,3.8-0.4c1-0.4,1.8-1,2.2-1.7c0.7-1.1,1.5-3.1,2.4-6l8.6-29.7
		c0.7-2.4,1.1-4.2,1.1-5.4c0-0.9-0.3-1.6-1-2.1c-0.7-0.5-1.9-0.8-3.8-0.8c-0.4,0-0.7,0-0.9,0l0.4-1.3h19.9l-0.3,1.3
		c-2.2,0-3.8,0.2-4.8,0.6c-0.9,0.4-1.7,1.1-2.3,2.1c-0.4,0.7-1.1,2.7-2.1,6l-8.4,29.2c-0.7,2.2-1,3.7-1,4.6c0,0.6,0.3,1.1,1,1.7
		c0.4,0.4,1.3,0.5,2.8,0.5h4.7c3.4,0,6.2-0.4,8.2-1.3c1.5-0.6,2.9-1.6,4.1-2.9c0.7-0.7,1.8-2.5,3.5-5.4l0.9-1.6h1.3L311.2,127.9z"/>
	<path d="M353,95.3l-7,24.4l-0.8,3.3c-0.1,0.3-0.1,0.6-0.1,0.8c0,0.4,0.1,0.7,0.4,1c0.2,0.2,0.4,0.3,0.7,0.3c0.3,0,0.7-0.2,1.2-0.6
		c0.9-0.7,2.2-2.1,3.8-4.3l1.2,0.8c-1.6,2.5-3.3,4.4-5.1,5.7c-1.8,1.3-3.4,1.9-4.9,1.9c-1,0-1.8-0.3-2.3-0.8
		c-0.5-0.5-0.8-1.3-0.8-2.2c0-1.2,0.3-2.7,0.8-4.6l0.8-2.7c-3.2,4.1-6,7-8.7,8.6c-1.9,1.2-3.8,1.7-5.6,1.7c-1.8,0-3.3-0.7-4.5-2.2
		c-1.3-1.4-1.9-3.4-1.9-6c0-3.8,1.1-7.8,3.4-12.1c2.3-4.2,5.2-7.6,8.7-10.2c2.7-2,5.3-3,7.8-3c1.5,0,2.7,0.4,3.7,1.2
		c1,0.8,1.7,2.1,2.2,3.8l1.3-4.1L353,95.3z M340.1,97.2c-1.5,0-3.1,0.7-4.9,2.2c-2.5,2-4.7,5-6.6,9c-1.9,4-2.9,7.6-2.9,10.9
		c0,1.6,0.4,2.9,1.2,3.8c0.8,1,1.8,1.4,2.8,1.4c2.6,0,5.4-1.9,8.5-5.8c4.1-5.1,6.2-10.4,6.2-15.8c0-2-0.4-3.5-1.2-4.4
		C342.6,97.7,341.5,97.2,340.1,97.2z"/>
	<path d="M402.1,120.1c-2.5,3-5,5.2-7.6,6.6c-2.5,1.4-5.2,2.1-8.1,2.1c-3.4,0-6-1-8-2.9c-1.9-1.9-2.9-4.5-2.9-7.7
		c0-3.7,1-7.3,3.1-10.8c2.1-3.6,4.8-6.4,8.3-8.7c3.5-2.2,6.9-3.3,10.2-3.3c2.6,0,4.6,0.6,5.9,1.7c1.3,1.1,1.9,2.4,1.9,4
		c0,1.5-0.5,2.8-1.4,3.8c-0.7,0.8-1.5,1.3-2.5,1.3c-0.7,0-1.4-0.2-1.9-0.7c-0.5-0.5-0.7-1.1-0.7-1.8c0-0.4,0.1-0.9,0.3-1.3
		c0.2-0.4,0.6-0.8,1.1-1.4c0.6-0.5,0.9-0.9,1-1.2c0.1-0.2,0.2-0.5,0.2-0.8c0-0.5-0.2-0.9-0.7-1.3c-0.7-0.5-1.7-0.7-2.9-0.7
		c-2.4,0-4.7,0.8-7,2.5c-2.3,1.7-4.3,4-5.9,7c-2,3.7-2.9,7.4-2.9,11.1c0,2.4,0.7,4.4,2.1,5.8c1.4,1.4,3.3,2.1,5.7,2.1
		c1.8,0,3.7-0.5,5.5-1.4c1.8-0.9,3.8-2.6,6.1-5L402.1,120.1z"/>
	<path d="M440.4,106.6c0,3.6-1,7.2-2.9,10.7c-1.9,3.5-4.6,6.3-8,8.4s-6.7,3.1-9.9,3.1c-3.3,0-6-1.1-8-3.1c-2.1-2.1-3.1-4.8-3.1-8.1
		c0-3.5,1-7.1,3-10.6c2-3.5,4.7-6.4,8.1-8.4c3.4-2.1,6.7-3.1,9.8-3.1c3.2,0,5.8,1,7.8,3.1C439.3,100.6,440.4,103.3,440.4,106.6z
		 M434.4,104.1c0-2.2-0.6-3.9-1.7-5.1c-1.1-1.2-2.5-1.8-4.2-1.8c-3.5,0-6.8,2.5-9.7,7.6c-3,5-4.4,10.1-4.4,15.1c0,2.3,0.6,4,1.7,5.2
		c1.2,1.2,2.6,1.9,4.3,1.9c3.4,0,6.6-2.5,9.5-7.5C432.9,114.4,434.4,109.3,434.4,104.1z"/>
	<path d="M469.9,95.3l-2.2,11.1h-1.3c-0.1-3.2-0.8-5.6-2.1-7c-1.3-1.5-2.8-2.2-4.6-2.2c-1.5,0-2.6,0.4-3.5,1.2
		c-0.9,0.8-1.3,1.8-1.3,2.9c0,0.8,0.2,1.5,0.5,2.3c0.3,0.7,1.1,1.7,2.3,3c3.1,3.4,5.1,6,6,7.7c0.9,1.7,1.4,3.3,1.4,4.9
		c0,2.5-1,4.7-3.1,6.6c-2.1,1.9-4.7,2.9-7.8,2.9c-1.7,0-3.7-0.4-6-1.2c-0.8-0.3-1.4-0.4-1.8-0.4c-1.1,0-1.9,0.6-2.5,1.7h-1.3
		l2.2-11.7h1.3c0.1,3.7,0.9,6.2,2.2,7.8c1.4,1.5,3.2,2.3,5.6,2.3c1.8,0,3.3-0.5,4.3-1.5c1.1-1,1.6-2.3,1.6-3.8c0-1-0.2-1.8-0.6-2.7
		c-0.7-1.4-2.1-3.4-4.2-6s-3.5-4.5-4.1-5.7c-0.6-1.3-0.9-2.5-0.9-3.8c0-2.3,0.8-4.3,2.5-5.9s3.9-2.4,6.5-2.4c0.8,0,1.5,0.1,2.1,0.2
		c0.3,0.1,1.1,0.4,2.3,0.8c1.2,0.5,2.1,0.7,2.5,0.7c1,0,1.9-0.6,2.6-1.7H469.9z"/>
	<path d="M506.4,95.3l-7,24.4l-0.8,3.3c-0.1,0.3-0.1,0.6-0.1,0.8c0,0.4,0.1,0.7,0.4,1c0.2,0.2,0.4,0.3,0.7,0.3
		c0.3,0,0.7-0.2,1.2-0.6c0.9-0.7,2.2-2.1,3.8-4.3l1.2,0.8c-1.6,2.5-3.3,4.4-5.1,5.7c-1.8,1.3-3.4,1.9-4.9,1.9c-1,0-1.8-0.3-2.3-0.8
		c-0.5-0.5-0.8-1.3-0.8-2.2c0-1.2,0.3-2.7,0.8-4.6l0.8-2.7c-3.2,4.1-6,7-8.7,8.6c-1.9,1.2-3.8,1.7-5.6,1.7c-1.8,0-3.3-0.7-4.5-2.2
		c-1.3-1.4-1.9-3.4-1.9-6c0-3.8,1.1-7.8,3.4-12.1c2.3-4.2,5.2-7.6,8.7-10.2c2.7-2,5.3-3,7.8-3c1.5,0,2.7,0.4,3.7,1.2
		c1,0.8,1.7,2.1,2.2,3.8l1.3-4.1L506.4,95.3z M493.6,97.2c-1.5,0-3.1,0.7-4.9,2.2c-2.5,2-4.7,5-6.6,9c-1.9,4-2.9,7.6-2.9,10.9
		c0,1.6,0.4,2.9,1.2,3.8c0.8,1,1.8,1.4,2.8,1.4c2.6,0,5.4-1.9,8.5-5.8c4.1-5.1,6.2-10.4,6.2-15.8c0-2-0.4-3.5-1.2-4.4
		C496,97.7,494.9,97.2,493.6,97.2z"/>
	<path d="M553.8,95.3l-2.2,11.1h-1.3c-0.1-3.2-0.8-5.6-2.1-7c-1.3-1.5-2.8-2.2-4.6-2.2c-1.5,0-2.6,0.4-3.5,1.2
		c-0.9,0.8-1.3,1.8-1.3,2.9c0,0.8,0.2,1.5,0.5,2.3c0.3,0.7,1.1,1.7,2.3,3c3.1,3.4,5.1,6,6,7.7c0.9,1.7,1.4,3.3,1.4,4.9
		c0,2.5-1,4.7-3.1,6.6c-2.1,1.9-4.7,2.9-7.8,2.9c-1.7,0-3.7-0.4-6-1.2c-0.8-0.3-1.4-0.4-1.8-0.4c-1.1,0-1.9,0.6-2.5,1.7h-1.3
		l2.2-11.7h1.3c0.1,3.7,0.9,6.2,2.2,7.8c1.4,1.5,3.2,2.3,5.6,2.3c1.8,0,3.3-0.5,4.3-1.5c1.1-1,1.6-2.3,1.6-3.8c0-1-0.2-1.8-0.6-2.7
		c-0.7-1.4-2.1-3.4-4.2-6s-3.5-4.5-4.1-5.7c-0.6-1.3-0.9-2.5-0.9-3.8c0-2.3,0.8-4.3,2.5-5.9s3.9-2.4,6.5-2.4c0.8,0,1.5,0.1,2.1,0.2
		c0.3,0.1,1.1,0.4,2.3,0.8c1.2,0.5,2.1,0.7,2.5,0.7c1,0,1.9-0.6,2.6-1.7H553.8z"/>
	<path d="M564.5,114.4c-0.1,1.2-0.2,2.2-0.2,2.9c0,2.1,0.8,4,2.3,5.5c1.5,1.5,3.3,2.3,5.5,2.3c1.7,0,3.4-0.4,5-1.1
		c1.6-0.7,4-2.3,7.1-4.7l0.8,1c-5.7,5.6-11.1,8.4-16.3,8.4c-3.5,0-6.1-1.1-7.9-3.3c-1.8-2.2-2.7-4.6-2.7-7.3c0-3.6,1.1-7.2,3.3-11
		c2.2-3.7,5-6.6,8.3-8.7c3.3-2.1,6.8-3.1,10.3-3.1c2.5,0,4.4,0.5,5.6,1.6c1.2,1,1.8,2.3,1.8,3.7c0,2-0.8,3.9-2.4,5.7
		c-2.1,2.4-5.2,4.3-9.2,5.8C573.1,113,569.4,113.8,564.5,114.4z M564.7,112.6c3.5-0.4,6.4-1.1,8.7-2.1c2.9-1.3,5.2-2.9,6.6-4.7
		c1.5-1.8,2.2-3.6,2.2-5.2c0-1-0.3-1.8-1-2.4c-0.6-0.6-1.5-0.9-2.7-0.9c-2.4,0-5,1.3-7.8,3.9C568.1,103.6,566.1,107.5,564.7,112.6z"
		/>
	<path d="M623.1,95.3l-2.5,8.3c2.6-3.1,5-5.2,7-6.5c2.1-1.2,4.1-1.9,6.3-1.9c2.1,0,4,0.8,5.5,2.5s2.3,3.9,2.3,6.6
		c0,5.3-2.1,10.6-6.4,16.1c-4.3,5.5-9.3,8.2-15,8.2c-1.2,0-2.2-0.1-3.2-0.4c-0.9-0.3-2-0.7-3.1-1.4l-2.6,9.3c-0.5,1.8-0.8,3-0.8,3.5
		s0.1,1,0.4,1.4c0.3,0.4,0.7,0.7,1.3,0.9c0.6,0.2,1.8,0.3,3.7,0.3l-0.3,1.3h-16.9l0.4-1.3c2.2-0.1,3.7-0.5,4.5-1.1
		c0.8-0.7,1.6-2.5,2.5-5.6l9.1-31.5c0.5-2,0.8-3.2,0.8-3.7c0-0.7-0.2-1.2-0.5-1.5s-0.9-0.5-1.7-0.5c-0.7,0-1.7,0.1-2.9,0.3v-1.4
		L623.1,95.3z M614.7,124.1c1.5,1.8,3.5,2.7,6,2.7c1.2,0,2.5-0.3,3.8-1c1.3-0.7,2.6-1.7,3.8-3.1c1.2-1.4,2.3-2.9,3.3-4.7
		s1.9-3.9,2.7-6.3s1.2-4.8,1.2-7.2c0-1.9-0.4-3.4-1.3-4.4c-0.9-1-1.9-1.5-3.1-1.5c-2.6,0-5.1,1.5-7.7,4.4c-2.5,3-4.4,6.4-5.6,10.4
		L614.7,124.1z"/>
	<path d="M678.3,96.2l-6.3,21.4c-0.9,3.2-1.4,5.2-1.4,6c0,0.4,0.1,0.7,0.2,0.9c0.1,0.2,0.4,0.3,0.6,0.3c0.4,0,0.9-0.2,1.4-0.6
		c0.5-0.4,1.7-1.9,3.7-4.4l1.1,0.8c-1.9,3-3.9,5.2-5.9,6.6c-1.3,0.9-2.6,1.3-3.8,1.3c-1,0-1.7-0.3-2.2-0.8c-0.5-0.5-0.8-1.2-0.8-2
		c0-0.8,0.1-1.9,0.4-3.3c0.4-1.8,1.5-5.6,3.3-11.6c-4.1,6.7-7.5,11.3-10.2,13.9c-2.7,2.5-5.3,3.8-7.6,3.8c-1.1,0-2-0.4-2.8-1.1
		c-0.8-0.8-1.2-1.7-1.2-2.9c0-1.8,0.5-4.5,1.6-8.3l3.2-11.1c0.7-2.7,1.1-4.3,1.1-5c0-0.3-0.1-0.5-0.3-0.7c-0.2-0.2-0.4-0.3-0.6-0.3
		c-0.5,0-1,0.2-1.5,0.5c-0.5,0.4-1.7,1.7-3.4,4l-1.1-0.8c1.8-2.8,3.7-4.9,5.7-6.2c1.5-1,3-1.6,4.2-1.6c0.9,0,1.6,0.3,2.2,0.8
		c0.6,0.6,0.8,1.3,0.8,2.2c0,1.3-0.5,3.6-1.4,6.9l-3.4,11.6c-0.9,3.2-1.4,5.2-1.4,6c0,0.4,0.1,0.8,0.4,1.1c0.3,0.3,0.7,0.4,1.2,0.4
		c0.8,0,1.8-0.4,3.1-1.2c1.3-0.8,3-2.5,5.1-5.3c2.1-2.7,3.9-5.3,5.2-7.7c1.4-2.4,2.9-6.2,4.4-11.4l0.8-2.7H678.3z"/>
	<path d="M707.2,95.3l-2.2,11.1h-1.3c-0.1-3.2-0.8-5.6-2.1-7c-1.3-1.5-2.8-2.2-4.6-2.2c-1.5,0-2.6,0.4-3.5,1.2s-1.3,1.8-1.3,2.9
		c0,0.8,0.2,1.5,0.5,2.3c0.3,0.7,1.1,1.7,2.3,3c3.1,3.4,5.1,6,6,7.7c0.9,1.7,1.4,3.3,1.4,4.9c0,2.5-1,4.7-3.1,6.6
		c-2.1,1.9-4.7,2.9-7.8,2.9c-1.7,0-3.7-0.4-6-1.2c-0.8-0.3-1.4-0.4-1.8-0.4c-1.1,0-1.9,0.6-2.5,1.7h-1.3l2.2-11.7h1.3
		c0.1,3.7,0.9,6.2,2.2,7.8c1.4,1.5,3.2,2.3,5.6,2.3c1.8,0,3.3-0.5,4.3-1.5c1.1-1,1.6-2.3,1.6-3.8c0-1-0.2-1.8-0.6-2.7
		c-0.7-1.4-2.1-3.4-4.2-6s-3.5-4.5-4.1-5.7c-0.6-1.3-0.9-2.5-0.9-3.8c0-2.3,0.8-4.3,2.5-5.9s3.9-2.4,6.5-2.4c0.8,0,1.5,0.1,2.1,0.2
		c0.3,0.1,1.1,0.4,2.3,0.8c1.2,0.5,2.1,0.7,2.5,0.7c1,0,1.9-0.6,2.6-1.7H707.2z"/>
	<path d="M743.2,106.6c0,3.6-1,7.2-2.9,10.7c-1.9,3.5-4.6,6.3-8,8.4s-6.7,3.1-9.9,3.1c-3.3,0-6-1.1-8-3.1c-2.1-2.1-3.1-4.8-3.1-8.1
		c0-3.5,1-7.1,3-10.6c2-3.5,4.7-6.4,8.1-8.4c3.4-2.1,6.7-3.1,9.8-3.1c3.2,0,5.8,1,7.8,3.1S743.2,103.3,743.2,106.6z M737.3,104.1
		c0-2.2-0.6-3.9-1.7-5.1c-1.1-1.2-2.5-1.8-4.2-1.8c-3.5,0-6.8,2.5-9.7,7.6c-3,5-4.4,10.1-4.4,15.1c0,2.3,0.6,4,1.7,5.2
		c1.2,1.2,2.6,1.9,4.3,1.9c3.4,0,6.6-2.5,9.5-7.5C735.8,114.4,737.3,109.3,737.3,104.1z"/>
	<path d="M791.1,95.3l-2.2,11.1h-1.3c-0.1-3.2-0.8-5.6-2.1-7c-1.2-1.5-2.8-2.2-4.6-2.2c-1.5,0-2.6,0.4-3.5,1.2
		c-0.9,0.8-1.3,1.8-1.3,2.9c0,0.8,0.2,1.5,0.5,2.3c0.3,0.7,1.1,1.7,2.3,3c3.1,3.4,5.1,6,6,7.7c0.9,1.7,1.4,3.3,1.4,4.9
		c0,2.5-1,4.7-3.1,6.6c-2.1,1.9-4.7,2.9-7.8,2.9c-1.7,0-3.7-0.4-6-1.2c-0.8-0.3-1.4-0.4-1.8-0.4c-1.1,0-1.9,0.6-2.5,1.7h-1.3
		l2.2-11.7h1.3c0.1,3.7,0.9,6.2,2.2,7.8c1.4,1.5,3.2,2.3,5.6,2.3c1.8,0,3.3-0.5,4.3-1.5c1.1-1,1.6-2.3,1.6-3.8c0-1-0.2-1.8-0.6-2.7
		c-0.7-1.4-2.1-3.4-4.2-6s-3.5-4.5-4.1-5.7c-0.6-1.3-0.9-2.5-0.9-3.8c0-2.3,0.8-4.3,2.5-5.9c1.7-1.6,3.9-2.4,6.5-2.4
		c0.8,0,1.5,0.1,2.1,0.2c0.3,0.1,1.1,0.4,2.3,0.8c1.2,0.5,2.1,0.7,2.5,0.7c1,0,1.9-0.6,2.6-1.7H791.1z"/>
	<path d="M801.8,114.4c-0.2,1.2-0.2,2.2-0.2,2.9c0,2.1,0.8,4,2.3,5.5c1.5,1.5,3.3,2.3,5.5,2.3c1.7,0,3.4-0.4,5-1.1
		c1.6-0.7,4-2.3,7.1-4.7l0.8,1c-5.7,5.6-11.1,8.4-16.3,8.4c-3.5,0-6.1-1.1-7.9-3.3c-1.8-2.2-2.7-4.6-2.7-7.3c0-3.6,1.1-7.2,3.3-11
		c2.2-3.7,5-6.6,8.3-8.7c3.3-2.1,6.8-3.1,10.3-3.1c2.5,0,4.4,0.5,5.6,1.6c1.2,1,1.8,2.3,1.8,3.7c0,2-0.8,3.9-2.4,5.7
		c-2.1,2.4-5.2,4.3-9.2,5.8C810.5,113,806.7,113.8,801.8,114.4z M802.1,112.6c3.5-0.4,6.4-1.1,8.7-2.1c2.9-1.3,5.2-2.9,6.6-4.7
		c1.5-1.8,2.2-3.6,2.2-5.2c0-1-0.3-1.8-1-2.4c-0.6-0.6-1.5-0.9-2.7-0.9c-2.4,0-5,1.3-7.8,3.9S803.4,107.5,802.1,112.6z"/>
	<path d="M829.6,97.4l12.4-2.1l-5.2,17.5c4.2-7.2,8-12.2,11.4-15.1c1.9-1.6,3.5-2.5,4.7-2.5c0.8,0,1.4,0.2,1.9,0.7
		c0.4,0.5,0.7,1.2,0.7,2.1c0,1.6-0.4,3.1-1.2,4.5c-0.6,1.1-1.4,1.6-2.5,1.6c-0.5,0-1-0.2-1.4-0.5s-0.6-0.9-0.7-1.7
		c0-0.4-0.1-0.7-0.3-0.9c-0.2-0.2-0.4-0.3-0.7-0.3c-0.4,0-0.8,0.1-1.2,0.3c-0.6,0.3-1.6,1.3-2.9,2.8c-2,2.4-4.2,5.4-6.5,9.1
		c-1,1.6-1.8,3.4-2.6,5.4c-1,2.7-1.5,4.4-1.7,5l-1.2,4.5h-5.5l6.7-22.3c0.7-2.6,1.1-4.4,1.1-5.5c0-0.4-0.2-0.8-0.5-1.1
		c-0.5-0.4-1.1-0.6-1.9-0.6c-0.5,0-1.4,0.1-2.8,0.3L829.6,97.4z"/>
	<path d="M871.4,95.3l-7.1,25.2c-0.5,1.7-0.7,2.7-0.7,3c0,0.4,0.1,0.7,0.3,0.9c0.2,0.2,0.5,0.4,0.8,0.4c0.4,0,0.8-0.2,1.3-0.6
		c1.4-1.1,2.8-2.6,4.2-4.6l1.3,0.8c-1.6,2.5-3.6,4.6-5.8,6.3c-1.6,1.3-3.2,1.9-4.6,1.9c-1,0-1.8-0.3-2.4-0.9
		c-0.6-0.6-0.9-1.3-0.9-2.2s0.3-2.4,0.9-4.4l4.7-16.1c0.7-2.6,1.1-4.3,1.1-5c0-0.5-0.2-0.9-0.6-1.3c-0.4-0.3-0.9-0.5-1.5-0.5
		c-0.5,0-1.6,0.1-3.3,0.4v-1.4L871.4,95.3z M870.9,81.1c1,0,1.9,0.4,2.5,1c0.7,0.7,1,1.5,1,2.5s-0.3,1.8-1,2.5
		c-0.7,0.7-1.5,1.1-2.5,1.1c-1,0-1.8-0.4-2.5-1.1s-1.1-1.6-1.1-2.5s0.3-1.8,1-2.5C869.1,81.4,869.9,81.1,870.9,81.1z"/>
	<path d="M909.5,95.3l-7,24.4l-0.8,3.3c-0.1,0.3-0.1,0.6-0.1,0.8c0,0.4,0.1,0.7,0.4,1c0.2,0.2,0.4,0.3,0.7,0.3
		c0.3,0,0.7-0.2,1.2-0.6c0.9-0.7,2.2-2.1,3.8-4.3l1.2,0.8c-1.6,2.5-3.3,4.4-5.1,5.7c-1.8,1.3-3.4,1.9-4.9,1.9c-1,0-1.8-0.3-2.3-0.8
		c-0.5-0.5-0.8-1.3-0.8-2.2c0-1.2,0.3-2.7,0.8-4.6l0.8-2.7c-3.2,4.1-6,7-8.7,8.6c-1.9,1.2-3.8,1.7-5.6,1.7c-1.8,0-3.3-0.7-4.5-2.2
		c-1.3-1.4-1.9-3.4-1.9-6c0-3.8,1.1-7.8,3.4-12.1c2.3-4.2,5.2-7.6,8.7-10.2c2.7-2,5.3-3,7.8-3c1.5,0,2.7,0.4,3.7,1.2
		c1,0.8,1.7,2.1,2.2,3.8l1.3-4.1L909.5,95.3z M896.7,97.2c-1.5,0-3.1,0.7-4.9,2.2c-2.5,2-4.7,5-6.6,9c-1.9,4-2.9,7.6-2.9,10.9
		c0,1.6,0.4,2.9,1.2,3.8c0.8,1,1.8,1.4,2.8,1.4c2.6,0,5.4-1.9,8.5-5.8c4.1-5.1,6.2-10.4,6.2-15.8c0-2-0.4-3.5-1.2-4.4
		C899.1,97.7,898,97.2,896.7,97.2z"/>
	<path d="M917.8,121.5c1,0,1.9,0.4,2.6,1c0.7,0.7,1.1,1.6,1.1,2.6c0,1-0.4,1.9-1.1,2.6c-0.7,0.7-1.6,1.1-2.6,1.1s-1.9-0.4-2.6-1.1
		c-0.7-0.7-1-1.6-1-2.6c0-1,0.3-1.9,1-2.6C916,121.8,916.8,121.5,917.8,121.5z"/>
	<path d="M936.3,121.5c1,0,1.9,0.4,2.6,1c0.7,0.7,1.1,1.6,1.1,2.6c0,1-0.4,1.9-1.1,2.6c-0.7,0.7-1.6,1.1-2.6,1.1s-1.9-0.4-2.6-1.1
		c-0.7-0.7-1.1-1.6-1.1-2.6c0-1,0.3-1.9,1.1-2.6C934.4,121.8,935.2,121.5,936.3,121.5z"/>
	<path d="M954.7,121.5c1,0,1.9,0.4,2.6,1c0.7,0.7,1.1,1.6,1.1,2.6c0,1-0.4,1.9-1.1,2.6c-0.7,0.7-1.6,1.1-2.6,1.1
		c-1,0-1.9-0.4-2.6-1.1c-0.7-0.7-1-1.6-1-2.6c0-1,0.3-1.9,1-2.6C952.8,121.8,953.6,121.5,954.7,121.5z"/>
</g>
</svg>
