<?xml version="1.0" encoding="utf-8"?>
<!-- Generator: Adobe Illustrator 25.4.1, SVG Export Plug-In . SVG Version: 6.00 Build 0)  -->
<!DOCTYPE svg PUBLIC "-//W3C//DTD SVG 1.1//EN" "http://www.w3.org/Graphics/SVG/1.1/DTD/svg11.dtd" [
	<!ENTITY ns_extend "http://ns.adobe.com/Extensibility/1.0/">
	<!ENTITY ns_ai "http://ns.adobe.com/AdobeIllustrator/10.0/">
	<!ENTITY ns_graphs "http://ns.adobe.com/Graphs/1.0/">
	<!ENTITY ns_vars "http://ns.adobe.com/Variables/1.0/">
	<!ENTITY ns_imrep "http://ns.adobe.com/ImageReplacement/1.0/">
	<!ENTITY ns_sfw "http://ns.adobe.com/SaveForWeb/1.0/">
	<!ENTITY ns_custom "http://ns.adobe.com/GenericCustomNamespace/1.0/">
	<!ENTITY ns_adobe_xpath "http://ns.adobe.com/XPath/1.0/">
]>
<svg version="1.1" id="Capa_1" xmlns:x="&ns_extend;" xmlns:i="&ns_ai;" xmlns:graph="&ns_graphs;"
	 xmlns="http://www.w3.org/2000/svg" xmlns:xlink="http://www.w3.org/1999/xlink" x="0px" y="0px" viewBox="0 0 1242 2208"
	 style="enable-background:new 0 0 1242 2208;" xml:space="preserve">
<style type="text/css">
	.st0{fill:#FFFFFF;}
	.st1{enable-background:new    ;}
</style>
<metadata>
	<sfw  xmlns="&ns_sfw;">
		<slices></slices>
		<sliceSourceBounds  bottomLeftOrigin="true" height="679.3" width="928" x="149.4" y="699.2"></sliceSourceBounds>
	</sfw>
</metadata>
<g>
	<path class="st0" d="M516.5,1080c69.7,0,139.3,0,209,0c0,95,0,190,0,285.1c-69.7,0-139.3,0-209,0C516.5,1270,516.5,1175,516.5,1080
		z M611.7,1195.4c0-0.8,0-1.5,0-2.2c0-13.4,0-26.8,0-40.2c0-4.2-1.2-7.9-3.8-11.2c-4.4-5.3-10-7.8-16.8-6.4
		c-9,1.8-14.3,8.7-14.3,17.9c0,21.2,0,42.4,0,63.6c0,1.2-0.3,1.9-1.3,2.6c-3.7,2.3-7.3,4.8-10.9,7.2c-11,7.6-16.3,18-15,31.3
		c0.7,7.2,3.2,13.9,5.8,20.6c6.7,17.3,16.5,32.6,29.6,45.9c0.5,0.6,0.9,1.5,0.9,2.3c0.1,5.7,0,11.3,0,17c0,3.4,1.4,4.8,4.8,4.8
		c8,0,16,0,24,0c18.8,0,37.6,0,56.4,0c3.5,0,4.8-1.3,4.8-4.7c0-5.8,0-11.6,0-17.3c0-0.9,0.3-2,0.8-2.8c11-17.5,16.9-36.5,17.4-57.2
		c0.3-11.6,0.1-23.2,0.1-34.8c0-2.3,0.1-4.6-0.3-6.9c-1.7-9.4-10.4-15.5-19.8-13.8c-2.7,0.5-5.3,1.7-8.1,2.6
		c-1.8-5.2-5.4-9.3-11.1-11.2c-5.7-1.9-11.2-0.9-16.1,2.4C632.2,1192.6,625.1,1190,611.7,1195.4z M549.3,1099.5
		c-1.7,0.2-2.9,1-3.5,2.4c-0.7,1.5-0.5,3,0.7,4.2c6.8,6.9,13.7,13.7,20.6,20.5c1.7,1.7,3.9,1.6,5.4,0c1.5-1.5,1.4-3.8-0.3-5.4
		c-6.7-6.7-13.5-13.5-20.2-20.1C551.2,1100.3,550.2,1100,549.3,1099.5z M640.1,1099.5c-0.9,0.4-1.9,0.7-2.6,1.4
		c-6.9,6.8-13.8,13.6-20.6,20.5c-1,1.1-1.5,2.3-0.9,3.8c1.1,2.8,4.1,3.3,6.4,1.1c4.3-4.3,8.7-8.6,13-12.9c2.5-2.4,4.9-4.9,7.4-7.4
		c1.2-1.2,1.4-2.7,0.8-4.2C643,1100.5,641.8,1099.8,640.1,1099.5z M598.3,1105.2c0-2.9,0-5.8,0-8.7c0-2.4-1.5-4-3.6-4
		c-2.1-0.1-3.8,1.7-3.8,4c0,5.8,0,11.7,0,17.5c0,2.4,1.7,4,3.8,4s3.6-1.6,3.6-4C598.3,1111.1,598.3,1108.2,598.3,1105.2z
		 M548.8,1152.4c2.9,0,5.8,0,8.7,0c2.4,0,4-1.4,4.1-3.5c0.1-2.2-1.5-3.9-3.9-3.9c-5.9-0.1-11.8-0.1-17.6,0c-2.4,0-4.1,1.8-4,3.9
		s1.7,3.5,4.1,3.5C543,1152.5,545.9,1152.4,548.8,1152.4z M640.3,1152.4c3,0,6.1,0,9.1,0c2.2,0,3.7-1.4,3.8-3.4
		c0.1-2.1-1.3-3.9-3.5-3.9c-6.1-0.1-12.2-0.1-18.3,0c-2.2,0-3.8,1.9-3.7,3.8c0.1,2.1,1.6,3.5,3.9,3.5
		C634.5,1152.5,637.4,1152.4,640.3,1152.4z"/>
	<path d="M611.7,1195.4c13.4-5.4,20.4-2.9,27,9.7c5-3.4,10.4-4.4,16.1-2.4c5.7,1.9,9.3,6,11.1,11.2c2.8-0.9,5.4-2.1,8.1-2.6
		c9.3-1.7,18,4.4,19.8,13.8c0.4,2.2,0.3,4.6,0.3,6.9c0,11.6,0.2,23.2-0.1,34.8c-0.5,20.6-6.4,39.7-17.4,57.2
		c-0.5,0.8-0.8,1.9-0.8,2.8c-0.1,5.8,0,11.6,0,17.3c0,3.4-1.4,4.7-4.8,4.7c-18.8,0-37.6,0-56.4,0c-8,0-16,0-24,0
		c-3.4,0-4.8-1.4-4.8-4.8c0-5.7,0-11.3,0-17c0-0.8-0.4-1.8-0.9-2.3c-13-13.2-22.9-28.5-29.6-45.9c-2.6-6.7-5.1-13.5-5.8-20.6
		c-1.3-13.3,3.9-23.8,15-31.3c3.6-2.5,7.2-4.9,10.9-7.2c1-0.7,1.3-1.4,1.3-2.6c0-21.2,0-42.4,0-63.6c0-9.2,5.3-16.1,14.3-17.9
		c6.8-1.4,12.4,1.1,16.8,6.4c2.7,3.2,3.8,7,3.8,11.2c0,13.4,0,26.8,0,40.2C611.7,1193.9,611.7,1194.6,611.7,1195.4z M576.7,1227.6
		c-3.4,2.3-6.7,4.3-9.7,6.5c-6.4,4.8-9.8,11.2-10.3,19.2c-0.3,5,1.2,9.6,2.7,14.3c6.2,20.5,17,38.2,32.3,53.2c1.2,1.2,1.7,2.4,1.7,4
		c0,4.8,0.1,9.7-0.1,14.5c0,1.7,0.4,2.2,2.1,2.2c21.7-0.1,43.4,0,65.1,0c2.6,0,5.1,0,7.8,0c0-5.6-0.1-10.9,0.1-16.2
		c0-1.4,0.5-2.9,1.2-4.1c10.3-15.9,16.2-33.3,16.8-52.2c0.5-13.6,0.3-27.1,0.2-40.7c0-6-4.9-9.6-8.8-9.8
		c-6.9-0.4-11.2,3.9-11.2,10.8c0,4.2,0,8.4,0,12.6c0,2.5-1.7,4-4.1,3.8c-2-0.2-3.3-1.7-3.3-4.1c0-7.3,0-14.6,0-21.9
		c0-1.1-0.1-2.1-0.4-3.1c-1.2-4.7-5.7-7.7-10.7-7.3c-4.6,0.4-8.4,4.3-8.8,9c-0.1,1.6-0.1,3.2-0.1,4.9c0,6.1,0,12.1,0,18.2
		c0,2.9-1.6,4.5-4.1,4.4c-2.1-0.2-3.4-1.7-3.4-4.4c0-10.2,0-20.3,0-30.4c0-2.2-0.4-4.3-1.6-6.2c-2.6-3.9-7-5.3-11.7-3.9
		c-3.8,1.2-6.6,5.1-6.7,9.5c0,9.7,0,19.3,0,28.9c0,1.1,0.1,2.2-0.1,3.4c-0.2,1.9-1.8,3.2-3.7,3.2c-2,0-3.5-1.4-3.7-3.4
		c0-0.5,0-1,0-1.5c0-20.8,0-41.5,0-62.2c0-8.5-0.1-17.1,0-25.6c0.1-6.5-5.3-10.9-10.8-10.3c-5.4,0.5-9.3,4.8-9.3,10.5
		c0,23.8,0,47.7,0,71.5c0,11.7,0,23.3,0,35c0,1-0.2,2-0.7,2.8c-0.8,1.3-2.6,1.8-4.2,1.3c-1.5-0.5-2.5-1.9-2.5-3.8
		c0-6.7,0-13.5,0-20.2C576.7,1235.8,576.7,1231.9,576.7,1227.6z"/>
	<path d="M549.3,1099.5c0.9,0.5,1.9,0.8,2.6,1.5c6.8,6.7,13.5,13.4,20.2,20.1c1.6,1.6,1.7,3.9,0.3,5.4c-1.5,1.6-3.7,1.6-5.4,0
		c-6.9-6.8-13.7-13.7-20.6-20.5c-1.2-1.2-1.4-2.6-0.7-4.2C546.4,1100.4,547.5,1099.7,549.3,1099.5z"/>
	<path d="M640.1,1099.5c1.7,0.2,2.9,0.9,3.5,2.4s0.5,3-0.8,4.2c-2.5,2.5-4.9,4.9-7.4,7.4c-4.3,4.3-8.6,8.6-13,12.9
		c-2.2,2.2-5.3,1.7-6.4-1.1c-0.6-1.5-0.2-2.8,0.9-3.8c6.8-6.9,13.7-13.7,20.6-20.5C638.2,1100.2,639.2,1100,640.1,1099.5z"/>
	<path d="M598.3,1105.2c0,2.9,0,5.8,0,8.7c0,2.4-1.5,4-3.6,4c-2.2,0-3.8-1.6-3.8-4c0-5.8,0-11.7,0-17.5c0-2.4,1.7-4.1,3.8-4
		s3.6,1.6,3.6,4C598.3,1099.4,598.3,1102.3,598.3,1105.2z"/>
	<path d="M548.8,1152.4c-2.9,0-5.8,0-8.7,0c-2.4,0-4-1.4-4.1-3.5s1.6-3.8,4-3.9c5.9-0.1,11.8-0.1,17.6,0c2.4,0,4,1.7,3.9,3.9
		c-0.1,2.1-1.6,3.5-4.1,3.5C554.7,1152.5,551.8,1152.4,548.8,1152.4z"/>
	<path d="M640.3,1152.4c-2.9,0-5.8,0-8.8,0c-2.3,0-3.8-1.4-3.9-3.5c-0.1-2,1.5-3.8,3.7-3.8c6.1-0.1,12.2-0.1,18.3,0
		c2.2,0,3.6,1.8,3.5,3.9s-1.5,3.4-3.8,3.4C646.4,1152.5,643.3,1152.4,640.3,1152.4z"/>
	<path class="st0" d="M576.7,1227.6c0,4.3,0,8.2,0,12.1c0,6.7,0,13.5,0,20.2c0,1.9,1,3.3,2.5,3.8c1.6,0.5,3.4,0.1,4.2-1.3
		c0.5-0.8,0.7-1.9,0.7-2.8c0-11.7,0-23.3,0-35c0-23.8,0-47.7,0-71.5c0-5.7,3.9-10,9.3-10.5c5.5-0.5,10.9,3.8,10.8,10.3
		c-0.1,8.5,0,17.1,0,25.6c0,20.8,0,41.5,0,62.2c0,0.5,0,1,0,1.5c0.2,2,1.7,3.4,3.7,3.4c1.9,0,3.5-1.3,3.7-3.2
		c0.1-1.1,0.1-2.2,0.1-3.4c0-9.7,0-19.3,0-28.9c0-4.4,2.8-8.3,6.7-9.5c4.7-1.4,9.1,0.1,11.7,3.9c1.3,1.9,1.7,4,1.6,6.2
		c0,10.2,0,20.3,0,30.4c0,2.7,1.3,4.2,3.4,4.4c2.5,0.2,4.1-1.5,4.1-4.4c0-6.1,0-12.1,0-18.2c0-1.6,0-3.3,0.1-4.9
		c0.3-4.7,4.1-8.5,8.8-9c5-0.5,9.5,2.6,10.7,7.3c0.3,1,0.4,2.1,0.4,3.1c0,7.3,0,14.6,0,21.9c0,2.4,1.3,3.9,3.3,4.1
		c2.4,0.2,4.1-1.4,4.1-3.8c0-4.2,0-8.4,0-12.6c0-6.9,4.3-11.2,11.2-10.8c4,0.2,8.8,3.9,8.8,9.8c0.1,13.6,0.2,27.2-0.2,40.7
		c-0.6,18.9-6.6,36.3-16.8,52.2c-0.7,1.2-1.2,2.7-1.2,4.1c-0.1,5.3-0.1,10.6-0.1,16.2c-2.7,0-5.3,0-7.8,0c-21.7,0-43.4,0-65.1,0
		c-1.7,0-2.2-0.5-2.1-2.2c0.1-4.8,0-9.7,0.1-14.5c0-1.6-0.5-2.9-1.7-4c-15.2-15-26-32.7-32.3-53.2c-1.4-4.7-3-9.3-2.7-14.3
		c0.5-7.9,3.9-14.4,10.3-19.2C570.1,1231.9,573.3,1229.9,576.7,1227.6z"/>
</g>
<g class="st1">
	<path d="M419.8,1498.3v-35.8h4.7v14.7h18.6v-14.7h4.7v35.8h-4.7v-16.9h-18.6v16.9H419.8z"/>
	<path d="M472.1,1495.2c-1.6,1.4-3.2,2.4-4.7,2.9c-1.5,0.6-3.1,0.8-4.9,0.8c-2.9,0-5-0.7-6.6-2.1s-2.3-3.2-2.3-5.3
		c0-1.3,0.3-2.4,0.9-3.5s1.3-1.9,2.3-2.5c0.9-0.6,2-1.1,3.2-1.4c0.9-0.2,2.2-0.4,3.9-0.7c3.5-0.4,6.2-0.9,7.8-1.5c0-0.6,0-1,0-1.2
		c0-1.8-0.4-3.1-1.2-3.8c-1.1-1-2.8-1.5-5-1.5c-2.1,0-3.6,0.4-4.6,1.1s-1.7,2-2.2,3.8l-4.3-0.6c0.4-1.8,1-3.3,1.9-4.5
		c0.9-1.1,2.2-2,3.9-2.6s3.6-0.9,5.9-0.9c2.2,0,4,0.3,5.4,0.8s2.4,1.2,3,2s1.1,1.8,1.4,3c0.1,0.8,0.2,2.1,0.2,4.1v5.9
		c0,4.1,0.1,6.7,0.3,7.8s0.6,2.1,1.1,3.1h-4.6C472.5,1497.4,472.2,1496.4,472.1,1495.2z M471.7,1485.3c-1.6,0.7-4,1.2-7.2,1.7
		c-1.8,0.3-3.1,0.6-3.8,0.9s-1.3,0.8-1.7,1.4c-0.4,0.6-0.6,1.3-0.6,2.1c0,1.2,0.4,2.2,1.3,2.9c0.9,0.8,2.2,1.2,3.9,1.2
		c1.7,0,3.2-0.4,4.5-1.1s2.3-1.8,2.9-3c0.5-1,0.7-2.5,0.7-4.4L471.7,1485.3L471.7,1485.3z"/>
	<path d="M480.7,1498.3v-3.6l16.5-18.9c-1.9,0.1-3.5,0.2-5,0.2h-10.6v-3.6h21.2v2.9l-14,16.5l-2.7,3c2-0.2,3.8-0.2,5.5-0.2h12v3.8
		L480.7,1498.3L480.7,1498.3z"/>
	<path d="M538.8,1488.8l4.3,0.6c-0.5,3-1.7,5.3-3.6,7c-2,1.7-4.3,2.5-7.2,2.5c-3.5,0-6.4-1.2-8.6-3.5s-3.2-5.6-3.2-10
		c0-2.8,0.5-5.2,1.4-7.3c0.9-2.1,2.3-3.7,4.2-4.7c1.9-1.1,4-1.6,6.2-1.6c2.8,0,5.1,0.7,6.9,2.1s2.9,3.4,3.4,6.1l-4.3,0.7
		c-0.4-1.7-1.1-3.1-2.2-3.9c-1.1-0.8-2.3-1.3-3.8-1.3c-2.2,0-4,0.8-5.4,2.4s-2.1,4.1-2.1,7.5c0,3.5,0.7,6,2,7.6
		c1.3,1.6,3.1,2.4,5.2,2.4c1.7,0,3.2-0.5,4.3-1.6C537.7,1492.7,538.5,1491.1,538.8,1488.8z"/>
	<path d="M546.8,1498.3v-35.8h4.4v35.8H546.8z"/>
	<path d="M558,1467.6v-5.1h4.4v5.1H558z M558,1498.3v-25.9h4.4v25.9H558z"/>
	<path d="M586,1488.8l4.3,0.6c-0.5,3-1.7,5.3-3.6,7c-2,1.7-4.3,2.5-7.2,2.5c-3.5,0-6.4-1.2-8.6-3.5s-3.2-5.6-3.2-10
		c0-2.8,0.5-5.2,1.4-7.3c0.9-2.1,2.3-3.7,4.2-4.7c1.9-1.1,4-1.6,6.2-1.6c2.8,0,5.1,0.7,6.9,2.1s2.9,3.4,3.4,6.1l-4.3,0.7
		c-0.4-1.7-1.1-3.1-2.2-3.9c-1.1-0.8-2.3-1.3-3.8-1.3c-2.2,0-4,0.8-5.4,2.4s-2.1,4.1-2.1,7.5c0,3.5,0.7,6,2,7.6
		c1.3,1.6,3.1,2.4,5.2,2.4c1.7,0,3.2-0.5,4.3-1.6C585,1492.7,585.7,1491.1,586,1488.8z"/>
	<path d="M594.1,1498.3v-35.8h4.4v20.4l10.4-10.6h5.7l-9.9,9.6l10.9,16.3h-5.4l-8.6-13.3l-3.1,3v10.3L594.1,1498.3L594.1,1498.3z"/>
	<path d="M632.8,1508.3l-0.5-4.1c1,0.3,1.8,0.4,2.5,0.4c1,0,1.8-0.2,2.3-0.5c0.6-0.3,1.1-0.8,1.4-1.4c0.3-0.4,0.7-1.5,1.3-3.3
		c0.1-0.2,0.2-0.6,0.4-1.1l-9.8-26h4.7l5.4,15c0.7,1.9,1.3,3.9,1.9,6c0.5-2,1.1-4,1.8-5.9l5.5-15.1h4.4l-9.9,26.4
		c-1.1,2.8-1.9,4.8-2.5,5.9c-0.8,1.4-1.7,2.5-2.7,3.2s-2.2,1-3.6,1C634.8,1508.9,633.8,1508.7,632.8,1508.3z"/>
	<path d="M688.7,1498.3v-3.3c-1.6,2.6-4.1,3.9-7.2,3.9c-2.1,0-4-0.6-5.7-1.7s-3.1-2.7-4-4.8s-1.4-4.4-1.4-7s0.4-4.9,1.3-7
		c0.9-2.1,2.2-3.7,3.9-4.8c1.7-1.1,3.7-1.7,5.8-1.7c1.6,0,3,0.3,4.2,1s2.2,1.5,3,2.6v-12.8h4.4v35.8L688.7,1498.3L688.7,1498.3z
		 M674.8,1485.4c0,3.3,0.7,5.8,2.1,7.4c1.4,1.6,3,2.5,5,2.5c1.9,0,3.5-0.8,4.9-2.4c1.3-1.6,2-4,2-7.2c0-3.6-0.7-6.2-2-7.8
		s-3-2.5-5-2.5s-3.6,0.8-4.9,2.4C675.5,1479.5,674.8,1482,674.8,1485.4z"/>
	<path d="M717.4,1490l4.5,0.6c-0.7,2.7-2,4.7-4,6.2c-1.9,1.5-4.4,2.2-7.4,2.2c-3.8,0-6.8-1.2-9-3.5s-3.3-5.6-3.3-9.8
		c0-4.4,1.1-7.8,3.4-10.2s5.2-3.6,8.7-3.6s6.3,1.2,8.5,3.5s3.3,5.7,3.3,10c0,0.3,0,0.7,0,1.2h-19.3c0.2,2.8,1,5,2.4,6.5
		s3.2,2.3,5.4,2.3c1.6,0,3-0.4,4.1-1.3C715.8,1493.2,716.8,1491.9,717.4,1490z M703,1482.9h14.5c-0.2-2.2-0.8-3.8-1.7-4.9
		c-1.4-1.7-3.2-2.5-5.4-2.5c-2,0-3.7,0.7-5.1,2C703.9,1478.8,703.1,1480.6,703,1482.9z"/>
	<path d="M725.7,1490.6l4.3-0.7c0.2,1.7,0.9,3.1,2,4s2.7,1.4,4.7,1.4s3.5-0.4,4.5-1.2c1-0.8,1.5-1.8,1.5-2.9c0-1-0.4-1.8-1.3-2.3
		c-0.6-0.4-2.1-0.9-4.5-1.5c-3.2-0.8-5.5-1.5-6.7-2.1s-2.2-1.4-2.8-2.5s-1-2.2-1-3.5c0-1.2,0.3-2.2,0.8-3.2s1.2-1.8,2.2-2.4
		c0.7-0.5,1.6-0.9,2.8-1.3s2.5-0.5,3.8-0.5c2,0,3.8,0.3,5.4,0.9s2.7,1.4,3.4,2.4s1.2,2.3,1.5,4l-4.3,0.6c-0.2-1.3-0.8-2.4-1.7-3.1
		c-0.9-0.8-2.3-1.1-4-1.1c-2,0-3.5,0.3-4.3,1s-1.3,1.4-1.3,2.3c0,0.6,0.2,1.1,0.5,1.5c0.4,0.5,0.9,0.9,1.7,1.2
		c0.4,0.2,1.7,0.5,3.9,1.1c3.1,0.8,5.3,1.5,6.5,2s2.2,1.3,2.9,2.3s1,2.3,1,3.8s-0.4,2.8-1.3,4.1c-0.8,1.3-2.1,2.3-3.7,3
		s-3.4,1.1-5.5,1.1c-3.4,0-5.9-0.7-7.7-2.1C727.3,1495.4,726.2,1493.4,725.7,1490.6z"/>
	<path d="M752.4,1498.3v-35.8h4.4v35.8H752.4z"/>
	<path d="M763.6,1467.6v-5.1h4.4v5.1H763.6z M763.6,1498.3v-25.9h4.4v25.9H763.6z"/>
	<path d="M772.4,1498.3v-3.6l16.5-18.9c-1.9,0.1-3.5,0.2-5,0.2h-10.6v-3.6h21.2v2.9l-14,16.5l-2.7,3c2-0.2,3.8-0.2,5.5-0.2h12v3.8
		L772.4,1498.3L772.4,1498.3z"/>
	<path d="M816.6,1495.2c-1.6,1.4-3.2,2.4-4.7,2.9s-3.1,0.8-4.8,0.8c-2.8,0-5-0.7-6.6-2.1s-2.3-3.2-2.3-5.3c0-1.3,0.3-2.4,0.9-3.5
		c0.6-1.1,1.3-1.9,2.3-2.5c0.9-0.6,2-1.1,3.2-1.4c0.9-0.2,2.2-0.4,3.9-0.7c3.5-0.4,6.2-0.9,7.8-1.5c0-0.6,0-1,0-1.2
		c0-1.8-0.4-3.1-1.2-3.8c-1.1-1-2.8-1.5-5-1.5c-2.1,0-3.6,0.4-4.6,1.1s-1.7,2-2.2,3.8l-4.3-0.6c0.4-1.8,1-3.3,1.9-4.5
		c0.9-1.1,2.2-2,3.9-2.6s3.7-0.9,5.9-0.9s4,0.3,5.4,0.8s2.4,1.2,3,2c0.7,0.8,1.1,1.8,1.4,3c0.2,0.8,0.2,2.1,0.2,4.1v5.9
		c0,4.1,0.1,6.7,0.3,7.8s0.6,2.1,1.1,3.1h-4.6C817,1497.4,816.7,1496.4,816.6,1495.2z M816.3,1485.3c-1.6,0.7-4,1.2-7.2,1.7
		c-1.8,0.3-3.1,0.6-3.8,0.9s-1.3,0.8-1.7,1.4s-0.6,1.3-0.6,2.1c0,1.2,0.4,2.2,1.3,2.9s2.2,1.2,3.9,1.2s3.2-0.4,4.5-1.1
		s2.3-1.8,2.9-3c0.5-1,0.7-2.5,0.7-4.4L816.3,1485.3L816.3,1485.3z"/>
</g>
<g>
	<path d="M273.6,841.5c-0.3,16-13.2,33.9-55.5,43.5c-9.6,20-14.1,48.7-30.9,66.5c0,0,14.3,1,28.4,4.6c42.2,11,63.3,3.1,72.5-11.4
		c-5.4,12.2-17.2,15.4-25.3,16.8c-18.2,3.1-34.8-0.6-54.4-5c-4-1-19.3-4-23.8-2.5c-7.5,5.3-13.6,7.4-16.8,8.5
		c-6,1.9-10.3-0.7-8.8-3.9c1.4-3.2,8.5-5.7,19.5-6.5c14.7-9.6,21.6-43.5,30.6-65c-34.1,8.9-49.9,21-59.7,32.8
		c12.1-19.2,37.6-28.7,60.8-34.9c9-22.1,21.3-40.2,35.8-49.8C254.8,829.4,273.9,823.7,273.6,841.5z M163.1,957.9
		c-1.5,1.1-0.1,1.7,0.4,1.5c2.8-0.6,11.8-4.5,11.8-5.3C171.1,954.5,165.6,956.1,163.1,957.9z M251.9,838.9
		c-14.2,10.6-25.6,28.5-32.8,44c2.5-0.7,5-1.4,7.7-2.1c29.8-7.9,41.2-22.8,43.8-34.2C273.5,833,265.7,828.6,251.9,838.9z"/>
	<path d="M257.2,938.3c7.9-11.7,17.7-31.6,24.5-33.1c-7,7.9-8.8,11.5-12.8,17.9c-7.7,12.4-11.8,20.7-16.3,20
		c-5-0.8-9.6-7.4-4.5-21.4c0.1-0.6,0.4-1.1,0.6-1.7c-5.7,7-11.1,13.6-16.4,7.7c-5.4-6.1-0.1-17.1,4.9-21.7
		c3.6-3.3,10.4-6.3,17.7-4.5c8.1,2.1,1.9,2.1,1.9,2.1s-10.3-2.2-17.7,9.6c-5.4,8.8-2.4,16.7,1.9,12.7c2.4-2.2,7.5-8.8,11.5-13.9
		c2.1-3.3,4.3-7.4,6.4-7.4c2.1-0.1,7.2,0.6,2.6,6.4C249,927.5,248.7,950.7,257.2,938.3z"/>
	<path d="M327.2,916.2c-3.6,4.9-6.3,10.9-4.6,17.8c0.7,3.3,5.8,5.7,11.8,1.8c11.5-7.5,22-26,30.9-30.5c-6.4,5.3-13.2,16.4-23.2,26.2
		c-9.2,8.9-16,11.1-21.7,6.4c-6.7-5.6-4.5-19.2,1.1-26c6.4-7.9,14.2-12.1,21.4-10c7.7,2.1,4.9,8.5,2.6,11.7
		c-2.2,3.2-5.4,6.1-8.5,3.6s1.1-5.1,1.9-4.9c0.8,0.3,3.6,0,5.6-2.2c2.6-2.9,0.4-5.3-2.9-4.7C339.5,905.6,333.7,907.4,327.2,916.2z"
		/>
	<path d="M365,897.7c6.3-0.1,11.3,3.6,11.3,13.5c0,2.9-0.7,7-1.8,10.9c1.9-0.8,4-2.1,6.1-3.8c8.3-6.7,10.3-13.4,14.6-12.9
		c-4.6,3.5-8.5,11.5-16.3,16.3c-1.5,1-3.2,1.7-5,2.2c-3.1,9.3-9,18.6-15.9,18.4c-9.7-0.3-10.4-13.1-5.8-22.1
		c0.6-1.1,1.1-2.2,1.7-3.2C348.2,906.2,357.3,897.8,365,897.7z M358.5,922.2c-1.4,2.5-2.5,5-3.2,7.5c-1.8,6.8,1.7,14.2,7.7,8.9
		c2.9-2.6,6.3-8.1,8.6-14.2C366.9,925.2,362.2,924.8,358.5,922.2z M362.9,905.4c3.8-0.6,4.2,3.1,3.9,5.1c0,0.1-4,4.5-7.4,10
		c3.2,2.5,7.8,3.5,12.8,2.2c2.9-8.3,3.8-17.4-1.1-21.4c-6.5-5.6-14.3,0.8-15.7,5.6c-0.7,2.6-0.7,5.3,0,7.5
		C358.9,908.7,361.8,905.5,362.9,905.4z"/>
	<path d="M395.9,906.5c-0.6,1.9-0.6,4.9,1.3,7.9c2.5,4.3,5.1,7.9,6.3,11.3c13.9-6.8,17.2-10.9,24.3-20.2
		c-3.1,9.5-12.8,16.3-23.9,21.6c2.1,6.5,1.8,11.8-2.4,18.4c-7.1,11.3-22.3,14.9-27.1,8.9c-6.7-8.3,3.9-17.4,19.3-24.3
		c2.2-1,4-1.9,5.8-2.8c-0.4-2.6-1.5-5.3-3.3-8.2c-6.7-10.4-5.6-11.7-5.4-14.1c0.3-4.5,5.6-9,5.6-9c3.1-2.2,3.9,2.2,3.2,4.9
		C398,902.6,396.4,904.7,395.9,906.5z M397.7,929.4c-12.9,5.6-24.3,12.9-23.4,20c0.7,4.9,4.9,6.4,10,3.5
		c5.3-2.9,16.6-12.1,15.4-24.2C399.1,929,398.4,929.1,397.7,929.4z"/>
	<path d="M445.4,938.3c7.9-11.7,17.7-31.6,24.5-33.1c-7,7.9-8.8,11.5-12.8,17.9c-7.7,12.4-11.8,20.7-16.3,20
		c-5-0.8-9.6-7.4-4.5-21.4c0.1-0.6,0.4-1.1,0.6-1.7c-5.7,7-11.1,13.6-16.4,7.7c-5.4-6.1-0.1-17.1,4.9-21.7
		c3.6-3.3,10.4-6.3,17.7-4.5c8.1,2.1,1.9,2.1,1.9,2.1s-10.3-2.2-17.7,9.6c-5.4,8.8-2.4,16.7,1.9,12.7c2.4-2.2,7.5-8.8,11.5-13.9
		c2.1-3.3,4.3-7.4,6.4-7.4c2.1-0.1,7.2,0.6,2.6,6.4C437.2,927.5,436.9,950.7,445.4,938.3z"/>
	<path d="M520.1,906.5c-0.6,1.9-0.6,4.9,1.3,7.9c2.5,4.3,5.1,7.9,6.3,11.3c13.9-6.8,17.2-10.9,24.3-20.2
		c-3.1,9.5-12.8,16.3-23.9,21.6c2.1,6.5,1.8,11.8-2.4,18.4c-7.1,11.3-22.3,14.9-27.1,8.9c-6.7-8.3,3.9-17.4,19.3-24.3
		c2.2-1,4-1.9,5.8-2.8c-0.4-2.6-1.5-5.3-3.3-8.2c-6.7-10.4-5.6-11.7-5.4-14.1c0.3-4.5,5.6-9,5.6-9c3.1-2.2,3.9,2.2,3.2,4.9
		C522.2,902.6,520.7,904.7,520.1,906.5z M521.9,929.4c-12.9,5.6-24.3,12.9-23.4,20c0.7,4.9,4.9,6.4,10,3.5
		c5.3-2.9,16.6-12.1,15.4-24.2C523.3,929,522.6,929.1,521.9,929.4z"/>
	<path d="M546.8,919.4c-2.2,10.7,3.6,14.9,9.7,12.4c10.3-4,20-26.6,27.3-26.4c-7.1,6.5-7.7,8.6-12.5,14.9
		c-6.4,8.2-13.1,15.3-21,14.5c-10.4-1.1-11.7-14.2-9-20.3c2.8-6.4,8.3-13.6,17.1-14.2c7.2-0.4,10,6.4,3.1,12.2
		c-4.2,3.5-10.3,5.1-14.3,5.8C547.1,918.6,546.8,919.1,546.8,919.4z M552.8,915.4c11.3-3.8,13.2-12.2,7.4-10.9
		c0,0-9.2,1.1-12.7,12.2C548.9,916.5,550.8,916.1,552.8,915.4z"/>
	<path d="M576.6,993c-1.3-18.4,32.4-48.6,37.8-53.4c2.1-1.9,3.9-3.5,5.1-4.3c2.4-7.9,4-13.9,4.7-15.7c4.5-12.9,7.2-14.7,8.9-14.1
		c2.4,1.1,2.2,3.9,0.8,8.2c4.5-5.4,10.3-10.7,18.1-10.9c9.6-0.3,12.4,9,9.2,19.8c7.4-2.5,14.6-6.7,21.1-16.8
		c-3.5,11-12.1,15.2-21.6,18.2c-1.1,3.2-2.9,6.8-5.3,10c-10.2,14.5-23.2,12.7-24.9,7.9c-1.4-4,1.4-7.7,5.6-10.4
		c6-3.9,12.1-5.3,18.2-7c3.3-8.6,4-18.9-2.1-19.5c-8.1-0.8-15,6.4-19.9,12.9c-2.2,5.7-5.6,13.2-8.2,22c-4.9,16.3-11.5,35.9-20,49
		C593.1,1006.1,577.4,1005.7,576.6,993z M610.2,946.3c-11.5,10.7-19.5,19.8-26.4,31.3c-7.5,12.5-6.3,23,0.7,22.4
		c14.3-1.4,27.3-38.7,34.4-62.2C617.1,939.7,614.4,942.5,610.2,946.3z M637.7,932.5c-5,3.2-6.1,7.4-5,9.2c2.9,4.7,11.8-1,17.8-9.6
		c1.3-1.7,2.4-3.6,3.3-5.8C647.9,927.9,642.4,929.6,637.7,932.5z"/>
	<path d="M681.8,905.5c5-1.1,7.8,1.8,2.5,11.8c-4.9,9.3,0.1,12.8,5.6,8.5c6.3-5,12.9-16.4,15.2-18.9c3.8-4.3,6-2.2,6.7,1.4
		c1.1,5-2.2,7.2-8.6,21.4c-5.8,12.8,1.7,14.6,9.3,5.7c12.2-14.3,15.4-28.5,24.3-29.9c-7.5,3.6-7.4,10.9-20.6,28.2
		c-3.6,4.7-10.4,12.9-17.7,7c-9.2-7.7,3.9-25.5,3.5-26.8c0,0-2.4,5.7-9.3,11.8c-7.4,6.5-13.9,3.1-15.9-1.3
		C674.4,919.3,680.1,913.6,681.8,905.5z"/>
	<path d="M737.3,906.5c-0.6,1.9-0.6,4.9,1.3,7.9c2.5,4.3,5.1,7.9,6.3,11.3c13.9-6.8,17.2-10.9,24.3-20.2
		c-3.1,9.5-12.8,16.3-23.9,21.6c2.1,6.5,1.8,11.8-2.4,18.4c-7.1,11.3-22.3,14.9-27.1,8.9c-6.7-8.3,3.9-17.4,19.3-24.3
		c2.2-1,4-1.9,5.8-2.8c-0.4-2.6-1.5-5.3-3.3-8.2c-6.7-10.4-5.6-11.7-5.4-14.1c0.3-4.5,5.6-9,5.6-9c3.1-2.2,3.9,2.2,3.2,4.9
		C739.3,902.6,737.8,904.7,737.3,906.5z M739.1,929.4c-12.9,5.6-24.3,12.9-23.4,20c0.7,4.9,4.9,6.4,10,3.5
		c5.3-2.9,16.6-12.1,15.4-24.2C740.5,929,739.8,929.1,739.1,929.4z"/>
	<path d="M770.5,897.7c6.3-0.1,11.3,3.6,11.3,13.5c0,2.9-0.7,7-1.8,10.9c1.9-0.8,4-2.1,6.1-3.8c8.3-6.7,10.3-13.4,14.6-12.9
		c-4.6,3.5-8.5,11.5-16.3,16.3c-1.5,1-3.2,1.7-5,2.2c-3.1,9.3-9,18.6-15.9,18.4c-9.7-0.3-10.4-13.1-5.8-22.1
		c0.6-1.1,1.1-2.2,1.7-3.2C753.7,906.2,762.9,897.8,770.5,897.7z M764,922.2c-1.4,2.5-2.5,5-3.2,7.5c-1.8,6.8,1.7,14.2,7.7,8.9
		c2.9-2.6,6.3-8.1,8.6-14.2C772.5,925.2,767.7,924.8,764,922.2z M768.4,905.4c3.8-0.6,4.2,3.1,3.9,5.1c0,0.1-4,4.5-7.4,10
		c3.2,2.5,7.8,3.5,12.8,2.2c2.9-8.3,3.8-17.4-1.1-21.4c-6.5-5.6-14.3,0.8-15.7,5.6c-0.7,2.6-0.7,5.3,0,7.5
		C764.4,908.7,767.3,905.5,768.4,905.4z"/>
	<path d="M850.8,906.5c-0.6,1.9-0.6,4.9,1.3,7.9c2.5,4.3,5.1,7.9,6.3,11.3c13.9-6.8,17.2-10.9,24.3-20.2
		c-3.1,9.5-12.8,16.3-23.9,21.6c2.1,6.5,1.8,11.8-2.4,18.4c-7.1,11.3-22.3,14.9-27.1,8.9c-6.7-8.3,3.9-17.4,19.3-24.3
		c2.2-1,4-1.9,5.8-2.8c-0.4-2.6-1.5-5.3-3.3-8.2c-6.7-10.4-5.6-11.7-5.4-14.1c0.3-4.5,5.6-9,5.6-9c3.1-2.2,3.9,2.2,3.2,4.9
		C852.9,902.6,851.3,904.7,850.8,906.5z M852.6,929.4c-12.9,5.6-24.3,12.9-23.4,20c0.7,4.9,4.9,6.4,10,3.5
		c5.3-2.9,16.6-12.1,15.4-24.2C854,929,853.3,929.1,852.6,929.4z"/>
	<path d="M877.5,919.4c-2.2,10.7,3.6,14.9,9.7,12.4c10.3-4,20-26.6,27.3-26.4c-7.1,6.5-7.7,8.6-12.5,14.9
		c-6.4,8.2-13.1,15.3-21,14.5c-10.4-1.1-11.7-14.2-9-20.3c2.8-6.4,8.3-13.6,17.1-14.2c7.2-0.4,10,6.4,3.1,12.2
		c-4.2,3.5-10.3,5.1-14.3,5.8C877.8,918.6,877.5,919.1,877.5,919.4z M883.5,915.4c11.3-3.8,13.2-12.2,7.4-10.9
		c0,0-9.2,1.1-12.7,12.2C879.6,916.5,881.5,916.1,883.5,915.4z"/>
	<path d="M917.8,906.6c9,5.7,12.1,12,4.3,23.4c-8.2,12-9.5,31.2,1.9,22c6.7-5.4,11.7-14.7,20-28.8c8.1-13.6,10-15.9,13.6-17.8
		c-1.1,2.1-7.4,10.6-11.5,18.1c-9.3,17-19.1,33.2-27.5,32.6c-8.5-0.7-12-12.5-6.4-23.6c6-12.2,12.8-17.1,1.9-24.1
		c-13.8-8.9-6.5-16-3.2-17.9c4-2.4,10-1.4,10,4.6c0,4.5-3.1,8.2-5.4,10.3C916.3,905.6,917,906,917.8,906.6z M913.8,891.7
		c-3.9,1.7-6,7.1,1,12.8c2.4-2.8,4-5.7,4.5-7.4C920.2,893.4,917,890.3,913.8,891.7z"/>
	<path d="M968.7,921.9c-6.4,8.5-11.4,13.8-16.8,12.1c-8.6-2.8-1.4-24.3,4.7-28.4c2.8-1.4,4.2,0.1,3.8,2.4c-0.6,3.5-4.3,8.6-5.8,14.7
		c-1.1,4.6-2.5,9.9,1,9.5c4.3-0.4,12.2-12.7,17.8-19.5c4.6-5.7,6-7.4,8.9-7.4C978.1,907.4,974.6,914.3,968.7,921.9z M962.1,899.8
		c-1.7-0.6-1.8-1.5-0.6-3.9c1.4-2.6,0.6-3.2,2.8-4.5c1.5-0.8,6.5-0.3,4.9,3.2C967.4,898.4,964,900.3,962.1,899.8z"/>
	<path d="M998.4,938.3c7.9-11.7,17.7-31.6,24.5-33.1c-7,7.9-8.8,11.5-12.8,17.9c-7.7,12.4-11.8,20.7-16.3,20
		c-5-0.8-9.6-7.4-4.5-21.4c0.1-0.6,0.4-1.1,0.6-1.7c-5.7,7-11.1,13.6-16.4,7.7c-5.4-6.1-0.1-17.1,4.9-21.7
		c3.6-3.3,10.4-6.3,17.7-4.5c8.1,2.1,1.9,2.1,1.9,2.1s-10.3-2.2-17.7,9.6c-5.4,8.8-2.4,16.7,1.9,12.7c2.4-2.2,7.5-8.8,11.5-13.9
		c2.1-3.3,4.3-7.4,6.4-7.4c2.1-0.1,7.2,0.6,2.6,6.4C990.2,927.5,989.9,950.7,998.4,938.3z"/>
	<path d="M1031.3,932.6c-1.8,1.8-4.5,1.3-4.9-1c-0.4-2.4,0.1-4.5,2.8-4.5C1032.5,927.2,1033.2,930.8,1031.3,932.6z"/>
	<path d="M1053.9,932.6c-1.8,1.8-4.5,1.3-4.9-1c-0.4-2.4,0.1-4.5,2.8-4.5C1055,927.2,1055.7,930.8,1053.9,932.6z"/>
	<path d="M1076.4,932.6c-1.8,1.8-4.5,1.3-4.9-1c-0.4-2.4,0.1-4.5,2.8-4.5C1077.5,927.2,1078.2,930.8,1076.4,932.6z"/>
</g>
</svg>
