<?xml version="1.0" encoding="utf-8"?>
<!-- Generator: Adobe Illustrator 25.4.1, SVG Export Plug-In . SVG Version: 6.00 Build 0)  -->
<!DOCTYPE svg PUBLIC "-//W3C//DTD SVG 1.1//EN" "http://www.w3.org/Graphics/SVG/1.1/DTD/svg11.dtd" [
	<!ENTITY ns_extend "http://ns.adobe.com/Extensibility/1.0/">
	<!ENTITY ns_ai "http://ns.adobe.com/AdobeIllustrator/10.0/">
	<!ENTITY ns_graphs "http://ns.adobe.com/Graphs/1.0/">
	<!ENTITY ns_vars "http://ns.adobe.com/Variables/1.0/">
	<!ENTITY ns_imrep "http://ns.adobe.com/ImageReplacement/1.0/">
	<!ENTITY ns_sfw "http://ns.adobe.com/SaveForWeb/1.0/">
	<!ENTITY ns_custom "http://ns.adobe.com/GenericCustomNamespace/1.0/">
	<!ENTITY ns_adobe_xpath "http://ns.adobe.com/XPath/1.0/">
]>
<svg version="1.1" id="regalo" xmlns:x="&ns_extend;" xmlns:i="&ns_ai;" xmlns:graph="&ns_graphs;"
	 xmlns="http://www.w3.org/2000/svg" xmlns:xlink="http://www.w3.org/1999/xlink" x="0px" y="0px" viewBox="0 0 1242 2208"
	 style="enable-background:new 0 0 1242 2208;" xml:space="preserve">
<style type="text/css">
	.st0{fill:none;stroke:#000000;stroke-width:1.5008;stroke-linecap:round;}
	.st1{fill:#49707F;}
	.st2{fill:none;}
	.st3{fill:#4C4B4B;}
	.st4{enable-background:new    ;}
	.st5{fill:#FFFFFF;}
	.st6{fill:#838283;}
</style>
<metadata>
	<sfw  xmlns="&ns_sfw;">
		<slices></slices>
		<sliceSourceBounds  bottomLeftOrigin="true" height="1807.4" width="3201.9" x="68" y="698.5"></sliceSourceBounds>
	</sfw>
</metadata>
<script  type="text/ecmascript">
	<![CDATA[
      function changerect(evt) {
        console.log("aaaaa")
		navigator.clipboard.writeText("ES4501823430040202189271").then(function() {
          /* Alert the copied text */
          alert("IBAN: ES45 0182 3430 0402 0218 9271");
        });
      }
		
		
		
		
		
		
		]]>
</script>
<line class="st0" x1="484.1" y1="-297.1" x2="628.8" y2="-297.1"/>
<g>
	<g>
		<g>
			<g>
				<g>
					<path class="st1" d="M487.4,697.5c12.1,16.6,35.2,12.8,53,9.4c14.4-2.7,29-4.6,43.7-4.3c7.2,0.1,14.8,0.6,22,2.4
						c3.4,0.8,6.9,1.9,9.4,4.5c3.7,4.5,3.7,8.9-0.1,13.4c-6.1,5-8.4,4.4-7-1.8c0.1,0.8,1.5,0.7,1.5-0.1c-0.4-9.5-16.2-0.7-6.2,5.8
						c11.3,7.2,21.3-9.6,14.1-18.2c-5.1-6.1-14.4-6.8-21.9-7.4c-12.8-1.2-25.8-1-38.5,0.7c-22.3,2.7-51.3,14.4-68.9-5.1
						C488,696.2,487,696.9,487.4,697.5L487.4,697.5z"/>
				</g>
				<g>
					<path class="st1" d="M585.8,711.7c1.1-5.8-7.6-4.3-5.9,1.1c2.7,9.6,16.4,1.7,17.9-4.4c3-10.9-9.6-17.9-19.5-18.2
						c-8.6-0.1-16.5,3.3-24.3,5.8c-4.8,1.5-9.6,2.9-14.7,2.9c-3.3,0-6.9-0.4-9.7-1.9c-1.1-0.7-2-1.2-3.2-1.9c-3.8-2.7-3.8-5,0-6.9
						c-0.8-1-2.4-0.1-1.8,1c2.7,6.1,11.8,1.7,8.9-4.3c-3.6-7-13.2-1.7-12.9,4.8c0.4,11.3,16.5,12.9,25.2,11.3
						c8.9-1.7,17-6.1,26.1-7.7c6.3-1.1,12.9-1,18.3,2.7c2.5,1.7,5.2,4.4,5.6,7.4c-0.4,2.4-0.8,4.6-1.2,7c-3.3,5.3-6.4,5.8-9.4,1.2
						C585,711.9,585.6,711.9,585.8,711.7L585.8,711.7z"/>
				</g>
			</g>
		</g>
	</g>
	<g>
		<g>
			<g>
				<g>
					<path class="st1" d="M761.8,697.1c-12.1,16.6-35.2,12.8-53,9.4c-14.4-2.7-29-4.6-43.7-4.3c-7.2,0.1-14.8,0.6-22,2.4
						c-3.4,0.8-6.9,1.9-9.4,4.5c-3.7,4.5-3.7,8.9,0.1,13.4c6.1,5,8.4,4.4,7-1.8c-0.1,0.8-1.5,0.7-1.5-0.1c0.4-9.5,16.2-0.7,6.2,5.8
						c-11.3,7.2-21.3-9.6-14.1-18.2c5.1-6.1,14.4-6.8,21.9-7.4c12.8-1.2,25.8-1,38.5,0.7c22.3,2.7,51.3,14.4,68.9-5.1
						C761.2,695.8,762.1,696.3,761.8,697.1L761.8,697.1z"/>
				</g>
				<g>
					<path class="st1" d="M663.4,711.1c-1.1-5.8,7.6-4.3,6.1,1.1c-2.7,9.6-16.4,1.7-17.9-4.4c-3-10.9,9.6-17.9,19.5-18.2
						c8.6-0.1,16.5,3.3,24.3,5.8c4.8,1.5,9.6,2.9,14.7,2.9c3.3,0,6.9-0.4,9.7-1.9c1.1-0.7,2-1.2,3.2-1.9c3.8-2.7,3.8-5,0-6.9
						c0.8-1,2.4-0.1,1.8,1c-2.7,6.1-11.8,1.7-8.9-4.3c3.6-7,13.2-1.7,12.9,4.8c-0.4,11.3-16.5,12.9-25.2,11.3
						c-8.9-1.7-17-6.1-26.1-7.7c-6.3-1.1-12.9-1-18.3,2.7c-2.5,1.7-5.2,4.4-5.6,7.4c0.4,2.4,0.8,4.6,1.2,7c3.3,5.3,6.4,5.8,9.4,1.2
						C664.1,711.4,663.5,711.4,663.4,711.1L663.4,711.1z"/>
				</g>
			</g>
		</g>
	</g>
</g>
<g>
	<path class="st1" d="M512.2,493.8c23.6-12.7,25.1-19,27.6-22.8c0.7-1.7,2.1-3.7,4.4-1.3c2.6,2.7,1.4,7.5,1.4,7.5
		s-8.7,17.9-16.3,35.3c5.7-7.4,17.7-21.5,30.3-28.3c9.3-5,22-7,27.9,0.2c7.6,9.5,2.7,25.1-8.7,38.6c-16.2,19-34.3,24-38.5,26.5
		c9,0.2,18.8,8.2,18.2,21c-0.5,12.8-7.1,18.6-7.4,32.2c-0.2,13.4,13.9,9.9,27.1-20.1c10.8-24.5,14.4-31.2,18.8-32
		c-8.6,5.3-21.4,61.6-41.5,61.4c-13.1,0-11.2-19.8-4.4-37.4c6.3-16.6-5.1-27-18.5-21.7c-13.3,5.1-10.3-3.9-10.3-3.9s2.6-0.6,7.2-2
		c4.6-1.4,14-3.7,25.4-11c19.5-12.5,28-24.5,31.1-38.8c3.4-16.7-10.1-18.1-22.6-12.5c-18.1,8.2-37.4,35.9-37.4,35.9l-0.8,0.8
		c-1.4,3.3-2.6,6.3-3.8,9.1c-7.5,18.8-23.8,64.4-35.8,74.7c-10.6,9.3-17.3-0.5-15.6-12.4c3.3-22.9,21-46.4,45.5-67.8
		c5.5-13.2,11.6-27.6,18.9-43.2c-23.4,24.7-77.6,25.7-78.9,66.8C453.6,516.8,483.1,509.5,512.2,493.8z M472.7,598.8
		c0.1,9.3,6.2,9.3,12.4-0.6c6.3-9.9,13.2-25.2,21.4-48.6c2.4-6.4,5.1-13.4,8.1-20.9C493.3,549.2,472.3,575,472.7,598.8z"/>
	<path class="st1" d="M591,566.4c-2.4,11.9,3.9,16.6,10.5,13.8c11.2-4.4,21.5-29.6,29.3-29.3c-7.6,7.4-8.2,9.6-13.5,16.6
		c-7,9.1-14,17.1-22.7,16c-11.3-1.3-12.5-15.8-9.7-22.7c3.1-7.1,9-15.2,18.5-15.8c7.8-0.5,10.8,7.1,3.3,13.7
		c-4.4,3.9-11.2,5.7-15.4,6.4C591.2,565.6,591,566,591,566.4z M597.4,561.9c12.1-4.2,14.1-13.7,8-12c0,0-9.9,1.3-13.7,13.7
		C593.2,563.2,595.3,562.8,597.4,561.9z"/>
	<path class="st1" d="M633.6,578.8c5.8-1.7,10.5-1.4,13.9,0.2c14.1-9.5,22.6-15.8,29.2-28.3c-1.5,9.9-12.9,19.6-27.4,29.3
		c6.4,4.4,8,14.4,6.4,22.4c-2.7,14.5-11.3,27-26.8,36.9c-11.6,7.6-27.4,9.5-33.4,5.1c-15.6-11.2,6.7-35.9,23.4-47
		c10.3-7,18.8-12.4,25.8-16.9c-2.5-1.2-5.8-1.5-10.1-0.5c-7.1,1.7-11.8,3.7-11.8,3.7S627.4,580.3,633.6,578.8z M620.6,599.1
		c-35.9,24.5-35.3,54.8-5.9,40.9c33.3-15.9,38-40.1,36.3-50.5c-0.5-2.7-1.7-5.7-4.2-7.6C638.4,587.4,629.2,593,620.6,599.1z
		 M648.1,548.8c0.7,0.5,1.7,1.3,2.1,2.6c2.5,7.8-6.4,20-17.1,25.9c-9.7,5.6-16.2,3.3-17.7-5.3c-2.4-13.8,13.2-24.5,20.3-26.5
		c3.2-0.8,5.6-1.2,7.5-1.2C648.1,544.8,649.5,547.4,648.1,548.8z M627.8,558.7c-7.8,8.4-9.5,18.9-3.3,18.3c6.3-0.5,13.1-5.3,19-12.9
		c4.8-6.2,4.4-12.5,3.2-15.1C644,549.3,635.2,550.6,627.8,558.7z"/>
	<path class="st1" d="M695.6,587.4c8.6-13.1,19-35.2,26.4-36.8c-7.5,8.9-9.5,12.9-13.8,20c-8.2,13.8-12.8,23-17.5,22.2
		c-5.5-0.8-10.3-8.2-4.8-23.8c0.1-0.6,0.4-1.3,0.6-1.9c-6.1,7.7-12,15.2-17.7,8.4c-5.8-6.9-0.1-19,5.2-24.1c3.9-3.7,11.3-7,19-5
		c8.7,2.3,2.1,2.3,2.1,2.3s-11.2-2.5-19,10.6c-5.8,9.7-2.5,18.6,2.1,14c2.5-2.5,8.1-9.7,12.4-15.4c2.3-3.7,4.6-8.2,7-8.2
		c2.3-0.1,7.8,0.6,2.7,7.1C686.8,575.4,686.5,601.2,695.6,587.4z"/>
	<path class="st1" d="M711.9,594.2c-0.4,4.4,0.1,8.1,4,2.3c11.6-16.9,25.9-40.1,38-45.5c-8.2,7.8-18.8,20.2-27.2,33.3
		c-11.6,17.8-13.3,18.9-16.6,17.1c-6.1-3.3-3.2-21.6,0.6-34.2c4.4-15.1,16.3-45,29.6-64.7c6.4-9.6,12-17.1,17.7-20.9
		c4.4-3.3,10.1-4.4,13.2,0.1c6.5,10.2-30.4,54-41.5,64.4c-2.1,2-3.6,3.4-4.8,4.3C715.6,572.8,712.8,585.9,711.9,594.2z M731.4,535.3
		c-1.8,3.9-3.4,7.6-5,11c5.8-6.2,16.6-17.9,22.9-26.4c14.4-19,18.9-28.6,19.8-32.9c2.5-10.9-8.1,0.5-11.2,3.9
		C753.2,496.7,743.7,509.2,731.4,535.3z"/>
	<path class="st1" d="M753.7,542.3c6.7-0.1,12.1,4,12.1,15.1c0,3.3-0.7,7.7-1.9,12c2.1-0.8,4.3-2.3,6.5-4.2
		c9-7.5,11.2-14.8,15.7-14.4c-5,3.9-9.1,12.9-17.5,18.1c-1.7,1.2-3.4,1.9-5.5,2.5c-3.3,10.3-9.7,20.8-17.1,20.3
		c-10.5-0.2-11.3-14.5-6.3-24.7c0.6-1.3,1.3-2.5,1.8-3.6C735.6,551.8,745.5,542.4,753.7,542.3z M746.7,569.5
		c-1.5,2.7-2.6,5.6-3.4,8.3c-1.9,7.6,1.8,15.8,8.2,9.9c3.2-2.9,6.7-9,9.3-15.8C755.7,572.9,750.7,572.6,746.7,569.5z M751.4,550.8
		c4-0.6,4.4,3.4,4.2,5.7c0,0.1-4.3,5-8,11.2c3.4,2.7,8.3,3.9,13.8,2.5c3.2-9.3,4-19.4-1.3-23.8c-7.1-6.2-15.4,0.8-17,6.2
		c-0.7,2.9-0.7,5.9,0,8.3C747.2,554.5,750.4,551.1,751.4,550.8z"/>
</g>
<a onclick="changerect()" pointer-events="all">
	<g>
		<rect x="468.5" y="1350.2" class="st2" width="305" height="159.3"/>
		<path class="st3" d="M495,1386.3h12.9h2v2v77.9c0,2.7,1.1,5,2.8,6.8c1.8,1.8,4.1,2.8,6.8,2.8h49.2h2v2v8.3c0,3.8-1.6,7.2-4.1,9.8
			c-2.6,2.6-6,4.1-9.8,4.1h-62.1c-3.8,0-7.2-1.6-9.8-4.1c-2.6-2.6-4.1-6-4.1-9.8V1400c0-3.8,1.6-7.2,4.1-9.8
			C487.5,1387.8,491.2,1386.3,495,1386.3L495,1386.3z M505.8,1390.4H495c-2.7,0-5,1.1-6.8,2.8c-1.8,1.8-2.9,4.1-2.9,6.8v86.1
			c0,2.7,1.1,5,2.9,6.8s4.1,2.8,6.8,2.8h62.1c2.7,0,5-1.1,6.8-2.8c1.8-1.8,2.8-4.1,2.8-6.8v-6.2h-47.2c-3.8,0-7.2-1.6-9.8-4.1
			c-2.6-2.6-4.1-6-4.1-9.8v-75.6L505.8,1390.4L505.8,1390.4z"/>
		<g>
			<g>
				<g class="st4">
					<path class="st3" d="M639.6,1406.1l0.8,11.9h-0.8c-1.1-3.7-2.7-6.1-4.6-7.7c-2-1.6-4.3-2.3-7.1-2.3c-2.3,0-4.3,0.7-6.2,1.8
						c-1.9,1.1-3.3,3.1-4.3,5.7c-1.1,2.6-1.6,5.8-1.6,9.6c0,3.1,0.4,6,1.6,8.1c0.9,2.3,2.6,4.1,4.6,5.3c2,1.2,4.3,1.9,6.9,1.9
						c2.3,0,4.2-0.4,6-1.3s3.7-2.8,5.8-5.8l0.8,0.4c-1.8,3.1-3.8,5.3-6.1,6.9c-2.3,1.3-5.2,2.2-8.3,2.2c-5.8,0-10.2-2.2-13.6-6.5
						c-2.3-3.1-3.7-6.9-3.7-11.3c0-3.4,0.8-6.8,2.3-9.6c1.6-3,3.8-5.2,6.5-6.8c2.8-1.6,5.8-2.3,9-2.3c2.6,0,5,0.7,7.6,1.9
						c0.8,0.3,1.2,0.7,1.6,0.7s0.9-0.1,1.2-0.4c0.4-0.4,0.8-1.1,0.9-1.9h0.8v-0.4L639.6,1406.1L639.6,1406.1L639.6,1406.1z"/>
					<path class="st3" d="M656.3,1417.7c3.7,0,6.5,1.3,8.7,4.1c1.9,2.3,2.8,5,2.8,8c0,2-0.4,4.2-1.6,6.5c-1.1,2.2-2.3,3.8-4.2,4.9
						c-1.8,1.1-3.8,1.8-6,1.8c-3.7,0-6.5-1.3-8.5-4.2c-1.8-2.3-2.7-5-2.7-8c0-2.2,0.4-4.3,1.6-6.5c1.1-2,2.6-3.8,4.2-4.8
						C652.5,1418.1,654.4,1417.7,656.3,1417.7z M655.5,1419.3c-0.9,0-1.9,0.3-2.7,0.8c-0.9,0.4-1.8,1.6-2.2,2.8
						c-0.7,1.3-0.8,3.1-0.8,5.2c0,3.4,0.7,6.5,2,9c1.3,2.6,3.1,3.8,5.6,3.8c1.8,0,3-0.7,4.1-2s1.6-3.8,1.6-7.1
						c0-4.2-0.9-7.6-2.7-9.9C659,1420.1,657.3,1419.3,655.5,1419.3z"/>
					<path class="st3" d="M669.4,1420.7l7.2-3h0.9v5.6c1.2-2,2.6-3.4,3.7-4.3c1.2-0.8,2.6-1.2,3.9-1.2c2.3,0,4.3,0.9,6,2.8
						c1.9,2.2,3,5.2,3,9c0,4.1-1.1,7.3-3.4,10c-1.9,2.2-4.3,3.3-7.2,3.3c-1.2,0-2.3-0.1-3.3-0.4c-0.7-0.3-1.3-0.8-2.3-1.6v7.2
						c0,1.6,0.1,2.7,0.3,3.1c0.1,0.4,0.4,0.8,1.1,1.1c0.4,0.3,1.3,0.3,2.7,0.3v0.9h-12.5v-0.9h0.7c0.9,0,1.8-0.1,2.6-0.4
						c0.3-0.1,0.7-0.4,0.8-0.9c0.1-0.4,0.3-1.6,0.3-3.3v-22.4c0-1.6,0-2.6-0.1-3s-0.3-0.8-0.7-0.9c-0.3-0.1-0.7-0.3-1.2-0.3
						c-0.4,0-0.9,0.1-1.6,0.3L669.4,1420.7z M677.8,1424.9v8.8c0,1.9,0,3.1,0.1,3.8c0.3,0.9,0.8,1.9,1.8,2.7c0.9,0.8,2,1.1,3.7,1.1
						c1.8,0,3.1-0.7,4.2-2c1.3-1.8,2-4.2,2-7.3c0-3.7-0.8-6.5-2.3-8.3c-1.1-1.2-2.3-2-3.9-2c-0.8,0-1.6,0.1-2.6,0.7
						C680.3,1422.3,679.2,1423.2,677.8,1424.9z"/>
					<path class="st3" d="M705.8,1417.7v19c0,1.6,0.1,2.6,0.3,3c0.1,0.4,0.4,0.8,0.9,1.1c0.4,0.3,1.2,0.3,2.3,0.3v0.9h-11.5v-0.9
						c1.1,0,1.9-0.1,2.3-0.3c0.4-0.1,0.7-0.7,0.9-1.1c0.1-0.4,0.3-1.6,0.3-3v-9.1c0-2.6,0-4.2-0.1-5c-0.1-0.7-0.3-0.9-0.7-1.1
						c-0.3-0.1-0.7-0.3-1.1-0.3c-0.4,0-1.1,0.1-1.8,0.3l-0.3-0.9l7.1-2.8L705.8,1417.7L705.8,1417.7z M703.8,1405.2
						c0.8,0,1.3,0.3,1.9,0.8c0.4,0.4,0.8,1.1,0.8,1.9c0,0.7-0.3,1.2-0.8,1.9c-0.4,0.4-1.1,0.8-1.9,0.8s-1.3-0.3-1.9-0.8
						c-0.4-0.4-0.8-1.1-0.8-1.9s0.3-1.3,0.8-1.9C702.4,1405.5,702.9,1405.2,703.8,1405.2z"/>
					<path class="st3" d="M725.7,1438.6c-2.3,1.9-3.9,3-4.6,3.3c-0.9,0.4-1.9,0.7-3,0.7c-1.6,0-3-0.7-4.1-1.8
						c-1.1-1.1-1.6-2.6-1.6-4.3c0-1.1,0.3-2.2,0.8-3c0.7-1.1,1.9-2.3,3.7-3.3c1.8-0.9,4.8-2.3,8.7-3.8v-0.9c0-2.3-0.3-3.9-1.1-4.9
						c-0.8-0.9-1.9-1.2-3.3-1.2c-1.1,0-1.9,0.3-2.6,0.9c-0.7,0.7-0.9,1.2-0.9,2v1.6c0,0.8-0.1,1.3-0.7,1.9c-0.4,0.4-0.9,0.7-1.6,0.7
						s-1.1-0.1-1.6-0.7c-0.4-0.4-0.7-1.1-0.7-1.9c0-1.3,0.8-2.8,2.2-4.1c1.6-1.2,3.7-1.9,6.5-1.9c2,0,3.8,0.3,5.2,1.1
						c0.9,0.4,1.8,1.3,2.2,2.6c0.3,0.8,0.4,2.2,0.4,4.6v8c0,2.2,0,3.7,0.1,4.1s0.1,0.8,0.4,1.1c0.1,0.1,0.4,0.3,0.7,0.3
						s0.4,0,0.7-0.1s1.1-0.8,2-1.9v1.3c-1.9,2.6-3.8,3.9-5.6,3.9c-0.8,0-1.6-0.3-2-0.9C726.1,1441,725.7,1439.9,725.7,1438.6z
						 M725.7,1436.8v-9c-2.6,1.1-4.2,1.8-5,2.2c-1.3,0.8-2.3,1.6-2.8,2.3c-0.7,0.8-0.9,1.8-0.9,2.7c0,1.2,0.3,2.2,1.1,3.1
						s1.6,1.2,2.6,1.2C721.9,1439.5,723.7,1438.7,725.7,1436.8z"/>
					<path class="st3" d="M742.7,1417.7v5.3c2-3.7,4.1-5.3,6.1-5.3c0.9,0,1.8,0.3,2.3,0.9c0.7,0.7,0.9,1.2,0.9,2
						c0,0.7-0.1,1.2-0.7,1.8c-0.4,0.4-0.9,0.7-1.6,0.7c-0.7,0-1.2-0.3-2-0.9c-0.8-0.7-1.2-0.9-1.6-0.9c-0.3,0-0.7,0.1-1.1,0.4
						c-0.8,0.7-1.6,1.9-2.3,3.4v11.3c0,1.2,0.1,2.3,0.4,3c0.1,0.4,0.7,0.8,1.1,1.1c0.7,0.3,1.3,0.4,2.6,0.4v0.9h-12.1v-0.9
						c1.2,0,2-0.1,2.7-0.7c0.4-0.3,0.8-0.8,0.9-1.2c0.1-0.3,0.1-1.1,0.1-2.6v-9.1c0-2.7,0-4.3-0.1-4.9c-0.1-0.4-0.3-0.9-0.7-1.1
						s-0.7-0.3-1.1-0.3s-1.1,0.1-1.8,0.3l-0.3-0.9l7.2-2.8h0.9L742.7,1417.7L742.7,1417.7L742.7,1417.7L742.7,1417.7z"/>
				</g>
			</g>
		</g>
		<path class="st5" d="M582.3,1477.5h-61.6c-5.8,0-10.7-4.8-10.7-10.7v-87.4c0-5.8,4.8-10.7,10.7-10.7h61.6
			c5.8,0,10.7,4.8,10.7,10.7v87.4C593,1472.8,588.2,1477.5,582.3,1477.5z"/>
		<path class="st3" d="M519.5,1366.4h62.1c3.8,0,7.2,1.6,9.8,4.1c2.6,2.6,4.1,6,4.1,9.8v86.1c0,3.8-1.6,7.2-4.1,9.8
			c-2.5,2.6-6,4.1-9.8,4.1h-62.1c-3.8,0-7.2-1.6-9.8-4.1c-2.6-2.6-4.1-6-4.1-9.8v-86.1c0-3.8,1.6-7.2,4.1-9.8
			C512.2,1367.9,515.7,1366.4,519.5,1366.4L519.5,1366.4z M581.4,1370.5h-62.1c-2.7,0-5,1.1-6.8,2.8c-1.8,1.8-2.9,4.1-2.9,6.8v86.1
			c0,2.7,1.1,5,2.9,6.8s4.1,2.8,6.8,2.8h62.1c2.7,0,5-1.1,6.8-2.8c1.8-1.8,2.8-4.1,2.8-6.8v-86.1c0-2.7-1.1-5-2.8-6.8
			C586.4,1371.6,584.1,1370.5,581.4,1370.5z"/>
	</g>
</a>
<g>
	<path class="st6" d="M368,804l-4.6,16h3.8c2.7,0,4.7-0.4,5.9-1.2c1.2-0.8,2.2-2.4,3.1-4.6h1.1l-4.1,14.7h-1.2
		c0.3-1.2,0.5-2.3,0.5-3.2c0-0.8-0.2-1.5-0.5-2c-0.3-0.5-0.8-0.9-1.4-1.1c-0.6-0.2-1.9-0.4-3.8-0.4h-3.8l-3.9,13.4
		c-0.4,1.3-0.6,2.3-0.6,3c0,0.5,0.2,1,0.7,1.4c0.3,0.3,1.2,0.4,2.5,0.4h3.6c3.9,0,7-0.7,9.3-2.1c2.3-1.4,4.4-3.7,6.3-7.1h1.1
		l-3.8,11.2h-31.2l0.4-1.1c1.6,0,2.6-0.2,3.1-0.4c0.8-0.4,1.4-0.8,1.7-1.4c0.5-0.8,1.1-2.5,1.9-5.1l7.1-24.4c0.5-2,0.8-3.5,0.8-4.5
		c0-0.7-0.3-1.3-0.8-1.8c-0.5-0.4-1.5-0.6-3.1-0.6h-0.6l0.3-1.1h29l-2.5,9.8h-1.1c0.1-0.9,0.2-1.7,0.2-2.3c0-1.1-0.3-1.9-0.8-2.7
		c-0.7-0.9-1.7-1.6-3-2.1c-1-0.4-3.2-0.6-6.6-0.6H368z"/>
	<path class="st6" d="M403.6,799.8l-10.2,35.5c-0.5,1.8-0.7,2.9-0.7,3.3c0,0.3,0.1,0.5,0.3,0.7c0.2,0.2,0.4,0.3,0.7,0.3
		c0.4,0,0.8-0.2,1.2-0.5c1-0.8,2.1-2.1,3.3-3.8l0.9,0.9c-1.9,2.7-3.6,4.5-5.2,5.6c-1.2,0.7-2.3,1.1-3.3,1.1c-0.7,0-1.4-0.3-1.9-0.8
		c-0.5-0.5-0.8-1.1-0.8-1.8c0-0.7,0.3-2.2,0.9-4.4l8.1-27.9c0.6-2.3,1-3.6,1-3.9c0-0.5-0.2-0.9-0.6-1.2c-0.4-0.3-1-0.5-1.8-0.5
		c-0.4,0-1.1,0.1-2.1,0.2v-1.1L403.6,799.8z"/>
	<path class="st6" d="M420.9,816.9l10.3-1.7l-4.3,14.5c3.5-5.9,6.6-10.1,9.5-12.5c1.6-1.4,2.9-2,3.9-2c0.7,0,1.2,0.2,1.6,0.6
		c0.4,0.4,0.6,1,0.6,1.7c0,1.3-0.3,2.6-1,3.7c-0.5,0.9-1.2,1.3-2.1,1.3c-0.4,0-0.8-0.1-1.2-0.4c-0.3-0.3-0.5-0.8-0.6-1.4
		c0-0.4-0.1-0.6-0.3-0.7c-0.2-0.1-0.4-0.2-0.6-0.2c-0.3,0-0.7,0.1-1,0.2c-0.5,0.3-1.3,1-2.4,2.3c-1.7,1.9-3.4,4.5-5.4,7.6
		c-0.8,1.3-1.5,2.8-2.1,4.4c-0.8,2.3-1.3,3.6-1.4,4.1l-1,3.7H419l5.5-18.5c0.6-2.1,0.9-3.7,0.9-4.6c0-0.3-0.1-0.6-0.4-0.9
		c-0.4-0.3-0.9-0.5-1.6-0.5c-0.4,0-1.2,0.1-2.3,0.3L420.9,816.9z"/>
	<path class="st6" d="M448.7,831c-0.1,1-0.2,1.8-0.2,2.4c0,1.8,0.6,3.3,1.9,4.5c1.2,1.2,2.8,1.9,4.6,1.9c1.4,0,2.8-0.3,4.1-0.9
		c1.3-0.6,3.3-1.9,5.9-3.9l0.6,0.9c-4.7,4.7-9.2,7-13.5,7c-2.9,0-5.1-0.9-6.5-2.7c-1.5-1.8-2.2-3.8-2.2-6c0-3,0.9-6,2.7-9.1
		c1.8-3.1,4.1-5.5,6.9-7.2c2.8-1.7,5.6-2.6,8.5-2.6c2.1,0,3.7,0.4,4.7,1.3c1,0.9,1.5,1.9,1.5,3c0,1.7-0.7,3.2-2,4.7
		c-1.7,2-4.3,3.6-7.6,4.8C455.9,829.9,452.8,830.5,448.7,831z M448.9,829.5c2.9-0.3,5.3-0.9,7.2-1.7c2.4-1.1,4.3-2.4,5.5-3.9
		c1.2-1.5,1.8-3,1.8-4.3c0-0.8-0.3-1.5-0.8-2c-0.5-0.5-1.3-0.8-2.2-0.8c-2,0-4.2,1.1-6.4,3.2C451.7,822.1,450,825.3,448.9,829.5z"/>
	<path class="st6" d="M500.4,817.1l-0.9,3.1h-5c0.4,1.1,0.6,2.1,0.6,3c0,2.6-1.1,5-3.3,7c-2.2,2-5.3,3.1-9.2,3.4
		c-2.1,0.6-3.7,1.4-4.7,2.3c-0.4,0.3-0.6,0.6-0.6,1c0,0.4,0.2,0.8,0.5,1.1c0.4,0.3,1.3,0.7,2.7,1l5.8,1.4c3.2,0.7,5.3,1.6,6.3,2.7
		c1,1.1,1.5,2.3,1.5,3.6c0,1.6-0.6,3.1-1.8,4.5c-1.2,1.4-3,2.4-5.3,3.2c-2.3,0.8-4.9,1.1-7.7,1.1c-2.5,0-4.7-0.3-6.7-0.9
		c-2-0.6-3.5-1.4-4.3-2.4c-0.9-1-1.3-2-1.3-3.1c0-0.8,0.3-1.7,0.9-2.6c0.6-0.9,1.3-1.7,2.1-2.3c0.5-0.4,2.1-1.3,4.6-2.7
		c-0.9-0.7-1.4-1.5-1.4-2.4c0-0.8,0.4-1.6,1.2-2.5c0.8-0.9,2.5-1.9,5.1-3c-2.2-0.4-3.9-1.3-5.2-2.7c-1.3-1.4-1.9-3-1.9-4.7
		c0-2.8,1.2-5.3,3.7-7.6c2.5-2.2,5.8-3.3,9.9-3.3c1.5,0,2.7,0.2,3.6,0.5c0.9,0.3,1.9,0.8,2.8,1.4H500.4z M475.7,842.2
		c-1.6,0.7-2.8,1.7-3.6,2.8c-0.8,1.1-1.2,2.3-1.2,3.4c0,1.3,0.6,2.4,1.8,3.3c1.7,1.2,4.2,1.9,7.5,1.9c2.8,0,5.3-0.5,7.3-1.4
		s3-2.2,3-3.7c0-0.8-0.4-1.5-1.1-2.2c-0.8-0.7-2.2-1.3-4.3-1.7C483.8,844.2,480.8,843.5,475.7,842.2z M490,821.8
		c0-1.6-0.4-2.9-1.3-3.8c-0.9-0.9-2-1.4-3.5-1.4c-2.2,0-4.1,1.1-5.6,3.4c-1.5,2.3-2.2,4.6-2.2,7.1c0,1.5,0.5,2.8,1.4,3.8
		c0.9,1,2.1,1.5,3.4,1.5c1.1,0,2.1-0.3,3.1-0.9c1-0.6,1.8-1.4,2.5-2.4c0.7-1,1.2-2.3,1.6-3.9C489.8,823.6,490,822.5,490,821.8z"/>
	<path class="st6" d="M527.7,815.2l-5.8,20.2l-0.7,2.7c0,0.2-0.1,0.5-0.1,0.6c0,0.3,0.1,0.6,0.3,0.9c0.1,0.2,0.3,0.3,0.6,0.3
		c0.2,0,0.6-0.2,1-0.5c0.8-0.6,1.8-1.8,3.1-3.6l1,0.7c-1.4,2.1-2.8,3.6-4.2,4.7c-1.5,1.1-2.8,1.6-4,1.6c-0.8,0-1.5-0.2-1.9-0.6
		c-0.4-0.4-0.6-1-0.6-1.9c0-1,0.2-2.3,0.7-3.8l0.6-2.3c-2.6,3.4-5,5.8-7.2,7.1c-1.6,1-3.1,1.4-4.6,1.4c-1.5,0-2.7-0.6-3.8-1.8
		c-1-1.2-1.6-2.8-1.6-4.9c0-3.2,0.9-6.5,2.8-10c1.9-3.5,4.3-6.3,7.2-8.4c2.3-1.7,4.4-2.5,6.4-2.5c1.2,0,2.3,0.3,3.1,1
		c0.8,0.6,1.4,1.7,1.8,3.2l1.1-3.4L527.7,815.2z M517.1,816.8c-1.3,0-2.6,0.6-4,1.8c-2,1.7-3.9,4.2-5.4,7.5c-1.6,3.3-2.4,6.3-2.4,9
		c0,1.3,0.3,2.4,1,3.2c0.7,0.8,1.5,1.2,2.3,1.2c2.1,0,4.5-1.6,7-4.8c3.4-4.2,5.1-8.6,5.1-13.1c0-1.7-0.3-2.9-1-3.7
		C519.1,817.2,518.2,816.8,517.1,816.8z"/>
	<path class="st6" d="M547.7,799.8l-10.2,35.5c-0.5,1.8-0.7,2.9-0.7,3.3c0,0.3,0.1,0.5,0.3,0.7c0.2,0.2,0.4,0.3,0.7,0.3
		c0.4,0,0.8-0.2,1.2-0.5c1-0.8,2.1-2.1,3.3-3.8l0.9,0.9c-1.9,2.7-3.6,4.5-5.2,5.6c-1.2,0.7-2.3,1.1-3.3,1.1c-0.7,0-1.4-0.3-1.9-0.8
		c-0.5-0.5-0.8-1.1-0.8-1.8c0-0.7,0.3-2.2,0.9-4.4L541,808c0.6-2.3,1-3.6,1-3.9c0-0.5-0.2-0.9-0.6-1.2c-0.4-0.3-1-0.5-1.8-0.5
		c-0.4,0-1.1,0.1-2.1,0.2v-1.1L547.7,799.8z"/>
	<path class="st6" d="M574.7,824.6c0,3-0.8,5.9-2.4,8.9c-1.6,2.9-3.8,5.2-6.6,6.9c-2.8,1.7-5.6,2.6-8.2,2.6c-2.7,0-4.9-0.9-6.7-2.6
		c-1.7-1.7-2.6-4-2.6-6.7c0-2.9,0.8-5.9,2.5-8.8c1.7-2.9,3.9-5.3,6.7-7c2.8-1.7,5.5-2.6,8.1-2.6c2.6,0,4.8,0.9,6.5,2.6
		C573.9,819.6,574.7,821.8,574.7,824.6z M569.8,822.5c0-1.9-0.5-3.3-1.4-4.3c-0.9-1-2.1-1.5-3.5-1.5c-2.9,0-5.6,2.1-8.1,6.3
		c-2.5,4.2-3.7,8.3-3.7,12.5c0,1.9,0.5,3.3,1.4,4.3c1,1,2.2,1.5,3.6,1.5c2.8,0,5.4-2.1,7.9-6.2C568.6,831,569.8,826.8,569.8,822.5z"
		/>
	<path class="st6" d="M599.5,831c-0.1,1-0.2,1.8-0.2,2.4c0,1.8,0.6,3.3,1.9,4.5c1.2,1.2,2.8,1.9,4.6,1.9c1.4,0,2.8-0.3,4.1-0.9
		c1.3-0.6,3.3-1.9,5.9-3.9l0.6,0.9c-4.7,4.7-9.2,7-13.5,7c-2.9,0-5.1-0.9-6.5-2.7c-1.5-1.8-2.2-3.8-2.2-6c0-3,0.9-6,2.7-9.1
		c1.8-3.1,4.1-5.5,6.9-7.2c2.8-1.7,5.6-2.6,8.5-2.6c2.1,0,3.7,0.4,4.7,1.3c1,0.9,1.5,1.9,1.5,3c0,1.7-0.7,3.2-2,4.7
		c-1.7,2-4.3,3.6-7.6,4.8C606.7,829.9,603.6,830.5,599.5,831z M599.7,829.5c2.9-0.3,5.3-0.9,7.2-1.7c2.4-1.1,4.3-2.4,5.5-3.9
		s1.8-3,1.8-4.3c0-0.8-0.3-1.5-0.8-2c-0.5-0.5-1.3-0.8-2.2-0.8c-2,0-4.2,1.1-6.4,3.2C602.5,822.1,600.8,825.3,599.7,829.5z"/>
	<path class="st6" d="M641.5,815.2l-1.8,9.2h-1.1c-0.1-2.7-0.7-4.6-1.7-5.8c-1-1.2-2.3-1.8-3.8-1.8c-1.2,0-2.2,0.3-2.9,1
		c-0.7,0.7-1.1,1.5-1.1,2.4c0,0.6,0.1,1.3,0.4,1.9c0.3,0.6,0.9,1.4,1.9,2.5c2.6,2.8,4.2,5,5,6.4c0.8,1.4,1.1,2.8,1.1,4.1
		c0,2.1-0.9,3.9-2.6,5.5c-1.7,1.6-3.9,2.4-6.5,2.4c-1.4,0-3.1-0.3-5-1c-0.6-0.2-1.1-0.4-1.5-0.4c-0.9,0-1.6,0.5-2,1.4h-1.1l1.8-9.7
		h1.1c0.1,3,0.7,5.2,1.9,6.4c1.1,1.2,2.7,1.9,4.7,1.9c1.5,0,2.7-0.4,3.6-1.3c0.9-0.8,1.3-1.9,1.3-3.1c0-0.8-0.2-1.5-0.5-2.2
		c-0.6-1.2-1.7-2.8-3.5-4.9s-2.9-3.7-3.4-4.7c-0.5-1-0.8-2.1-0.8-3.2c0-1.9,0.7-3.6,2.1-4.9c1.4-1.3,3.2-2,5.4-2
		c0.6,0,1.2,0,1.7,0.1c0.3,0.1,0.9,0.3,1.9,0.7c1,0.4,1.7,0.6,2.1,0.6c0.8,0,1.6-0.5,2.1-1.4H641.5z"/>
	<path class="st6" d="M686.6,824.6c0,3-0.8,5.9-2.4,8.9s-3.8,5.2-6.6,6.9c-2.8,1.7-5.6,2.6-8.2,2.6c-2.7,0-4.9-0.9-6.7-2.6
		c-1.7-1.7-2.6-4-2.6-6.7c0-2.9,0.8-5.9,2.5-8.8c1.7-2.9,3.9-5.3,6.7-7c2.8-1.7,5.5-2.6,8.1-2.6c2.6,0,4.8,0.9,6.5,2.6
		C685.7,819.6,686.6,821.8,686.6,824.6z M681.6,822.5c0-1.9-0.5-3.3-1.4-4.3c-0.9-1-2.1-1.5-3.5-1.5c-2.9,0-5.6,2.1-8.1,6.3
		c-2.5,4.2-3.7,8.3-3.7,12.5c0,1.9,0.5,3.3,1.4,4.3c1,1,2.2,1.5,3.6,1.5c2.8,0,5.4-2.1,7.9-6.2C680.4,831,681.6,826.8,681.6,822.5z"
		/>
	<path class="st6" d="M702.4,815.2l-2.1,6.9c2.2-2.5,4.1-4.3,5.8-5.3c1.7-1,3.4-1.5,5.2-1.5c1.8,0,3.3,0.7,4.5,2.1
		c1.2,1.4,1.9,3.2,1.9,5.5c0,4.4-1.8,8.8-5.3,13.3c-3.6,4.5-7.7,6.8-12.4,6.8c-1,0-1.9-0.1-2.6-0.3c-0.8-0.2-1.6-0.6-2.6-1.2
		l-2.2,7.7c-0.4,1.5-0.7,2.5-0.7,2.9c0,0.4,0.1,0.8,0.4,1.1c0.2,0.3,0.6,0.5,1.1,0.7c0.5,0.2,1.5,0.3,3.1,0.3l-0.3,1.1h-14l0.3-1.1
		c1.9-0.1,3.1-0.4,3.7-0.9c0.6-0.6,1.3-2.1,2-4.6l7.6-26.1c0.4-1.7,0.7-2.7,0.7-3.1c0-0.5-0.1-1-0.4-1.3c-0.3-0.3-0.8-0.4-1.4-0.4
		c-0.6,0-1.4,0.1-2.4,0.2v-1.1L702.4,815.2z M695.4,839.1c1.2,1.5,2.9,2.2,5,2.2c1,0,2.1-0.3,3.1-0.9c1.1-0.6,2.1-1.4,3.1-2.6
		c1-1.1,1.9-2.4,2.8-3.9c0.8-1.5,1.5-3.2,2.2-5.2c0.7-2,1-4,1-6c0-1.6-0.4-2.8-1.1-3.6c-0.7-0.8-1.6-1.3-2.6-1.3
		c-2.1,0-4.3,1.2-6.3,3.7c-2.1,2.5-3.6,5.3-4.6,8.6L695.4,839.1z"/>
	<path class="st6" d="M742.9,835.7c-2.1,2.5-4.2,4.3-6.3,5.4c-2.1,1.2-4.3,1.7-6.7,1.7c-2.8,0-5-0.8-6.6-2.4
		c-1.6-1.6-2.4-3.7-2.4-6.4c0-3,0.9-6,2.6-9c1.7-2.9,4-5.3,6.8-7.2c2.9-1.8,5.7-2.8,8.4-2.8c2.2,0,3.8,0.5,4.9,1.4
		c1.1,0.9,1.6,2,1.6,3.3c0,1.2-0.4,2.3-1.1,3.1c-0.5,0.7-1.2,1-2,1c-0.6,0-1.1-0.2-1.5-0.6c-0.4-0.4-0.6-0.9-0.6-1.5
		c0-0.4,0.1-0.7,0.2-1c0.1-0.3,0.5-0.7,0.9-1.1c0.5-0.4,0.8-0.8,0.9-1c0.1-0.2,0.1-0.4,0.1-0.6c0-0.4-0.2-0.8-0.6-1
		c-0.6-0.4-1.4-0.6-2.4-0.6c-1.9,0-3.9,0.7-5.8,2.1c-1.9,1.4-3.5,3.3-4.9,5.8c-1.6,3.1-2.4,6.1-2.4,9.2c0,2,0.6,3.6,1.7,4.8
		c1.2,1.2,2.7,1.8,4.7,1.8c1.5,0,3-0.4,4.6-1.1c1.5-0.8,3.2-2.1,5-4.1L742.9,835.7z"/>
	<path class="st6" d="M760.5,815.2l-5.9,20.9c-0.4,1.4-0.6,2.2-0.6,2.5c0,0.3,0.1,0.6,0.3,0.8c0.2,0.2,0.4,0.3,0.6,0.3
		c0.3,0,0.7-0.2,1.1-0.5c1.1-0.9,2.3-2.2,3.4-3.8l1,0.7c-1.4,2-2.9,3.8-4.8,5.2c-1.3,1-2.6,1.6-3.8,1.6c-0.8,0-1.5-0.2-2-0.7
		c-0.5-0.5-0.8-1.1-0.8-1.8c0-0.7,0.2-2,0.7-3.7l3.9-13.4c0.6-2.2,0.9-3.5,0.9-4.1c0-0.4-0.2-0.8-0.5-1.1c-0.3-0.3-0.7-0.4-1.2-0.4
		c-0.4,0-1.4,0.1-2.7,0.3v-1.1L760.5,815.2z M760.1,803.4c0.8,0,1.5,0.3,2.1,0.9c0.6,0.6,0.9,1.3,0.9,2.1c0,0.8-0.3,1.5-0.9,2.1
		c-0.6,0.6-1.3,0.9-2.1,0.9c-0.8,0-1.5-0.3-2.1-0.9c-0.6-0.6-0.9-1.3-0.9-2.1c0-0.8,0.3-1.5,0.9-2.1
		C758.6,803.7,759.3,803.4,760.1,803.4z"/>
	<path class="st6" d="M791.6,824.6c0,3-0.8,5.9-2.4,8.9s-3.8,5.2-6.6,6.9c-2.8,1.7-5.6,2.6-8.2,2.6c-2.7,0-4.9-0.9-6.7-2.6
		c-1.7-1.7-2.6-4-2.6-6.7c0-2.9,0.8-5.9,2.5-8.8c1.7-2.9,3.9-5.3,6.7-7c2.8-1.7,5.5-2.6,8.1-2.6c2.6,0,4.8,0.9,6.5,2.6
		C790.8,819.6,791.6,821.8,791.6,824.6z M786.7,822.5c0-1.9-0.5-3.3-1.4-4.3c-0.9-1-2.1-1.5-3.5-1.5c-2.9,0-5.6,2.1-8.1,6.3
		c-2.5,4.2-3.7,8.3-3.7,12.5c0,1.9,0.5,3.3,1.4,4.3c1,1,2.2,1.5,3.6,1.5c2.8,0,5.4-2.1,7.9-6.2C785.5,831,786.7,826.8,786.7,822.5z"
		/>
	<path class="st6" d="M807.4,815.2l-4,13.6c3.7-5.6,6.5-9.2,8.5-11c2-1.8,3.9-2.6,5.7-2.6c1,0,1.8,0.3,2.4,1c0.6,0.7,1,1.5,1,2.6
		c0,1.2-0.3,2.8-0.9,4.8l-3.6,12.5c-0.4,1.5-0.6,2.3-0.6,2.7c0,0.3,0.1,0.5,0.2,0.7c0.2,0.2,0.3,0.3,0.5,0.3c0.2,0,0.5-0.1,0.9-0.4
		c1.1-0.8,2.2-2.1,3.5-3.8l0.9,0.6c-1.9,2.6-3.6,4.5-5.3,5.7c-1.2,0.8-2.2,1.1-3.1,1.1c-0.7,0-1.3-0.2-1.8-0.7
		c-0.4-0.4-0.6-1-0.6-1.8c0-1,0.3-2.6,1-4.9l3.5-12c0.4-1.5,0.6-2.6,0.6-3.5c0-0.4-0.1-0.7-0.4-1c-0.3-0.2-0.6-0.4-0.9-0.4
		c-0.5,0-1.2,0.2-2,0.7c-1.5,0.9-3,2.4-4.6,4.4c-1.6,2.1-3.3,4.7-5.1,7.9c-0.9,1.7-1.7,3.6-2.3,5.6l-1.5,4.9h-4.5l5.4-18.7
		c0.6-2.2,1-3.6,1-4c0-0.4-0.2-0.8-0.5-1.2c-0.4-0.3-0.8-0.5-1.3-0.5c-0.2,0-0.7,0-1.3,0.1l-1.1,0.1l-0.2-1.1L807.4,815.2z"/>
	<path class="st6" d="M853,815.2l-5.8,20.2l-0.7,2.7c0,0.2-0.1,0.5-0.1,0.6c0,0.3,0.1,0.6,0.3,0.9c0.1,0.2,0.3,0.3,0.6,0.3
		s0.6-0.2,1-0.5c0.8-0.6,1.8-1.8,3.1-3.6l1,0.7c-1.4,2.1-2.8,3.6-4.2,4.7c-1.5,1.1-2.8,1.6-4,1.6c-0.8,0-1.5-0.2-1.9-0.6
		c-0.4-0.4-0.6-1-0.6-1.9c0-1,0.2-2.3,0.7-3.8l0.6-2.3c-2.6,3.4-5,5.8-7.2,7.1c-1.6,1-3.1,1.4-4.6,1.4c-1.5,0-2.7-0.6-3.8-1.8
		c-1-1.2-1.6-2.8-1.6-4.9c0-3.2,0.9-6.5,2.8-10c1.9-3.5,4.3-6.3,7.2-8.4c2.3-1.7,4.4-2.5,6.4-2.5c1.2,0,2.3,0.3,3.1,1
		c0.8,0.6,1.4,1.7,1.8,3.2l1.1-3.4L853,815.2z M842.4,816.8c-1.3,0-2.6,0.6-4,1.8c-2,1.7-3.9,4.2-5.4,7.5c-1.6,3.3-2.4,6.3-2.4,9
		c0,1.3,0.3,2.4,1,3.2c0.7,0.8,1.5,1.2,2.3,1.2c2.1,0,4.5-1.6,7-4.8c3.4-4.2,5.1-8.6,5.1-13.1c0-1.7-0.3-2.9-1-3.7
		C844.5,817.2,843.6,816.8,842.4,816.8z"/>
	<path class="st6" d="M873,799.8l-10.2,35.5c-0.5,1.8-0.7,2.9-0.7,3.3c0,0.3,0.1,0.5,0.3,0.7c0.2,0.2,0.4,0.3,0.7,0.3
		c0.4,0,0.8-0.2,1.2-0.5c1-0.8,2.1-2.1,3.3-3.8l0.9,0.9c-1.9,2.7-3.6,4.5-5.2,5.6c-1.2,0.7-2.3,1.1-3.3,1.1c-0.7,0-1.4-0.3-1.9-0.8
		c-0.5-0.5-0.8-1.1-0.8-1.8c0-0.7,0.3-2.2,0.9-4.4l8.1-27.9c0.6-2.3,1-3.6,1-3.9c0-0.5-0.2-0.9-0.6-1.2c-0.4-0.3-1-0.5-1.8-0.5
		c-0.4,0-1.1,0.1-2.1,0.2v-1.1L873,799.8z"/>
	<path class="st6" d="M871.2,848.9c1.5-0.7,2.7-1.5,3.6-2.6c0.7-0.8,1.1-1.6,1.1-2.3c0-0.4-0.1-0.7-0.2-1c-0.1-0.1-0.3-0.5-0.8-0.9
		c-0.5-0.5-0.7-0.8-0.8-1c-0.1-0.3-0.2-0.7-0.2-1.1c0-0.9,0.3-1.6,0.9-2.2c0.6-0.6,1.3-0.9,2.1-0.9c0.8,0,1.5,0.3,2.2,1
		c0.6,0.7,0.9,1.5,0.9,2.5c0,1.8-0.7,3.6-2.1,5.4c-1.4,1.8-3.4,3.2-6.1,4.2L871.2,848.9z"/>
	<path class="st6" d="M329.9,891.9l-10.2,35.5c-0.5,1.8-0.7,2.9-0.7,3.3c0,0.3,0.1,0.5,0.3,0.7c0.2,0.2,0.4,0.3,0.7,0.3
		c0.4,0,0.8-0.2,1.2-0.5c1-0.8,2.1-2.1,3.3-3.8l0.9,0.9c-1.9,2.7-3.6,4.5-5.2,5.6c-1.2,0.7-2.3,1.1-3.3,1.1c-0.7,0-1.4-0.3-1.9-0.8
		c-0.5-0.5-0.8-1.1-0.8-1.8c0-0.7,0.3-2.2,0.9-4.4l8.1-27.9c0.6-2.3,1-3.6,1-3.9c0-0.5-0.2-0.9-0.6-1.2c-0.4-0.3-1-0.5-1.8-0.5
		c-0.4,0-1.1,0.1-2.1,0.2v-1.1L329.9,891.9z"/>
	<path class="st6" d="M357.4,907.3l-5.8,20.2l-0.7,2.7c0,0.2-0.1,0.5-0.1,0.6c0,0.3,0.1,0.6,0.3,0.9c0.1,0.2,0.3,0.3,0.6,0.3
		c0.2,0,0.6-0.2,1-0.5c0.8-0.6,1.8-1.8,3.1-3.6l1,0.7c-1.4,2.1-2.8,3.6-4.2,4.7c-1.5,1.1-2.8,1.6-4,1.6c-0.8,0-1.5-0.2-1.9-0.6
		c-0.4-0.4-0.6-1-0.6-1.9c0-1,0.2-2.3,0.7-3.8l0.6-2.3c-2.6,3.4-5,5.8-7.2,7.1c-1.6,1-3.1,1.4-4.6,1.4c-1.5,0-2.7-0.6-3.8-1.8
		c-1-1.2-1.6-2.8-1.6-4.9c0-3.2,0.9-6.5,2.8-10s4.3-6.3,7.2-8.4c2.3-1.7,4.4-2.5,6.4-2.5c1.2,0,2.3,0.3,3.1,1
		c0.8,0.6,1.4,1.7,1.8,3.2l1.1-3.4L357.4,907.3z M346.7,908.8c-1.3,0-2.6,0.6-4,1.8c-2,1.7-3.9,4.2-5.4,7.5c-1.6,3.3-2.4,6.3-2.4,9
		c0,1.3,0.3,2.4,1,3.2c0.7,0.8,1.5,1.2,2.3,1.2c2.1,0,4.5-1.6,7-4.8c3.4-4.2,5.1-8.6,5.1-13.1c0-1.7-0.3-2.9-1-3.7
		C348.8,909.2,347.9,908.8,346.7,908.8z"/>
	<path class="st6" d="M403.1,907.3l-5.8,20.2l-0.7,2.7c0,0.2-0.1,0.5-0.1,0.6c0,0.3,0.1,0.6,0.3,0.9c0.1,0.2,0.3,0.3,0.6,0.3
		c0.2,0,0.6-0.2,1-0.5c0.8-0.6,1.8-1.8,3.1-3.6l1,0.7c-1.4,2.1-2.8,3.6-4.2,4.7c-1.5,1.1-2.8,1.6-4,1.6c-0.8,0-1.5-0.2-1.9-0.6
		c-0.4-0.4-0.6-1-0.6-1.9c0-1,0.2-2.3,0.7-3.8l0.6-2.3c-2.6,3.4-5,5.8-7.2,7.1c-1.6,1-3.1,1.4-4.6,1.4c-1.5,0-2.7-0.6-3.8-1.8
		c-1-1.2-1.6-2.8-1.6-4.9c0-3.2,0.9-6.5,2.8-10s4.3-6.3,7.2-8.4c2.3-1.7,4.4-2.5,6.4-2.5c1.2,0,2.3,0.3,3.1,1
		c0.8,0.6,1.4,1.7,1.8,3.2l1.1-3.4L403.1,907.3z M392.5,908.8c-1.3,0-2.6,0.6-4,1.8c-2,1.7-3.9,4.2-5.4,7.5c-1.6,3.3-2.4,6.3-2.4,9
		c0,1.3,0.3,2.4,1,3.2c0.7,0.8,1.5,1.2,2.3,1.2c2.1,0,4.5-1.6,7-4.8c3.4-4.2,5.1-8.6,5.1-13.1c0-1.7-0.3-2.9-1-3.7
		C394.5,909.2,393.6,908.8,392.5,908.8z"/>
	<path class="st6" d="M427.1,907.3l-1.8,9.2h-1.1c-0.1-2.7-0.7-4.6-1.7-5.8c-1-1.2-2.3-1.8-3.8-1.8c-1.2,0-2.2,0.3-2.9,1
		c-0.7,0.7-1.1,1.5-1.1,2.4c0,0.6,0.1,1.3,0.4,1.9c0.3,0.6,0.9,1.4,1.9,2.5c2.6,2.8,4.2,5,5,6.4c0.8,1.4,1.1,2.8,1.1,4.1
		c0,2.1-0.9,3.9-2.6,5.5c-1.7,1.6-3.9,2.4-6.5,2.4c-1.4,0-3.1-0.3-5-1c-0.6-0.2-1.1-0.4-1.5-0.4c-0.9,0-1.6,0.5-2,1.4h-1.1l1.8-9.7
		h1.1c0.1,3,0.7,5.2,1.9,6.4c1.1,1.2,2.7,1.9,4.7,1.9c1.5,0,2.7-0.4,3.6-1.3c0.9-0.8,1.3-1.9,1.3-3.1c0-0.8-0.2-1.5-0.5-2.2
		c-0.6-1.2-1.7-2.8-3.5-4.9c-1.8-2.1-2.9-3.7-3.4-4.7c-0.5-1-0.8-2.1-0.8-3.2c0-1.9,0.7-3.6,2.1-4.9c1.4-1.3,3.2-2,5.4-2
		c0.6,0,1.2,0,1.7,0.1c0.3,0.1,0.9,0.3,1.9,0.7c1,0.4,1.7,0.6,2.1,0.6c0.8,0,1.6-0.5,2.1-1.4H427.1z"/>
	<path class="st6" d="M442.7,907.3l-5.9,20.9c-0.4,1.4-0.6,2.2-0.6,2.5c0,0.3,0.1,0.6,0.3,0.8c0.2,0.2,0.4,0.3,0.6,0.3
		c0.3,0,0.7-0.2,1.1-0.5c1.1-0.9,2.3-2.2,3.4-3.8l1,0.7c-1.4,2-2.9,3.8-4.8,5.2c-1.3,1-2.6,1.6-3.8,1.6c-0.8,0-1.5-0.2-2-0.7
		s-0.8-1.1-0.8-1.8c0-0.7,0.2-2,0.7-3.7l3.9-13.4c0.6-2.2,0.9-3.5,0.9-4.1c0-0.4-0.2-0.8-0.5-1.1c-0.3-0.3-0.7-0.4-1.2-0.4
		c-0.4,0-1.4,0.1-2.7,0.3V909L442.7,907.3z M442.4,895.5c0.8,0,1.5,0.3,2.1,0.9c0.6,0.6,0.9,1.3,0.9,2.1c0,0.8-0.3,1.5-0.9,2.1
		c-0.6,0.6-1.3,0.9-2.1,0.9c-0.8,0-1.5-0.3-2.1-0.9c-0.6-0.6-0.9-1.3-0.9-2.1c0-0.8,0.3-1.5,0.9-2.1
		C440.8,895.7,441.5,895.5,442.4,895.5z"/>
	<path class="st6" d="M467.8,907.3l-1.8,9.2h-1.1c-0.1-2.7-0.7-4.6-1.7-5.8c-1-1.2-2.3-1.8-3.8-1.8c-1.2,0-2.2,0.3-2.9,1
		c-0.7,0.7-1.1,1.5-1.1,2.4c0,0.6,0.1,1.3,0.4,1.9c0.3,0.6,0.9,1.4,1.9,2.5c2.6,2.8,4.2,5,5,6.4c0.8,1.4,1.1,2.8,1.1,4.1
		c0,2.1-0.9,3.9-2.6,5.5c-1.7,1.6-3.9,2.4-6.5,2.4c-1.4,0-3.1-0.3-5-1c-0.6-0.2-1.1-0.4-1.5-0.4c-0.9,0-1.6,0.5-2,1.4h-1.1l1.8-9.7
		h1.1c0.1,3,0.7,5.2,1.9,6.4c1.1,1.2,2.7,1.9,4.7,1.9c1.5,0,2.7-0.4,3.6-1.3c0.9-0.8,1.3-1.9,1.3-3.1c0-0.8-0.2-1.5-0.5-2.2
		c-0.6-1.2-1.7-2.8-3.5-4.9c-1.8-2.1-2.9-3.7-3.4-4.7c-0.5-1-0.8-2.1-0.8-3.2c0-1.9,0.7-3.6,2.1-4.9c1.4-1.3,3.2-2,5.4-2
		c0.6,0,1.2,0,1.7,0.1c0.3,0.1,0.9,0.3,1.9,0.7c1,0.4,1.7,0.6,2.1,0.6c0.8,0,1.6-0.5,2.1-1.4H467.8z"/>
	<path class="st6" d="M485.3,899.9l-2.3,8.1h4.7l-0.5,1.9h-4.6l-5.1,17.5c-0.5,1.9-0.8,3.1-0.8,3.7c0,0.3,0.1,0.6,0.2,0.8
		c0.1,0.2,0.3,0.3,0.6,0.3c0.5,0,1.1-0.4,2-1.1c0.5-0.4,1.6-1.6,3.2-3.7l1,0.8c-1.8,2.6-3.6,4.5-5.2,5.6c-1.1,0.7-2.2,1.1-3.4,1.1
		c-0.9,0-1.6-0.3-2.1-0.8c-0.6-0.5-0.8-1.2-0.8-2.1c0-1.1,0.3-2.7,0.9-4.9l5-17.2h-4.5l0.3-1.2c2.2-0.6,4-1.5,5.5-2.7
		c1.4-1.2,3.1-3.2,4.9-6.1H485.3z"/>
	<path class="st6" d="M493.6,923c-0.1,1-0.2,1.8-0.2,2.4c0,1.8,0.6,3.3,1.9,4.5c1.2,1.2,2.8,1.9,4.6,1.9c1.4,0,2.8-0.3,4.1-0.9
		c1.3-0.6,3.3-1.9,5.9-3.9l0.6,0.9c-4.7,4.7-9.2,7-13.5,7c-2.9,0-5.1-0.9-6.5-2.7c-1.5-1.8-2.2-3.8-2.2-6c0-3,0.9-6,2.7-9.1
		c1.8-3.1,4.1-5.5,6.9-7.2c2.8-1.7,5.6-2.6,8.5-2.6c2.1,0,3.7,0.4,4.7,1.3c1,0.9,1.5,1.9,1.5,3c0,1.7-0.7,3.2-2,4.7
		c-1.7,2-4.3,3.6-7.6,4.8C500.8,921.9,497.7,922.6,493.6,923z M493.9,921.5c2.9-0.3,5.3-0.9,7.2-1.7c2.4-1.1,4.3-2.4,5.5-3.9
		s1.8-3,1.8-4.3c0-0.8-0.3-1.5-0.8-2c-0.5-0.5-1.3-0.8-2.2-0.8c-2,0-4.2,1.1-6.4,3.2C496.6,914.1,494.9,917.3,493.9,921.5z"/>
	<path class="st6" d="M527,907.3l-4,13.6c3.7-5.6,6.5-9.2,8.5-11c2-1.8,3.9-2.6,5.7-2.6c1,0,1.8,0.3,2.4,1c0.6,0.7,1,1.5,1,2.6
		c0,1.2-0.3,2.8-0.9,4.8l-3.6,12.5c-0.4,1.5-0.6,2.3-0.6,2.7c0,0.3,0.1,0.5,0.2,0.7c0.2,0.2,0.3,0.3,0.5,0.3c0.2,0,0.5-0.1,0.9-0.4
		c1.1-0.8,2.2-2.1,3.5-3.8l0.9,0.6c-1.9,2.6-3.6,4.5-5.3,5.7c-1.2,0.8-2.2,1.1-3.1,1.1c-0.7,0-1.3-0.2-1.8-0.7
		c-0.4-0.4-0.6-1-0.6-1.8c0-1,0.3-2.6,1-4.9l3.5-12c0.4-1.5,0.6-2.6,0.6-3.5c0-0.4-0.1-0.7-0.4-1c-0.3-0.2-0.6-0.4-0.9-0.4
		c-0.5,0-1.2,0.2-2,0.7c-1.5,0.9-3,2.4-4.6,4.4c-1.6,2.1-3.3,4.7-5.1,7.9c-0.9,1.7-1.7,3.6-2.3,5.6l-1.5,4.9h-4.5l5.4-18.7
		c0.6-2.2,1-3.6,1-4c0-0.4-0.2-0.8-0.5-1.2c-0.4-0.3-0.8-0.5-1.3-0.5c-0.2,0-0.7,0-1.3,0.1l-1.1,0.1l-0.2-1.1L527,907.3z"/>
	<path class="st6" d="M567.6,927.8c-2.1,2.5-4.2,4.3-6.3,5.4c-2.1,1.2-4.3,1.7-6.7,1.7c-2.8,0-5-0.8-6.6-2.4
		c-1.6-1.6-2.4-3.7-2.4-6.4c0-3,0.9-6,2.6-9c1.7-2.9,4-5.3,6.8-7.2c2.9-1.8,5.7-2.8,8.4-2.8c2.2,0,3.8,0.5,4.9,1.4
		c1.1,0.9,1.6,2,1.6,3.3c0,1.2-0.4,2.3-1.1,3.1c-0.5,0.7-1.2,1-2,1c-0.6,0-1.1-0.2-1.5-0.6c-0.4-0.4-0.6-0.9-0.6-1.5
		c0-0.4,0.1-0.7,0.2-1c0.1-0.3,0.5-0.7,0.9-1.1c0.5-0.4,0.8-0.8,0.9-1c0.1-0.2,0.1-0.4,0.1-0.6c0-0.4-0.2-0.8-0.6-1
		c-0.6-0.4-1.4-0.6-2.4-0.6c-1.9,0-3.9,0.7-5.8,2.1c-1.9,1.4-3.5,3.3-4.9,5.8c-1.6,3.1-2.4,6.1-2.4,9.2c0,2,0.6,3.6,1.7,4.8
		c1.2,1.2,2.7,1.8,4.7,1.8c1.5,0,3-0.4,4.6-1.1c1.5-0.8,3.2-2.1,5-4.1L567.6,927.8z"/>
	<path class="st6" d="M585.1,907.3l-5.9,20.9c-0.4,1.4-0.6,2.2-0.6,2.5c0,0.3,0.1,0.6,0.3,0.8c0.2,0.2,0.4,0.3,0.6,0.3
		c0.3,0,0.7-0.2,1.1-0.5c1.1-0.9,2.3-2.2,3.4-3.8l1,0.7c-1.4,2-2.9,3.8-4.8,5.2c-1.3,1-2.6,1.6-3.8,1.6c-0.8,0-1.5-0.2-2-0.7
		s-0.8-1.1-0.8-1.8c0-0.7,0.2-2,0.7-3.7l3.9-13.4c0.6-2.2,0.9-3.5,0.9-4.1c0-0.4-0.2-0.8-0.5-1.1c-0.3-0.3-0.7-0.4-1.2-0.4
		c-0.4,0-1.4,0.1-2.7,0.3V909L585.1,907.3z M584.7,895.5c0.8,0,1.5,0.3,2.1,0.9c0.6,0.6,0.9,1.3,0.9,2.1c0,0.8-0.3,1.5-0.9,2.1
		c-0.6,0.6-1.3,0.9-2.1,0.9c-0.8,0-1.5-0.3-2.1-0.9c-0.6-0.6-0.9-1.3-0.9-2.1c0-0.8,0.3-1.5,0.9-2.1
		C583.2,895.7,583.9,895.5,584.7,895.5z"/>
	<path class="st6" d="M616.7,907.3l-5.8,20.2l-0.7,2.7c0,0.2-0.1,0.5-0.1,0.6c0,0.3,0.1,0.6,0.3,0.9c0.1,0.2,0.3,0.3,0.6,0.3
		s0.6-0.2,1-0.5c0.8-0.6,1.8-1.8,3.1-3.6l1,0.7c-1.4,2.1-2.8,3.6-4.2,4.7c-1.5,1.1-2.8,1.6-4,1.6c-0.8,0-1.5-0.2-1.9-0.6
		c-0.4-0.4-0.6-1-0.6-1.9c0-1,0.2-2.3,0.7-3.8l0.6-2.3c-2.6,3.4-5,5.8-7.2,7.1c-1.6,1-3.1,1.4-4.6,1.4c-1.5,0-2.7-0.6-3.8-1.8
		c-1-1.2-1.6-2.8-1.6-4.9c0-3.2,0.9-6.5,2.8-10s4.3-6.3,7.2-8.4c2.3-1.7,4.4-2.5,6.4-2.5c1.2,0,2.3,0.3,3.1,1
		c0.8,0.6,1.4,1.7,1.8,3.2l1.1-3.4L616.7,907.3z M606,908.8c-1.3,0-2.6,0.6-4,1.8c-2,1.7-3.9,4.2-5.4,7.5c-1.6,3.3-2.4,6.3-2.4,9
		c0,1.3,0.3,2.4,1,3.2c0.7,0.8,1.5,1.2,2.3,1.2c2.1,0,4.5-1.6,7-4.8c3.4-4.2,5.1-8.6,5.1-13.1c0-1.7-0.3-2.9-1-3.7
		C608.1,909.2,607.2,908.8,606,908.8z"/>
	<path class="st6" d="M662,916.6c0,3-0.8,5.9-2.4,8.9c-1.6,2.9-3.8,5.2-6.6,6.9c-2.8,1.7-5.6,2.6-8.2,2.6c-2.7,0-4.9-0.9-6.7-2.6
		c-1.7-1.7-2.6-4-2.6-6.7c0-2.9,0.8-5.9,2.5-8.8c1.7-2.9,3.9-5.3,6.7-7c2.8-1.7,5.5-2.6,8.1-2.6c2.6,0,4.8,0.9,6.5,2.6
		C661.1,911.6,662,913.9,662,916.6z M657.1,914.6c0-1.9-0.5-3.3-1.4-4.3c-0.9-1-2.1-1.5-3.5-1.5c-2.9,0-5.6,2.1-8.1,6.3
		c-2.5,4.2-3.7,8.3-3.7,12.5c0,1.9,0.5,3.3,1.4,4.3c1,1,2.2,1.5,3.6,1.5c2.8,0,5.4-2.1,7.9-6.2C655.8,923.1,657.1,918.8,657.1,914.6
		z"/>
	<path class="st6" d="M681.9,891.9l-5.9,20.6c1.9-2,3.6-3.4,5-4.1c1.4-0.7,2.9-1.1,4.4-1.1c2.2,0,4,0.7,5.4,2.2
		c1.4,1.5,2.1,3.4,2.1,5.9c0,3.2-0.9,6.4-2.8,9.5c-1.8,3.2-4.1,5.6-6.9,7.4c-2.8,1.8-5.5,2.6-8.2,2.6c-3,0-6.1-1.1-9.3-3.4l9.1-31.2
		c0.7-2.4,1-3.8,1-4.3c0-0.5-0.2-0.9-0.5-1.1c-0.4-0.4-1.1-0.6-2-0.6c-0.4,0-1.1,0.1-1.9,0.2v-1.1L681.9,891.9z M670.3,931.9
		c2,1.1,3.8,1.6,5.3,1.6c1.8,0,3.6-0.6,5.4-1.9c1.9-1.3,3.5-3.4,4.9-6.5c1.4-3,2.1-6.1,2.1-9.2c0-1.8-0.5-3.3-1.4-4.3
		c-0.9-1-2-1.6-3.2-1.6c-1.9,0-3.7,0.7-5.4,2.2c-1.8,1.5-3,3.5-3.8,6.2L670.3,931.9z"/>
	<path class="st6" d="M712.9,891.9l-10.2,35.5c-0.5,1.8-0.7,2.9-0.7,3.3c0,0.3,0.1,0.5,0.3,0.7c0.2,0.2,0.4,0.3,0.7,0.3
		c0.4,0,0.8-0.2,1.2-0.5c1-0.8,2.1-2.1,3.3-3.8l0.9,0.9c-1.9,2.7-3.6,4.5-5.2,5.6c-1.2,0.7-2.3,1.1-3.3,1.1c-0.7,0-1.4-0.3-1.9-0.8
		c-0.5-0.5-0.8-1.1-0.8-1.8c0-0.7,0.3-2.2,0.9-4.4l8.1-27.9c0.6-2.3,1-3.6,1-3.9c0-0.5-0.2-0.9-0.6-1.2c-0.4-0.3-1-0.5-1.8-0.5
		c-0.4,0-1.1,0.1-2.1,0.2v-1.1L712.9,891.9z"/>
	<path class="st6" d="M725.7,907.3l-5.9,20.9c-0.4,1.4-0.6,2.2-0.6,2.5c0,0.3,0.1,0.6,0.3,0.8c0.2,0.2,0.4,0.3,0.6,0.3
		c0.3,0,0.7-0.2,1.1-0.5c1.1-0.9,2.3-2.2,3.4-3.8l1,0.7c-1.4,2-2.9,3.8-4.8,5.2c-1.3,1-2.6,1.6-3.8,1.6c-0.8,0-1.5-0.2-2-0.7
		s-0.8-1.1-0.8-1.8c0-0.7,0.2-2,0.7-3.7l3.9-13.4c0.6-2.2,0.9-3.5,0.9-4.1c0-0.4-0.2-0.8-0.5-1.1c-0.3-0.3-0.7-0.4-1.2-0.4
		c-0.4,0-1.4,0.1-2.7,0.3V909L725.7,907.3z M725.4,895.5c0.8,0,1.5,0.3,2.1,0.9c0.6,0.6,0.9,1.3,0.9,2.1c0,0.8-0.3,1.5-0.9,2.1
		c-0.6,0.6-1.3,0.9-2.1,0.9c-0.8,0-1.5-0.3-2.1-0.9c-0.6-0.6-0.9-1.3-0.9-2.1c0-0.8,0.3-1.5,0.9-2.1S724.5,895.5,725.4,895.5z"/>
	<path class="st6" d="M760.5,909.1l-0.9,3.1h-5c0.4,1.1,0.6,2.1,0.6,3c0,2.6-1.1,5-3.3,7c-2.2,2-5.3,3.1-9.2,3.4
		c-2.1,0.6-3.7,1.4-4.7,2.3c-0.4,0.3-0.6,0.6-0.6,1c0,0.4,0.2,0.8,0.5,1.1c0.4,0.3,1.3,0.7,2.7,1l5.8,1.4c3.2,0.7,5.3,1.6,6.3,2.7
		c1,1.1,1.5,2.3,1.5,3.6c0,1.6-0.6,3.1-1.8,4.5c-1.2,1.4-3,2.4-5.3,3.2c-2.3,0.8-4.9,1.1-7.7,1.1c-2.5,0-4.7-0.3-6.7-0.9
		c-2-0.6-3.5-1.4-4.3-2.4c-0.9-1-1.3-2-1.3-3.1c0-0.8,0.3-1.7,0.9-2.6c0.6-0.9,1.3-1.7,2.1-2.3c0.5-0.4,2.1-1.3,4.6-2.7
		c-0.9-0.7-1.4-1.5-1.4-2.4c0-0.8,0.4-1.6,1.2-2.5c0.8-0.9,2.5-1.9,5.1-3c-2.2-0.4-3.9-1.3-5.2-2.7s-1.9-3-1.9-4.7
		c0-2.8,1.2-5.3,3.7-7.6c2.5-2.2,5.8-3.3,9.9-3.3c1.5,0,2.7,0.2,3.6,0.5c0.9,0.3,1.9,0.8,2.8,1.4H760.5z M735.8,934.2
		c-1.6,0.7-2.8,1.7-3.6,2.8c-0.8,1.1-1.2,2.3-1.2,3.4c0,1.3,0.6,2.4,1.8,3.3c1.7,1.2,4.2,1.9,7.5,1.9c2.8,0,5.3-0.5,7.3-1.4
		s3-2.2,3-3.7c0-0.8-0.4-1.5-1.1-2.2c-0.8-0.7-2.2-1.3-4.3-1.7C743.9,936.2,740.9,935.5,735.8,934.2z M750.1,913.8
		c0-1.6-0.4-2.9-1.3-3.8c-0.9-0.9-2-1.4-3.5-1.4c-2.2,0-4.1,1.1-5.6,3.4s-2.2,4.6-2.2,7.1c0,1.5,0.5,2.8,1.4,3.8
		c0.9,1,2.1,1.5,3.4,1.5c1.1,0,2.1-0.3,3.1-0.9c1-0.6,1.8-1.4,2.5-2.4c0.7-1,1.2-2.3,1.6-3.9C749.9,915.6,750.1,914.5,750.1,913.8z"
		/>
	<path class="st6" d="M787.8,907.3l-5.8,20.2l-0.7,2.7c0,0.2-0.1,0.5-0.1,0.6c0,0.3,0.1,0.6,0.3,0.9c0.1,0.2,0.3,0.3,0.6,0.3
		s0.6-0.2,1-0.5c0.8-0.6,1.8-1.8,3.1-3.6l1,0.7c-1.4,2.1-2.8,3.6-4.2,4.7c-1.5,1.1-2.8,1.6-4,1.6c-0.8,0-1.5-0.2-1.9-0.6
		c-0.4-0.4-0.6-1-0.6-1.9c0-1,0.2-2.3,0.7-3.8l0.6-2.3c-2.6,3.4-5,5.8-7.2,7.1c-1.6,1-3.1,1.4-4.6,1.4c-1.5,0-2.7-0.6-3.8-1.8
		c-1-1.2-1.6-2.8-1.6-4.9c0-3.2,0.9-6.5,2.8-10c1.9-3.5,4.3-6.3,7.2-8.4c2.3-1.7,4.4-2.5,6.4-2.5c1.2,0,2.3,0.3,3.1,1
		c0.8,0.6,1.4,1.7,1.8,3.2l1.1-3.4L787.8,907.3z M777.2,908.8c-1.3,0-2.6,0.6-4,1.8c-2,1.7-3.9,4.2-5.4,7.5c-1.6,3.3-2.4,6.3-2.4,9
		c0,1.3,0.3,2.4,1,3.2c0.7,0.8,1.5,1.2,2.3,1.2c2.1,0,4.5-1.6,7-4.8c3.4-4.2,5.1-8.6,5.1-13.1c0-1.7-0.3-2.9-1-3.7
		C779.2,909.2,778.3,908.8,777.2,908.8z"/>
	<path class="st6" d="M805.5,899.9l-2.3,8.1h4.7l-0.5,1.9h-4.6l-5.1,17.5c-0.5,1.9-0.8,3.1-0.8,3.7c0,0.3,0.1,0.6,0.2,0.8
		c0.1,0.2,0.3,0.3,0.6,0.3c0.5,0,1.1-0.4,2-1.1c0.5-0.4,1.6-1.6,3.2-3.7l1,0.8c-1.8,2.6-3.6,4.5-5.2,5.6c-1.1,0.7-2.2,1.1-3.4,1.1
		c-0.9,0-1.6-0.3-2.1-0.8c-0.6-0.5-0.8-1.2-0.8-2.1c0-1.1,0.3-2.7,0.9-4.9l5-17.2h-4.5l0.3-1.2c2.2-0.6,4-1.5,5.5-2.7
		c1.4-1.2,3.1-3.2,4.9-6.1H805.5z"/>
	<path class="st6" d="M834.8,916.6c0,3-0.8,5.9-2.4,8.9c-1.6,2.9-3.8,5.2-6.6,6.9c-2.8,1.7-5.6,2.6-8.2,2.6c-2.7,0-4.9-0.9-6.7-2.6
		c-1.7-1.7-2.6-4-2.6-6.7c0-2.9,0.8-5.9,2.5-8.8c1.7-2.9,3.9-5.3,6.7-7c2.8-1.7,5.5-2.6,8.1-2.6c2.6,0,4.8,0.9,6.5,2.6
		C834,911.6,834.8,913.9,834.8,916.6z M829.9,914.6c0-1.9-0.5-3.3-1.4-4.3c-0.9-1-2.1-1.5-3.5-1.5c-2.9,0-5.6,2.1-8.1,6.3
		c-2.5,4.2-3.7,8.3-3.7,12.5c0,1.9,0.5,3.3,1.4,4.3c1,1,2.2,1.5,3.6,1.5c2.8,0,5.4-2.1,7.9-6.2C828.7,923.1,829.9,918.8,829.9,914.6
		z"/>
	<path class="st6" d="M840.3,909l10.3-1.7l-4.3,14.5c3.5-5.9,6.6-10.1,9.5-12.5c1.6-1.4,2.9-2,3.9-2c0.7,0,1.2,0.2,1.6,0.6
		c0.4,0.4,0.6,1,0.6,1.7c0,1.3-0.3,2.6-1,3.7c-0.5,0.9-1.2,1.3-2.1,1.3c-0.4,0-0.8-0.1-1.2-0.4c-0.3-0.3-0.5-0.8-0.6-1.4
		c0-0.4-0.1-0.6-0.3-0.7c-0.2-0.1-0.4-0.2-0.6-0.2c-0.3,0-0.7,0.1-1,0.2c-0.5,0.3-1.3,1-2.4,2.3c-1.7,1.9-3.4,4.5-5.4,7.6
		c-0.8,1.3-1.5,2.8-2.1,4.4c-0.8,2.3-1.3,3.6-1.4,4.1l-1,3.7h-4.6l5.5-18.5c0.6-2.1,0.9-3.7,0.9-4.6c0-0.3-0.1-0.6-0.4-0.9
		c-0.4-0.3-0.9-0.5-1.6-0.5c-0.4,0-1.2,0.1-2.3,0.3L840.3,909z"/>
	<path class="st6" d="M874.9,907.3l-5.9,20.9c-0.4,1.4-0.6,2.2-0.6,2.5c0,0.3,0.1,0.6,0.3,0.8c0.2,0.2,0.4,0.3,0.6,0.3
		c0.3,0,0.7-0.2,1.1-0.5c1.1-0.9,2.3-2.2,3.4-3.8l1,0.7c-1.4,2-2.9,3.8-4.8,5.2c-1.3,1-2.6,1.6-3.8,1.6c-0.8,0-1.5-0.2-2-0.7
		c-0.5-0.5-0.8-1.1-0.8-1.8c0-0.7,0.2-2,0.7-3.7l3.9-13.4c0.6-2.2,0.9-3.5,0.9-4.1c0-0.4-0.2-0.8-0.5-1.1c-0.3-0.3-0.7-0.4-1.2-0.4
		c-0.4,0-1.4,0.1-2.7,0.3V909L874.9,907.3z M874.5,895.5c0.8,0,1.5,0.3,2.1,0.9c0.6,0.6,0.9,1.3,0.9,2.1c0,0.8-0.3,1.5-0.9,2.1
		c-0.6,0.6-1.3,0.9-2.1,0.9c-0.8,0-1.5-0.3-2.1-0.9c-0.6-0.6-0.9-1.3-0.9-2.1c0-0.8,0.3-1.5,0.9-2.1S873.7,895.5,874.5,895.5z"/>
	<path class="st6" d="M906.5,907.3l-5.8,20.2l-0.7,2.7c0,0.2-0.1,0.5-0.1,0.6c0,0.3,0.1,0.6,0.3,0.9c0.1,0.2,0.3,0.3,0.6,0.3
		s0.6-0.2,1-0.5c0.8-0.6,1.8-1.8,3.1-3.6l1,0.7c-1.4,2.1-2.8,3.6-4.2,4.7c-1.5,1.1-2.8,1.6-4,1.6c-0.8,0-1.5-0.2-1.9-0.6
		c-0.4-0.4-0.6-1-0.6-1.9c0-1,0.2-2.3,0.7-3.8l0.6-2.3c-2.6,3.4-5,5.8-7.2,7.1c-1.6,1-3.1,1.4-4.6,1.4c-1.5,0-2.7-0.6-3.8-1.8
		c-1-1.2-1.6-2.8-1.6-4.9c0-3.2,0.9-6.5,2.8-10s4.3-6.3,7.2-8.4c2.3-1.7,4.4-2.5,6.4-2.5c1.2,0,2.3,0.3,3.1,1
		c0.8,0.6,1.4,1.7,1.8,3.2l1.1-3.4L906.5,907.3z M895.9,908.8c-1.3,0-2.6,0.6-4,1.8c-2,1.7-3.9,4.2-5.4,7.5c-1.6,3.3-2.4,6.3-2.4,9
		c0,1.3,0.3,2.4,1,3.2c0.7,0.8,1.5,1.2,2.3,1.2c2.1,0,4.5-1.6,7-4.8c3.4-4.2,5.1-8.6,5.1-13.1c0-1.7-0.3-2.9-1-3.7
		C897.9,909.2,897,908.8,895.9,908.8z"/>
	<path class="st6" d="M913.4,928.9c0.8,0,1.6,0.3,2.1,0.9s0.9,1.3,0.9,2.1c0,0.8-0.3,1.6-0.9,2.1c-0.6,0.6-1.3,0.9-2.1,0.9
		c-0.8,0-1.5-0.3-2.1-0.9c-0.6-0.6-0.9-1.3-0.9-2.1c0-0.8,0.3-1.5,0.9-2.1C911.8,929.2,912.6,928.9,913.4,928.9z"/>
	<path class="st6" d="M79,985.9h15.9c4.2,0,7.3,0.9,9.4,2.7c2.1,1.8,3.1,4,3.1,6.6c0,2-0.7,4-2,6c-1.3,1.9-3.3,3.5-5.8,4.7
		c-2.6,1.2-5.4,1.8-8.4,1.8c-1.9,0-4.3-0.3-7.1-1l-3.2,11c-0.8,2.6-1.1,4.3-1.1,5.2c0,0.6,0.3,1.2,0.8,1.6c0.5,0.4,1.8,0.7,3.9,0.8
		l-0.3,1.1H68l0.3-1.1c2.1,0,3.6-0.4,4.4-1.1c0.8-0.7,1.7-2.7,2.6-6l6.7-23c0.8-2.8,1.2-4.6,1.2-5.6c0-0.7-0.3-1.3-0.9-1.7
		c-0.6-0.5-1.8-0.7-3.7-0.8L79,985.9z M84.5,1004.7c2.2,0.6,4.1,0.9,5.4,0.9c2.1,0,4.1-0.4,5.9-1.4c1.8-0.9,3.2-2.2,4.2-4
		c1-1.8,1.5-3.6,1.5-5.6c0-2-0.6-3.6-1.9-4.8c-1.2-1.2-3.1-1.8-5.6-1.8c-1.4,0-3,0.2-4.9,0.5L84.5,1004.7z"/>
	<path class="st6" d="M113.9,1015.1c-0.1,1-0.2,1.8-0.2,2.4c0,1.8,0.6,3.3,1.9,4.5c1.2,1.2,2.8,1.9,4.6,1.9c1.4,0,2.8-0.3,4.1-0.9
		c1.3-0.6,3.3-1.9,5.9-3.9l0.6,0.9c-4.7,4.7-9.2,7-13.5,7c-2.9,0-5.1-0.9-6.5-2.7c-1.5-1.8-2.2-3.8-2.2-6c0-3,0.9-6,2.7-9.1
		c1.8-3.1,4.1-5.5,6.9-7.2c2.8-1.7,5.6-2.6,8.5-2.6c2.1,0,3.7,0.4,4.7,1.3c1,0.9,1.5,1.9,1.5,3c0,1.7-0.7,3.2-2,4.7
		c-1.7,2-4.3,3.6-7.6,4.8C121.1,1014,118,1014.6,113.9,1015.1z M114.2,1013.6c2.9-0.3,5.3-0.9,7.2-1.7c2.4-1.1,4.3-2.4,5.5-3.9
		c1.2-1.5,1.8-3,1.8-4.3c0-0.8-0.3-1.5-0.8-2c-0.5-0.5-1.3-0.8-2.2-0.8c-2,0-4.2,1.1-6.4,3.2
		C116.9,1006.2,115.3,1009.4,114.2,1013.6z"/>
	<path class="st6" d="M137,1001l10.3-1.7l-4.3,14.5c3.5-5.9,6.6-10.1,9.5-12.5c1.6-1.4,2.9-2,3.9-2c0.7,0,1.2,0.2,1.6,0.6
		c0.4,0.4,0.6,1,0.6,1.7c0,1.3-0.3,2.6-1,3.7c-0.5,0.9-1.2,1.3-2.1,1.3c-0.4,0-0.8-0.1-1.2-0.4c-0.3-0.3-0.5-0.8-0.6-1.4
		c0-0.4-0.1-0.6-0.3-0.7c-0.2-0.1-0.4-0.2-0.6-0.2c-0.3,0-0.7,0.1-1,0.2c-0.5,0.3-1.3,1-2.4,2.3c-1.7,1.9-3.4,4.5-5.4,7.6
		c-0.8,1.3-1.5,2.8-2.1,4.4c-0.8,2.3-1.3,3.6-1.4,4.1l-1,3.7H135l5.5-18.5c0.6-2.1,0.9-3.7,0.9-4.6c0-0.3-0.1-0.6-0.4-0.9
		c-0.4-0.3-0.9-0.5-1.6-0.5c-0.4,0-1.2,0.1-2.3,0.3L137,1001z"/>
	<path class="st6" d="M185.8,1008.6c0,3-0.8,5.9-2.4,8.9s-3.8,5.2-6.6,6.9c-2.8,1.7-5.6,2.6-8.2,2.6c-2.7,0-4.9-0.9-6.7-2.6
		c-1.7-1.7-2.6-4-2.6-6.7c0-2.9,0.8-5.9,2.5-8.8c1.7-2.9,3.9-5.3,6.7-7c2.8-1.7,5.5-2.6,8.1-2.6c2.6,0,4.8,0.9,6.5,2.6
		C184.9,1003.6,185.8,1005.9,185.8,1008.6z M180.8,1006.6c0-1.9-0.5-3.3-1.4-4.3c-0.9-1-2.1-1.5-3.5-1.5c-2.9,0-5.6,2.1-8.1,6.3
		c-2.5,4.2-3.7,8.3-3.7,12.5c0,1.9,0.5,3.3,1.4,4.3c1,1,2.2,1.5,3.6,1.5c2.8,0,5.4-2.1,7.9-6.2
		C179.6,1015.1,180.8,1010.9,180.8,1006.6z"/>
	<path class="st6" d="M225.4,999.3l-1.8,9.2h-1.1c-0.1-2.7-0.7-4.6-1.7-5.8c-1-1.2-2.3-1.8-3.8-1.8c-1.2,0-2.2,0.3-2.9,1
		c-0.7,0.7-1.1,1.5-1.1,2.4c0,0.6,0.1,1.3,0.4,1.9c0.3,0.6,0.9,1.4,1.9,2.5c2.6,2.8,4.2,5,5,6.4c0.8,1.4,1.1,2.8,1.1,4.1
		c0,2.1-0.9,3.9-2.6,5.5c-1.7,1.6-3.9,2.4-6.5,2.4c-1.4,0-3.1-0.3-5-1c-0.6-0.2-1.1-0.4-1.5-0.4c-0.9,0-1.6,0.5-2,1.4h-1.1l1.8-9.7
		h1.1c0.1,3,0.7,5.2,1.9,6.4c1.1,1.2,2.7,1.9,4.7,1.9c1.5,0,2.7-0.4,3.6-1.3c0.9-0.8,1.3-1.9,1.3-3.1c0-0.8-0.2-1.5-0.5-2.2
		c-0.6-1.2-1.7-2.8-3.5-4.9c-1.8-2.1-2.9-3.7-3.4-4.7c-0.5-1-0.8-2.1-0.8-3.2c0-1.9,0.7-3.6,2.1-4.9c1.4-1.3,3.2-2,5.4-2
		c0.6,0,1.2,0,1.7,0.1c0.3,0.1,0.9,0.3,1.9,0.7c1,0.4,1.7,0.6,2.1,0.6c0.8,0,1.6-0.5,2.1-1.4H225.4z"/>
	<path class="st6" d="M241.1,999.3l-5.9,20.9c-0.4,1.4-0.6,2.2-0.6,2.5c0,0.3,0.1,0.6,0.3,0.8c0.2,0.2,0.4,0.3,0.6,0.3
		c0.3,0,0.7-0.2,1.1-0.5c1.1-0.9,2.3-2.2,3.4-3.8l1,0.7c-1.4,2-2.9,3.8-4.8,5.2c-1.3,1-2.6,1.6-3.8,1.6c-0.8,0-1.5-0.2-2-0.7
		s-0.8-1.1-0.8-1.8c0-0.7,0.2-2,0.7-3.7l3.9-13.4c0.6-2.2,0.9-3.5,0.9-4.1c0-0.4-0.2-0.8-0.5-1.1c-0.3-0.3-0.7-0.4-1.2-0.4
		c-0.4,0-1.4,0.1-2.7,0.3v-1.1L241.1,999.3z M240.7,987.5c0.8,0,1.5,0.3,2.1,0.9c0.6,0.6,0.9,1.3,0.9,2.1c0,0.8-0.3,1.5-0.9,2.1
		c-0.6,0.6-1.3,0.9-2.1,0.9c-0.8,0-1.5-0.3-2.1-0.9c-0.6-0.6-0.9-1.3-0.9-2.1c0-0.8,0.3-1.5,0.9-2.1
		C239.2,987.8,239.9,987.5,240.7,987.5z"/>
	<path class="st6" d="M288.2,999.3l-9.8,33.7c-0.4,1.6-0.6,2.6-0.6,3c0,0.4,0.1,0.8,0.3,1.2c0.2,0.3,0.5,0.6,0.9,0.7
		c0.6,0.2,1.4,0.4,2.4,0.4l-0.3,1.1h-14.3l0.3-1.1c1.9-0.2,3.2-0.3,3.6-0.5c0.8-0.3,1.4-0.8,1.9-1.5c0.5-0.7,1-2.1,1.6-4.2l4.1-14.7
		c-2.6,3.8-5.1,6.5-7.3,8.1c-1.6,1.1-3.1,1.6-4.5,1.6c-2,0-3.5-0.8-4.5-2.4c-1-1.6-1.5-3.4-1.5-5.3c0-3,0.9-6.1,2.8-9.4
		c1.9-3.3,4.3-6,7.3-8.1c2.3-1.7,4.5-2.5,6.4-2.5c1.4,0,2.6,0.3,3.5,1c0.9,0.7,1.6,1.8,2,3.3l0.9-3.3L288.2,999.3z M281.4,1005.1
		c0-1.3-0.4-2.3-1.2-3.1c-0.8-0.8-1.7-1.2-2.9-1.2c-2.4,0-5,2.1-7.6,6.3c-2.7,4.2-4,8.1-4,11.8c0,1.5,0.3,2.6,1,3.4
		c0.7,0.8,1.5,1.2,2.4,1.2c1.2,0,2.6-0.7,4.1-2c2.3-2,4.3-4.7,5.8-7.9C280.6,1010.3,281.4,1007.5,281.4,1005.1z"/>
	<path class="st6" d="M318.5,1000l-5.2,17.8c-0.8,2.6-1.1,4.3-1.1,5c0,0.3,0.1,0.6,0.2,0.8c0.1,0.2,0.3,0.3,0.5,0.3
		c0.3,0,0.7-0.2,1.1-0.5c0.4-0.3,1.4-1.5,3.1-3.7l0.9,0.7c-1.6,2.5-3.2,4.3-4.8,5.5c-1.1,0.7-2.1,1.1-3.1,1.1
		c-0.8,0-1.4-0.2-1.8-0.6c-0.4-0.4-0.6-1-0.6-1.7c0-0.7,0.1-1.6,0.4-2.7c0.3-1.5,1.2-4.7,2.7-9.6c-3.4,5.6-6.2,9.4-8.5,11.5
		c-2.3,2.1-4.4,3.1-6.3,3.1c-0.9,0-1.7-0.3-2.3-0.9c-0.6-0.6-1-1.4-1-2.4c0-1.5,0.4-3.8,1.3-6.8l2.6-9.2c0.6-2.2,0.9-3.6,0.9-4.1
		c0-0.2-0.1-0.4-0.2-0.6c-0.2-0.2-0.3-0.3-0.5-0.3c-0.4,0-0.8,0.1-1.3,0.4c-0.4,0.3-1.4,1.4-2.9,3.3l-0.9-0.6c1.5-2.3,3.1-4,4.7-5.1
		c1.3-0.9,2.5-1.3,3.5-1.3c0.7,0,1.3,0.2,1.8,0.7c0.5,0.5,0.7,1.1,0.7,1.8c0,1.1-0.4,3-1.2,5.7l-2.8,9.6c-0.8,2.6-1.1,4.3-1.1,5
		c0,0.4,0.1,0.7,0.4,0.9c0.2,0.2,0.6,0.4,1,0.4c0.6,0,1.5-0.3,2.6-1c1.1-0.7,2.5-2.1,4.2-4.4c1.8-2.3,3.2-4.4,4.3-6.3
		c1.1-2,2.4-5.1,3.6-9.4l0.7-2.3H318.5z"/>
	<path class="st6" d="M334.3,999.3l-5.9,20.9c-0.4,1.4-0.6,2.2-0.6,2.5c0,0.3,0.1,0.6,0.3,0.8c0.2,0.2,0.4,0.3,0.6,0.3
		c0.3,0,0.7-0.2,1.1-0.5c1.1-0.9,2.3-2.2,3.4-3.8l1,0.7c-1.4,2-2.9,3.8-4.8,5.2c-1.3,1-2.6,1.6-3.8,1.6c-0.8,0-1.5-0.2-2-0.7
		s-0.8-1.1-0.8-1.8c0-0.7,0.2-2,0.7-3.7l3.9-13.4c0.6-2.2,0.9-3.5,0.9-4.1c0-0.4-0.2-0.8-0.5-1.1c-0.3-0.3-0.7-0.4-1.2-0.4
		c-0.4,0-1.4,0.1-2.7,0.3v-1.1L334.3,999.3z M333.9,987.5c0.8,0,1.5,0.3,2.1,0.9c0.6,0.6,0.9,1.3,0.9,2.1c0,0.8-0.3,1.5-0.9,2.1
		c-0.6,0.6-1.3,0.9-2.1,0.9c-0.8,0-1.5-0.3-2.1-0.9c-0.6-0.6-0.9-1.3-0.9-2.1c0-0.8,0.3-1.5,0.9-2.1
		C332.4,987.8,333.1,987.5,333.9,987.5z"/>
	<path class="st6" d="M344.5,1015.1c-0.1,1-0.2,1.8-0.2,2.4c0,1.8,0.6,3.3,1.9,4.5c1.2,1.2,2.8,1.9,4.6,1.9c1.4,0,2.8-0.3,4.1-0.9
		c1.3-0.6,3.3-1.9,5.9-3.9l0.6,0.9c-4.7,4.7-9.2,7-13.5,7c-2.9,0-5.1-0.9-6.5-2.7c-1.5-1.8-2.2-3.8-2.2-6c0-3,0.9-6,2.7-9.1
		c1.8-3.1,4.1-5.5,6.9-7.2c2.8-1.7,5.6-2.6,8.5-2.6c2.1,0,3.7,0.4,4.7,1.3c1,0.9,1.5,1.9,1.5,3c0,1.7-0.7,3.2-2,4.7
		c-1.7,2-4.3,3.6-7.6,4.8C351.6,1014,348.5,1014.6,344.5,1015.1z M344.7,1013.6c2.9-0.3,5.3-0.9,7.2-1.7c2.4-1.1,4.3-2.4,5.5-3.9
		s1.8-3,1.8-4.3c0-0.8-0.3-1.5-0.8-2c-0.5-0.5-1.3-0.8-2.2-0.8c-2,0-4.2,1.1-6.4,3.2C347.4,1006.2,345.8,1009.4,344.7,1013.6z"/>
	<path class="st6" d="M367.5,1001l10.3-1.7l-4.3,14.5c3.5-5.9,6.6-10.1,9.5-12.5c1.6-1.4,2.9-2,3.9-2c0.7,0,1.2,0.2,1.6,0.6
		c0.4,0.4,0.6,1,0.6,1.7c0,1.3-0.3,2.6-1,3.7c-0.5,0.9-1.2,1.3-2.1,1.3c-0.4,0-0.8-0.1-1.2-0.4c-0.3-0.3-0.5-0.8-0.6-1.4
		c0-0.4-0.1-0.6-0.3-0.7c-0.2-0.1-0.4-0.2-0.6-0.2c-0.3,0-0.7,0.1-1,0.2c-0.5,0.3-1.3,1-2.4,2.3c-1.7,1.9-3.4,4.5-5.4,7.6
		c-0.8,1.3-1.5,2.8-2.1,4.4c-0.8,2.3-1.3,3.6-1.4,4.1l-1,3.7h-4.6l5.5-18.5c0.6-2.1,0.9-3.7,0.9-4.6c0-0.3-0.1-0.6-0.4-0.9
		c-0.4-0.3-0.9-0.5-1.6-0.5c-0.4,0-1.2,0.1-2.3,0.3L367.5,1001z"/>
	<path class="st6" d="M395.3,1015.1c-0.1,1-0.2,1.8-0.2,2.4c0,1.8,0.6,3.3,1.9,4.5c1.2,1.2,2.8,1.9,4.6,1.9c1.4,0,2.8-0.3,4.1-0.9
		c1.3-0.6,3.3-1.9,5.9-3.9l0.6,0.9c-4.7,4.7-9.2,7-13.5,7c-2.9,0-5.1-0.9-6.5-2.7c-1.5-1.8-2.2-3.8-2.2-6c0-3,0.9-6,2.7-9.1
		c1.8-3.1,4.1-5.5,6.9-7.2c2.8-1.7,5.6-2.6,8.5-2.6c2.1,0,3.7,0.4,4.7,1.3c1,0.9,1.5,1.9,1.5,3c0,1.7-0.7,3.2-2,4.7
		c-1.7,2-4.3,3.6-7.6,4.8C402.5,1014,399.4,1014.6,395.3,1015.1z M395.5,1013.6c2.9-0.3,5.3-0.9,7.2-1.7c2.4-1.1,4.3-2.4,5.5-3.9
		s1.8-3,1.8-4.3c0-0.8-0.3-1.5-0.8-2c-0.5-0.5-1.3-0.8-2.2-0.8c-2,0-4.2,1.1-6.4,3.2C398.3,1006.2,396.6,1009.4,395.5,1013.6z"/>
	<path class="st6" d="M437.3,999.3l-1.8,9.2h-1.1c-0.1-2.7-0.7-4.6-1.7-5.8c-1-1.2-2.3-1.8-3.8-1.8c-1.2,0-2.2,0.3-2.9,1
		c-0.7,0.7-1.1,1.5-1.1,2.4c0,0.6,0.1,1.3,0.4,1.9c0.3,0.6,0.9,1.4,1.9,2.5c2.6,2.8,4.2,5,5,6.4c0.8,1.4,1.1,2.8,1.1,4.1
		c0,2.1-0.9,3.9-2.6,5.5c-1.7,1.6-3.9,2.4-6.5,2.4c-1.4,0-3.1-0.3-5-1c-0.6-0.2-1.1-0.4-1.5-0.4c-0.9,0-1.6,0.5-2,1.4h-1.1l1.8-9.7
		h1.1c0.1,3,0.7,5.2,1.9,6.4c1.1,1.2,2.7,1.9,4.7,1.9c1.5,0,2.7-0.4,3.6-1.3c0.9-0.8,1.3-1.9,1.3-3.1c0-0.8-0.2-1.5-0.5-2.2
		c-0.6-1.2-1.7-2.8-3.5-4.9c-1.8-2.1-2.9-3.7-3.4-4.7c-0.5-1-0.8-2.1-0.8-3.2c0-1.9,0.7-3.6,2.1-4.9c1.4-1.3,3.2-2,5.4-2
		c0.6,0,1.2,0,1.7,0.1c0.3,0.1,0.9,0.3,1.9,0.7c1,0.4,1.7,0.6,2.1,0.6c0.8,0,1.6-0.5,2.1-1.4H437.3z"/>
	<path class="st6" d="M470,991.9l-2.3,8.1h4.7l-0.5,1.9h-4.6l-5.1,17.5c-0.5,1.9-0.8,3.1-0.8,3.7c0,0.3,0.1,0.6,0.2,0.8
		c0.1,0.2,0.3,0.3,0.6,0.3c0.5,0,1.1-0.4,2-1.1c0.5-0.4,1.6-1.6,3.2-3.7l1,0.8c-1.8,2.6-3.6,4.5-5.2,5.6c-1.1,0.7-2.2,1.1-3.4,1.1
		c-0.9,0-1.6-0.3-2.1-0.8c-0.6-0.5-0.8-1.2-0.8-2.1c0-1.1,0.3-2.7,0.9-4.9l5-17.2h-4.5l0.3-1.2c2.2-0.6,4-1.5,5.5-2.7
		c1.4-1.2,3.1-3.2,4.9-6.1H470z"/>
	<path class="st6" d="M478.4,1015.1c-0.1,1-0.2,1.8-0.2,2.4c0,1.8,0.6,3.3,1.9,4.5c1.2,1.2,2.8,1.9,4.6,1.9c1.4,0,2.8-0.3,4.1-0.9
		c1.3-0.6,3.3-1.9,5.9-3.9l0.6,0.9c-4.7,4.7-9.2,7-13.5,7c-2.9,0-5.1-0.9-6.5-2.7c-1.5-1.8-2.2-3.8-2.2-6c0-3,0.9-6,2.7-9.1
		c1.8-3.1,4.1-5.5,6.9-7.2c2.8-1.7,5.6-2.6,8.5-2.6c2.1,0,3.7,0.4,4.7,1.3c1,0.9,1.5,1.9,1.5,3c0,1.7-0.7,3.2-2,4.7
		c-1.7,2-4.3,3.6-7.6,4.8C485.6,1014,482.4,1014.6,478.4,1015.1z M478.6,1013.6c2.9-0.3,5.3-0.9,7.2-1.7c2.4-1.1,4.3-2.4,5.5-3.9
		s1.8-3,1.8-4.3c0-0.8-0.3-1.5-0.8-2c-0.5-0.5-1.3-0.8-2.2-0.8c-2,0-4.2,1.1-6.4,3.2C481.4,1006.2,479.7,1009.4,478.6,1013.6z"/>
	<path class="st6" d="M511.7,999.3l-4,13.6c3.7-5.6,6.5-9.2,8.5-11c2-1.8,3.9-2.6,5.7-2.6c1,0,1.8,0.3,2.4,1c0.6,0.7,1,1.5,1,2.6
		c0,1.2-0.3,2.8-0.9,4.8l-3.6,12.5c-0.4,1.5-0.6,2.3-0.6,2.7c0,0.3,0.1,0.5,0.2,0.7c0.2,0.2,0.3,0.3,0.5,0.3c0.2,0,0.5-0.1,0.9-0.4
		c1.1-0.8,2.2-2.1,3.5-3.8l0.9,0.6c-1.9,2.6-3.6,4.5-5.3,5.7c-1.2,0.8-2.2,1.1-3.1,1.1c-0.7,0-1.3-0.2-1.8-0.7
		c-0.4-0.4-0.6-1-0.6-1.8c0-1,0.3-2.6,1-4.9l3.5-12c0.4-1.5,0.6-2.6,0.6-3.5c0-0.4-0.1-0.7-0.4-1c-0.3-0.2-0.6-0.4-0.9-0.4
		c-0.5,0-1.2,0.2-2,0.7c-1.5,0.9-3,2.4-4.6,4.4c-1.6,2.1-3.3,4.7-5.1,7.9c-0.9,1.7-1.7,3.6-2.3,5.6l-1.5,4.9h-4.5l5.4-18.7
		c0.6-2.2,1-3.6,1-4c0-0.4-0.2-0.8-0.5-1.2c-0.4-0.3-0.8-0.5-1.3-0.5c-0.2,0-0.7,0-1.3,0.1l-1.1,0.1l-0.2-1.1L511.7,999.3z"/>
	<path class="st6" d="M536,1015.1c-0.1,1-0.2,1.8-0.2,2.4c0,1.8,0.6,3.3,1.9,4.5c1.2,1.2,2.8,1.9,4.6,1.9c1.4,0,2.8-0.3,4.1-0.9
		c1.3-0.6,3.3-1.9,5.9-3.9l0.6,0.9c-4.7,4.7-9.2,7-13.5,7c-2.9,0-5.1-0.9-6.5-2.7c-1.5-1.8-2.2-3.8-2.2-6c0-3,0.9-6,2.7-9.1
		c1.8-3.1,4.1-5.5,6.9-7.2c2.8-1.7,5.6-2.6,8.5-2.6c2.1,0,3.7,0.4,4.7,1.3c1,0.9,1.5,1.9,1.5,3c0,1.7-0.7,3.2-2,4.7
		c-1.7,2-4.3,3.6-7.6,4.8C543.1,1014,540,1014.6,536,1015.1z M536.2,1013.6c2.9-0.3,5.3-0.9,7.2-1.7c2.4-1.1,4.3-2.4,5.5-3.9
		s1.8-3,1.8-4.3c0-0.8-0.3-1.5-0.8-2c-0.5-0.5-1.3-0.8-2.2-0.8c-2,0-4.2,1.1-6.4,3.2C538.9,1006.2,537.3,1009.4,536.2,1013.6z"/>
	<path class="st6" d="M559,1001l10.3-1.7l-4.3,14.5c3.5-5.9,6.6-10.1,9.5-12.5c1.6-1.4,2.9-2,3.9-2c0.7,0,1.2,0.2,1.6,0.6
		c0.4,0.4,0.6,1,0.6,1.7c0,1.3-0.3,2.6-1,3.7c-0.5,0.9-1.2,1.3-2.1,1.3c-0.4,0-0.8-0.1-1.2-0.4c-0.3-0.3-0.5-0.8-0.6-1.4
		c0-0.4-0.1-0.6-0.3-0.7c-0.2-0.1-0.4-0.2-0.6-0.2c-0.3,0-0.7,0.1-1,0.2c-0.5,0.3-1.3,1-2.4,2.3c-1.7,1.9-3.4,4.5-5.4,7.6
		c-0.8,1.3-1.5,2.8-2.1,4.4c-0.8,2.3-1.3,3.6-1.4,4.1l-1,3.7h-4.6l5.5-18.5c0.6-2.1,0.9-3.7,0.9-4.6c0-0.3-0.1-0.6-0.4-0.9
		c-0.4-0.3-0.9-0.5-1.6-0.5c-0.4,0-1.2,0.1-2.3,0.3L559,1001z"/>
	<path class="st6" d="M623.5,1000l-5.2,17.8c-0.8,2.6-1.1,4.3-1.1,5c0,0.3,0.1,0.6,0.2,0.8c0.1,0.2,0.3,0.3,0.5,0.3
		c0.3,0,0.7-0.2,1.1-0.5c0.4-0.3,1.4-1.5,3.1-3.7l0.9,0.7c-1.6,2.5-3.2,4.3-4.8,5.5c-1.1,0.7-2.1,1.1-3.1,1.1
		c-0.8,0-1.4-0.2-1.8-0.6c-0.4-0.4-0.6-1-0.6-1.7c0-0.7,0.1-1.6,0.4-2.7c0.3-1.5,1.2-4.7,2.7-9.6c-3.4,5.6-6.2,9.4-8.5,11.5
		c-2.3,2.1-4.4,3.1-6.3,3.1c-0.9,0-1.7-0.3-2.3-0.9c-0.6-0.6-1-1.4-1-2.4c0-1.5,0.4-3.8,1.3-6.8l2.6-9.2c0.6-2.2,0.9-3.6,0.9-4.1
		c0-0.2-0.1-0.4-0.2-0.6c-0.2-0.2-0.3-0.3-0.5-0.3c-0.4,0-0.8,0.1-1.3,0.4c-0.4,0.3-1.4,1.4-2.9,3.3l-0.9-0.6c1.5-2.3,3.1-4,4.7-5.1
		c1.3-0.9,2.5-1.3,3.5-1.3c0.7,0,1.3,0.2,1.8,0.7c0.5,0.5,0.7,1.1,0.7,1.8c0,1.1-0.4,3-1.2,5.7l-2.8,9.6c-0.8,2.6-1.1,4.3-1.1,5
		c0,0.4,0.1,0.7,0.4,0.9c0.2,0.2,0.6,0.4,1,0.4c0.6,0,1.5-0.3,2.6-1c1.1-0.7,2.5-2.1,4.2-4.4c1.8-2.3,3.2-4.4,4.3-6.3
		c1.1-2,2.4-5.1,3.6-9.4l0.7-2.3H623.5z"/>
	<path class="st6" d="M638.8,999.3l-4,13.6c3.7-5.6,6.5-9.2,8.5-11c2-1.8,3.9-2.6,5.7-2.6c1,0,1.8,0.3,2.4,1c0.6,0.7,1,1.5,1,2.6
		c0,1.2-0.3,2.8-0.9,4.8l-3.6,12.5c-0.4,1.5-0.6,2.3-0.6,2.7c0,0.3,0.1,0.5,0.2,0.7c0.2,0.2,0.3,0.3,0.5,0.3c0.2,0,0.5-0.1,0.9-0.4
		c1.1-0.8,2.2-2.1,3.5-3.8l0.9,0.6c-1.9,2.6-3.6,4.5-5.3,5.7c-1.2,0.8-2.2,1.1-3.1,1.1c-0.7,0-1.3-0.2-1.8-0.7
		c-0.4-0.4-0.6-1-0.6-1.8c0-1,0.3-2.6,1-4.9l3.5-12c0.4-1.5,0.6-2.6,0.6-3.5c0-0.4-0.1-0.7-0.4-1c-0.3-0.2-0.6-0.4-0.9-0.4
		c-0.5,0-1.2,0.2-2,0.7c-1.5,0.9-3,2.4-4.6,4.4c-1.6,2.1-3.3,4.7-5.1,7.9c-0.9,1.7-1.7,3.6-2.3,5.6l-1.5,4.9h-4.5l5.4-18.7
		c0.6-2.2,1-3.6,1-4c0-0.4-0.2-0.8-0.5-1.2c-0.4-0.3-0.8-0.5-1.3-0.5c-0.2,0-0.7,0-1.3,0.1l-1.1,0.1l-0.2-1.1L638.8,999.3z"/>
	<path class="st6" d="M704.1,983.9l-10.3,35.2c-0.6,1.9-0.9,3.2-0.9,3.8c0,0.2,0.1,0.4,0.3,0.6c0.2,0.2,0.3,0.3,0.5,0.3
		c0.3,0,0.6-0.1,0.9-0.4c0.7-0.5,1.8-1.7,3.4-3.6l1,0.6c-1.4,2-2.9,3.6-4.3,4.8c-1.5,1.2-2.8,1.9-4.1,1.9c-0.7,0-1.3-0.2-1.7-0.7
		c-0.4-0.5-0.6-1.1-0.6-2c0-1.1,0.3-2.7,0.9-4.6l1.1-3.7c-2.9,4.5-5.5,7.6-7.8,9.3c-1.6,1.2-3.2,1.7-4.7,1.7c-1.5,0-2.9-0.7-4-2
		c-1.1-1.3-1.7-3.2-1.7-5.5c0-3,0.9-6.1,2.8-9.5c1.9-3.4,4.4-6.1,7.5-8.2c2.4-1.7,4.7-2.6,6.7-2.6c1.1,0,2,0.2,2.8,0.7
		c0.8,0.4,1.5,1.2,2.3,2.2l2.9-10.4c0.2-0.7,0.4-1.3,0.5-1.8c0.2-0.8,0.4-1.4,0.4-2c0-0.4-0.1-0.8-0.4-1c-0.4-0.3-1-0.5-1.6-0.5
		c-0.4,0-1.2,0.1-2.3,0.2v-1.1L704.1,983.9z M693,1005.1c0-1.3-0.4-2.3-1.1-3.1c-0.7-0.8-1.7-1.1-2.8-1.1c-2.5,0-5.1,2.1-7.8,6.2
		s-4.1,8.1-4.1,11.8c0,1.5,0.3,2.6,1,3.4c0.7,0.8,1.4,1.2,2.3,1.2c2.1,0,4.7-2.2,7.8-6.7C691.5,1012.3,693,1008.4,693,1005.1z"/>
	<path class="st6" d="M708.8,1015.1c-0.1,1-0.2,1.8-0.2,2.4c0,1.8,0.6,3.3,1.9,4.5c1.2,1.2,2.8,1.9,4.6,1.9c1.4,0,2.8-0.3,4.1-0.9
		c1.3-0.6,3.3-1.9,5.9-3.9l0.6,0.9c-4.7,4.7-9.2,7-13.5,7c-2.9,0-5.1-0.9-6.5-2.7c-1.5-1.8-2.2-3.8-2.2-6c0-3,0.9-6,2.7-9.1
		c1.8-3.1,4.1-5.5,6.9-7.2c2.8-1.7,5.6-2.6,8.5-2.6c2.1,0,3.7,0.4,4.7,1.3c1,0.9,1.5,1.9,1.5,3c0,1.7-0.7,3.2-2,4.7
		c-1.7,2-4.3,3.6-7.6,4.8C716,1014,712.9,1014.6,708.8,1015.1z M709,1013.6c2.9-0.3,5.3-0.9,7.2-1.7c2.4-1.1,4.3-2.4,5.5-3.9
		s1.8-3,1.8-4.3c0-0.8-0.3-1.5-0.8-2c-0.5-0.5-1.3-0.8-2.2-0.8c-2,0-4.2,1.1-6.4,3.2C711.8,1006.2,710.1,1009.4,709,1013.6z"/>
	<path class="st6" d="M744.5,991.9l-2.3,8.1h4.7l-0.5,1.9h-4.6l-5.1,17.5c-0.5,1.9-0.8,3.1-0.8,3.7c0,0.3,0.1,0.6,0.2,0.8
		c0.1,0.2,0.3,0.3,0.6,0.3c0.5,0,1.1-0.4,2-1.1c0.5-0.4,1.6-1.6,3.2-3.7l1,0.8c-1.8,2.6-3.6,4.5-5.2,5.6c-1.1,0.7-2.2,1.1-3.4,1.1
		c-0.9,0-1.6-0.3-2.1-0.8c-0.6-0.5-0.8-1.2-0.8-2.1c0-1.1,0.3-2.7,0.9-4.9l5-17.2h-4.5l0.3-1.2c2.2-0.6,4-1.5,5.5-2.7
		c1.4-1.2,3.1-3.2,4.9-6.1H744.5z"/>
	<path class="st6" d="M774.2,999.3l-5.8,20.2l-0.7,2.7c0,0.2-0.1,0.5-0.1,0.6c0,0.3,0.1,0.6,0.3,0.9c0.1,0.2,0.3,0.3,0.6,0.3
		c0.2,0,0.6-0.2,1-0.5c0.8-0.6,1.8-1.8,3.1-3.6l1,0.7c-1.4,2.1-2.8,3.6-4.2,4.7s-2.8,1.6-4,1.6c-0.8,0-1.5-0.2-1.9-0.6
		c-0.4-0.4-0.6-1-0.6-1.9c0-1,0.2-2.3,0.7-3.8l0.6-2.3c-2.6,3.4-5,5.8-7.2,7.1c-1.6,1-3.1,1.4-4.6,1.4c-1.5,0-2.7-0.6-3.8-1.8
		c-1-1.2-1.6-2.8-1.6-4.9c0-3.2,0.9-6.5,2.8-10c1.9-3.5,4.3-6.3,7.2-8.4c2.3-1.7,4.4-2.5,6.4-2.5c1.2,0,2.3,0.3,3.1,1
		c0.8,0.6,1.4,1.7,1.8,3.2l1.1-3.4L774.2,999.3z M763.6,1000.8c-1.3,0-2.6,0.6-4,1.8c-2,1.7-3.9,4.2-5.4,7.5c-1.6,3.3-2.4,6.3-2.4,9
		c0,1.3,0.3,2.4,1,3.2c0.7,0.8,1.5,1.2,2.3,1.2c2.1,0,4.5-1.6,7-4.8c3.4-4.2,5.1-8.6,5.1-13.1c0-1.7-0.3-2.9-1-3.7
		C765.7,1001.2,764.8,1000.8,763.6,1000.8z"/>
	<path class="st6" d="M794.2,983.9l-10.2,35.5c-0.5,1.8-0.7,2.9-0.7,3.3c0,0.3,0.1,0.5,0.3,0.7c0.2,0.2,0.4,0.3,0.7,0.3
		c0.4,0,0.8-0.2,1.2-0.5c1-0.8,2.1-2.1,3.3-3.8l0.9,0.9c-1.9,2.7-3.6,4.5-5.2,5.6c-1.2,0.7-2.3,1.1-3.3,1.1c-0.7,0-1.4-0.3-1.9-0.8
		c-0.5-0.5-0.8-1.1-0.8-1.8c0-0.7,0.3-2.2,0.9-4.4l8.1-27.9c0.6-2.3,1-3.6,1-3.9c0-0.5-0.2-0.9-0.6-1.2c-0.4-0.3-1-0.5-1.8-0.5
		c-0.4,0-1.1,0.1-2.1,0.2v-1.1L794.2,983.9z"/>
	<path class="st6" d="M811.2,983.9l-10.2,35.5c-0.5,1.8-0.7,2.9-0.7,3.3c0,0.3,0.1,0.5,0.3,0.7c0.2,0.2,0.4,0.3,0.7,0.3
		c0.4,0,0.8-0.2,1.2-0.5c1-0.8,2.1-2.1,3.3-3.8l0.9,0.9c-1.9,2.7-3.6,4.5-5.2,5.6c-1.2,0.7-2.3,1.1-3.3,1.1c-0.7,0-1.4-0.3-1.9-0.8
		c-0.5-0.5-0.8-1.1-0.8-1.8c0-0.7,0.3-2.2,0.9-4.4l8.1-27.9c0.6-2.3,1-3.6,1-3.9c0-0.5-0.2-0.9-0.6-1.2c-0.4-0.3-1-0.5-1.8-0.5
		c-0.4,0-1.1,0.1-2.1,0.2v-1.1L811.2,983.9z"/>
	<path class="st6" d="M817.3,1015.1c-0.1,1-0.2,1.8-0.2,2.4c0,1.8,0.6,3.3,1.9,4.5c1.2,1.2,2.8,1.9,4.6,1.9c1.4,0,2.8-0.3,4.1-0.9
		c1.3-0.6,3.3-1.9,5.9-3.9l0.6,0.9c-4.7,4.7-9.2,7-13.5,7c-2.9,0-5.1-0.9-6.5-2.7c-1.5-1.8-2.2-3.8-2.2-6c0-3,0.9-6,2.7-9.1
		c1.8-3.1,4.1-5.5,6.9-7.2c2.8-1.7,5.6-2.6,8.5-2.6c2.1,0,3.7,0.4,4.7,1.3c1,0.9,1.5,1.9,1.5,3c0,1.7-0.7,3.2-2,4.7
		c-1.7,2-4.3,3.6-7.6,4.8C824.4,1014,821.3,1014.6,817.3,1015.1z M817.5,1013.6c2.9-0.3,5.3-0.9,7.2-1.7c2.4-1.1,4.3-2.4,5.5-3.9
		s1.8-3,1.8-4.3c0-0.8-0.3-1.5-0.8-2c-0.5-0.5-1.3-0.8-2.2-0.8c-2,0-4.2,1.1-6.4,3.2C820.2,1006.2,818.6,1009.4,817.5,1013.6z"/>
	<path class="st6" d="M875.9,1019.8c-2.1,2.5-4.2,4.3-6.3,5.4c-2.1,1.2-4.3,1.7-6.7,1.7c-2.8,0-5-0.8-6.6-2.4
		c-1.6-1.6-2.4-3.7-2.4-6.4c0-3,0.9-6,2.6-9c1.7-2.9,4-5.3,6.8-7.2c2.9-1.8,5.7-2.8,8.4-2.8c2.2,0,3.8,0.5,4.9,1.4
		c1.1,0.9,1.6,2,1.6,3.3c0,1.2-0.4,2.3-1.1,3.1c-0.5,0.7-1.2,1-2,1c-0.6,0-1.1-0.2-1.5-0.6c-0.4-0.4-0.6-0.9-0.6-1.5
		c0-0.4,0.1-0.7,0.2-1c0.1-0.3,0.5-0.7,0.9-1.1c0.5-0.4,0.8-0.8,0.9-1c0.1-0.2,0.1-0.4,0.1-0.6c0-0.4-0.2-0.8-0.6-1
		c-0.6-0.4-1.4-0.6-2.4-0.6c-1.9,0-3.9,0.7-5.8,2.1c-1.9,1.4-3.5,3.3-4.9,5.8c-1.6,3.1-2.4,6.1-2.4,9.2c0,2,0.6,3.6,1.7,4.8
		c1.2,1.2,2.7,1.8,4.7,1.8c1.5,0,3-0.4,4.6-1.1c1.5-0.8,3.2-2.1,5-4.1L875.9,1019.8z"/>
	<path class="st6" d="M907.6,1008.6c0,3-0.8,5.9-2.4,8.9c-1.6,2.9-3.8,5.2-6.6,6.9c-2.8,1.7-5.6,2.6-8.2,2.6c-2.7,0-4.9-0.9-6.7-2.6
		c-1.7-1.7-2.6-4-2.6-6.7c0-2.9,0.8-5.9,2.5-8.8c1.7-2.9,3.9-5.3,6.7-7c2.8-1.7,5.5-2.6,8.1-2.6c2.6,0,4.8,0.9,6.5,2.6
		C906.8,1003.6,907.6,1005.9,907.6,1008.6z M902.7,1006.6c0-1.9-0.5-3.3-1.4-4.3c-0.9-1-2.1-1.5-3.5-1.5c-2.9,0-5.6,2.1-8.1,6.3
		c-2.5,4.2-3.7,8.3-3.7,12.5c0,1.9,0.5,3.3,1.4,4.3c1,1,2.2,1.5,3.6,1.5c2.8,0,5.4-2.1,7.9-6.2
		C901.5,1015.1,902.7,1010.9,902.7,1006.6z"/>
	<path class="st6" d="M923.4,999.3l-4,13.6c3.7-5.6,6.5-9.2,8.5-11c2-1.8,3.9-2.6,5.7-2.6c1,0,1.8,0.3,2.4,1c0.6,0.7,1,1.5,1,2.6
		c0,1.2-0.3,2.8-0.9,4.8l-3.6,12.5c-0.4,1.5-0.6,2.3-0.6,2.7c0,0.3,0.1,0.5,0.2,0.7c0.2,0.2,0.3,0.3,0.5,0.3c0.2,0,0.5-0.1,0.9-0.4
		c1.1-0.8,2.2-2.1,3.5-3.8l0.9,0.6c-1.9,2.6-3.6,4.5-5.3,5.7c-1.2,0.8-2.2,1.1-3.1,1.1c-0.7,0-1.3-0.2-1.8-0.7
		c-0.4-0.4-0.6-1-0.6-1.8c0-1,0.3-2.6,1-4.9l3.5-12c0.4-1.5,0.6-2.6,0.6-3.5c0-0.4-0.1-0.7-0.4-1c-0.3-0.2-0.6-0.4-0.9-0.4
		c-0.5,0-1.2,0.2-2,0.7c-1.5,0.9-3,2.4-4.6,4.4c-1.6,2.1-3.3,4.7-5.1,7.9c-0.9,1.7-1.7,3.6-2.3,5.6l-1.5,4.9h-4.5l5.4-18.7
		c0.6-2.2,1-3.6,1-4c0-0.4-0.2-0.8-0.5-1.2c-0.4-0.3-0.8-0.5-1.3-0.5c-0.2,0-0.7,0-1.3,0.1l-1.1,0.1l-0.2-1.1L923.4,999.3z"/>
	<path class="st6" d="M969.2,999.3l-4,13.6c3.7-5.6,6.5-9.2,8.5-11c2-1.8,3.9-2.6,5.7-2.6c1,0,1.8,0.3,2.4,1c0.6,0.7,1,1.5,1,2.6
		c0,1.2-0.3,2.8-0.9,4.8l-3.6,12.5c-0.4,1.5-0.6,2.3-0.6,2.7c0,0.3,0.1,0.5,0.2,0.7c0.2,0.2,0.3,0.3,0.5,0.3c0.2,0,0.5-0.1,0.9-0.4
		c1.1-0.8,2.2-2.1,3.5-3.8l0.9,0.6c-1.9,2.6-3.6,4.5-5.3,5.7c-1.2,0.8-2.2,1.1-3.1,1.1c-0.7,0-1.3-0.2-1.8-0.7
		c-0.4-0.4-0.6-1-0.6-1.8c0-1,0.3-2.6,1-4.9l3.5-12c0.4-1.5,0.6-2.6,0.6-3.5c0-0.4-0.1-0.7-0.4-1c-0.3-0.2-0.6-0.4-0.9-0.4
		c-0.5,0-1.2,0.2-2,0.7c-1.5,0.9-3,2.4-4.6,4.4c-1.6,2.1-3.3,4.7-5.1,7.9c-0.9,1.7-1.7,3.6-2.3,5.6l-1.5,4.9h-4.5l5.4-18.7
		c0.6-2.2,1-3.6,1-4c0-0.4-0.2-0.8-0.5-1.2c-0.4-0.3-0.8-0.5-1.3-0.5c-0.2,0-0.7,0-1.3,0.1l-1.1,0.1l-0.2-1.1L969.2,999.3z"/>
	<path class="st6" d="M1014.4,1008.6c0,3-0.8,5.9-2.4,8.9s-3.8,5.2-6.6,6.9c-2.8,1.7-5.6,2.6-8.2,2.6c-2.7,0-4.9-0.9-6.7-2.6
		c-1.7-1.7-2.6-4-2.6-6.7c0-2.9,0.8-5.9,2.5-8.8c1.7-2.9,3.9-5.3,6.7-7c2.8-1.7,5.5-2.6,8.1-2.6c2.6,0,4.8,0.9,6.5,2.6
		C1013.5,1003.6,1014.4,1005.9,1014.4,1008.6z M1009.5,1006.6c0-1.9-0.5-3.3-1.4-4.3c-0.9-1-2.1-1.5-3.5-1.5c-2.9,0-5.6,2.1-8.1,6.3
		c-2.5,4.2-3.7,8.3-3.7,12.5c0,1.9,0.5,3.3,1.4,4.3c1,1,2.2,1.5,3.6,1.5c2.8,0,5.4-2.1,7.9-6.2
		C1008.2,1015.1,1009.5,1010.9,1009.5,1006.6z"/>
	<path class="st6" d="M1038.8,999.3l-1.8,9.2h-1.1c-0.1-2.7-0.7-4.6-1.7-5.8c-1-1.2-2.3-1.8-3.8-1.8c-1.2,0-2.2,0.3-2.9,1
		c-0.7,0.7-1.1,1.5-1.1,2.4c0,0.6,0.1,1.3,0.4,1.9c0.3,0.6,0.9,1.4,1.9,2.5c2.6,2.8,4.2,5,5,6.4c0.8,1.4,1.1,2.8,1.1,4.1
		c0,2.1-0.9,3.9-2.6,5.5c-1.7,1.6-3.9,2.4-6.5,2.4c-1.4,0-3.1-0.3-5-1c-0.6-0.2-1.1-0.4-1.5-0.4c-0.9,0-1.6,0.5-2,1.4h-1.1l1.8-9.7
		h1.1c0.1,3,0.7,5.2,1.9,6.4c1.1,1.2,2.7,1.9,4.7,1.9c1.5,0,2.7-0.4,3.6-1.3c0.9-0.8,1.3-1.9,1.3-3.1c0-0.8-0.2-1.5-0.5-2.2
		c-0.6-1.2-1.7-2.8-3.5-4.9c-1.8-2.1-2.9-3.7-3.4-4.7c-0.5-1-0.8-2.1-0.8-3.2c0-1.9,0.7-3.6,2.1-4.9c1.4-1.3,3.2-2,5.4-2
		c0.6,0,1.2,0,1.7,0.1c0.3,0.1,0.9,0.3,1.9,0.7c1,0.4,1.7,0.6,2.1,0.6c0.8,0,1.6-0.5,2.1-1.4H1038.8z"/>
	<path class="st6" d="M1068.6,1008.6c0,3-0.8,5.9-2.4,8.9s-3.8,5.2-6.6,6.9c-2.8,1.7-5.6,2.6-8.2,2.6c-2.7,0-4.9-0.9-6.7-2.6
		c-1.7-1.7-2.6-4-2.6-6.7c0-2.9,0.8-5.9,2.5-8.8c1.7-2.9,3.9-5.3,6.7-7c2.8-1.7,5.5-2.6,8.1-2.6c2.6,0,4.8,0.9,6.5,2.6
		C1067.8,1003.6,1068.6,1005.9,1068.6,1008.6z M1063.7,1006.6c0-1.9-0.5-3.3-1.4-4.3c-0.9-1-2.1-1.5-3.5-1.5c-2.9,0-5.6,2.1-8.1,6.3
		c-2.5,4.2-3.7,8.3-3.7,12.5c0,1.9,0.5,3.3,1.4,4.3c1,1,2.2,1.5,3.6,1.5c2.8,0,5.4-2.1,7.9-6.2
		C1062.5,1015.1,1063.7,1010.9,1063.7,1006.6z"/>
	<path class="st6" d="M1086.8,991.9l-2.3,8.1h4.7l-0.5,1.9h-4.6l-5.1,17.5c-0.5,1.9-0.8,3.1-0.8,3.7c0,0.3,0.1,0.6,0.2,0.8
		c0.1,0.2,0.3,0.3,0.6,0.3c0.5,0,1.1-0.4,2-1.1c0.5-0.4,1.6-1.6,3.2-3.7l1,0.8c-1.8,2.6-3.6,4.5-5.2,5.6c-1.1,0.7-2.2,1.1-3.4,1.1
		c-0.9,0-1.6-0.3-2.1-0.8c-0.6-0.5-0.8-1.2-0.8-2.1c0-1.1,0.3-2.7,0.9-4.9l5-17.2h-4.5l0.3-1.2c2.2-0.6,4-1.5,5.5-2.7
		c1.4-1.2,3.1-3.2,4.9-6.1H1086.8z"/>
	<path class="st6" d="M1091.1,1001l10.3-1.7l-4.3,14.5c3.5-5.9,6.6-10.1,9.5-12.5c1.6-1.4,2.9-2,3.9-2c0.7,0,1.2,0.2,1.6,0.6
		c0.4,0.4,0.6,1,0.6,1.7c0,1.3-0.3,2.6-1,3.7c-0.5,0.9-1.2,1.3-2.1,1.3c-0.4,0-0.8-0.1-1.2-0.4c-0.3-0.3-0.5-0.8-0.6-1.4
		c0-0.4-0.1-0.6-0.3-0.7c-0.2-0.1-0.4-0.2-0.6-0.2c-0.3,0-0.7,0.1-1,0.2c-0.5,0.3-1.3,1-2.4,2.3c-1.7,1.9-3.4,4.5-5.4,7.6
		c-0.8,1.3-1.5,2.8-2.1,4.4c-0.8,2.3-1.3,3.6-1.4,4.1l-1,3.7h-4.6l5.5-18.5c0.6-2.1,0.9-3.7,0.9-4.6c0-0.3-0.1-0.6-0.4-0.9
		c-0.4-0.3-0.9-0.5-1.6-0.5c-0.4,0-1.2,0.1-2.3,0.3L1091.1,1001z"/>
	<path class="st6" d="M1139.9,1008.6c0,3-0.8,5.9-2.4,8.9c-1.6,2.9-3.8,5.2-6.6,6.9c-2.8,1.7-5.6,2.6-8.2,2.6
		c-2.7,0-4.9-0.9-6.7-2.6c-1.7-1.7-2.6-4-2.6-6.7c0-2.9,0.8-5.9,2.5-8.8c1.7-2.9,3.9-5.3,6.7-7c2.8-1.7,5.5-2.6,8.1-2.6
		c2.6,0,4.8,0.9,6.5,2.6C1139,1003.6,1139.9,1005.9,1139.9,1008.6z M1134.9,1006.6c0-1.9-0.5-3.3-1.4-4.3c-0.9-1-2.1-1.5-3.5-1.5
		c-2.9,0-5.6,2.1-8.1,6.3c-2.5,4.2-3.7,8.3-3.7,12.5c0,1.9,0.5,3.3,1.4,4.3c1,1,2.2,1.5,3.6,1.5c2.8,0,5.4-2.1,7.9-6.2
		C1133.7,1015.1,1134.9,1010.9,1134.9,1006.6z"/>
	<path class="st6" d="M1164.3,999.3l-1.8,9.2h-1.1c-0.1-2.7-0.7-4.6-1.7-5.8c-1-1.2-2.3-1.8-3.8-1.8c-1.2,0-2.2,0.3-2.9,1
		c-0.7,0.7-1.1,1.5-1.1,2.4c0,0.6,0.1,1.3,0.4,1.9c0.3,0.6,0.9,1.4,1.9,2.5c2.6,2.8,4.2,5,5,6.4c0.8,1.4,1.1,2.8,1.1,4.1
		c0,2.1-0.9,3.9-2.6,5.5c-1.7,1.6-3.9,2.4-6.5,2.4c-1.4,0-3.1-0.3-5-1c-0.6-0.2-1.1-0.4-1.5-0.4c-0.9,0-1.6,0.5-2,1.4h-1.1l1.8-9.7
		h1.1c0.1,3,0.7,5.2,1.9,6.4c1.1,1.2,2.7,1.9,4.7,1.9c1.5,0,2.7-0.4,3.6-1.3c0.9-0.8,1.3-1.9,1.3-3.1c0-0.8-0.2-1.5-0.5-2.2
		c-0.6-1.2-1.7-2.8-3.5-4.9c-1.8-2.1-2.9-3.7-3.4-4.7c-0.5-1-0.8-2.1-0.8-3.2c0-1.9,0.7-3.6,2.1-4.9c1.4-1.3,3.2-2,5.4-2
		c0.6,0,1.2,0,1.7,0.1c0.3,0.1,0.9,0.3,1.9,0.7c1,0.4,1.7,0.6,2.1,0.6c0.8,0,1.6-0.5,2.1-1.4H1164.3z"/>
	<path class="st6" d="M1165.3,1033c1.5-0.7,2.7-1.5,3.6-2.6c0.7-0.8,1.1-1.6,1.1-2.3c0-0.4-0.1-0.7-0.2-1c-0.1-0.1-0.3-0.5-0.8-0.9
		c-0.5-0.5-0.7-0.8-0.8-1c-0.1-0.3-0.2-0.7-0.2-1.1c0-0.9,0.3-1.6,0.9-2.2c0.6-0.6,1.3-0.9,2.1-0.9c0.8,0,1.5,0.3,2.2,1
		c0.6,0.7,0.9,1.5,0.9,2.5c0,1.8-0.7,3.6-2.1,5.4s-3.4,3.2-6.1,4.2L1165.3,1033z"/>
	<path class="st6" d="M227.5,1100h1.1c-1,3.6-1.7,6.3-2.1,8.2c-0.4,1.9-0.8,4.4-1.3,7.4c-1,6.3-1.6,10-1.8,11
		c-0.4,1.8-1,3.2-1.9,4.1c-0.4,0.5-1,0.7-1.8,0.7c-0.5,0-1-0.2-1.4-0.7c-0.4-0.4-0.6-1-0.6-1.7c0-0.9,0.2-1.9,0.6-3.2
		c0.8-2.8,2.5-7.3,4.8-13.5c1.1-2.9,1.8-4.6,1.9-4.9C225.4,1106.5,226.2,1104,227.5,1100z M229.5,1089.1c0.8,0,1.6,0.3,2.1,0.9
		c0.6,0.6,0.9,1.3,0.9,2.2c0,0.8-0.3,1.6-0.9,2.1s-1.3,0.9-2.1,0.9c-0.9,0-1.6-0.3-2.2-0.9s-0.9-1.3-0.9-2.1c0-0.9,0.3-1.6,0.9-2.2
		C227.9,1089.4,228.6,1089.1,229.5,1089.1z"/>
	<path class="st6" d="M259.3,1091.3l-1.8,9.2h-1.1c-0.1-2.7-0.7-4.6-1.7-5.8c-1-1.2-2.3-1.8-3.8-1.8c-1.2,0-2.2,0.3-2.9,1
		c-0.7,0.7-1.1,1.5-1.1,2.4c0,0.6,0.1,1.3,0.4,1.9c0.3,0.6,0.9,1.4,1.9,2.5c2.6,2.8,4.2,5,5,6.4c0.8,1.4,1.1,2.8,1.1,4.1
		c0,2.1-0.9,3.9-2.6,5.5c-1.7,1.6-3.9,2.4-6.5,2.4c-1.4,0-3.1-0.3-5-1c-0.6-0.2-1.1-0.4-1.5-0.4c-0.9,0-1.6,0.5-2,1.4h-1.1l1.8-9.7
		h1.1c0.1,3,0.7,5.2,1.9,6.4c1.1,1.2,2.7,1.9,4.7,1.9c1.5,0,2.7-0.4,3.6-1.3c0.9-0.8,1.3-1.9,1.3-3.1c0-0.8-0.2-1.5-0.5-2.2
		c-0.6-1.2-1.7-2.8-3.5-4.9c-1.8-2.1-2.9-3.7-3.4-4.7c-0.5-1-0.8-2.1-0.8-3.2c0-1.9,0.7-3.6,2.1-4.9c1.4-1.3,3.2-2,5.4-2
		c0.6,0,1.2,0,1.7,0.1c0.3,0.1,0.9,0.3,1.9,0.7c1,0.4,1.7,0.6,2.1,0.6c0.8,0,1.6-0.5,2.1-1.4H259.3z"/>
	<path class="st6" d="M289.7,1092.1l-5.2,17.8c-0.8,2.6-1.1,4.3-1.1,5c0,0.3,0.1,0.6,0.2,0.8c0.1,0.2,0.3,0.3,0.5,0.3
		c0.3,0,0.7-0.2,1.1-0.5c0.4-0.3,1.4-1.5,3.1-3.7l0.9,0.7c-1.6,2.5-3.2,4.3-4.8,5.5c-1.1,0.7-2.1,1.1-3.1,1.1
		c-0.8,0-1.4-0.2-1.8-0.6c-0.4-0.4-0.6-1-0.6-1.7s0.1-1.6,0.4-2.7c0.3-1.5,1.2-4.7,2.7-9.6c-3.4,5.6-6.2,9.4-8.5,11.5
		c-2.3,2.1-4.4,3.1-6.3,3.1c-0.9,0-1.7-0.3-2.3-0.9c-0.6-0.6-1-1.4-1-2.4c0-1.5,0.4-3.8,1.3-6.8l2.6-9.2c0.6-2.2,0.9-3.6,0.9-4.1
		c0-0.2-0.1-0.4-0.2-0.6c-0.2-0.2-0.3-0.3-0.5-0.3c-0.4,0-0.8,0.1-1.3,0.4c-0.4,0.3-1.4,1.4-2.9,3.3l-0.9-0.6c1.5-2.3,3.1-4,4.7-5.1
		c1.3-0.9,2.5-1.3,3.5-1.3c0.7,0,1.3,0.2,1.8,0.7c0.5,0.5,0.7,1.1,0.7,1.8c0,1.1-0.4,3-1.2,5.7l-2.8,9.6c-0.8,2.6-1.1,4.3-1.1,5
		c0,0.4,0.1,0.7,0.4,0.9c0.2,0.2,0.6,0.4,1,0.4c0.6,0,1.5-0.3,2.6-1c1.1-0.7,2.5-2.1,4.2-4.4c1.8-2.3,3.2-4.4,4.3-6.3
		c1.1-2,2.4-5.1,3.6-9.4l0.7-2.3H289.7z"/>
	<path class="st6" d="M304.7,1091.3l-3.8,13.5c1.7-3.2,3.2-5.5,4.4-7.1c1.9-2.5,3.7-4.3,5.5-5.4c1.1-0.6,2.2-1,3.3-1
		c1,0,1.8,0.3,2.5,1s1,1.5,1,2.4c0,1-0.2,2.3-0.7,3.8l-2.1,7.6c3.2-6.1,6.3-10.3,9.2-12.8c1.6-1.4,3.2-2,4.7-2
		c0.9,0,1.7,0.3,2.3,0.9c0.6,0.6,0.9,1.6,0.9,2.9c0,1.2-0.2,2.4-0.6,3.7l-3.3,11.6c-0.7,2.5-1.1,3.9-1.1,4.2c0,0.3,0.1,0.5,0.3,0.7
		c0.1,0.1,0.3,0.2,0.5,0.2s0.5-0.2,1-0.6c1.1-0.9,2.2-2,3.2-3.5l1,0.6c-0.5,0.8-1.4,1.9-2.6,3.3c-1.3,1.4-2.3,2.3-3.2,2.8
		c-0.9,0.5-1.7,0.7-2.5,0.7c-0.7,0-1.3-0.2-1.8-0.7c-0.5-0.5-0.7-1-0.7-1.7c0-1,0.4-2.9,1.2-5.8l2.7-9.5c0.6-2.2,0.9-3.4,1-3.7
		c0.1-0.4,0.1-0.8,0.1-1.1c0-0.5-0.1-0.9-0.3-1.1c-0.2-0.3-0.5-0.4-0.8-0.4c-0.8,0-1.7,0.4-2.6,1.3c-2.8,2.5-5.3,6-7.7,10.6
		c-1.6,3-3,6.9-4.4,11.5h-4.5l5.1-18c0.5-1.9,0.8-3.2,0.8-3.9c0-0.5-0.1-0.9-0.3-1.2c-0.2-0.3-0.5-0.4-0.8-0.4
		c-0.7,0-1.4,0.2-2.1,0.7c-1.2,0.8-2.7,2.5-4.6,5c-1.9,2.5-3.3,5-4.4,7.3c-0.5,1.1-1.7,4.6-3.6,10.5h-4.4l5.5-19.3l0.7-2.5
		c0.1-0.4,0.2-0.7,0.2-0.9c0-0.4-0.2-0.8-0.6-1.2c-0.4-0.3-0.9-0.5-1.5-0.5c-0.3,0-1,0.1-2.1,0.4l-0.3-1.1L304.7,1091.3z"/>
	<path class="st6" d="M364.2,1091.3l-5.8,20.2l-0.7,2.7c0,0.2-0.1,0.5-0.1,0.6c0,0.3,0.1,0.6,0.3,0.9c0.1,0.2,0.3,0.3,0.6,0.3
		c0.2,0,0.6-0.2,1-0.5c0.8-0.6,1.8-1.8,3.1-3.6l1,0.7c-1.4,2.1-2.8,3.6-4.2,4.7c-1.5,1.1-2.8,1.6-4,1.6c-0.8,0-1.5-0.2-1.9-0.6
		c-0.4-0.4-0.6-1-0.6-1.9c0-1,0.2-2.3,0.7-3.8l0.6-2.3c-2.6,3.4-5,5.8-7.2,7.1c-1.6,1-3.1,1.4-4.6,1.4c-1.5,0-2.7-0.6-3.8-1.8
		c-1-1.2-1.6-2.8-1.6-4.9c0-3.2,0.9-6.5,2.8-10c1.9-3.5,4.3-6.3,7.2-8.4c2.3-1.7,4.4-2.5,6.4-2.5c1.2,0,2.3,0.3,3.1,1
		c0.8,0.6,1.4,1.7,1.8,3.2l1.1-3.4L364.2,1091.3z M353.6,1092.9c-1.3,0-2.6,0.6-4,1.8c-2,1.7-3.9,4.2-5.4,7.5
		c-1.6,3.3-2.4,6.3-2.4,9c0,1.3,0.3,2.4,1,3.2c0.7,0.8,1.5,1.2,2.3,1.2c2.1,0,4.5-1.6,7-4.8c3.4-4.2,5.1-8.6,5.1-13.1
		c0-1.7-0.3-2.9-1-3.7C355.6,1093.3,354.7,1092.9,353.6,1092.9z"/>
	<path class="st6" d="M398.8,1075.9l-8.5,29.3l3.4-2.9c3.7-3.2,6.1-5.5,7.2-7c0.4-0.5,0.6-0.9,0.6-1.1c0-0.2-0.1-0.4-0.2-0.5
		c-0.1-0.2-0.4-0.3-0.7-0.4c-0.3-0.1-0.9-0.1-1.8-0.1h-1l0.3-1.1h13l-0.3,1.1c-1.5,0.1-2.8,0.3-3.8,0.7c-1.1,0.4-2.1,1-3.1,1.7
		c-2,1.5-3.3,2.5-4,3.1l-2.6,2.3c0.4,1.4,0.9,3.4,1.6,6c1.1,4.3,1.8,6.8,2.2,7.6c0.4,0.8,0.8,1.2,1.1,1.2c0.3,0,0.8-0.2,1.2-0.5
		c1-0.7,2.1-1.9,3.3-3.6l1,0.7c-2.2,2.7-3.8,4.5-5,5.4c-1.1,0.9-2.2,1.3-3.2,1.3c-0.8,0-1.5-0.3-1.9-1c-0.8-1.2-2.1-5.8-4-13.9
		l-4.1,3.6l-3.1,10.6h-4.7l9.9-34l0.9-2.9c0.1-0.5,0.1-0.9,0.1-1.3c0-0.5-0.2-0.9-0.6-1.2c-0.4-0.3-0.9-0.5-1.6-0.5
		c-0.5,0-1.2,0.1-2.2,0.3v-1L398.8,1075.9z"/>
	<path class="st6" d="M422.4,1091.3l-5.9,20.9c-0.4,1.4-0.6,2.2-0.6,2.5c0,0.3,0.1,0.6,0.3,0.8c0.2,0.2,0.4,0.3,0.6,0.3
		c0.3,0,0.7-0.2,1.1-0.5c1.1-0.9,2.3-2.2,3.4-3.8l1,0.7c-1.4,2-2.9,3.8-4.8,5.2c-1.3,1-2.6,1.6-3.8,1.6c-0.8,0-1.5-0.2-2-0.7
		s-0.8-1.1-0.8-1.8c0-0.7,0.2-2,0.7-3.7l3.9-13.4c0.6-2.2,0.9-3.5,0.9-4.1c0-0.4-0.2-0.8-0.5-1.1c-0.3-0.3-0.7-0.4-1.2-0.4
		c-0.4,0-1.4,0.1-2.7,0.3v-1.1L422.4,1091.3z M422,1079.5c0.8,0,1.5,0.3,2.1,0.9c0.6,0.6,0.9,1.3,0.9,2.1c0,0.8-0.3,1.5-0.9,2.1
		c-0.6,0.6-1.3,0.9-2.1,0.9c-0.8,0-1.5-0.3-2.1-0.9c-0.6-0.6-0.9-1.3-0.9-2.1c0-0.8,0.3-1.5,0.9-2.1S421.2,1079.5,422,1079.5z"/>
	<path class="st6" d="M443.5,1075.9l-10.2,35.5c-0.5,1.8-0.7,2.9-0.7,3.3c0,0.3,0.1,0.5,0.3,0.7c0.2,0.2,0.4,0.3,0.7,0.3
		c0.4,0,0.8-0.2,1.2-0.5c1-0.8,2.1-2.1,3.3-3.8l0.9,0.9c-1.9,2.7-3.6,4.5-5.2,5.6c-1.2,0.7-2.3,1.1-3.3,1.1c-0.7,0-1.4-0.3-1.9-0.8
		c-0.5-0.5-0.8-1.1-0.8-1.8c0-0.7,0.3-2.2,0.9-4.4l8.1-27.9c0.6-2.3,1-3.6,1-3.9c0-0.5-0.2-0.9-0.6-1.2c-0.4-0.3-1-0.5-1.8-0.5
		c-0.4,0-1.1,0.1-2.1,0.2v-1.1L443.5,1075.9z"/>
	<path class="st6" d="M470.5,1100.7c0,3-0.8,5.9-2.4,8.9c-1.6,2.9-3.8,5.2-6.6,6.9c-2.8,1.7-5.6,2.6-8.2,2.6c-2.7,0-4.9-0.9-6.7-2.6
		c-1.7-1.7-2.6-4-2.6-6.7c0-2.9,0.8-5.9,2.5-8.8c1.7-2.9,3.9-5.3,6.7-7c2.8-1.7,5.5-2.6,8.1-2.6c2.6,0,4.8,0.9,6.5,2.6
		C469.6,1095.7,470.5,1097.9,470.5,1100.7z M465.6,1098.6c0-1.9-0.5-3.3-1.4-4.3c-0.9-1-2.1-1.5-3.5-1.5c-2.9,0-5.6,2.1-8.1,6.3
		c-2.5,4.2-3.7,8.3-3.7,12.5c0,1.9,0.5,3.3,1.4,4.3c1,1,2.2,1.5,3.6,1.5c2.8,0,5.4-2.1,7.9-6.2
		C464.3,1107.1,465.6,1102.9,465.6,1098.6z M469.3,1076.5l-8.7,10.3h-1l3.1-10.3H469.3z"/>
	<path class="st6" d="M486,1091.3l-3.8,13.5c1.7-3.2,3.2-5.5,4.4-7.1c1.9-2.5,3.7-4.3,5.5-5.4c1.1-0.6,2.2-1,3.3-1
		c1,0,1.8,0.3,2.5,1s1,1.5,1,2.4c0,1-0.2,2.3-0.7,3.8l-2.1,7.6c3.2-6.1,6.3-10.3,9.2-12.8c1.6-1.4,3.2-2,4.7-2
		c0.9,0,1.7,0.3,2.3,0.9c0.6,0.6,0.9,1.6,0.9,2.9c0,1.2-0.2,2.4-0.6,3.7l-3.3,11.6c-0.7,2.5-1.1,3.9-1.1,4.2c0,0.3,0.1,0.5,0.3,0.7
		c0.1,0.1,0.3,0.2,0.5,0.2s0.5-0.2,1-0.6c1.1-0.9,2.2-2,3.2-3.5l1,0.6c-0.5,0.8-1.4,1.9-2.6,3.3c-1.3,1.4-2.3,2.3-3.2,2.8
		c-0.9,0.5-1.7,0.7-2.5,0.7c-0.7,0-1.3-0.2-1.8-0.7c-0.5-0.5-0.7-1-0.7-1.7c0-1,0.4-2.9,1.2-5.8l2.7-9.5c0.6-2.2,0.9-3.4,1-3.7
		c0.1-0.4,0.1-0.8,0.1-1.1c0-0.5-0.1-0.9-0.3-1.1c-0.2-0.3-0.5-0.4-0.8-0.4c-0.8,0-1.7,0.4-2.6,1.3c-2.8,2.5-5.3,6-7.7,10.6
		c-1.6,3-3,6.9-4.4,11.5H488l5.1-18c0.5-1.9,0.8-3.2,0.8-3.9c0-0.5-0.1-0.9-0.3-1.2c-0.2-0.3-0.5-0.4-0.8-0.4
		c-0.7,0-1.4,0.2-2.1,0.7c-1.2,0.8-2.7,2.5-4.6,5c-1.9,2.5-3.3,5-4.4,7.3c-0.5,1.1-1.7,4.6-3.6,10.5h-4.4l5.5-19.3l0.7-2.5
		c0.1-0.4,0.2-0.7,0.2-0.9c0-0.4-0.2-0.8-0.6-1.2c-0.4-0.3-0.9-0.5-1.5-0.5c-0.3,0-1,0.1-2.1,0.4l-0.3-1.1L486,1091.3z"/>
	<path class="st6" d="M524.1,1107.1c-0.1,1-0.2,1.8-0.2,2.4c0,1.8,0.6,3.3,1.9,4.5c1.2,1.2,2.8,1.9,4.6,1.9c1.4,0,2.8-0.3,4.1-0.9
		c1.3-0.6,3.3-1.9,5.9-3.9l0.6,0.9c-4.7,4.7-9.2,7-13.5,7c-2.9,0-5.1-0.9-6.5-2.7c-1.5-1.8-2.2-3.8-2.2-6c0-3,0.9-6,2.7-9.1
		c1.8-3.1,4.1-5.5,6.9-7.2c2.8-1.7,5.6-2.6,8.5-2.6c2.1,0,3.7,0.4,4.7,1.3c1,0.9,1.5,1.9,1.5,3c0,1.7-0.7,3.2-2,4.7
		c-1.7,2-4.3,3.6-7.6,4.8C531.3,1106,528.2,1106.6,524.1,1107.1z M524.3,1105.6c2.9-0.3,5.3-0.9,7.2-1.7c2.4-1.1,4.3-2.4,5.5-3.9
		c1.2-1.5,1.8-3,1.8-4.3c0-0.8-0.3-1.5-0.8-2c-0.5-0.5-1.3-0.8-2.2-0.8c-2,0-4.2,1.1-6.4,3.2
		C527.1,1098.2,525.4,1101.4,524.3,1105.6z"/>
	<path class="st6" d="M559.8,1084l-2.3,8.1h4.7l-0.5,1.9H557l-5.1,17.5c-0.5,1.9-0.8,3.1-0.8,3.7c0,0.3,0.1,0.6,0.2,0.8
		c0.1,0.2,0.3,0.3,0.6,0.3c0.5,0,1.1-0.4,2-1.1c0.5-0.4,1.6-1.6,3.2-3.7l1,0.8c-1.8,2.6-3.6,4.5-5.2,5.6c-1.1,0.7-2.2,1.1-3.4,1.1
		c-0.9,0-1.6-0.3-2.1-0.8c-0.6-0.5-0.8-1.2-0.8-2.1c0-1.1,0.3-2.7,0.9-4.9l5-17.2h-4.5l0.3-1.2c2.2-0.6,4-1.5,5.5-2.7
		c1.4-1.2,3.1-3.2,4.9-6.1H559.8z"/>
	<path class="st6" d="M564.1,1093l10.3-1.7l-4.3,14.5c3.5-5.9,6.6-10.1,9.5-12.5c1.6-1.4,2.9-2,3.9-2c0.7,0,1.2,0.2,1.6,0.6
		c0.4,0.4,0.6,1,0.6,1.7c0,1.3-0.3,2.6-1,3.7c-0.5,0.9-1.2,1.3-2.1,1.3c-0.4,0-0.8-0.1-1.2-0.4c-0.3-0.3-0.5-0.8-0.6-1.4
		c0-0.4-0.1-0.6-0.3-0.7c-0.2-0.1-0.4-0.2-0.6-0.2c-0.3,0-0.7,0.1-1,0.2c-0.5,0.3-1.3,1-2.4,2.3c-1.7,1.9-3.4,4.5-5.4,7.6
		c-0.8,1.3-1.5,2.8-2.1,4.4c-0.8,2.3-1.3,3.6-1.4,4.1l-1,3.7h-4.6l5.5-18.5c0.6-2.1,0.9-3.7,0.9-4.6c0-0.3-0.1-0.6-0.4-0.9
		c-0.4-0.3-0.9-0.5-1.6-0.5c-0.4,0-1.2,0.1-2.3,0.3L564.1,1093z"/>
	<path class="st6" d="M612.9,1100.7c0,3-0.8,5.9-2.4,8.9c-1.6,2.9-3.8,5.2-6.6,6.9c-2.8,1.7-5.6,2.6-8.2,2.6c-2.7,0-4.9-0.9-6.7-2.6
		c-1.7-1.7-2.6-4-2.6-6.7c0-2.9,0.8-5.9,2.5-8.8c1.7-2.9,3.9-5.3,6.7-7c2.8-1.7,5.5-2.6,8.1-2.6c2.6,0,4.8,0.9,6.5,2.6
		C612,1095.7,612.9,1097.9,612.9,1100.7z M608,1098.6c0-1.9-0.5-3.3-1.4-4.3c-0.9-1-2.1-1.5-3.5-1.5c-2.9,0-5.6,2.1-8.1,6.3
		c-2.5,4.2-3.7,8.3-3.7,12.5c0,1.9,0.5,3.3,1.4,4.3c1,1,2.2,1.5,3.6,1.5c2.8,0,5.4-2.1,7.9-6.2C606.7,1107.1,608,1102.9,608,1098.6z
		"/>
	<path class="st6" d="M637.3,1091.3l-1.8,9.2h-1.1c-0.1-2.7-0.7-4.6-1.7-5.8c-1-1.2-2.3-1.8-3.8-1.8c-1.2,0-2.2,0.3-2.9,1
		c-0.7,0.7-1.1,1.5-1.1,2.4c0,0.6,0.1,1.3,0.4,1.9c0.3,0.6,0.9,1.4,1.9,2.5c2.6,2.8,4.2,5,5,6.4c0.8,1.4,1.1,2.8,1.1,4.1
		c0,2.1-0.9,3.9-2.6,5.5c-1.7,1.6-3.9,2.4-6.5,2.4c-1.4,0-3.1-0.3-5-1c-0.6-0.2-1.1-0.4-1.5-0.4c-0.9,0-1.6,0.5-2,1.4h-1.1l1.8-9.7
		h1.1c0.1,3,0.7,5.2,1.9,6.4c1.1,1.2,2.7,1.9,4.7,1.9c1.5,0,2.7-0.4,3.6-1.3c0.9-0.8,1.3-1.9,1.3-3.1c0-0.8-0.2-1.5-0.5-2.2
		c-0.6-1.2-1.7-2.8-3.5-4.9s-2.9-3.7-3.4-4.7c-0.5-1-0.8-2.1-0.8-3.2c0-1.9,0.7-3.6,2.1-4.9c1.4-1.3,3.2-2,5.4-2
		c0.6,0,1.2,0,1.7,0.1c0.3,0.1,0.9,0.3,1.9,0.7c1,0.4,1.7,0.6,2.1,0.6c0.8,0,1.6-0.5,2.1-1.4H637.3z"/>
	<path class="st6" d="M682.8,1091.3l-5.8,20.2l-0.7,2.7c0,0.2-0.1,0.5-0.1,0.6c0,0.3,0.1,0.6,0.3,0.9c0.1,0.2,0.3,0.3,0.6,0.3
		c0.2,0,0.6-0.2,1-0.5c0.8-0.6,1.8-1.8,3.1-3.6l1,0.7c-1.4,2.1-2.8,3.6-4.2,4.7s-2.8,1.6-4,1.6c-0.8,0-1.5-0.2-1.9-0.6
		s-0.6-1-0.6-1.9c0-1,0.2-2.3,0.7-3.8l0.6-2.3c-2.6,3.4-5,5.8-7.2,7.1c-1.6,1-3.1,1.4-4.6,1.4c-1.5,0-2.7-0.6-3.8-1.8
		c-1-1.2-1.6-2.8-1.6-4.9c0-3.2,0.9-6.5,2.8-10c1.9-3.5,4.3-6.3,7.2-8.4c2.3-1.7,4.4-2.5,6.4-2.5c1.2,0,2.3,0.3,3.1,1
		c0.8,0.6,1.4,1.7,1.8,3.2l1.1-3.4L682.8,1091.3z M672.2,1092.9c-1.3,0-2.6,0.6-4,1.8c-2,1.7-3.9,4.2-5.4,7.5
		c-1.6,3.3-2.4,6.3-2.4,9c0,1.3,0.3,2.4,1,3.2c0.7,0.8,1.5,1.2,2.3,1.2c2.1,0,4.5-1.6,7-4.8c3.4-4.2,5.1-8.6,5.1-13.1
		c0-1.7-0.3-2.9-1-3.7C674.2,1093.3,673.3,1092.9,672.2,1092.9z"/>
	<path class="st6" d="M713.4,1091.3l-4,13.6c3.7-5.6,6.5-9.2,8.5-11c2-1.8,3.9-2.6,5.7-2.6c1,0,1.8,0.3,2.4,1c0.6,0.7,1,1.5,1,2.6
		c0,1.2-0.3,2.8-0.9,4.8l-3.6,12.5c-0.4,1.5-0.6,2.3-0.6,2.7c0,0.3,0.1,0.5,0.2,0.7c0.2,0.2,0.3,0.3,0.5,0.3c0.2,0,0.5-0.1,0.9-0.4
		c1.1-0.8,2.2-2.1,3.5-3.8l0.9,0.6c-1.9,2.6-3.6,4.5-5.3,5.7c-1.2,0.8-2.2,1.1-3.1,1.1c-0.7,0-1.3-0.2-1.8-0.7s-0.6-1-0.6-1.8
		c0-1,0.3-2.6,1-4.9l3.5-12c0.4-1.5,0.6-2.6,0.6-3.5c0-0.4-0.1-0.7-0.4-1c-0.3-0.2-0.6-0.4-0.9-0.4c-0.5,0-1.2,0.2-2,0.7
		c-1.5,0.9-3,2.4-4.6,4.4c-1.6,2.1-3.3,4.7-5.1,7.9c-0.9,1.7-1.7,3.6-2.3,5.6l-1.5,4.9h-4.5l5.4-18.7c0.6-2.2,1-3.6,1-4
		c0-0.4-0.2-0.8-0.5-1.2c-0.4-0.3-0.8-0.5-1.3-0.5c-0.2,0-0.7,0-1.3,0.1l-1.1,0.1l-0.2-1.1L713.4,1091.3z"/>
	<path class="st6" d="M759.1,1092.1l-5.2,17.8c-0.8,2.6-1.1,4.3-1.1,5c0,0.3,0.1,0.6,0.2,0.8c0.1,0.2,0.3,0.3,0.5,0.3
		c0.3,0,0.7-0.2,1.1-0.5c0.4-0.3,1.4-1.5,3.1-3.7l0.9,0.7c-1.6,2.5-3.2,4.3-4.8,5.5c-1.1,0.7-2.1,1.1-3.1,1.1
		c-0.8,0-1.4-0.2-1.8-0.6c-0.4-0.4-0.6-1-0.6-1.7s0.1-1.6,0.4-2.7c0.3-1.5,1.2-4.7,2.7-9.6c-3.4,5.6-6.2,9.4-8.5,11.5
		c-2.3,2.1-4.4,3.1-6.3,3.1c-0.9,0-1.7-0.3-2.3-0.9c-0.6-0.6-1-1.4-1-2.4c0-1.5,0.4-3.8,1.3-6.8l2.6-9.2c0.6-2.2,0.9-3.6,0.9-4.1
		c0-0.2-0.1-0.4-0.2-0.6c-0.2-0.2-0.3-0.3-0.5-0.3c-0.4,0-0.8,0.1-1.3,0.4c-0.4,0.3-1.4,1.4-2.9,3.3l-0.9-0.6c1.5-2.3,3.1-4,4.7-5.1
		c1.3-0.9,2.5-1.3,3.5-1.3c0.7,0,1.3,0.2,1.8,0.7c0.5,0.5,0.7,1.1,0.7,1.8c0,1.1-0.4,3-1.2,5.7l-2.8,9.6c-0.8,2.6-1.1,4.3-1.1,5
		c0,0.4,0.1,0.7,0.4,0.9c0.2,0.2,0.6,0.4,1,0.4c0.6,0,1.5-0.3,2.6-1c1.1-0.7,2.5-2.1,4.2-4.4c1.8-2.3,3.2-4.4,4.3-6.3
		c1.1-2,2.4-5.1,3.6-9.4l0.7-2.3H759.1z"/>
	<path class="st6" d="M768.2,1107.1c-0.1,1-0.2,1.8-0.2,2.4c0,1.8,0.6,3.3,1.9,4.5c1.2,1.2,2.8,1.9,4.6,1.9c1.4,0,2.8-0.3,4.1-0.9
		c1.3-0.6,3.3-1.9,5.9-3.9l0.6,0.9c-4.7,4.7-9.2,7-13.5,7c-2.9,0-5.1-0.9-6.5-2.7c-1.5-1.8-2.2-3.8-2.2-6c0-3,0.9-6,2.7-9.1
		c1.8-3.1,4.1-5.5,6.9-7.2c2.8-1.7,5.6-2.6,8.5-2.6c2.1,0,3.7,0.4,4.7,1.3c1,0.9,1.5,1.9,1.5,3c0,1.7-0.7,3.2-2,4.7
		c-1.7,2-4.3,3.6-7.6,4.8C775.4,1106,772.2,1106.6,768.2,1107.1z M768.4,1105.6c2.9-0.3,5.3-0.9,7.2-1.7c2.4-1.1,4.3-2.4,5.5-3.9
		c1.2-1.5,1.8-3,1.8-4.3c0-0.8-0.3-1.5-0.8-2c-0.5-0.5-1.3-0.8-2.2-0.8c-2,0-4.2,1.1-6.4,3.2
		C771.2,1098.2,769.5,1101.4,768.4,1105.6z"/>
	<path class="st6" d="M810.2,1091.3l-1.8,9.2h-1.1c-0.1-2.7-0.7-4.6-1.7-5.8c-1-1.2-2.3-1.8-3.8-1.8c-1.2,0-2.2,0.3-2.9,1
		c-0.7,0.7-1.1,1.5-1.1,2.4c0,0.6,0.1,1.3,0.4,1.9c0.3,0.6,0.9,1.4,1.9,2.5c2.6,2.8,4.2,5,5,6.4c0.8,1.4,1.1,2.8,1.1,4.1
		c0,2.1-0.9,3.9-2.6,5.5c-1.7,1.6-3.9,2.4-6.5,2.4c-1.4,0-3.1-0.3-5-1c-0.6-0.2-1.1-0.4-1.5-0.4c-0.9,0-1.6,0.5-2,1.4h-1.1l1.8-9.7
		h1.1c0.1,3,0.7,5.2,1.9,6.4c1.1,1.2,2.7,1.9,4.7,1.9c1.5,0,2.7-0.4,3.6-1.3c0.9-0.8,1.3-1.9,1.3-3.1c0-0.8-0.2-1.5-0.5-2.2
		c-0.6-1.2-1.7-2.8-3.5-4.9s-2.9-3.7-3.4-4.7c-0.5-1-0.8-2.1-0.8-3.2c0-1.9,0.7-3.6,2.1-4.9c1.4-1.3,3.2-2,5.4-2
		c0.6,0,1.2,0,1.7,0.1c0.3,0.1,0.9,0.3,1.9,0.7c1,0.4,1.7,0.6,2.1,0.6c0.8,0,1.6-0.5,2.1-1.4H810.2z"/>
	<path class="st6" d="M827.6,1084l-2.3,8.1h4.7l-0.5,1.9h-4.6l-5.1,17.5c-0.5,1.9-0.8,3.1-0.8,3.7c0,0.3,0.1,0.6,0.2,0.8
		c0.1,0.2,0.3,0.3,0.6,0.3c0.5,0,1.1-0.4,2-1.1c0.5-0.4,1.6-1.6,3.2-3.7l1,0.8c-1.8,2.6-3.6,4.5-5.2,5.6c-1.1,0.7-2.2,1.1-3.4,1.1
		c-0.9,0-1.6-0.3-2.1-0.8c-0.6-0.5-0.8-1.2-0.8-2.1c0-1.1,0.3-2.7,0.9-4.9l5-17.2h-4.5l0.3-1.2c2.2-0.6,4-1.5,5.5-2.7
		c1.4-1.2,3.1-3.2,4.9-6.1H827.6z"/>
	<path class="st6" d="M831.9,1093l10.3-1.7l-4.3,14.5c3.5-5.9,6.6-10.1,9.5-12.5c1.6-1.4,2.9-2,3.9-2c0.7,0,1.2,0.2,1.6,0.6
		c0.4,0.4,0.6,1,0.6,1.7c0,1.3-0.3,2.6-1,3.7c-0.5,0.9-1.2,1.3-2.1,1.3c-0.4,0-0.8-0.1-1.2-0.4c-0.3-0.3-0.5-0.8-0.6-1.4
		c0-0.4-0.1-0.6-0.3-0.7c-0.2-0.1-0.4-0.2-0.6-0.2c-0.3,0-0.7,0.1-1,0.2c-0.5,0.3-1.3,1-2.4,2.3c-1.7,1.9-3.4,4.5-5.4,7.6
		c-0.8,1.3-1.5,2.8-2.1,4.4c-0.8,2.3-1.3,3.6-1.4,4.1l-1,3.7H830l5.5-18.5c0.6-2.1,0.9-3.7,0.9-4.6c0-0.3-0.1-0.6-0.4-0.9
		c-0.4-0.3-0.9-0.5-1.6-0.5c-0.4,0-1.2,0.1-2.3,0.3L831.9,1093z"/>
	<path class="st6" d="M880.7,1100.7c0,3-0.8,5.9-2.4,8.9c-1.6,2.9-3.8,5.2-6.6,6.9c-2.8,1.7-5.6,2.6-8.2,2.6c-2.7,0-4.9-0.9-6.7-2.6
		c-1.7-1.7-2.6-4-2.6-6.7c0-2.9,0.8-5.9,2.5-8.8c1.7-2.9,3.9-5.3,6.7-7c2.8-1.7,5.5-2.6,8.1-2.6c2.6,0,4.8,0.9,6.5,2.6
		C879.9,1095.7,880.7,1097.9,880.7,1100.7z M875.8,1098.6c0-1.9-0.5-3.3-1.4-4.3c-0.9-1-2.1-1.5-3.5-1.5c-2.9,0-5.6,2.1-8.1,6.3
		c-2.5,4.2-3.7,8.3-3.7,12.5c0,1.9,0.5,3.3,1.4,4.3c1,1,2.2,1.5,3.6,1.5c2.8,0,5.4-2.1,7.9-6.2
		C874.5,1107.1,875.8,1102.9,875.8,1098.6z"/>
	<path class="st6" d="M899.5,1093.2l8.6-1.9c0.6,1.5,1.1,3,1.5,4.5c0.5,2.2,1,4.9,1.3,8c0.1,1.6,0.4,4.8,0.6,9.8
		c2.5-2.7,4-4.4,4.4-5.1c2.6-3.6,4.2-5.6,4.6-6.3c0.6-1.1,1.1-2,1.4-2.8c0.2-0.6,0.3-1.2,0.3-1.7c0-0.5-0.5-1.1-1.4-1.8
		c-0.9-0.7-1.4-1.4-1.4-2.3c0-0.6,0.3-1.2,0.8-1.7c0.5-0.5,1.1-0.8,1.8-0.8c0.8,0,1.6,0.3,2.2,1c0.6,0.7,0.9,1.5,0.9,2.6
		c0,1-0.2,2-0.5,2.9c-0.5,1.5-1.4,3.3-2.9,5.5c-1.4,2.2-3.7,5.1-6.8,8.8c-0.4,0.4-2.6,2.7-6.6,6.9h-1.1c-0.5-12.6-1.5-20.4-3-23.5
		c-0.5-1-1.3-1.5-2.5-1.5c-0.5,0-1.2,0.1-2.1,0.3L899.5,1093.2z"/>
	<path class="st6" d="M939.4,1091.3l-5.9,20.9c-0.4,1.4-0.6,2.2-0.6,2.5c0,0.3,0.1,0.6,0.3,0.8c0.2,0.2,0.4,0.3,0.6,0.3
		c0.3,0,0.7-0.2,1.1-0.5c1.1-0.9,2.3-2.2,3.4-3.8l1,0.7c-1.4,2-2.9,3.8-4.8,5.2c-1.3,1-2.6,1.6-3.8,1.6c-0.8,0-1.5-0.2-2-0.7
		c-0.5-0.5-0.8-1.1-0.8-1.8c0-0.7,0.2-2,0.7-3.7l3.9-13.4c0.6-2.2,0.9-3.5,0.9-4.1c0-0.4-0.2-0.8-0.5-1.1c-0.3-0.3-0.7-0.4-1.2-0.4
		c-0.4,0-1.4,0.1-2.7,0.3v-1.1L939.4,1091.3z M939,1079.5c0.8,0,1.5,0.3,2.1,0.9c0.6,0.6,0.9,1.3,0.9,2.1c0,0.8-0.3,1.5-0.9,2.1
		c-0.6,0.6-1.3,0.9-2.1,0.9c-0.8,0-1.5-0.3-2.1-0.9c-0.6-0.6-0.9-1.3-0.9-2.1c0-0.8,0.3-1.5,0.9-2.1S938.2,1079.5,939,1079.5z"/>
	<path class="st6" d="M970.9,1091.3l-5.8,20.2l-0.7,2.7c0,0.2-0.1,0.5-0.1,0.6c0,0.3,0.1,0.6,0.3,0.9c0.1,0.2,0.3,0.3,0.6,0.3
		s0.6-0.2,1-0.5c0.8-0.6,1.8-1.8,3.1-3.6l1,0.7c-1.4,2.1-2.8,3.6-4.2,4.7s-2.8,1.6-4,1.6c-0.8,0-1.5-0.2-1.9-0.6s-0.6-1-0.6-1.9
		c0-1,0.2-2.3,0.7-3.8l0.6-2.3c-2.6,3.4-5,5.8-7.2,7.1c-1.6,1-3.1,1.4-4.6,1.4c-1.5,0-2.7-0.6-3.8-1.8c-1-1.2-1.6-2.8-1.6-4.9
		c0-3.2,0.9-6.5,2.8-10c1.9-3.5,4.3-6.3,7.2-8.4c2.3-1.7,4.4-2.5,6.4-2.5c1.2,0,2.3,0.3,3.1,1c0.8,0.6,1.4,1.7,1.8,3.2l1.1-3.4
		L970.9,1091.3z M960.3,1092.9c-1.3,0-2.6,0.6-4,1.8c-2,1.7-3.9,4.2-5.4,7.5c-1.6,3.3-2.4,6.3-2.4,9c0,1.3,0.3,2.4,1,3.2
		c0.7,0.8,1.5,1.2,2.3,1.2c2.1,0,4.5-1.6,7-4.8c3.4-4.2,5.1-8.6,5.1-13.1c0-1.7-0.3-2.9-1-3.7
		C962.3,1093.3,961.4,1092.9,960.3,1092.9z"/>
	<path class="st6" d="M987.2,1091.3l-7.7,26.7c-1.4,4.8-3.3,8.2-5.7,10.3c-2.4,2.1-5,3.2-7.7,3.2c-1.3,0-2.2-0.3-2.9-0.9
		c-0.6-0.6-1-1.3-1-2.1c0-0.6,0.2-1.2,0.7-1.6c0.5-0.5,1-0.7,1.7-0.7c0.6,0,1.1,0.2,1.5,0.6c0.3,0.3,0.5,0.7,0.5,1
		c0,0.5-0.2,1-0.7,1.3c-0.3,0.2-0.4,0.4-0.4,0.6l0.1,0.1c0,0.1,0.1,0.1,0.3,0.2c0.1,0,0.3,0.1,0.5,0.1c1.6,0,3-0.5,4.1-1.5
		c1.1-1,2.1-3.1,3-6.1l6.7-22.9c0.6-2.2,1-3.5,1-3.7c0-0.5-0.2-0.9-0.6-1.3c-0.4-0.4-1-0.6-1.6-0.6c-0.2,0-0.5,0-0.9,0.1
		c-0.3,0-0.7,0.1-1.1,0.2v-1.1L987.2,1091.3z M986.8,1079.6c0.8,0,1.5,0.3,2.1,0.9c0.6,0.6,0.9,1.3,0.9,2.1c0,0.8-0.3,1.5-0.9,2.1
		s-1.3,0.9-2.1,0.9c-0.8,0-1.6-0.3-2.1-0.9c-0.6-0.6-0.9-1.3-0.9-2.1c0-0.8,0.3-1.5,0.9-2.1C985.2,1079.8,985.9,1079.6,986.8,1079.6
		z"/>
	<path class="st6" d="M997,1107.1c-0.1,1-0.2,1.8-0.2,2.4c0,1.8,0.6,3.3,1.9,4.5c1.2,1.2,2.8,1.9,4.6,1.9c1.4,0,2.8-0.3,4.1-0.9
		c1.3-0.6,3.3-1.9,5.9-3.9l0.6,0.9c-4.7,4.7-9.2,7-13.5,7c-2.9,0-5.1-0.9-6.5-2.7c-1.5-1.8-2.2-3.8-2.2-6c0-3,0.9-6,2.7-9.1
		c1.8-3.1,4.1-5.5,6.9-7.2c2.8-1.7,5.6-2.6,8.5-2.6c2.1,0,3.7,0.4,4.7,1.3c1,0.9,1.5,1.9,1.5,3c0,1.7-0.7,3.2-2,4.7
		c-1.7,2-4.3,3.6-7.6,4.8C1004.2,1106,1001,1106.6,997,1107.1z M997.2,1105.6c2.9-0.3,5.3-0.9,7.2-1.7c2.4-1.1,4.3-2.4,5.5-3.9
		c1.2-1.5,1.8-3,1.8-4.3c0-0.8-0.3-1.5-0.8-2c-0.5-0.5-1.3-0.8-2.2-0.8c-2,0-4.2,1.1-6.4,3.2C1000,1098.2,998.3,1101.4,997.2,1105.6
		z"/>
	<path class="st6" d="M1024.5,1113.2c0.9,0,1.6,0.3,2.2,0.9c0.6,0.6,0.9,1.3,0.9,2.1s-0.3,1.6-0.9,2.2c-0.6,0.6-1.3,0.9-2.2,0.9
		c-0.8,0-1.6-0.3-2.1-0.9c-0.6-0.6-0.9-1.3-0.9-2.2s0.3-1.6,0.9-2.1C1022.9,1113.5,1023.6,1113.2,1024.5,1113.2z M1026.5,1108.5
		h-1.1c1-3.6,1.7-6.3,2.1-8.2c0.4-1.9,0.8-4.4,1.3-7.4c1-6.3,1.6-10,1.8-11.1c0.4-1.8,1-3.1,2-4.1c0.4-0.5,1-0.7,1.7-0.7
		c0.6,0,1,0.2,1.4,0.7c0.4,0.4,0.6,1,0.6,1.8c0,0.8-0.2,1.8-0.6,3.1c-0.8,2.7-2.4,7.2-4.8,13.5c-1.2,3-1.8,4.6-1.9,5
		C1028.5,1102.1,1027.7,1104.6,1026.5,1108.5z"/>
</g>
<text transform="matrix(1 0 0 1 2455.3733 844.9384)"><tspan x="0" y="0" style="font-family:'Vijaya'; font-size:74.1271px;">El regalo es opcional, </tspan><tspan x="-35.7" y="90" style="font-family:'Vijaya'; font-size:74.1271px;">la asistencia obligatoria. </tspan><tspan x="-272.7" y="180" style="font-family:'Vijaya'; font-size:74.1271px;">Pero si quieres tener un detalle con nosotros,</tspan><tspan x="-131.8" y="270" style="font-family:'Vijaya'; font-size:74.1271px;">suma kilmetros a nuestro viaje!</tspan></text>
<g>
	<path class="st6" d="M185.8,1227.1v17.9h9.9c2.6,0,4.3-0.4,5.2-1.2c1.2-1,1.8-2.8,1.9-5.4h1.2v15.8h-1.2c-0.3-2.2-0.6-3.6-1-4.2
		c-0.4-0.8-1-1.4-1.9-1.9c-0.9-0.4-2.3-0.7-4.2-0.7h-9.9v14.9c0,2,0.1,3.2,0.2,3.7c0.2,0.4,0.5,0.8,0.9,1c0.5,0.2,1.3,0.4,2.6,0.4
		h7.7c2.5,0,4.4-0.2,5.6-0.5s2.3-1,3.4-2.1c1.4-1.4,2.8-3.5,4.2-6.3h1.3l-3.9,11.4h-34.9v-1.2h1.6c1.1,0,2.1-0.2,3.1-0.7
		c0.7-0.4,1.2-0.9,1.4-1.6c0.3-0.7,0.4-2.2,0.4-4.4v-29.4c0-2.8-0.3-4.6-0.9-5.3c-0.8-0.9-2.1-1.3-4-1.3h-1.6v-1.2h34.9l0.5,10H207
		c-0.5-2.4-1-4.1-1.6-4.9c-0.6-0.9-1.4-1.6-2.5-2c-0.9-0.3-2.5-0.5-4.7-0.5H185.8z"/>
	<path class="st6" d="M244.6,1223.5v15.7h-1.2c-0.4-3-1.1-5.4-2.1-7.2c-1-1.8-2.5-3.2-4.4-4.2c-1.9-1.1-3.9-1.6-6-1.6
		c-2.3,0-4.2,0.7-5.7,2.1c-1.5,1.4-2.3,3-2.3,4.8c0,1.4,0.5,2.6,1.5,3.8c1.4,1.7,4.7,3.9,9.8,6.7c4.2,2.3,7.1,4,8.7,5.2
		c1.5,1.2,2.7,2.6,3.6,4.3c0.8,1.6,1.2,3.4,1.2,5.2c0,3.4-1.3,6.4-4,8.9c-2.7,2.5-6.1,3.7-10.2,3.7c-1.3,0-2.6-0.1-3.7-0.3
		c-0.7-0.1-2.1-0.5-4.3-1.2c-2.2-0.7-3.5-1.1-4.1-1.1c-0.6,0-1,0.2-1.3,0.5c-0.3,0.3-0.6,1-0.7,2.1H218v-15.5h1.2
		c0.6,3.2,1.4,5.7,2.3,7.3c1,1.6,2.5,3,4.5,4c2,1.1,4.2,1.6,6.6,1.6c2.8,0,5-0.7,6.6-2.2c1.6-1.5,2.4-3.2,2.4-5.2
		c0-1.1-0.3-2.2-0.9-3.4c-0.6-1.1-1.6-2.2-2.9-3.2c-0.9-0.7-3.2-2.1-7.1-4.3c-3.9-2.2-6.6-3.9-8.3-5.2c-1.6-1.3-2.9-2.7-3.7-4.3
		c-0.8-1.6-1.3-3.3-1.3-5.1c0-3.3,1.2-6.1,3.7-8.4c2.5-2.3,5.7-3.5,9.5-3.5c2.4,0,4.9,0.6,7.6,1.8c1.2,0.6,2.1,0.8,2.7,0.8
		c0.6,0,1-0.2,1.4-0.5c0.4-0.3,0.7-1,0.9-2.1H244.6z"/>
	<path class="st6" d="M283.1,1253.1v4.8H277v11.9h-5.5v-11.9h-19.2v-4.3l21-30h3.7v29.5H283.1z M271.5,1253.1v-22.4l-15.9,22.4
		H271.5z"/>
	<path class="st6" d="M315.1,1224.6l-2.6,5.7h-13.6l-2.9,6.1c5.9,0.9,10.6,3,14,6.6c3,3,4.4,6.6,4.4,10.7c0,2.4-0.5,4.6-1.5,6.6
		c-1,2-2.2,3.8-3.6,5.2c-1.5,1.4-3.1,2.6-4.9,3.4c-2.5,1.2-5.2,1.8-7.9,1.8c-2.7,0-4.7-0.5-5.9-1.4c-1.2-0.9-1.8-1.9-1.8-3.1
		c0-0.6,0.3-1.2,0.8-1.6c0.5-0.5,1.2-0.7,1.9-0.7c0.6,0,1.1,0.1,1.5,0.3c0.4,0.2,1.2,0.6,2.2,1.4c1.7,1.1,3.4,1.7,5.1,1.7
		c2.6,0,4.9-1,6.8-2.9c2-2,2.9-4.4,2.9-7.2c0-2.7-0.9-5.3-2.6-7.7c-1.8-2.4-4.2-4.2-7.3-5.5c-2.4-1-5.7-1.6-9.9-1.7l8.7-17.6H315.1z
		"/>
	<path class="st6" d="M339.2,1247.5c0-5.2,0.8-9.6,2.3-13.4c1.5-3.7,3.6-6.5,6.2-8.3c2-1.4,4.1-2.2,6.2-2.2c3.5,0,6.6,1.8,9.4,5.3
		c3.5,4.4,5.2,10.3,5.2,17.8c0,5.3-0.8,9.7-2.3,13.4c-1.5,3.7-3.5,6.3-5.8,8s-4.6,2.5-6.8,2.5c-4.3,0-7.9-2.5-10.8-7.6
		C340.4,1258.7,339.2,1253.6,339.2,1247.5z M345.7,1248.3c0,6.2,0.8,11.3,2.3,15.3c1.3,3.3,3.2,5,5.7,5c1.2,0,2.4-0.5,3.7-1.6
		c1.3-1.1,2.3-2.9,2.9-5.4c1-3.8,1.5-9.2,1.5-16.2c0-5.1-0.5-9.4-1.6-12.9c-0.8-2.6-1.8-4.4-3.1-5.4c-0.9-0.7-2-1.1-3.3-1.1
		c-1.5,0-2.9,0.7-4.1,2c-1.6,1.9-2.7,4.8-3.3,8.7C346,1240.6,345.7,1244.5,345.7,1248.3z"/>
	<path class="st6" d="M378.9,1229l11-5.3h1.1v38.2c0,2.5,0.1,4.1,0.3,4.7c0.2,0.6,0.7,1.1,1.3,1.5s2,0.5,4.1,0.6v1.2h-17v-1.2
		c2.1,0,3.5-0.2,4.1-0.5c0.6-0.3,1.1-0.8,1.3-1.3s0.4-2.2,0.4-4.9v-24.5c0-3.3-0.1-5.4-0.3-6.3c-0.2-0.7-0.5-1.2-0.9-1.6
		c-0.4-0.3-0.9-0.5-1.5-0.5c-0.8,0-2,0.3-3.4,1L378.9,1229z"/>
	<path class="st6" d="M418.2,1247c-3.6-2.9-5.9-5.3-6.9-7.1c-1-1.8-1.6-3.6-1.6-5.5c0-2.9,1.1-5.5,3.4-7.6c2.3-2.1,5.3-3.2,9-3.2
		c3.6,0,6.6,1,8.8,3c2.2,2,3.3,4.2,3.3,6.8c0,1.7-0.6,3.4-1.8,5.2c-1.2,1.8-3.7,3.8-7.5,6.2c3.9,3,6.5,5.4,7.8,7.2
		c1.7,2.3,2.5,4.7,2.5,7.2c0,3.2-1.2,5.9-3.6,8.2s-5.6,3.4-9.6,3.4c-4.3,0-7.6-1.3-10-4c-1.9-2.2-2.9-4.5-2.9-7.1c0-2,0.7-4,2-6
		C412.5,1251.6,414.9,1249.4,418.2,1247z M419.7,1248.3c-1.9,1.5-3.2,3.2-4.1,5.1s-1.3,3.8-1.3,6c0,2.9,0.8,5.2,2.3,6.9
		c1.6,1.7,3.6,2.6,6,2.6c2.4,0,4.3-0.7,5.8-2s2.2-3,2.2-4.9c0-1.6-0.4-3-1.3-4.3C427.7,1255.2,424.5,1252.1,419.7,1248.3z
		 M423.4,1243.5c2.7-2.4,4.3-4.3,5.1-5.7c0.7-1.4,1.1-3,1.1-4.7c0-2.3-0.7-4.2-2-5.5c-1.3-1.3-3.1-2-5.4-2c-2.3,0-4.1,0.7-5.5,2
		c-1.4,1.3-2.1,2.8-2.1,4.6c0,1.2,0.3,2.3,0.9,3.5c0.6,1.2,1.4,2.3,2.5,3.3L423.4,1243.5z"/>
	<path class="st6" d="M470.6,1261.1l-3.2,8.7h-26.7v-1.2c7.9-7.2,13.4-13,16.6-17.5c3.2-4.5,4.8-8.7,4.8-12.4c0-2.9-0.9-5.2-2.6-7.1
		c-1.8-1.9-3.9-2.8-6.3-2.8c-2.2,0-4.2,0.6-6,1.9s-3.1,3.2-3.9,5.7H442c0.6-4.1,2-7.3,4.3-9.5c2.3-2.2,5.2-3.3,8.6-3.3
		c3.7,0,6.7,1.2,9.2,3.5c2.5,2.4,3.7,5.1,3.7,8.3c0,2.3-0.5,4.6-1.6,6.9c-1.6,3.6-4.3,7.4-8,11.4c-5.5,6.1-9,9.7-10.4,10.9h11.8
		c2.4,0,4.1-0.1,5.1-0.2c1-0.2,1.8-0.5,2.6-1.1c0.8-0.6,1.5-1.3,2-2.3H470.6z"/>
	<path class="st6" d="M494,1233.2c1.3-3,2.9-5.4,4.9-7.1c2-1.7,4.4-2.5,7.4-2.5c3.6,0,6.4,1.2,8.3,3.5c1.5,1.8,2.2,3.6,2.2,5.6
		c0,3.3-2.1,6.7-6.2,10.2c2.8,1.1,4.9,2.6,6.3,4.7c1.4,2,2.1,4.4,2.1,7.2c0,3.9-1.2,7.3-3.7,10.2c-3.2,3.7-7.9,5.6-14.1,5.6
		c-3,0-5.1-0.4-6.2-1.1c-1.1-0.7-1.7-1.6-1.7-2.4c0-0.6,0.3-1.2,0.8-1.7c0.5-0.5,1.1-0.7,1.9-0.7c0.6,0,1.1,0.1,1.7,0.3
		c0.4,0.1,1.3,0.5,2.6,1.2c1.3,0.7,2.3,1.1,2.8,1.2c0.8,0.2,1.7,0.4,2.7,0.4c2.3,0,4.2-0.9,5.9-2.6c1.7-1.8,2.5-3.8,2.5-6.2
		c0-1.7-0.4-3.5-1.2-5.1c-0.6-1.2-1.2-2.2-1.9-2.8c-0.9-0.9-2.2-1.7-3.9-2.4c-1.7-0.7-3.4-1.1-5.1-1.1h-1.1v-1
		c1.8-0.2,3.5-0.9,5.3-1.9c1.8-1.1,3.1-2.3,3.9-3.8c0.8-1.5,1.2-3.1,1.2-4.8c0-2.3-0.7-4.2-2.2-5.6c-1.4-1.4-3.2-2.1-5.4-2.1
		c-3.5,0-6.3,1.9-8.7,5.6L494,1233.2z"/>
	<path class="st6" d="M556.5,1253.1v4.8h-6.1v11.9h-5.5v-11.9h-19.2v-4.3l21-30h3.7v29.5H556.5z M544.9,1253.1v-22.4l-15.9,22.4
		H544.9z"/>
	<path class="st6" d="M562.3,1233.2c1.3-3,2.9-5.4,4.9-7.1c2-1.7,4.4-2.5,7.4-2.5c3.6,0,6.4,1.2,8.3,3.5c1.5,1.8,2.2,3.6,2.2,5.6
		c0,3.3-2.1,6.7-6.2,10.2c2.8,1.1,4.9,2.6,6.3,4.7c1.4,2,2.1,4.4,2.1,7.2c0,3.9-1.2,7.3-3.7,10.2c-3.2,3.7-7.9,5.6-14.1,5.6
		c-3,0-5.1-0.4-6.2-1.1c-1.1-0.7-1.7-1.6-1.7-2.4c0-0.6,0.3-1.2,0.8-1.7c0.5-0.5,1.1-0.7,1.9-0.7c0.6,0,1.1,0.1,1.7,0.3
		c0.4,0.1,1.3,0.5,2.6,1.2c1.3,0.7,2.3,1.1,2.8,1.2c0.8,0.2,1.7,0.4,2.7,0.4c2.3,0,4.2-0.9,5.9-2.6c1.7-1.8,2.5-3.8,2.5-6.2
		c0-1.7-0.4-3.5-1.2-5.1c-0.6-1.2-1.2-2.2-1.9-2.8c-0.9-0.9-2.2-1.7-3.9-2.4c-1.7-0.7-3.4-1.1-5.1-1.1h-1.1v-1
		c1.8-0.2,3.5-0.9,5.3-1.9c1.8-1.1,3.1-2.3,3.9-3.8c0.8-1.5,1.2-3.1,1.2-4.8c0-2.3-0.7-4.2-2.2-5.6c-1.4-1.4-3.2-2.1-5.4-2.1
		c-3.5,0-6.3,1.9-8.7,5.6L562.3,1233.2z"/>
	<path class="st6" d="M595.5,1247.5c0-5.2,0.8-9.6,2.3-13.4c1.5-3.7,3.6-6.5,6.2-8.3c2-1.4,4.1-2.2,6.2-2.2c3.5,0,6.6,1.8,9.4,5.3
		c3.5,4.4,5.2,10.3,5.2,17.8c0,5.3-0.8,9.7-2.3,13.4c-1.5,3.7-3.5,6.3-5.8,8s-4.6,2.5-6.8,2.5c-4.3,0-7.9-2.5-10.8-7.6
		C596.7,1258.7,595.5,1253.6,595.5,1247.5z M602,1248.3c0,6.2,0.8,11.3,2.3,15.3c1.3,3.3,3.2,5,5.7,5c1.2,0,2.4-0.5,3.7-1.6
		c1.3-1.1,2.3-2.9,2.9-5.4c1-3.8,1.5-9.2,1.5-16.2c0-5.1-0.5-9.4-1.6-12.9c-0.8-2.6-1.8-4.4-3.1-5.4c-0.9-0.7-2-1.1-3.3-1.1
		c-1.5,0-2.9,0.7-4.1,2c-1.6,1.9-2.7,4.8-3.3,8.7C602.3,1240.6,602,1244.5,602,1248.3z"/>
	<path class="st6" d="M646.8,1247.5c0-5.2,0.8-9.6,2.3-13.4c1.5-3.7,3.6-6.5,6.2-8.3c2-1.4,4-2.2,6.2-2.2c3.5,0,6.6,1.8,9.4,5.3
		c3.5,4.4,5.2,10.3,5.2,17.8c0,5.3-0.8,9.7-2.3,13.4c-1.5,3.7-3.5,6.3-5.8,8c-2.4,1.7-4.6,2.5-6.8,2.5c-4.3,0-7.9-2.5-10.8-7.6
		C648,1258.7,646.8,1253.6,646.8,1247.5z M653.3,1248.3c0,6.2,0.8,11.3,2.3,15.3c1.3,3.3,3.2,5,5.7,5c1.2,0,2.4-0.5,3.7-1.6
		c1.3-1.1,2.3-2.9,2.9-5.4c1-3.8,1.5-9.2,1.5-16.2c0-5.1-0.5-9.4-1.6-12.9c-0.8-2.6-1.8-4.4-3.1-5.4c-0.9-0.7-2-1.1-3.3-1.1
		c-1.5,0-2.9,0.7-4.1,2c-1.6,1.9-2.7,4.8-3.3,8.7C653.6,1240.6,653.3,1244.5,653.3,1248.3z"/>
	<path class="st6" d="M710.3,1253.1v4.8h-6.1v11.9h-5.5v-11.9h-19.2v-4.3l21-30h3.7v29.5H710.3z M698.7,1253.1v-22.4l-15.9,22.4
		H698.7z"/>
	<path class="st6" d="M715.1,1247.5c0-5.2,0.8-9.6,2.3-13.4c1.5-3.7,3.6-6.5,6.2-8.3c2-1.4,4-2.2,6.2-2.2c3.5,0,6.6,1.8,9.4,5.3
		c3.5,4.4,5.2,10.3,5.2,17.8c0,5.3-0.8,9.7-2.3,13.4c-1.5,3.7-3.5,6.3-5.8,8c-2.4,1.7-4.6,2.5-6.8,2.5c-4.3,0-7.9-2.5-10.8-7.6
		C716.3,1258.7,715.1,1253.6,715.1,1247.5z M721.6,1248.3c0,6.2,0.8,11.3,2.3,15.3c1.3,3.3,3.2,5,5.7,5c1.2,0,2.4-0.5,3.7-1.6
		c1.3-1.1,2.3-2.9,2.9-5.4c1-3.8,1.5-9.2,1.5-16.2c0-5.1-0.5-9.4-1.6-12.9c-0.8-2.6-1.8-4.4-3.1-5.4c-0.9-0.7-2-1.1-3.3-1.1
		c-1.5,0-2.9,0.7-4.1,2c-1.6,1.9-2.7,4.8-3.3,8.7C721.9,1240.6,721.6,1244.5,721.6,1248.3z"/>
	<path class="st6" d="M778.2,1261.1l-3.2,8.7h-26.7v-1.2c7.9-7.2,13.4-13,16.6-17.5c3.2-4.5,4.8-8.7,4.8-12.4c0-2.9-0.9-5.2-2.6-7.1
		c-1.8-1.9-3.9-2.8-6.3-2.8c-2.2,0-4.2,0.6-6,1.9c-1.8,1.3-3.1,3.2-3.9,5.7h-1.2c0.6-4.1,2-7.3,4.3-9.5s5.2-3.3,8.6-3.3
		c3.7,0,6.7,1.2,9.2,3.5c2.5,2.4,3.7,5.1,3.7,8.3c0,2.3-0.5,4.6-1.6,6.9c-1.6,3.6-4.3,7.4-8,11.4c-5.5,6.1-9,9.7-10.4,10.9h11.8
		c2.4,0,4.1-0.1,5.1-0.2s1.8-0.5,2.6-1.1c0.8-0.6,1.5-1.3,2-2.3H778.2z"/>
	<path class="st6" d="M800.5,1247.5c0-5.2,0.8-9.6,2.3-13.4c1.5-3.7,3.6-6.5,6.2-8.3c2-1.4,4-2.2,6.2-2.2c3.5,0,6.6,1.8,9.4,5.3
		c3.5,4.4,5.2,10.3,5.2,17.8c0,5.3-0.8,9.7-2.3,13.4c-1.5,3.7-3.5,6.3-5.8,8c-2.4,1.7-4.6,2.5-6.8,2.5c-4.3,0-7.9-2.5-10.8-7.6
		C801.8,1258.7,800.5,1253.6,800.5,1247.5z M807.1,1248.3c0,6.2,0.8,11.3,2.3,15.3c1.3,3.3,3.2,5,5.7,5c1.2,0,2.4-0.5,3.7-1.6
		c1.3-1.1,2.3-2.9,2.9-5.4c1-3.8,1.5-9.2,1.5-16.2c0-5.1-0.5-9.4-1.6-12.9c-0.8-2.6-1.8-4.4-3.1-5.4c-0.9-0.7-2-1.1-3.3-1.1
		c-1.5,0-2.9,0.7-4.1,2c-1.6,1.9-2.7,4.8-3.3,8.7C807.3,1240.6,807.1,1244.5,807.1,1248.3z"/>
	<path class="st6" d="M863.6,1261.1l-3.2,8.7h-26.7v-1.2c7.9-7.2,13.4-13,16.6-17.5c3.2-4.5,4.8-8.7,4.8-12.4c0-2.9-0.9-5.2-2.6-7.1
		c-1.8-1.9-3.9-2.8-6.3-2.8c-2.2,0-4.2,0.6-6,1.9c-1.8,1.3-3.1,3.2-3.9,5.7H835c0.6-4.1,2-7.3,4.3-9.5s5.2-3.3,8.6-3.3
		c3.7,0,6.7,1.2,9.2,3.5c2.5,2.4,3.7,5.1,3.7,8.3c0,2.3-0.5,4.6-1.6,6.9c-1.6,3.6-4.3,7.4-8,11.4c-5.5,6.1-9,9.7-10.4,10.9h11.8
		c2.4,0,4.1-0.1,5.1-0.2s1.8-0.5,2.6-1.1c0.8-0.6,1.5-1.3,2-2.3H863.6z"/>
	<path class="st6" d="M874.4,1229l11-5.3h1.1v38.2c0,2.5,0.1,4.1,0.3,4.7c0.2,0.6,0.7,1.1,1.3,1.5c0.7,0.3,2,0.5,4.1,0.6v1.2h-17
		v-1.2c2.1,0,3.5-0.2,4.1-0.5s1.1-0.8,1.3-1.3c0.2-0.5,0.4-2.2,0.4-4.9v-24.5c0-3.3-0.1-5.4-0.3-6.3c-0.2-0.7-0.5-1.2-0.9-1.6
		c-0.4-0.3-0.9-0.5-1.5-0.5c-0.8,0-2,0.3-3.4,1L874.4,1229z"/>
	<path class="st6" d="M913.7,1247c-3.6-2.9-5.9-5.3-6.9-7.1c-1-1.8-1.6-3.6-1.6-5.5c0-2.9,1.1-5.5,3.4-7.6c2.3-2.1,5.3-3.2,9-3.2
		c3.7,0,6.6,1,8.8,3c2.2,2,3.3,4.2,3.3,6.8c0,1.7-0.6,3.4-1.8,5.2c-1.2,1.8-3.7,3.8-7.5,6.2c3.9,3,6.5,5.4,7.8,7.2
		c1.7,2.3,2.5,4.7,2.5,7.2c0,3.2-1.2,5.9-3.6,8.2c-2.4,2.3-5.6,3.4-9.6,3.4c-4.3,0-7.6-1.3-10-4c-1.9-2.2-2.9-4.5-2.9-7.1
		c0-2,0.7-4,2-6C908.1,1251.6,910.4,1249.4,913.7,1247z M915.3,1248.3c-1.9,1.5-3.2,3.2-4.1,5.1c-0.9,1.8-1.3,3.8-1.3,6
		c0,2.9,0.8,5.2,2.3,6.9c1.6,1.7,3.6,2.6,6,2.6c2.4,0,4.3-0.7,5.8-2c1.5-1.4,2.2-3,2.2-4.9c0-1.6-0.4-3-1.3-4.3
		C923.3,1255.2,920.1,1252.1,915.3,1248.3z M919,1243.5c2.7-2.4,4.3-4.3,5.1-5.7s1.1-3,1.1-4.7c0-2.3-0.7-4.2-2-5.5
		c-1.3-1.3-3.1-2-5.4-2c-2.3,0-4.1,0.7-5.5,2c-1.4,1.3-2.1,2.8-2.1,4.6c0,1.2,0.3,2.3,0.9,3.5c0.6,1.2,1.4,2.3,2.5,3.3L919,1243.5z"
		/>
	<path class="st6" d="M955.5,1270.8v-1.2c2.9-0.1,5.6-0.7,8.1-2c2.5-1.3,4.9-3.6,7.2-6.8c2.3-3.2,3.9-6.8,4.9-10.7
		c-3.5,2.2-6.6,3.4-9.5,3.4c-3.2,0-5.9-1.2-8.2-3.7c-2.3-2.5-3.4-5.7-3.4-9.8c0-4,1.1-7.5,3.4-10.6c2.7-3.8,6.3-5.6,10.7-5.6
		c3.7,0,6.9,1.5,9.5,4.6c3.2,3.8,4.9,8.5,4.9,14.1c0,5-1.2,9.7-3.7,14.1c-2.5,4.3-5.9,7.9-10.3,10.8c-3.6,2.4-7.5,3.6-11.7,3.6
		H955.5z M976.1,1247.5c0.4-2.9,0.6-5.2,0.6-6.9c0-2.2-0.4-4.5-1.1-7c-0.7-2.5-1.8-4.4-3.1-5.8c-1.3-1.3-2.9-2-4.6-2
		c-2,0-3.7,0.9-5.2,2.7c-1.5,1.8-2.2,4.4-2.2,7.9c0,4.7,1,8.4,3,11c1.4,1.9,3.2,2.9,5.4,2.9c1,0,2.2-0.2,3.6-0.7
		S975.1,1248.4,976.1,1247.5z"/>
	<path class="st6" d="M1017.4,1261.1l-3.2,8.7h-26.7v-1.2c7.9-7.2,13.4-13,16.6-17.5c3.2-4.5,4.8-8.7,4.8-12.4
		c0-2.9-0.9-5.2-2.6-7.1c-1.8-1.9-3.9-2.8-6.3-2.8c-2.2,0-4.2,0.6-6,1.9c-1.8,1.3-3.1,3.2-3.9,5.7h-1.2c0.6-4.1,2-7.3,4.3-9.5
		s5.2-3.3,8.6-3.3c3.7,0,6.7,1.2,9.2,3.5c2.5,2.4,3.7,5.1,3.7,8.3c0,2.3-0.5,4.6-1.6,6.9c-1.6,3.6-4.3,7.4-8,11.4
		c-5.5,6.1-9,9.7-10.4,10.9h11.8c2.4,0,4.1-0.1,5.1-0.2s1.8-0.5,2.6-1.1c0.8-0.6,1.5-1.3,2-2.3H1017.4z"/>
	<path class="st6" d="M1027.1,1224.6h24.3v1.3l-15.1,45h-3.7l13.5-40.8h-12.4c-2.5,0-4.3,0.3-5.4,0.9c-1.9,1-3.3,2.6-4.5,4.8l-1-0.4
		L1027.1,1224.6z"/>
	<path class="st6" d="M1062.4,1229l11-5.3h1.1v38.2c0,2.5,0.1,4.1,0.3,4.7c0.2,0.6,0.7,1.1,1.3,1.5c0.7,0.3,2,0.5,4.1,0.6v1.2h-17
		v-1.2c2.1,0,3.5-0.2,4.1-0.5s1.1-0.8,1.3-1.3c0.2-0.5,0.4-2.2,0.4-4.9v-24.5c0-3.3-0.1-5.4-0.3-6.3c-0.2-0.7-0.5-1.2-0.9-1.6
		c-0.4-0.3-0.9-0.5-1.5-0.5c-0.8,0-2,0.3-3.4,1L1062.4,1229z"/>
</g>
</svg>
